<svg height="300" viewBox="0 0 496 496" width="300" xmlns="http://www.w3.org/2000/svg" version="1.1" xmlns:xlink="http://www.w3.org/1999/xlink" xmlns:svgjs="http://svgjs.dev/svgjs"><g transform="matrix(1,0,0,1,0,0)"><path d="m256 210.703125c0-19.335937-13.816406-35.878906-32.847656-39.351563l-55.152344-10.03125v-15.441406c14.609375-11.742187 24-29.71875 24-49.878906v-32c0-35.289062-28.710938-64-64-64s-64 28.710938-64 64v32c0 20.160156 9.390625 38.144531 24 49.878906v15.441406l-55.160156 10.03125c-19.023438 3.472657-32.839844 20.015626-32.839844 39.351563v125.296875h256zm-82.871094-32.183594-9.863281 39.449219-23.289063-18.632812 22.710938-22.710938zm-45.824218 69.480469h1.382812l6.542969 72h-14.46875zm4.414062-16h-7.4375l-8.167969-12.246094 11.886719-9.507812 11.886719 9.507812zm-3.71875-216c26.390625 0 47.863281 21.40625 47.992188 47.777344-8.792969-.5625-17-4.097656-23.289063-10.386719l-8.703125-8.703125-8.703125 8.703125c-6.839844 6.839844-15.9375 10.609375-25.617187 10.609375h-29.679688c0-26.472656 21.527344-48 48-48zm-48 80v-16h29.679688c12.753906 0 24.808593-4.535156 34.320312-12.847656 8.921875 7.800781 20.121094 12.121094 32 12.648437v16.199219c0 26.472656-21.527344 48-48 48s-48-21.527344-48-48zm48 64c8.488281 0 16.585938-1.695312 24-4.710938v9.398438l-24 24-24-24v-9.398438c7.414062 3.015626 15.511719 4.710938 24 4.710938zm-34.6875 16.625 22.710938 22.710938-23.289063 18.632812-9.863281-39.449219zm-77.3125 34.078125c0-11.597656 8.289062-21.527344 19.703125-23.613281l31.394531-5.707032 16.160156 64.648438 20.308594-16.246094 8.203125 12.304688-7.074219 77.910156h-40.695312v-80h-16v80h-32zm224 109.296875h-32v-80h-16v80h-40.695312l-7.082032-77.910156 8.203125-12.304688 20.308594 16.246094 16.160156-64.648438 31.394531 5.707032c11.421876 2.078125 19.710938 12.015625 19.710938 23.613281zm0 0" fill="#ffffffff" data-original-color="#000000ff"/><path d="m368 64c4.40625 0 8 3.585938 8 8h16c0-10.414062-6.710938-19.214844-16-22.527344v-17.472656h-16v16h-16v24c0 13.230469 10.769531 24 24 24 4.40625 0 8 3.585938 8 8v8h-8c-4.40625 0-8-3.585938-8-8h-16c0 10.414062 6.710938 19.214844 16 22.527344v17.472656h16v-16h16v-24c0-13.230469-10.769531-24-24-24-4.40625 0-8-3.585938-8-8v-8zm0 0" fill="#ffffffff" data-original-color="#000000ff"/><path d="m456 352v-160h-16v-32h-21.558594c22.671875-15.9375 37.558594-42.238281 37.558594-72 0-48.519531-39.480469-88-88-88s-88 39.480469-88 88c0 29.761719 14.886719 56.0625 37.558594 72h-21.558594v32h-16v160h-40v144h256v-144zm-160-264c0-39.703125 32.304688-72 72-72s72 32.296875 72 72-32.304688 72-72 72-72-32.296875-72-72zm16 88h112v16h-112zm-16 32h144v144h-144zm48 272h-32v-80h32zm80 0h-32v-80h32zm56 0h-40v-96h-64v96h-16v-96h-64v96h-40v-112h224zm0 0" fill="#ffffffff" data-original-color="#000000ff"/><path d="m312 224v112h112v-112zm96 48h-32v-32h32zm-48-32v32h-32v-32zm-32 48h32v32h-32zm48 32v-32h32v32zm0 0" fill="#ffffffff" data-original-color="#000000ff"/><path d="m160 384h-160v16h176v-14.609375l35.703125 30.609375-35.703125 30.609375v-14.609375h-176v16h160v33.390625l76.296875-65.390625-76.296875-65.390625zm0 0" fill="#ffffffff" data-original-color="#000000ff"/><path d="m0 352h16v16h-16zm0 0" fill="#ffffffff" data-original-color="#000000ff"/><path d="m32 352h16v16h-16zm0 0" fill="#ffffffff" data-original-color="#000000ff"/><path d="m64 352h16v16h-16zm0 0" fill="#ffffffff" data-original-color="#000000ff"/><path d="m0 464h16v16h-16zm0 0" fill="#ffffffff" data-original-color="#000000ff"/><path d="m32 464h16v16h-16zm0 0" fill="#ffffffff" data-original-color="#000000ff"/><path d="m64 464h16v16h-16zm0 0" fill="#ffffffff" data-original-color="#000000ff"/></g></svg>