<svg id="Layer_1" viewBox="0 0 512 512" xmlns="http://www.w3.org/2000/svg" data-name="Layer 1" width="300" height="300" version="1.1" xmlns:xlink="http://www.w3.org/1999/xlink" xmlns:svgjs="http://svgjs.dev/svgjs"><g transform="matrix(1,0,0,1,0,0)"><path d="m310.17 232.115c0 3.867-3.135 7.001-7.001 7.001h-72.142c-3.867 0-7.001-3.135-7.001-7.001s3.135-7.001 7.001-7.001h72.142c3.867 0 7.001 3.135 7.001 7.001zm-86.145-26.703c0 3.867 3.135 7.001 7.001 7.001h110.608c3.867 0 7.001-3.135 7.001-7.001s-3.135-7.001-7.001-7.001h-110.608c-3.867 0-7.001 3.135-7.001 7.001zm-54.68-132.35h75.146c3.867 0 7.001-3.135 7.001-7.001s-3.135-7.001-7.001-7.001h-75.146c-3.867 0-7.001 3.135-7.001 7.001s3.135 7.001 7.001 7.001zm51.374 25.409c19.876-19.877 52.218-19.877 72.094 0 19.846 19.878 19.846 52.215.004 72.089l-.004.004c-9.938 9.938-22.993 14.908-36.047 14.908s-26.109-4.969-36.047-14.908c-19.876-19.876-19.876-52.217 0-72.093zm18.741 27.229c.009 4.374 2.006 8.579 5.444 11.509 4.195 3.623 8.426 4.017 11.226 4.278 2.144.2 2.627.294 3.358.921.217.186.58.558.58.954s-.363.768-.58.954c-1.398 1.202-4.046 1.202-5.444 0-.044-.038-.067-.057-.112-.093-.037-.034-.07-.071-.102-.107-2.589-2.871-7.016-3.101-9.889-.511-2.872 2.589-3.1 7.017-.511 9.889.51.565 1.018 1.056 1.549 1.497 1.443 1.228 3.068 2.172 4.785 2.865v2.316c0 3.867 3.135 7.001 7.001 7.001s7.001-3.135 7.001-7.001v-2.317c1.742-.703 3.388-1.664 4.846-2.917 3.468-2.979 5.458-7.198 5.458-11.575 0-4.376-1.989-8.595-5.461-11.579-4.181-3.587-8.394-3.979-11.182-4.239-2.147-.2-2.632-.294-3.407-.963-.208-.178-.558-.532-.559-.91 0-.292.206-.629.58-.951 1.399-1.202 4.046-1.202 5.445 0 .034.029.068.058.103.086 2.571 2.882 6.99 3.139 9.876.572 2.89-2.569 3.151-6.994.582-9.884-.484-.545-.996-1.039-1.52-1.469-1.437-1.219-3.054-2.156-4.762-2.845v-2.316c0-3.867-3.135-7.001-7.001-7.001s-7.001 3.135-7.001 7.001v2.316c-1.742.703-3.388 1.665-4.847 2.918-3.477 2.988-5.466 7.216-5.458 11.602zm222.562 254.066-23.813 9.667c-2.173.883-4.423 1.301-6.637 1.301-6.986 0-13.616-4.164-16.402-11.021l-5.024-12.365-17.913 7.267c4.187 8.086 4.313 17.844-.459 25.945-3.599 6.142-9.41 10.527-16.354 12.334-.395.103-.791.196-1.187.281 2.153 6.949 1.497 14.745-2.462 21.499-5.276 9.002-15.05 13.76-24.823 13.156.513 5.403-.604 11.011-3.552 16.041-6.218 10.572-18.978 15.372-30.403 12.209.053 4.689-1.109 9.432-3.613 13.701-3.607 6.155-9.418 10.538-16.362 12.342-2.255.586-4.54.876-6.806.876-4.709 0-9.344-1.251-13.496-3.697l-8.723-5.116c-5.15 5.506-12.337 8.513-19.671 8.513-4.608 0-9.27-1.183-13.518-3.672-4.871-2.832-8.633-7.058-10.888-12.137-4.408 2.884-9.581 4.421-14.827 4.421-4.593 0-9.239-1.174-13.475-3.643-4.97-2.913-8.778-7.248-11.014-12.447-2.552 1.599-5.381 2.795-8.386 3.492-2.052.477-4.105.712-6.127.712-4.892 0-9.604-1.378-13.689-4.056-6.062-3.604-10.382-9.352-12.176-16.207-1.076-4.112-1.158-8.32-.3-12.351-.19.004-.379.016-.569.016-5.397 0-10.796-1.488-15.393-4.2-10.602-6.256-17.817-20.101-8.605-35.715l11.939-20.208c-2.405-6.467-6.246-11.044-11.469-13.57l-14.016-5.741-5.005 12.319c-1.773 4.364-5.145 7.78-9.495 9.618-2.217.937-4.551 1.405-6.884 1.405-2.246 0-4.492-.435-6.633-1.304l-23.809-9.666c-9.026-3.667-13.386-13.99-9.721-23.012l55.304-136.148c3.685-9.024 14.006-13.379 23.012-9.72l10.546 4.294v-183.134c0-12.708 10.351-23.045 23.074-23.045h148.536c.073 0 .143.009.215.011.085.003.169.007.253.013.277.018.549.05.816.099.026.005.052.007.078.012.306.06.603.145.893.243.055.019.109.04.164.06.268.099.528.211.779.34.027.014.055.025.082.039.272.145.53.309.779.487.055.039.109.081.163.122.238.18.467.372.68.581.009.009.02.016.03.025 3.023 3 74.033 73.466 75.136 74.569.222.222.423.463.614.713.042.055.083.109.123.165.179.25.346.508.491.781.01.018.017.038.027.056.135.257.25.525.352.8.021.055.042.11.061.166.1.292.187.591.248.899.002.013.003.025.006.038.054.279.087.566.107.856.006.083.01.165.012.249.002.077.012.153.012.231v124.635l10.572-4.299c4.345-1.774 9.148-1.736 13.513.113 4.349 1.841 7.722 5.248 9.496 9.594l55.309 136.16c3.665 9.022-.695 19.345-9.719 23.011zm-53.778-115.903-5.103-12.558c-1.456-3.582-5.538-5.309-9.122-3.851-3.583 1.456-5.307 5.54-3.851 9.122l5.103 12.558c1.105 2.719 3.724 4.368 6.489 4.368.877 0 1.77-.166 2.633-.517 3.583-1.456 5.307-5.54 3.851-9.122zm-265.12-42.941c3.991 1.824 7.128 5.019 8.865 9.107 1.855 4.366 1.896 9.184.117 13.564l-5.126 12.618c17.096 7.287 31.291 12.236 50.154 2.781 19.799-9.914 41.406-8.4 58.858 3.834 17.357-12.169 38.926-13.82 58.79-3.863 18.76 9.379 32.495 4.782 50.207-2.761l-5.123-12.609c-3.534-8.813.502-18.775 8.981-22.669v-123.37h-60.52c-8.049 0-14.598-6.549-14.598-14.599v-59.952h-141.534c-5.001 0-9.071 4.057-9.071 9.042zm-35.518 52.063c.863.351 1.755.517 2.633.517 2.765 0 5.384-1.648 6.489-4.368l5.103-12.558c1.456-3.583-.268-7.667-3.851-9.122-3.583-1.458-7.667.268-9.122 3.851l-5.103 12.558c-1.456 3.583.268 7.667 3.851 9.122zm57.468 128.391c.145-.787.42-1.562.851-2.291 1.722-2.915 2.197-6.339 1.337-9.643-.856-3.291-2.93-6.037-5.838-7.733-6.116-3.573-14.009-1.534-17.601 4.543l-16.412 27.779c-5.677 9.623.67 14.77 3.663 16.535 4.799 2.832 14.156 4.318 18.958-3.646l15.043-25.545zm35.857 17.697c.014-.023.029-.046.043-.069 3.143-5.716.933-13.27-5.155-17.447-6.053-3.423-13.801-1.355-17.352 4.672l-16.226 27.553c-.027.048-.048.098-.077.146-.041.07-.086.132-.128.201l-6.956 11.812c-1.712 2.922-2.182 6.363-1.315 9.677.864 3.301 2.95 6.059 5.873 7.768.121.07.24.145.356.223 2.556 1.706 5.77 2.226 9.049 1.466 3.565-.828 6.612-3.031 8.36-6.044l3.574-6.154c.134-.23.281-.447.435-.656.211-.403.432-.802.664-1.197l18.854-31.95zm34.026 20.206c.045-.084.084-.171.133-.254 1.714-2.9 2.187-6.312 1.333-9.609-.858-3.313-2.945-6.085-5.876-7.803-6.038-3.54-13.823-1.55-17.454 4.42-.086.152-.166.306-.256.457-.068.115-.146.22-.219.33l-18.479 31.316c-1.717 2.914-2.191 6.343-1.333 9.649.86 3.311 2.946 6.079 5.873 7.795 6.085 3.547 13.969 1.495 17.56-4.58l4.985-8.452c.021-.036.04-.073.061-.109l13.671-23.16zm37.719 13.922s0-.003.001-.004c1.716-2.903 2.188-6.318 1.331-9.615-.859-3.302-2.94-6.057-5.859-7.759-2.037-1.19-4.273-1.757-6.48-1.757-4.407 0-8.702 2.255-11.092 6.3l-14.082 23.855s-.002.005-.004.007l-3.175 5.383c-1.7 2.906-2.166 6.308-1.31 9.59.859 3.291 2.938 6.037 5.856 7.733 6.111 3.581 13.99 1.538 17.581-4.539l.121-.204c.118-.279.249-.556.406-.825.164-.279.349-.537.544-.784zm20.462 12.25-8.488-4.988-12.983 21.993 8.142 4.775c2.934 1.727 6.369 2.199 9.686 1.34 3.318-.862 6.089-2.947 7.803-5.871 3.441-5.867 1.573-13.593-4.16-17.249zm83.638-88.367c-.021-.016-.044-.027-.065-.043-10.854-8.709-24.131-15.754-36.97-22.568-6.212-3.297-12.634-6.705-18.716-10.266-21.883-11.78-43.344-13.039-63.792-3.74-46.195 22.567-67.627 4.484-77.475-14.667-1.764-3.43-.421-7.641 3.003-9.417 19.411-10.068 40.335-24.884 62.211-44.029-12.671-7.523-27.444-7.912-41.566-.84-24.338 12.197-42.749 5.741-61.698-2.326l-34.63 85.235 14.238 5.832c.115.047.229.097.342.15 6.076 2.876 10.97 7.241 14.648 13.013 8.452-8.085 21.597-9.984 32.178-3.8 6.147 3.584 10.528 9.374 12.331 16.299.117.451.222.904.315 1.357 7.064-2.326 15.05-1.737 21.945 2.304.118.069.234.142.347.218 6.43 4.293 10.643 10.628 12.249 17.427 7.068-2.324 15.059-1.733 21.958 2.31 5.339 3.129 9.34 7.911 11.486 13.645 7.945-4.169 17.807-4.29 26.094.552 6.158 3.59 10.547 9.39 12.352 16.327.551 2.116.837 4.258.869 6.386l11.96 7.028s0 0 0 0c1.514.888 3.046 1.807 4.588 2.73 3.06 1.834 6.224 3.73 9.253 5.383 5.958 3.218 13.636 1.068 17.087-4.802 3.554-6.063 1.521-13.895-4.536-17.465l-.029-.017s-.005-.003-.008-.005l-60.741-35.657c-3.335-1.958-4.451-6.248-2.494-9.583s6.247-4.452 9.583-2.494l60.744 35.658s8.362 4.905 8.362 4.905c6.087 3.566 13.933 1.535 17.488-4.531 3.564-6.081 1.528-13.929-4.538-17.494 0 0-.002-.001-.003-.002l-54.249-31.858c-3.334-1.958-4.45-6.249-2.492-9.583s6.248-4.45 9.583-2.492l54.254 31.861s.003.001.004.002c2.907 1.71 6.335 2.176 9.645 1.314 3.321-.864 6.094-2.952 7.809-5.877 3.085-5.236 1.743-12.008-2.925-16.382zm28.099-22.708-34.615-85.199c-19.042 8.088-37.605 14.38-61.748 2.308-18.125-9.087-38.148-5.419-52.263 9.565-.147.156-.302.306-.463.448-20.875 18.427-41.031 33.124-60.022 43.773 7.684 10.645 22.271 18.785 55.401 2.572.057-.028.114-.055.171-.081 24.71-11.271 50.429-9.866 76.446 4.177.072.039.145.08.215.121 5.858 3.435 11.905 6.644 18.307 10.041 12.198 6.473 24.772 13.146 35.89 21.474l22.68-9.201zm-235.53-307.251h48.189c3.867 0 7.001-3.135 7.001-7.001s-3.135-7.001-7.001-7.001h-48.189c-3.867 0-7.001 3.135-7.001 7.001s3.135 7.001 7.001 7.001zm2.919 194.4h25.739c5.455 0 9.893-4.438 9.893-9.893v-25.739c0-5.47-4.438-9.921-9.893-9.921h-25.739c-5.471 0-9.921 4.451-9.921 9.921v25.739c0 5.455 4.45 9.893 9.921 9.893z" fill="#ffffffff" data-original-color="#000000ff"/></g></svg>