<svg id="Layer_1" enable-background="new 0 0 512 512" height="300" viewBox="0 0 512 512" width="300" xmlns="http://www.w3.org/2000/svg" version="1.1" xmlns:xlink="http://www.w3.org/1999/xlink" xmlns:svgjs="http://svgjs.dev/svgjs"><g transform="matrix(1,0,0,1,0,0)"><path d="m356.352 84.797v-5.056c0-1.652 1.348-3 3-3h5.056c1.652 0 3 1.348 3 3v5.056c0 1.652-1.348 3-3 3h-5.056c-1.653 0-3-1.347-3-3zm3 49.885h5.056c1.652 0 3-1.348 3-3v-5.056c0-1.652-1.348-3-3-3h-5.056c-1.652 0-3 1.348-3 3v5.056c0 1.653 1.347 3 3 3zm0-70.327h5.056c1.652 0 3-1.348 3-3v-5.056c0-1.652-1.348-3-3-3h-5.056c-1.652 0-3 1.347-3 3v5.056c0 1.652 1.347 3 3 3zm22.296 0h5.056c1.652 0 3-1.348 3-3v-5.056c0-1.652-1.348-3-3-3h-5.056c-1.652 0-3 1.347-3 3v5.056c0 1.652 1.347 3 3 3zm-22.296 93.77h5.056c1.652 0 3-1.348 3-3v-5.056c0-1.652-1.348-3-3-3h-5.056c-1.652 0-3 1.348-3 3v5.056c0 1.652 1.347 3 3 3zm22.296-46.885h5.056c1.652 0 3-1.347 3-3v-5.056c0-1.652-1.348-3-3-3h-5.056c-1.652 0-3 1.348-3 3v5.056c0 1.652 1.347 3 3 3zm0-23.443h5.056c1.652 0 3-1.348 3-3v-5.056c0-1.652-1.348-3-3-3h-5.056c-1.652 0-3 1.348-3 3v5.056c0 1.653 1.347 3 3 3zm-22.296 23.443h5.056c1.652 0 3-1.347 3-3v-5.056c0-1.652-1.348-3-3-3h-5.056c-1.652 0-3 1.348-3 3v5.056c0 1.652 1.347 3 3 3zm-159.177 0h5.056c1.652 0 3-1.347 3-3v-5.056c0-1.652-1.347-3-3-3h-5.056c-1.652 0-3 1.348-3 3v5.056c0 1.652 1.347 3 3 3zm22.296-46.885h5.056c1.652 0 3-1.348 3-3v-5.056c0-1.652-1.347-3-3-3h-5.056c-1.652 0-3 1.347-3 3v5.056c0 1.652 1.347 3 3 3zm-22.296 23.442h5.056c1.652 0 3-1.348 3-3v-5.056c0-1.652-1.347-3-3-3h-5.056c-1.652 0-3 1.348-3 3v5.056c0 1.653 1.347 3 3 3zm22.296 23.443h5.056c1.652 0 3-1.347 3-3v-5.056c0-1.652-1.347-3-3-3h-5.056c-1.652 0-3 1.348-3 3v5.056c0 1.652 1.347 3 3 3zm-22.296-46.885h5.056c1.652 0 3-1.348 3-3v-5.056c0-1.652-1.347-3-3-3h-5.056c-1.652 0-3 1.347-3 3v5.056c0 1.652 1.347 3 3 3zm22.296 23.442h5.056c1.652 0 3-1.348 3-3v-5.056c0-1.652-1.347-3-3-3h-5.056c-1.652 0-3 1.348-3 3v5.056c0 1.653 1.347 3 3 3zm44.893-23.442h5.056c1.652 0 3-1.348 3-3v-5.056c0-1.652-1.348-3-3-3h-5.056c-1.652 0-3 1.347-3 3v5.056c.001 1.652 1.348 3 3 3zm47.094 23.442h5.056c1.652 0 3-1.348 3-3v-5.056c0-1.652-1.347-3-3-3h-5.056c-1.652 0-3 1.348-3 3v5.056c0 1.653 1.347 3 3 3zm0-23.442h5.056c1.652 0 3-1.348 3-3v-5.056c0-1.652-1.347-3-3-3h-5.056c-1.652 0-3 1.347-3 3v5.056c0 1.652 1.347 3 3 3zm0-23.443h5.056c1.652 0 3-1.348 3-3v-5.056c0-1.652-1.347-3-3-3h-5.056c-1.652 0-3 1.348-3 3v5.056c0 1.653 1.347 3 3 3zm-47.094 70.328h5.056c1.652 0 3-1.347 3-3v-5.056c0-1.652-1.348-3-3-3h-5.056c-1.652 0-3 1.348-3 3v5.056c.001 1.652 1.348 3 3 3zm0-23.443h5.056c1.652 0 3-1.348 3-3v-5.056c0-1.652-1.348-3-3-3h-5.056c-1.652 0-3 1.348-3 3v5.056c.001 1.653 1.348 3 3 3zm23.547 0h5.056c1.652 0 3-1.348 3-3v-5.056c0-1.652-1.348-3-3-3h-5.056c-1.652 0-3 1.348-3 3v5.056c0 1.653 1.348 3 3 3zm-18.491 59.272h-5.056c-1.652 0-3 1.348-3 3v5.056c0 1.652 1.348 3 3 3h5.056c1.652 0 3-1.348 3-3v-5.056c0-1.652-1.347-3-3-3zm18.491 11.056h5.056c1.652 0 3-1.348 3-3v-5.056c0-1.652-1.348-3-3-3h-5.056c-1.652 0-3 1.348-3 3v5.056c0 1.652 1.348 3 3 3zm0-46.885h5.056c1.652 0 3-1.347 3-3v-5.056c0-1.652-1.348-3-3-3h-5.056c-1.652 0-3 1.348-3 3v5.056c0 1.652 1.348 3 3 3zm0 23.442h5.056c1.652 0 3-1.348 3-3v-5.056c0-1.652-1.348-3-3-3h-5.056c-1.652 0-3 1.348-3 3v5.056c0 1.653 1.348 3 3 3zm-23.547 0h5.056c1.652 0 3-1.348 3-3v-5.056c0-1.652-1.348-3-3-3h-5.056c-1.652 0-3 1.348-3 3v5.056c.001 1.653 1.348 3 3 3zm0-93.77h5.056c1.652 0 3-1.348 3-3v-5.056c0-1.652-1.348-3-3-3h-5.056c-1.652 0-3 1.348-3 3v5.056c.001 1.653 1.348 3 3 3zm23.547 0h5.056c1.652 0 3-1.348 3-3v-5.056c0-1.652-1.348-3-3-3h-5.056c-1.652 0-3 1.348-3 3v5.056c0 1.653 1.348 3 3 3zm23.547 70.328h5.056c1.652 0 3-1.347 3-3v-5.056c0-1.652-1.347-3-3-3h-5.056c-1.652 0-3 1.348-3 3v5.056c0 1.652 1.347 3 3 3zm0 23.442h5.056c1.652 0 3-1.348 3-3v-5.056c0-1.652-1.347-3-3-3h-5.056c-1.652 0-3 1.348-3 3v5.056c0 1.653 1.347 3 3 3zm0 23.443h5.056c1.652 0 3-1.348 3-3v-5.056c0-1.652-1.347-3-3-3h-5.056c-1.652 0-3 1.348-3 3v5.056c0 1.652 1.347 3 3 3zm-23.547-93.77h5.056c1.652 0 3-1.348 3-3v-5.056c0-1.652-1.348-3-3-3h-5.056c-1.652 0-3 1.347-3 3v5.056c0 1.652 1.348 3 3 3zm181.832 326.368-135.35 52.158c-1.431.551-2.893 1.12-4.383 1.7-16.895 6.574-36.991 14.395-56.158 14.395-5.567 0-11.056-.659-16.366-2.201l-72.118-20.939c-8.814-2.558-17.111-1.852-25.366 2.16l-22.598 10.988 3.933 9.444c2.25 5.402 2.27 11.334.054 16.704-2.215 5.369-6.412 9.562-11.817 11.808l-34.672 14.397c-2.722 1.13-5.547 1.665-8.327 1.665-8.544 0-16.673-5.054-20.156-13.416l-58.712-140.983c-2.25-5.403-2.269-11.336-.054-16.705s6.412-9.562 11.817-11.808l34.672-14.397c11.088-4.602 23.866.668 28.483 11.751l3.479 8.353c16.563-7.827 34.094-16.171 51.792-24.824 36.913-18.052 62.015-27.481 108.858 5.344l64.188 17.199c9.691 2.597 17.807 8.84 22.853 17.579.435.753.842 1.517 1.222 2.289l90.348-26.506c19.847-5.821 36.34-6.964 49.022-3.386 11.786 3.323 20.221 10.896 23.753 21.323 7.049 20.816-6.485 47.463-28.397 55.908zm-341.33 73.087-58.712-140.984c-1.246-2.991-4.154-4.8-7.211-4.8-.995 0-2.005.191-2.979.596l-34.672 14.398c-1.949.81-3.456 2.307-4.244 4.217s-.775 4.035.036 5.984l58.712 140.981c1.651 3.964 6.221 5.85 10.19 4.204l34.671-14.397c1.949-.81 3.457-2.308 4.245-4.218.788-1.909.775-4.034-.036-5.981zm356.466-124.503c-4.88-14.409-25.657-17.771-55.574-8.995l-90.548 26.564c.35 4.25-.032 8.567-1.166 12.798-2.597 9.691-8.84 17.808-17.579 22.854s-18.89 6.393-28.581 3.797l-86.901-23.285c-3.734-1.001-5.951-4.839-4.95-8.573s4.839-5.947 8.573-4.95l86.902 23.285c6.08 1.63 12.456.777 17.957-2.398 5.5-3.176 9.427-8.272 11.056-14.352 1.629-6.079.777-12.456-2.398-17.956-3.176-5.501-8.273-9.427-14.352-11.056l-65.391-17.521c-.802-.215-1.56-.571-2.237-1.052-41.22-29.231-61.143-21.788-95.644-4.917-17.984 8.793-35.771 17.256-52.554 25.186l40.521 97.303 21.868-10.632c11.357-5.521 23.263-6.536 35.391-3.016l72.118 20.939c19.031 5.525 43.712-4.077 63.543-11.795 1.505-.586 2.982-1.161 4.426-1.718l135.35-52.158c14.803-5.705 24.793-24.702 20.17-38.352zm-80.372-151.628c40.255 0 73.005 32.75 73.005 73.005 0 8.117-4.374 19.402-25.208 27.074-12.727 4.686-29.702 7.266-47.798 7.266s-35.072-2.58-47.798-7.266c-20.835-7.672-25.208-18.957-25.208-27.074-.002-40.255 32.75-73.005 73.007-73.005zm0 14c-32.538 0-59.009 26.47-59.009 59.005 0 11.216 26.47 20.34 59.007 20.34s59.007-9.124 59.007-20.34c0-32.536-26.47-59.005-59.005-59.005zm-226.718-23.508c3.147 0 5.806 2.031 5.806 4.436s-2.659 4.437-5.806 4.437c-2.176 0-3.099-.354-5.911-3.007-2.812-2.655-7.243-2.523-9.895.288-2.653 2.812-2.524 7.242.289 9.896 2.383 2.249 5.001 4.463 8.65 5.733l.021.888c.092 3.808 3.207 6.831 6.995 6.831.057 0 .115-.001.172-.002 3.865-.094 6.922-3.302 6.829-7.167l-.017-.696c7.407-2.671 12.673-9.374 12.673-17.2 0-10.165-8.885-18.436-19.806-18.436-3.147 0-5.806-2.031-5.806-4.436s2.659-4.436 5.806-4.436c1.396 0 4.687 1.33 5.592 2.249 2.151 3.134 6.424 3.98 9.614 1.885 3.23-2.123 4.128-6.464 2.005-9.694-2.217-3.373-6.341-5.78-10.328-7.14l-.036-1.517c-.093-3.865-3.336-6.923-7.165-6.831-3.865.093-6.923 3.3-6.831 7.165l.027 1.115c-7.412 2.669-12.683 9.374-12.683 17.203-.002 10.165 8.883 18.436 19.805 18.436zm-54.634-7.21c0-27.752 20.805-50.721 47.634-54.17v-76.538c0-3.866 3.134-7 7-7h59.123v-17.253c0-3.866 3.134-7 7-7h93.054c3.866 0 7 3.134 7 7v17.253h59.123c3.866 0 7 3.134 7 7v69.252c18.043 2.704 31.926 18.303 31.926 37.085 0 20.682-16.826 37.507-37.508 37.507-7.433 0-14.362-2.182-20.197-5.927h-152.379c-3.542 26.727-26.463 47.423-54.143 47.423-30.124.001-54.633-24.507-54.633-54.632zm281.352-47.873c-12.962 0-23.507 10.543-23.507 23.503 0 12.962 10.545 23.507 23.507 23.507s23.508-10.545 23.508-23.507c0-12.96-10.546-23.503-23.508-23.503zm-60.541-75.835v116.918h27.422c-2.797-5.247-4.388-11.23-4.388-17.58 0-17.784 12.449-32.707 29.089-36.539v-62.799zm-93.054-24.253v141.171h79.054v-141.171zm-66.123 24.253v69.538c12.378 1.591 23.474 7.33 31.834 15.788-.09-.285-.153-.582-.153-.896v-5.056c0-1.652 1.348-3 3-3h5.056c1.652 0 3 1.348 3 3v5.056c0 1.652-1.347 3-3 3h-5.056c-.372 0-.725-.077-1.055-.202 7.272 8.091 12.157 18.358 13.569 29.69h4.927v-116.918zm-47.634 123.708c0 22.405 18.228 40.633 40.633 40.633s40.633-18.228 40.633-40.633-18.228-40.634-40.633-40.634-40.633 18.229-40.633 40.634z" fill="#ffffffff" data-original-color="#000000ff"/></g></svg>