<svg xmlns="http://www.w3.org/2000/svg" viewBox="0 0 64 64" width="300" height="300" version="1.1" xmlns:xlink="http://www.w3.org/1999/xlink" xmlns:svgjs="http://svgjs.dev/svgjs"><g transform="matrix(1,0,0,1,0,0)"><g id="outline"><path d="M58,6H48a1,1,0,0,1-1-1,3,3,0,0,0-3-3H38a3,3,0,0,0-3,3,1,1,0,0,1-1,1H24a4,4,0,0,0-4,4v8h2V10a2,2,0,0,1,2-2H58a2,2,0,0,1,2,2V34a2,2,0,0,1-2,2H40v2H55a2,2,0,0,0,4,0v-.142A4,4,0,0,0,62,34V10A4,4,0,0,0,58,6ZM36.816,6A2.966,2.966,0,0,0,37,5a1,1,0,0,1,1-1h6a1,1,0,0,1,1,1,2.966,2.966,0,0,0,.184,1Z" fill="#be1717ff" data-original-color="#000000ff"/><rect x="41" y="26" width="16" height="2" fill="#be1717ff" data-original-color="#000000ff"/><rect x="29" y="21" width="28" height="2" fill="#be1717ff" data-original-color="#000000ff"/><rect x="25" y="16" width="32" height="2" fill="#be1717ff" data-original-color="#000000ff"/><rect x="25" y="11" width="32" height="2" fill="#be1717ff" data-original-color="#000000ff"/><rect x="41" y="31" width="16" height="2" fill="#be1717ff" data-original-color="#000000ff"/><path d="M11.367,57.082l8.126,4.78a1,1,0,0,0,1.014,0l8.126-4.78A19.074,19.074,0,0,0,38,40.705V27a1,1,0,0,0-1-1,26.168,26.168,0,0,1-15.6-5.2l-.8-.6a1,1,0,0,0-1.2,0l-.8.6A26.168,26.168,0,0,1,3,26a1,1,0,0,0-1,1v13.7A19.074,19.074,0,0,0,11.367,57.082ZM4,27.982A28.2,28.2,0,0,0,19.8,22.4l.2-.15.2.15A28.2,28.2,0,0,0,36,27.982V40.705a17.066,17.066,0,0,1-8.38,14.653L20,59.84l-7.62-4.482A17.066,17.066,0,0,1,4,40.705Z" fill="#be1717ff" data-original-color="#000000ff"/><path d="M13.4,53.634l6.1,3.587a1,1,0,0,0,1.014,0l6.1-3.587A15.056,15.056,0,0,0,34,40.705V30.736a1,1,0,0,0-.869-.991,30.367,30.367,0,0,1-12.584-4.661,1,1,0,0,0-1.094,0A30.06,30.06,0,0,1,8.806,29.425q-.963.192-1.937.32A1,1,0,0,0,6,30.736v9.969A15.056,15.056,0,0,0,13.4,53.634ZM8,31.6q.6-.1,1.2-.214A32.046,32.046,0,0,0,20,27.108,32.433,32.433,0,0,0,32,31.6v9.1a13.052,13.052,0,0,1-6.409,11.2L20,55.2,14.409,51.91A13.052,13.052,0,0,1,8,40.705Z" fill="#be1717ff" data-original-color="#000000ff"/><rect x="19" y="30" width="2" height="2" fill="#be1717ff" data-original-color="#000000ff"/><rect x="19" y="51" width="2" height="2" fill="#be1717ff" data-original-color="#000000ff"/><rect x="10" y="35" width="2" height="2" fill="#be1717ff" data-original-color="#000000ff"/><rect x="28" y="35" width="2" height="2" fill="#be1717ff" data-original-color="#000000ff"/><rect x="11" y="44" width="2" height="2" fill="#be1717ff" data-original-color="#000000ff"/><rect x="27" y="44" width="2" height="2" fill="#be1717ff" data-original-color="#000000ff"/></g></g></svg>