<svg id="Layer_1" height="300" viewBox="0 0 64 64" width="300" xmlns="http://www.w3.org/2000/svg" data-name="Layer 1" version="1.1" xmlns:xlink="http://www.w3.org/1999/xlink" xmlns:svgjs="http://svgjs.dev/svgjs"><g transform="matrix(1,0,0,1,0,0)"><g fill="#464c57"><path d="m56.62 24.89h-49.3a.85.85 0 0 1 -.49-1.54l24.65-17.68a.86.86 0 0 1 1 0l24.64 17.68a.84.84 0 0 1 .31.95.85.85 0 0 1 -.81.59zm-46.62-1.7h44l-22-15.78z" fill="#be1717ff" data-original-color="#464c57ff"/><path d="m54.69 54.69h-13a.85.85 0 1 1 0-1.7h12.15v-2.29h-10.47a.85.85 0 0 1 0-1.7h11.32a.85.85 0 0 1 .85.85v4a.85.85 0 0 1 -.85.84z" fill="#be1717ff" data-original-color="#464c57ff"/><path d="m24 54.69h-14.74a.85.85 0 0 1 -.85-.85v-4a.85.85 0 0 1 .85-.84h12.06a.85.85 0 0 1 0 1.7h-11.21v2.3h13.89a.85.85 0 1 1 0 1.7z" fill="#be1717ff" data-original-color="#464c57ff"/><path d="m14.86 50.3a.85.85 0 0 1 -.85-.85v-16.45a.85.85 0 0 1 1.7 0v16.45a.85.85 0 0 1 -.85.85z" fill="#be1717ff" data-original-color="#464c57ff"/><path d="m21.32 50.3a.85.85 0 0 1 -.85-.85v-16.45a.85.85 0 0 1 1.7 0v16.45a.85.85 0 0 1 -.85.85z" fill="#be1717ff" data-original-color="#464c57ff"/><path d="m21.63 29.37h-7.28a.85.85 0 1 1 0-1.7h7.28a.85.85 0 0 1 0 1.7z" fill="#be1717ff" data-original-color="#464c57ff"/><path d="m28.84 37.42a.85.85 0 0 1 -.85-.85v-3.57a.85.85 0 0 1 1.7 0v3.59a.85.85 0 0 1 -.85.83z" fill="#be1717ff" data-original-color="#464c57ff"/><path d="m35.3 36.14a.85.85 0 0 1 -.85-.85v-2.29a.85.85 0 1 1 1.7 0v2.31a.85.85 0 0 1 -.85.83z" fill="#be1717ff" data-original-color="#464c57ff"/><path d="m35.62 29.37h-7.29a.85.85 0 0 1 0-1.7h7.29a.85.85 0 0 1 0 1.7z" fill="#be1717ff" data-original-color="#464c57ff"/><path d="m31.84 21.08a4.53 4.53 0 1 1 0-9 .85.85 0 1 1 0 1.7 2.81 2.81 0 1 0 2.29 1.17.85.85 0 0 1 1.38-1 4.53 4.53 0 0 1 -3.67 7.17z" fill="#be1717ff" data-original-color="#464c57ff"/><path d="m32.44 58.62a11.76 11.76 0 1 1 3.79-22.88.85.85 0 1 1 -.55 1.61 10 10 0 1 0 4.76 3.44.85.85 0 1 1 1.36-1 11.77 11.77 0 0 1 -9.36 18.85z" fill="#be1717ff" data-original-color="#464c57ff"/><path d="m47.37 42.12a.83.83 0 0 1 -.55-.2l-6.57-5.58a.82.82 0 0 1 -.25-.94.85.85 0 0 1 .8-.55h2.57v-6.33a.85.85 0 0 1 .85-.85h6.31a.85.85 0 0 1 .85.85v6.33h2.62a.84.84 0 0 1 .55 1.49l-6.58 5.58a.8.8 0 0 1 -.6.2zm-4.26-5.57 4.26 3.61 4.27-3.61h-1.11a.85.85 0 0 1 -.85-.85v-6.33h-4.61v6.33a.85.85 0 0 1 -.85.85z" fill="#be1717ff" data-original-color="#464c57ff"/><path d="m28.33 51.52a.89.89 0 0 1 -.6-.25.85.85 0 0 1 0-1.2l8.34-8.35a.86.86 0 0 1 1.21 0 .85.85 0 0 1 0 1.2l-8.35 8.35a.86.86 0 0 1 -.6.25z" fill="#be1717ff" data-original-color="#464c57ff"/><path d="m29.4 44.46a1.07 1.07 0 1 1 1.07-1.06 1.07 1.07 0 0 1 -1.07 1.06z" fill="#be1717ff" data-original-color="#464c57ff"/><path d="m35.74 50.79a1.07 1.07 0 1 1 1.06-1.06 1.06 1.06 0 0 1 -1.06 1.06z" fill="#be1717ff" data-original-color="#464c57ff"/><path d="m50.53 50.51a.85.85 0 0 1 -.85-.85v-6.33a.85.85 0 0 1 1.7 0v6.33a.85.85 0 0 1 -.85.85z" fill="#be1717ff" data-original-color="#464c57ff"/></g></g></svg>