<svg enable-background="new 0 0 64 64" viewBox="0 0 64 64" xmlns="http://www.w3.org/2000/svg" width="300" height="300" version="1.1" xmlns:xlink="http://www.w3.org/1999/xlink" xmlns:svgjs="http://svgjs.dev/svgjs"><g transform="matrix(1,0,0,1,0,0)"><g id="Layer_1" display="none"><g display="inline" fill="none" stroke="#b3b3b3" stroke-miterlimit="10" stroke-width=".1"><path d="m2 2h60v60h-60z" fill="#be1717" data-original-color="#000000ff"/><path d="m32 2v60" fill="#be1717" data-original-color="#000000ff"/><path d="m62 32h-60" fill="#be1717" data-original-color="#000000ff"/><path d="m2 2 60 60" fill="#be1717" data-original-color="#000000ff"/><path d="m10 10h44v44h-44z" fill="#be1717" data-original-color="#000000ff"/><path d="m62 2-60 60" fill="#be1717" data-original-color="#000000ff"/><path d="m2 32 30-30" fill="#be1717" data-original-color="#000000ff"/><path d="m32 2 30 30" fill="#be1717" data-original-color="#000000ff"/><path d="m62 32-30 30" fill="#be1717" data-original-color="#000000ff"/><path d="m32 62-30-30" fill="#be1717" data-original-color="#000000ff"/><circle cx="32" cy="32" r="21" fill="#be1717" data-original-color="#000000ff"/></g></g><g id="Layer_2"><g><path d="m12 12c-2.8 0-5-2.2-5-5s2.2-5 5-5 5 2.2 5 5-2.2 5-5 5zm0-8c-1.7 0-3 1.3-3 3s1.3 3 3 3 3-1.3 3-3-1.3-3-3-3z" fill="#be1717" data-original-color="#000000ff"/></g><g><path d="m22 28h-20v-9c0-2.8 2.2-5 5-5h2.6l2.4 4.1 2.4-4.1h2.6c2.8 0 5 2.2 5 5zm-18-2h16v-7c0-1.7-1.3-3-3-3h-1.4l-3.6 5.9-3.6-5.9h-1.4c-1.7 0-3 1.3-3 3z" fill="#be1717" data-original-color="#000000ff"/></g><g><path d="m52 46c-2.8 0-5-2.2-5-5s2.2-5 5-5 5 2.2 5 5-2.2 5-5 5zm0-8c-1.7 0-3 1.3-3 3s1.3 3 3 3 3-1.3 3-3-1.3-3-3-3z" fill="#be1717" data-original-color="#000000ff"/></g><g><path d="m62 62h-20v-9c0-2.8 2.2-5 5-5h2.6l2.4 4.1 2.4-4.1h2.6c2.8 0 5 2.2 5 5zm-18-2h16v-7c0-1.7-1.3-3-3-3h-1.4l-3.6 5.9-3.6-5.9h-1.4c-1.7 0-3 1.3-3 3z" fill="#be1717" data-original-color="#000000ff"/></g><path d="m48.6 43.1c-.4.6-.8 1.1-1.2 1.6-1.9-.7-3.8-1.2-5.7-1.6.8-3 1.2-6.5 1.3-10.1h9c-.1 1.4-.3 2.8-.6 4.1.2 0 .5-.1.7-.1.5 0 .9.1 1.4.3.4-1.7.6-3.4.6-5.3 0-12.1-9.9-22-22-22-5.3 0-10.2 1.9-14 5 .2 0 1.1.3 1.9 1.1 1.9-1.4 4-2.5 6.3-3.2-1 1.1-1.8 2.6-2.6 4.3-.2.6-.5 1.2-.7 1.8-.6-.1-1.3-.3-1.9-.5v.5 1.6c.4.1.9.2 1.3.3-.8 3-1.2 6.5-1.3 10.1h-9c.1-1.4.3-2.7.6-4h-2.1c-.4 1.6-.6 3.3-.6 5 0 12.1 9.9 22 22 22 4.3 0 8.3-1.2 11.7-3.4.5-.8 1.3-1.6 2.2-1.6 1.6-1.3 3-2.8 4.2-4.5-.6-.3-1.1-.8-1.5-1.4zm3.3-12.1h-9c-.1-3.5-.5-7-1.3-10.1 1.9-.4 3.8-1 5.8-1.7 2.7 3.3 4.3 7.4 4.5 11.8zm-6-13.3c-1.6.5-3.2 1-4.8 1.3-.8-2.4-1.9-4.6-3.3-6.1 3.1.9 5.9 2.6 8.1 4.8zm-20.5.3c1.1-2.7 3.2-6 6.6-6 3.2 0 5.6 3 7.1 7.4-4.7.8-9.5.8-14.2 0 .1-.5.3-1 .5-1.4zm-1.1 3.3c2.6.5 5.1.7 7.7.7s5.1-.2 7.7-.7c.8 2.9 1.2 6.3 1.3 9.7h-18c.1-3.5.5-6.8 1.3-9.7zm16.7 11.7c-.1 3.5-.5 6.8-1.3 9.7-5.1-.9-10.3-.9-15.4 0-.8-2.9-1.2-6.3-1.3-9.7zm-28.9 0h9c.1 3.5.5 7 1.3 10.1-1.9.4-3.8 1-5.8 1.7-2.7-3.3-4.3-7.4-4.5-11.8zm6 13.3c1.6-.5 3.2-1 4.8-1.3.8 2.4 1.9 4.6 3.3 6.1-3.1-.9-5.9-2.6-8.1-4.8zm13.9 5.7c-3.2 0-5.6-3-7.1-7.4 4.7-.8 9.5-.8 14.2 0-.2.5-.4 1-.5 1.4-1.2 2.8-3.2 6-6.6 6zm5.8-.9c1-1.1 1.8-2.6 2.6-4.3.2-.6.5-1.2.7-1.8 1.6.3 3.2.8 4.8 1.3-2.2 2.2-5 3.9-8.1 4.8z" fill="#be1717" data-original-color="#000000ff"/><path d="m39.7 56.8c-2.5.8-5.1 1.2-7.7 1.2-12.5 0-23.2-9-25.5-21.2l2.9-.2-4.3-6.6-3.6 7.1 3-.2c2.4 13.2 14 23 27.6 23 2.8 0 5.6-.4 8.3-1.2z" fill="#be1717" data-original-color="#000000ff"/><path d="m59.6 27c-2.4-13.2-14.1-23-27.6-23-4.7 0-9.4 1.2-13.5 3.5l1 1.8c3.8-2.2 8.1-3.3 12.5-3.3 12.5 0 23.2 9 25.5 21.2l-2.9.2 4.3 6.7 3.6-7.1z" fill="#be1717" data-original-color="#000000ff"/></g></g></svg>