<svg version="1.1" id="svg2697" xml:space="preserve" width="300" height="300" viewBox="0 0 682.66669 682.66669" xmlns="http://www.w3.org/2000/svg" xmlns:svg="http://www.w3.org/2000/svg" xmlns:xlink="http://www.w3.org/1999/xlink" xmlns:svgjs="http://svgjs.dev/svgjs"><g transform="matrix(1,0,0,1,0,0)"><defs id="defs2701"><clipPath clipPathUnits="userSpaceOnUse" id="clipPath2715"><path d="M 0,512 H 512 V 0 H 0 Z" id="path2713"/></clipPath></defs><g id="g2703" transform="matrix(1.3333333,0,0,-1.3333333,0,682.66667)"><g id="g2705" transform="translate(358.7695,171.3291)"><path d="M 0,0 H -217.303 M 78.746,102.359 V 0 H 33.988 M -206.758,169.342 H 11.736 M -284.287,66.982 v 102.36 h 43.57" style="stroke-linecap: round; stroke-linejoin: round; stroke-miterlimit: 10; stroke-dasharray: none; stroke-opacity: 1;" id="path2707" stroke-width="14.995" data-original-stroke-width="14.995" fill="none" stroke="#ffffffff" data-original-stroke-color="#000000ff"/></g><g id="g2709"><g id="g2711" clip-path="url(#clipPath2715)"><g id="g2717" transform="translate(406.3359,281.3701)"><path d="m 0,0 v -51.364 c -15.193,0 -27.525,-12.303 -27.525,-27.496 h -245.028 m -28.146,28.12 V 0.624 c 15.193,0 27.523,12.331 27.523,27.524 h 245.028" style="stroke-linecap: round; stroke-linejoin: round; stroke-miterlimit: 10; stroke-dasharray: none; stroke-opacity: 1;" id="path2719" stroke-width="14.995" data-original-stroke-width="14.995" fill="none" stroke="#ffffffff" data-original-stroke-color="#000000ff"/></g><g id="g2721" transform="translate(12.5176,145.8457)"><path d="m 0,0 c -3.23,7.852 -5.018,16.469 -5.018,25.483 0,36.993 29.993,66.983 66.983,66.983 36.992,0 66.984,-29.99 66.984,-66.983 0,-36.992 -29.992,-66.983 -66.984,-66.983 -15.76,0 -30.244,5.443 -41.697,14.571" style="stroke-linecap: round; stroke-linejoin: round; stroke-miterlimit: 10; stroke-dasharray: none; stroke-opacity: 1;" id="path2723" stroke-width="14.995" data-original-stroke-width="14.995" fill="none" stroke="#ffffffff" data-original-stroke-color="#000000ff"/></g><g id="g2725" transform="translate(81.4004,176.8569)"><path d="m 0,0 c 13.01,-3.062 22.705,-14.74 22.705,-28.687 h -58.904 c 0,13.862 9.553,25.456 22.422,28.63" style="stroke-linecap: round; stroke-linejoin: round; stroke-miterlimit: 10; stroke-dasharray: none; stroke-opacity: 1;" id="path2727" stroke-width="14.995" data-original-stroke-width="14.995" fill="none" stroke="#ffffffff" data-original-stroke-color="#000000ff"/></g><g id="g2729" transform="translate(74.6543,209.0864)"><path d="m 0,0 v 0 c 7.086,0 12.896,-5.782 12.896,-12.869 v -8.193 c 0,-7.086 -5.81,-12.897 -12.896,-12.897 -7.088,0 -12.898,5.811 -12.898,12.897 v 8.193 C -12.898,-5.782 -7.088,0 0,0 Z" style="stroke-linecap: round; stroke-linejoin: round; stroke-miterlimit: 10; stroke-dasharray: none; stroke-opacity: 1;" id="path2731" stroke-width="14.995" data-original-stroke-width="14.995" fill="none" stroke="#ffffffff" data-original-stroke-color="#000000ff"/></g><g id="g2733" transform="translate(495.1172,374.8569)"><path d="m 0,0 c 5.951,-10.007 9.383,-21.686 9.383,-34.186 0,-36.992 -29.992,-66.983 -66.985,-66.983 -37.019,0 -67.009,29.991 -67.009,66.983 0,36.992 29.99,66.983 67.009,66.983 12.276,0 23.784,-3.289 33.676,-9.071" style="stroke-linecap: round; stroke-linejoin: round; stroke-miterlimit: 10; stroke-dasharray: none; stroke-opacity: 1;" id="path2735" stroke-width="14.995" data-original-stroke-width="14.995" fill="none" stroke="#ffffffff" data-original-stroke-color="#000000ff"/></g><g id="g2737" transform="translate(405.1738,340.6709)"><path d="M 0,0 32.342,32.315 64.658,0 32.342,-32.315 Z" style="stroke-linecap: round; stroke-linejoin: round; stroke-miterlimit: 10; stroke-dasharray: none; stroke-opacity: 1;" id="path2739" stroke-width="14.995" data-original-stroke-width="14.995" fill="none" stroke="#ffffffff" data-original-stroke-color="#000000ff"/></g><g id="g2741" transform="translate(255.9863,202.5103)"><path d="M 0,0 C 23.328,0 42.32,24.038 42.32,53.49 42.32,82.97 23.328,107.008 0,107.008 -23.301,107.008 -42.322,82.97 -42.322,53.49 -42.322,24.038 -23.301,0 0,0 Z" style="stroke-linecap: round; stroke-linejoin: round; stroke-miterlimit: 10; stroke-dasharray: none; stroke-opacity: 1;" id="path2743" stroke-width="14.995" data-original-stroke-width="14.995" fill="none" stroke="#ffffffff" data-original-stroke-color="#000000ff"/></g><g id="g2745" transform="translate(100.873,314.3086)"><path d="M 0,0 V -8.305" style="stroke-linecap: round; stroke-linejoin: round; stroke-miterlimit: 10; stroke-dasharray: none; stroke-opacity: 1;" id="path2747" stroke-width="14.995" data-original-stroke-width="14.995" fill="none" stroke="#ffffffff" data-original-stroke-color="#000000ff"/></g><g id="g2749" transform="translate(411.125,205.9966)"><path d="M 0,0 V -8.277" style="stroke-linecap: round; stroke-linejoin: round; stroke-miterlimit: 10; stroke-dasharray: none; stroke-opacity: 1;" id="path2751" stroke-width="14.995" data-original-stroke-width="14.995" fill="none" stroke="#ffffffff" data-original-stroke-color="#000000ff"/></g><g id="g2753" transform="translate(74.4824,69.6221)"><path d="M 0,0 V -30.331 C 0,-41.556 9.156,-50.712 20.354,-50.712 H 161.15 c 11.198,0 20.354,9.156 20.354,20.381 V 101.707 M 12.586,-7.71 0,4.875 -12.584,-7.71" style="stroke-linecap: round; stroke-linejoin: round; stroke-miterlimit: 10; stroke-dasharray: none; stroke-opacity: 1;" id="path2755" stroke-width="14.995" data-original-stroke-width="14.995" fill="none" stroke="#ffffffff" data-original-stroke-color="#000000ff"/></g><g id="g2757" transform="translate(437.5156,442.3779)"><path d="m 0,0 v 30.359 c 0,11.197 -9.184,20.353 -20.381,20.353 h -140.767 c -11.198,0 -20.381,-9.156 -20.381,-20.353 V -101.707 M -12.613,7.739 0,-4.847 12.586,7.739" style="stroke-linecap: round; stroke-linejoin: round; stroke-miterlimit: 10; stroke-dasharray: none; stroke-opacity: 1;" id="path2759" stroke-width="14.995" data-original-stroke-width="14.995" fill="none" stroke="#ffffffff" data-original-stroke-color="#000000ff"/></g></g></g></g></g></svg>