<svg id="Layer_1" enable-background="new 0 0 66 66" height="300" viewBox="0 0 66 66" width="300" xmlns="http://www.w3.org/2000/svg" version="1.1" xmlns:xlink="http://www.w3.org/1999/xlink" xmlns:svgjs="http://svgjs.dev/svgjs"><g transform="matrix(1,0,0,1,0,0)"><g><g><g><path d="m33 45.8c-.2 0-.3 0-.5-.1l-10.7-5.6c-.3-.2-.5-.5-.5-.9v-12.4c0-.3.2-.7.5-.9s.7-.2 1 0l10.7 5.5c.3.2.5.5.5.9v12.5c0 .3-.2.7-.5.9-.1.1-.3.1-.5.1zm-9.7-7.2 8.7 4.6v-10.3l-8.7-4.5z" fill="#ffffffff" data-original-color="#000000ff"/></g><g><path d="m33 45.8c-.2 0-.4 0-.5-.1-.3-.2-.5-.5-.5-.9v-12.5c0-.4.2-.7.5-.9l10.7-5.5c.3-.2.7-.1 1 0s.5.5.5.9v12.4c0 .4-.2.7-.5.9l-10.7 5.6c-.2.1-.3.1-.5.1zm1-12.9v10.2l8.7-4.6v-10.1z" fill="#ffffffff" data-original-color="#000000ff"/></g><g><path d="m33 33.3c-.2 0-.3 0-.5-.1l-10.7-5.5c-.3-.2-.5-.5-.5-.9s.2-.7.5-.9l10.7-5.6c.3-.2.6-.2.9 0l10.7 5.6c.3.2.5.5.5.9s-.2.7-.5.9l-10.7 5.5c-.1.1-.2.1-.4.1zm-8.5-6.5 8.5 4.4 8.5-4.4-8.5-4.5z" fill="#ffffffff" data-original-color="#000000ff"/></g></g><g><g><g><path d="m33 17.1c-.6 0-1-.4-1-1v-5.6c0-.6.4-1 1-1s1 .4 1 1v5.6c0 .6-.4 1-1 1z" fill="#ffffffff" data-original-color="#000000ff"/></g><g><path d="m33 17.5c-.2 0-.5-.1-.7-.3l-2.2-2.1c-.4-.4-.4-1 0-1.4s1-.4 1.4 0l1.5 1.4 1.5-1.4c.4-.4 1-.4 1.4 0s.4 1 0 1.4l-2.2 2.1c-.2.2-.5.3-.7.3z" fill="#ffffffff" data-original-color="#000000ff"/></g></g><g><path d="m33 10.6c-2.6 0-4.8-2.2-4.8-4.8s2.2-4.8 4.8-4.8 4.8 2.2 4.8 4.8-2.2 4.8-4.8 4.8zm0-7.6c-1.5 0-2.8 1.3-2.8 2.8s1.3 2.8 2.8 2.8 2.8-1.3 2.8-2.8-1.3-2.8-2.8-2.8z" fill="#ffffffff" data-original-color="#000000ff"/></g><g><g><path d="m33 56.5c-.6 0-1-.4-1-1v-5.6c0-.6.4-1 1-1s1 .4 1 1v5.6c0 .6-.4 1-1 1z" fill="#ffffffff" data-original-color="#000000ff"/></g><g><path d="m35.2 52.6c-.2 0-.5-.1-.7-.3l-1.5-1.4-1.5 1.4c-.4.4-1 .4-1.4 0s-.4-1 0-1.4l2.2-2.1c.4-.4 1-.4 1.4 0l2.2 2.1c.4.4.4 1 0 1.4-.2.2-.4.3-.7.3z" fill="#ffffffff" data-original-color="#000000ff"/></g></g><g><path d="m33 65c-2.6 0-4.8-2.2-4.8-4.8s2.2-4.8 4.8-4.8 4.8 2.2 4.8 4.8-2.2 4.8-4.8 4.8zm0-7.6c-1.5 0-2.8 1.3-2.8 2.8s1.3 2.8 2.8 2.8 2.8-1.3 2.8-2.8-1.3-2.8-2.8-2.8z" fill="#ffffffff" data-original-color="#000000ff"/></g></g><g><g><g><path d="m16.1 34h-5.6c-.6 0-1-.4-1-1s.4-1 1-1h5.6c.6 0 1 .4 1 1s-.4 1-1 1z" fill="#ffffffff" data-original-color="#000000ff"/></g><g><path d="m14.4 36.2c-.2 0-.5-.1-.7-.3-.4-.4-.4-1 0-1.4l1.4-1.5-1.4-1.5c-.4-.4-.4-1 0-1.4s1-.4 1.4 0l2.1 2.2c.4.4.4 1 0 1.4l-2.1 2.2c-.2.2-.4.3-.7.3z" fill="#ffffffff" data-original-color="#000000ff"/></g></g><g><path d="m5.8 37.8c-2.6 0-4.8-2.2-4.8-4.8s2.2-4.8 4.8-4.8 4.8 2.2 4.8 4.8c0 2.7-2.1 4.8-4.8 4.8zm0-7.6c-1.5 0-2.8 1.3-2.8 2.8s1.3 2.8 2.8 2.8c1.6 0 2.8-1.2 2.8-2.8 0-1.5-1.3-2.8-2.8-2.8z" fill="#ffffffff" data-original-color="#000000ff"/></g><g><g><path d="m55.5 34h-5.6c-.6 0-1-.4-1-1s.4-1 1-1h5.6c.6 0 1 .4 1 1s-.4 1-1 1z" fill="#ffffffff" data-original-color="#000000ff"/></g><g><path d="m51.6 36.2c-.3 0-.5-.1-.7-.3l-2.1-2.2c-.4-.4-.4-1 0-1.4l2.1-2.2c.4-.4 1-.4 1.4 0s.4 1 0 1.4l-1.4 1.5 1.4 1.5c.4.4.4 1 0 1.4-.2.2-.5.3-.7.3z" fill="#ffffffff" data-original-color="#000000ff"/></g></g><g><path d="m60.2 37.8c-2.6 0-4.8-2.2-4.8-4.8s2.2-4.8 4.8-4.8 4.8 2.2 4.8 4.8-2.2 4.8-4.8 4.8zm0-7.6c-1.5 0-2.8 1.3-2.8 2.8s1.3 2.8 2.8 2.8 2.8-1.3 2.8-2.8-1.3-2.8-2.8-2.8z" fill="#ffffffff" data-original-color="#000000ff"/></g></g><g><g><g><g><path d="m20.9 21.9c-.3 0-.5-.1-.7-.3l-9.3-9.3c-.4-.4-.4-1 0-1.4s1-.4 1.4 0l9.3 9.3c.4.4.4 1 0 1.4-.2.2-.4.3-.7.3z" fill="#ffffffff" data-original-color="#000000ff"/></g><g><path d="m21.3 22.3h-4.1c-.6 0-1-.4-1-1s.4-1 1-1h3.1v-3.1c0-.6.4-1 1-1s1 .4 1 1v4.1c0 .6-.4 1-1 1z" fill="#ffffffff" data-original-color="#000000ff"/></g></g><g><path d="m7.1 13.3c-1.6 0-3.2-.6-4.4-1.8-2.4-2.4-2.4-6.3 0-8.7s6.3-2.4 8.7 0 2.4 6.3 0 8.7c-1.1 1.2-2.7 1.8-4.3 1.8zm0-10.3c-1 0-2.1.4-2.9 1.2-1.6 1.6-1.6 4.3 0 5.9s4.3 1.6 5.9 0 1.6-4.3 0-5.9c-.8-.8-1.9-1.2-3-1.2z" fill="#ffffffff" data-original-color="#000000ff"/></g><g><g><path d="m54.4 55.4c-.3 0-.5-.1-.7-.3l-9.3-9.3c-.4-.4-.4-1 0-1.4s1-.4 1.4 0l9.3 9.3c.4.4.4 1 0 1.4-.2.2-.4.3-.7.3z" fill="#ffffffff" data-original-color="#000000ff"/></g><g><path d="m44.7 49.8c-.6 0-1-.4-1-1v-4.1c0-.6.4-1 1-1h4.1c.6 0 1 .4 1 1s-.4 1-1 1h-3.1v3.1c0 .6-.4 1-1 1z" fill="#ffffffff" data-original-color="#000000ff"/></g></g><g><path d="m58.8 65c-1.6 0-3.2-.6-4.4-1.8-2.4-2.4-2.4-6.3 0-8.7s6.3-2.4 8.7 0 2.4 6.3 0 8.7c-1.1 1.2-2.7 1.8-4.3 1.8zm.1-10.3c-1.1 0-2.1.4-2.9 1.2-1.6 1.6-1.6 4.3 0 5.9s4.3 1.6 5.9 0 1.6-4.3 0-5.9c-.9-.8-2-1.2-3-1.2z" fill="#ffffffff" data-original-color="#000000ff"/></g></g><g><g><g><path d="m11.6 55.4c-.3 0-.5-.1-.7-.3-.4-.4-.4-1 0-1.4l9.3-9.3c.4-.4 1-.4 1.4 0s.4 1 0 1.4l-9.3 9.3c-.2.2-.4.3-.7.3z" fill="#ffffffff" data-original-color="#000000ff"/></g><g><path d="m21.3 49.8c-.6 0-1-.4-1-1v-3.1h-3.1c-.6 0-1-.4-1-1s.4-1 1-1h4.1c.6 0 1 .4 1 1v4.1c0 .6-.4 1-1 1z" fill="#ffffffff" data-original-color="#000000ff"/></g></g><g><path d="m7.1 65c-1.6 0-3.2-.6-4.4-1.8-2.4-2.4-2.4-6.3 0-8.7s6.3-2.4 8.7 0 2.4 6.3 0 8.7c-1.1 1.2-2.7 1.8-4.3 1.8zm0-10.3c-1.1 0-2.1.4-2.9 1.2-1.6 1.6-1.6 4.3 0 5.9s4.3 1.6 5.9 0 1.6-4.3 0-5.9c-.8-.8-1.9-1.2-3-1.2z" fill="#ffffffff" data-original-color="#000000ff"/></g><g><g><path d="m45.1 21.9c-.3 0-.5-.1-.7-.3-.4-.4-.4-1 0-1.4l9.3-9.3c.4-.4 1-.4 1.4 0s.4 1 0 1.4l-9.3 9.3c-.2.2-.4.3-.7.3z" fill="#ffffffff" data-original-color="#000000ff"/></g><g><path d="m48.8 22.3h-4.1c-.6 0-1-.4-1-1v-4.1c0-.6.4-1 1-1s1 .4 1 1v3.1h3.1c.6 0 1 .4 1 1s-.4 1-1 1z" fill="#ffffffff" data-original-color="#000000ff"/></g></g><g><path d="m58.8 13.3c-1.6 0-3.2-.6-4.4-1.8-2.4-2.4-2.4-6.3 0-8.7 2.4-2.4 6.3-2.4 8.7 0s2.4 6.3 0 8.7c-1.1 1.2-2.7 1.8-4.3 1.8zm.1-10.3c-1.1 0-2.1.4-2.9 1.2-1.6 1.6-1.6 4.3 0 5.9s4.3 1.6 5.9 0 1.6-4.3 0-5.9c-.9-.8-2-1.2-3-1.2z" fill="#ffffffff" data-original-color="#000000ff"/></g></g></g></g></g></svg>