<svg xmlns="http://www.w3.org/2000/svg" xmlns:xlink="http://www.w3.org/1999/xlink" version="1.1" id="Capa_1" x="0px" y="0px" viewBox="0 0 512 512" style="enable-background:new 0 0 512 512;" xml:space="preserve" width="300" height="300" xmlns:svgjs="http://svgjs.dev/svgjs"><g transform="matrix(1,0,0,1,0,0)"><g>
	<path style="stroke-linecap: round; stroke-linejoin: round; stroke-miterlimit: 10;" d="&#10;&#9;&#9;M162.81,290.829l15.53,15.53v69.78c-11.21-6.08-21.63-13.44-31.06-21.88v-47.9L162.81,290.829z" stroke-width="15" data-original-stroke-width="15" fill="none" stroke="#be1717ff" data-original-stroke-color="#000000ff"/>
	<path style="stroke-linecap: round; stroke-linejoin: round; stroke-miterlimit: 10;" d="&#10;&#9;&#9;M209.41,321.889l31.06-31.06v104.22c-10.69-1.01-21.07-3.05-31.06-6.02V321.889z" stroke-width="15" data-original-stroke-width="15" fill="none" stroke="#be1717ff" data-original-stroke-color="#000000ff"/>
	<path style="stroke-linecap: round; stroke-linejoin: round; stroke-miterlimit: 10;" d="&#10;&#9;&#9;M271.53,272.629l31.06,31.07v85.33c-9.99,2.97-20.37,5.01-31.06,6.02V272.629z" stroke-width="15" data-original-stroke-width="15" fill="none" stroke="#be1717ff" data-original-stroke-color="#000000ff"/>
	
		<line style="stroke-linecap: round; stroke-linejoin: round; stroke-miterlimit: 10;" x1="23.031" y1="473.438" x2="488.969" y2="473.438" stroke-width="15" data-original-stroke-width="15" fill="none" stroke="#be1717ff" data-original-stroke-color="#000000ff"/>
	<path style="stroke-linecap: round; stroke-linejoin: round; stroke-miterlimit: 10;" d="&#10;&#9;&#9;M423.438,411.312h-67.726c-12.862,0-25.654,1.959-37.9,5.893c-19.481,6.258-40.252,9.638-61.812,9.638s-42.331-3.38-61.812-9.638&#10;&#9;&#9;c-12.246-3.934-25.038-5.893-37.9-5.893H88.562c-27.614,0-50,22.386-50,50V479.5c0,13.807,11.193,25,25,25h384.875&#10;&#9;&#9;c13.807,0,25-11.193,25-25v-18.188C473.438,433.698,451.052,411.312,423.438,411.312z" stroke-width="15" data-original-stroke-width="15" fill="none" stroke="#be1717ff" data-original-stroke-color="#000000ff"/>
	<path style="stroke-linecap: round; stroke-linejoin: round; stroke-miterlimit: 10;" d="&#10;&#9;&#9;M157.182,69.734c15.286-6.812,29.078-7.267,36.579,0.233c12.803,12.803,2.424,43.941-23.183,69.548s-56.744,35.986-69.548,23.182&#10;&#9;&#9;s-2.424-43.941,23.183-69.548c1.184-1.184,2.38-2.336,3.585-3.454" stroke-width="15" data-original-stroke-width="15" fill="none" stroke="#be1717ff" data-original-stroke-color="#000000ff"/>
	
		<polygon style="stroke-linecap: round; stroke-linejoin: round; stroke-miterlimit: 10;" points="&#10;&#9;&#9;349.188,159.896 362.961,173.669 362.96,173.669 311.692,224.938 265.098,178.344 201.641,241.801 162.812,202.973 &#10;&#9;&#9;100.688,265.098 122.652,287.062 162.812,246.902 201.641,285.73 265.098,222.273 311.692,268.867 384.925,195.633 &#10;&#9;&#9;398.698,209.406 411.312,147.281 &#9;" stroke-width="15" data-original-stroke-width="15" fill="none" stroke="#be1717ff" data-original-stroke-color="#000000ff"/>
	<path style="stroke-linecap: round; stroke-linejoin: round; stroke-miterlimit: 10;" d="&#10;&#9;&#9;M364.72,325.031v29.228c-9.43,8.44-19.85,15.8-31.06,21.88v-85.31l31.06-31.07v30.272" stroke-width="15" data-original-stroke-width="15" fill="none" stroke="#be1717ff" data-original-stroke-color="#000000ff"/>
	<path style="stroke-linecap: round; stroke-linejoin: round; stroke-miterlimit: 10;" d="&#10;&#9;&#9;M256,108.453c-7.148,0-12.943-5.795-12.943-12.943c0-7.148,5.795-12.943,12.943-12.943c3.574,0,6.81,1.449,9.152,3.791" stroke-width="15" data-original-stroke-width="15" fill="none" stroke="#be1717ff" data-original-stroke-color="#000000ff"/>
	<path style="stroke-linecap: round; stroke-linejoin: round; stroke-miterlimit: 10;" d="&#10;&#9;&#9;M256,108.453c7.148,0,12.943,5.795,12.943,12.943s-5.795,12.943-12.943,12.943c-3.574,0-6.81-1.449-9.152-3.791" stroke-width="15" data-original-stroke-width="15" fill="none" stroke="#be1717ff" data-original-stroke-color="#000000ff"/>
	
		<line style="stroke-linecap: round; stroke-linejoin: round; stroke-miterlimit: 10;" x1="256" y1="134.339" x2="256" y2="147.281" stroke-width="15" data-original-stroke-width="15" fill="none" stroke="#be1717ff" data-original-stroke-color="#000000ff"/>
	
		<line style="stroke-linecap: round; stroke-linejoin: round; stroke-miterlimit: 10;" x1="256" y1="69.625" x2="256" y2="82.568" stroke-width="15" data-original-stroke-width="15" fill="none" stroke="#be1717ff" data-original-stroke-color="#000000ff"/>
	<path style="stroke-linecap: round; stroke-linejoin: round; stroke-miterlimit: 10;" d="&#10;&#9;&#9;M82.188,375.911c10.832,13.132,23.124,25.015,36.626,35.402" stroke-width="15" data-original-stroke-width="15" fill="none" stroke="#be1717ff" data-original-stroke-color="#000000ff"/>
	<path style="stroke-linecap: round; stroke-linejoin: round; stroke-miterlimit: 10;" d="&#10;&#9;&#9;M393.186,411.312c53.523-41.172,88.017-105.862,88.017-178.609C481.203,108.327,380.376,7.5,256,7.5S30.797,108.327,30.797,232.703&#10;&#9;&#9;c0,41.694,11.331,80.742,31.081,114.232" stroke-width="15" data-original-stroke-width="15" fill="none" stroke="#be1717ff" data-original-stroke-color="#000000ff"/>
</g></g></svg>