<svg id="Layer_1" enable-background="new 0 0 512 512" viewBox="0 0 512 512" xmlns="http://www.w3.org/2000/svg" width="300" height="300" version="1.1" xmlns:xlink="http://www.w3.org/1999/xlink" xmlns:svgjs="http://svgjs.dev/svgjs"><g transform="matrix(1,0,0,1,0,0)"><path d="m94.5 106.4c0-8.7 5.38-16.15 12.98-19.24v-4.94c0-4.42 3.58-8.01 8.01-8.01s8.01 3.58 8.01 8.01v4.12c4.52 1.2 8.58 3.9 11.42 7.74 2.63 3.56 1.87 8.57-1.68 11.2-3.56 2.63-8.57 1.87-11.2-1.68-.91-1.23-2.3-1.94-3.82-1.94h-2.95c-2.57 0-4.75 2.17-4.75 4.75s2.17 4.75 4.75 4.75h1.47c.63 0 1.25.08 1.84.22 10.1 1.4 17.9 10.07 17.9 20.54 0 8.7-5.38 16.15-12.98 19.24v4.94c0 4.42-3.58 8.01-8.01 8.01s-8.01-3.58-8.01-8.01v-4.12c-4.52-1.2-8.59-3.9-11.42-7.74-2.63-3.56-1.87-8.57 1.68-11.2 3.56-2.63 8.57-1.88 11.2 1.68.91 1.23 2.3 1.94 3.82 1.94h2.95c2.62 0 4.75-2.13 4.75-4.75 0-2.57-2.17-4.75-4.75-4.75h-1.47c-.63 0-1.25-.08-1.84-.22-10.1-1.4-17.9-10.06-17.9-20.54zm298.9 20.54c.59.14 1.21.22 1.84.22h1.47c2.57 0 4.75 2.17 4.75 4.75 0 2.62-2.13 4.75-4.75 4.75h-2.95c-1.52 0-2.91-.71-3.82-1.94-2.63-3.56-7.64-4.31-11.2-1.68s-4.31 7.64-1.68 11.2c2.83 3.83 6.9 6.54 11.42 7.74v4.12c0 4.42 3.58 8.01 8.01 8.01s8.01-3.58 8.01-8.01v-4.94c7.6-3.09 12.98-10.54 12.98-19.24 0-10.48-7.81-19.14-17.9-20.54-.59-.14-1.21-.22-1.84-.22h-1.47c-2.57 0-4.75-2.17-4.75-4.75s2.17-4.75 4.75-4.75h2.95c1.52 0 2.91.71 3.82 1.94 2.63 3.56 7.64 4.31 11.2 1.68s4.31-7.64 1.68-11.2c-2.83-3.83-6.9-6.54-11.42-7.74v-4.12c0-4.42-3.58-8.01-8.01-8.01s-8.01 3.58-8.01 8.01v4.94c-7.6 3.09-12.98 10.54-12.98 19.24-.01 10.48 7.8 19.14 17.9 20.54zm118.61 133.18v24.01c0 7.1-5.79 12.88-12.91 12.88h-186.23l59.75 103.49h20.86c8.01 0 14.53 6.5 14.53 14.5v32c0 8-6.52 14.5-14.53 14.5h-274.99c-7.99 0-14.5-6.5-14.5-14.5v-32c0-7.99 6.5-14.5 14.5-14.5h20.86l59.75-103.49h-186.23c-7.1 0-12.88-5.78-12.88-12.88v-24.01c0-7.1 5.78-12.88 12.88-12.88h10.98v-28.47c0-24.98 14.44-47.86 36.23-59.13-8.32-11.36-13.24-25.35-13.24-40.48 0-37.86 30.79-68.67 68.64-68.67 37.86 0 68.67 30.8 68.67 68.67 0 15.13-4.93 29.12-13.25 40.48 21.78 11.27 36.21 34.15 36.21 59.13v28.47h20.73l3.65-6.31c5.16-8.99 14.1-14.15 24.51-14.15 10.24 0 19.39 5.3 24.49 14.17l3.64 6.3h20.76v-28.47c0-24.98 14.43-47.86 36.2-59.13-8.32-11.36-13.24-25.35-13.24-40.48 0-37.86 30.79-68.67 68.64-68.67 37.86 0 68.67 30.8 68.67 68.67 0 15.13-4.93 29.12-13.25 40.48 21.78 11.27 36.21 34.15 36.21 59.13v28.47h10.98c7.12-.01 12.91 5.77 12.91 12.87zm-168.15-140.96c0 29.03 23.61 52.65 52.63 52.65 29.03 0 52.65-23.62 52.65-52.65s-23.62-52.66-52.66-52.66c-29.01 0-52.62 23.62-52.62 52.66zm-22.96 128.08h151.2v-28.47c0-20.54-12.85-39.21-31.73-46.84-11.91 9.92-27.21 15.9-43.89 15.9-16.67 0-31.96-5.98-43.86-15.9-18.87 7.63-31.72 26.3-31.72 46.84zm-258.04-128.08c0 29.03 23.61 52.65 52.63 52.65 29.03 0 52.65-23.62 52.65-52.65s-23.62-52.66-52.65-52.66c-29.02 0-52.63 23.62-52.63 52.66zm-22.99 128.08h151.23v-28.47c0-20.54-12.85-39.21-31.73-46.84-11.91 9.92-27.21 15.9-43.89 15.9-16.67 0-31.96-5.98-43.86-15.9-18.89 7.63-31.75 26.3-31.75 46.84zm168.48 33.76 10.25-17.75h-202.6v17.75zm183.64 135.53h-23.96c-.01 0-.02 0-.02 0s-.02 0-.02 0h-247.98v28.97h271.98zm-37.86-16.02-81.61-141.35c-.02-.04-.05-.09-.07-.13l-5.83-10.1c-2.28-3.97-6.04-6.14-10.61-6.14-4.58 0-8.36 2.18-10.63 6.13l-5.84 10.11c-.02.05-.05.09-.08.14l-81.61 141.34zm141.87-137.25h-202.63l10.25 17.74h192.38z" fill="#be1717ff" data-original-color="#000000ff"/></g></svg>