<svg id="Layer_1" viewBox="0 0 512 512" xmlns="http://www.w3.org/2000/svg" data-name="Layer 1" width="300" height="300" version="1.1" xmlns:xlink="http://www.w3.org/1999/xlink" xmlns:svgjs="http://svgjs.dev/svgjs"><g transform="matrix(1,0,0,1,0,0)"><path d="m85.825 428.7h20.7a4.453 4.453 0 0 1 4.444 4.444v20.7a4.454 4.454 0 0 1 -4.444 4.445h-20.7a4.454 4.454 0 0 1 -4.445-4.445v-20.7a4.454 4.454 0 0 1 4.445-4.444zm51.017 0h20.7a4.454 4.454 0 0 1 4.445 4.444v20.7a4.454 4.454 0 0 1 -4.445 4.445h-20.7a4.453 4.453 0 0 1 -4.444-4.445v-20.7a4.453 4.453 0 0 1 4.444-4.444zm51.018 0h20.7a4.453 4.453 0 0 1 4.444 4.444v20.7a4.453 4.453 0 0 1 -4.444 4.445h-20.7a4.454 4.454 0 0 1 -4.445-4.445v-20.7a4.454 4.454 0 0 1 4.445-4.444zm-102.035-50.552h20.7a4.453 4.453 0 0 1 4.444 4.444v20.7a4.453 4.453 0 0 1 -4.444 4.444h-20.7a4.453 4.453 0 0 1 -4.445-4.436v-20.7a4.453 4.453 0 0 1 4.445-4.444zm51.017 0h20.7a4.453 4.453 0 0 1 4.445 4.444v20.7a4.453 4.453 0 0 1 -4.445 4.444h-20.7a4.452 4.452 0 0 1 -4.442-4.436v-20.7a4.452 4.452 0 0 1 4.444-4.444zm51.018 0h20.7a4.452 4.452 0 0 1 4.444 4.444v20.7a4.452 4.452 0 0 1 -4.444 4.444h-20.7a4.453 4.453 0 0 1 -4.445-4.444v-20.7a4.453 4.453 0 0 1 4.445-4.444zm-95.954-86.448h-8.753a1.175 1.175 0 0 0 -1.153 1.148v21.812a1.175 1.175 0 0 0 1.152 1.152h8.753a1.175 1.175 0 0 0 1.152-1.152v-21.812a1.175 1.175 0 0 0 -1.152-1.152zm120.429 0h-8.753a1.175 1.175 0 0 0 -1.152 1.152v21.808a1.175 1.175 0 0 0 1.152 1.152h8.753a1.175 1.175 0 0 0 1.153-1.152v-21.812a1.175 1.175 0 0 0 -1.153-1.152zm32.262 66.16h-193.706v119.947a3.678 3.678 0 0 0 3.648 3.648h186.411a3.678 3.678 0 0 0 3.647-3.648v-119.951zm-193.706-14.549v-29.3a3.678 3.678 0 0 1 3.648-3.647h12.917v4.294a15.723 15.723 0 0 0 15.7 15.7h8.753a15.723 15.723 0 0 0 15.7-15.7v-4.294h80.281v4.294a15.723 15.723 0 0 0 15.7 15.7h8.753a15.723 15.723 0 0 0 15.7-15.7v-4.294h12.907a3.678 3.678 0 0 1 3.647 3.647v29.3zm158.9-203.337a7.273 7.273 0 1 1 14.545 0v1.138a22.344 22.344 0 0 1 8.24 5.006 21.086 21.086 0 0 1 6.586 15.274 7.273 7.273 0 1 1 -14.545 0 6.665 6.665 0 0 0 -2.1-4.819 8.092 8.092 0 0 0 -10.912 0 6.584 6.584 0 0 0 0 9.639 7.842 7.842 0 0 0 5.455 2.116 22.384 22.384 0 0 1 15.513 6.208 21 21 0 0 1 0 30.548 22.333 22.333 0 0 1 -8.24 5.007v1.137a7.273 7.273 0 1 1 -14.545 0v-1.137a22.325 22.325 0 0 1 -8.24-5.007 21.08 21.08 0 0 1 -6.587-15.274 7.273 7.273 0 1 1 14.545 0 6.666 6.666 0 0 0 2.1 4.82 8.091 8.091 0 0 0 10.911 0 6.586 6.586 0 0 0 0-9.64 7.843 7.843 0 0 0 -5.456-2.116 22.385 22.385 0 0 1 -15.512-6.207 21 21 0 0 1 0-30.549 22.328 22.328 0 0 1 8.24-5.006v-1.138zm48.871-87.857h-34.327v37.645h138.99v-37.645h-34.325v-.027a7.245 7.245 0 0 1 -7.13-5.967c-.724-3.988-3.819-7.691-8.405-10.5a40.519 40.519 0 0 0 -39.269 0c-4.405 2.7-7.434 6.225-8.307 10.033a7.274 7.274 0 0 1 -7.228 6.464zm119.209-2.2v-5.073a7.272 7.272 0 0 0 -7.273-7.272h-36.34a33.221 33.221 0 0 0 -13.235-14.338 54.721 54.721 0 0 0 -54.383 0 33.212 33.212 0 0 0 -13.234 14.338h-36.344a7.272 7.272 0 0 0 -7.272 7.272v5.075h-46.563a51.35 51.35 0 0 0 -51.22 51.22v194.681h-4.4v-2.972a15.723 15.723 0 0 0 -15.7-15.7h-8.754a15.723 15.723 0 0 0 -15.7 15.7v2.972h-12.914a18.227 18.227 0 0 0 -18.193 18.193v163.794a18.225 18.225 0 0 0 18.193 18.193h186.411a18.258 18.258 0 0 0 16.4-10.338h167.08a51.35 51.35 0 0 0 51.22-51.22v-333.3a51.35 51.35 0 0 0 -51.22-51.22zm-238.235 245.903h-13.083v-194.681a36.8 36.8 0 0 1 36.674-36.674h46.563v13.083h-46.563a23.64 23.64 0 0 0 -23.591 23.591zm284.164 100.604-34.487 36.189v-27.144a9.089 9.089 0 0 1 9.045-9.045zm-41.709 61.609h.084.1.11.047l.139-.009h.067l.131-.012h.012.029l.125-.014h.028.012l.132-.019.062-.009h.009l.1-.017h.017l.06-.011h.023l.1-.019.058-.012.125-.027h.013.011l.137-.033.046-.012.133-.036.045-.013.12-.035.061-.019.127-.042h.011l.033-.012.115-.04.02-.007h.009l.138-.053.019-.007.03-.012.092-.037.018-.007.044-.02.123-.053.051-.023.1-.045.031-.015.027-.014.118-.059.013-.006.019-.009.087-.046.018-.01.054-.029.11-.062.051-.029.1-.058.013-.008.01-.006.029-.018.088-.055.04-.025.082-.054.022-.014.056-.038.081-.056.017-.012.038-.027.105-.076.018-.014.014-.01.11-.084.014-.011.021-.017.1-.079.017-.014.016-.012.1-.083.038-.033.014-.012.073-.065.026-.023.014-.014.105-.1.009-.009.015-.015.1-.1.009-.009.006-.006.1-.1.017-.017.021-.022.086-.094.024-.025.087-.1.016-.018.018-.022.091-.106 57.994-60.857a7.253 7.253 0 0 0 2.378-5.379v-288.063a23.64 23.64 0 0 0 -23.591-23.591h-46.556v-13.083h46.564a36.8 36.8 0 0 1 36.675 36.674v333.3a36.8 36.8 0 0 1 -36.675 36.674h-165.292v-13.08h122.95zm-145.391-162.213h-8.666v-2.972a15.723 15.723 0 0 0 -15.7-15.7h-1.971v-12.376h26.337zm115.555 63.023v-122.336h26.335v122.336zm-70.945 0v-147.672h26.335v147.672zm127.257 0a7.273 7.273 0 0 1 0 14.546h-149.425v70.1h115.627v-38.02a23.638 23.638 0 0 1 23.59-23.591h35.121v-280.739a9.091 9.091 0 0 0 -9.046-9.045h-46.564v4.941a7.273 7.273 0 0 1 -7.273 7.273h-153.535a7.273 7.273 0 0 1 -7.272-7.273v-4.941h-46.563a9.089 9.089 0 0 0 -9.045 9.045v194.681h33.7v-2.972a15.656 15.656 0 0 1 4.605-11.092 15.837 15.837 0 0 1 3.329-2.544v-21.712a7.272 7.272 0 0 1 7.273-7.272h40.88a7.273 7.273 0 0 1 7.273 7.272v41.528a18.252 18.252 0 0 1 7.9 14.986v44.83h7.622v-154.944a7.272 7.272 0 0 1 7.272-7.273h40.881a7.272 7.272 0 0 1 7.272 7.273v154.943h15.52v-129.609a7.272 7.272 0 0 1 7.273-7.272h40.88a7.272 7.272 0 0 1 7.272 7.272v129.609zm-62.681-211.6a7.273 7.273 0 1 1 0-14.546h50.377a7.273 7.273 0 1 1 0 14.546zm0 28.842a7.273 7.273 0 1 1 0-14.545h50.377a7.273 7.273 0 1 1 0 14.545z" fill-rule="evenodd" fill="#ffffffff" data-original-color="#000000ff"/></g></svg>