<svg height="300" viewBox="0 0 64 64" width="300" xmlns="http://www.w3.org/2000/svg" version="1.1" xmlns:xlink="http://www.w3.org/1999/xlink" xmlns:svgjs="http://svgjs.dev/svgjs"><g transform="matrix(1,0,0,1,0,0)"><path d="m52 2.0012c-5.5109 0-9.9998 4.4889-9.9998 9.9997s4.4889 9.9997 9.9998 9.9997 9.9998-4.4889 9.9998-9.9997-4.4889-9.9997-9.9998-9.9997zm-20.134.00781a1.0001 1.0001 0 0 0 -.49022.21093l-4.9999 3.9999a.99998.99997 0 0 0 -.15625 1.4062.99998.99997 0 0 0 1.4062.15625l3.3749-2.6991v19.947c-2.073-3.0329-5.5583-5.0291-9.4998-5.0291-6.1714 0-11.223 4.8919-11.486 11h-4.9315l2.6992-3.3749a.99998.99997 0 0 0 -.15625-1.4062.99998.99997 0 0 0 -.73631-.21288.99998.99997 0 0 0 -.66991.36913l-3.9999 4.9998a1.0001 1.0001 0 0 0 0 1.25l3.9999 4.9998a.99998.99997 0 0 0 1.4062.15624.99998.99997 0 0 0 .15625-1.4062l-2.6992-3.3749h25.917v25.917l-3.3749-2.6991a.99998.99997 0 0 0 -.73631-.21288.99998.99997 0 0 0 -.66991.36913.99998.99997 0 0 0 .15625 1.4062l4.9999 3.9999a1.0001 1.0001 0 0 0 1.25 0l4.9999-3.9999a.99998.99997 0 0 0 .15625-1.4062.99998.99997 0 0 0 -1.4062-.15624l-3.3749 2.6991v-19.447c2.073 3.0329 5.5583 5.0291 9.4998 5.0291 6.3393 0 11.5-5.1604 11.5-11.5h4.9179l-2.6992 3.3749a.99998.99997 0 0 0 .15625 1.4062.99998.99997 0 0 0 1.4062-.15624l3.9999-4.9998a1.0001 1.0001 0 0 0 0-1.25l-3.9999-4.9998a.99998.99997 0 0 0 -1.4062-.15624.99998.99997 0 0 0 -.15625 1.4062l2.6992 3.3749h-25.917v-25.917l3.3749 2.6991a.99998.99997 0 0 0 1.4062-.15625.99998.99997 0 0 0 -.15625-1.4062l-4.9999-3.9999a1.0001 1.0001 0 0 0 -.75975-.21093zm20.134 1.9921c4.43 0 7.9998 3.5698 7.9998 7.9998s-3.5698 7.9998-7.9998 7.9998-7.9998-3.5698-7.9998-7.9998 3.5698-7.9998 7.9998-7.9998zm0 1.9999a.99998.99997 0 0 0 -.99998.99997v.17382c-1.1604.41568-2 1.5308-2 2.8261 0 1.645 1.355 2.9999 2.9999 2.9999.56412 0 .99998.43586.99998.99997s-.43586.99997-.99998.99997c-.28206 0-.52493-.11087-.70702-.29296a.99998.99997 0 0 0 -1.414 0 .99998.99997 0 0 0 0 1.414c.31188.31188.69515.55604 1.1211.70701v.17187a.99998.99997 0 0 0 .99998.99997.99998.99997 0 0 0 .99998-.99997v-.17382c1.1604-.41568 2-1.5308 2-2.8261 0-1.645-1.355-2.9999-2.9999-2.9999-.56412 0-.99998-.43586-.99998-.99997s.43586-.99997.99998-.99997c.28206 0 .52493.11087.70702.29296a.99998.99997 0 0 0 1.414 0 .99998.99997 0 0 0 0-1.414c-.31188-.31188-.69515-.55604-1.1211-.70701v-.17187a.99998.99997 0 0 0 -.99998-.99997zm-30.499 16c5.0908 0 9.2295 3.9749 9.4881 8.9997h-18.976c.25863-5.0248 4.3973-8.9997 9.4881-8.9997zm11.5 11h19c0 5.2584-4.2414 9.4997-9.4998 9.4997s-9.4998-4.2413-9.4998-9.4997z" fill-rule="evenodd" fill="#ffffffff" data-original-color="#000000ff"/></g></svg>