<svg xmlns="http://www.w3.org/2000/svg" xmlns:xlink="http://www.w3.org/1999/xlink" version="1.1" id="Capa_1" x="0px" y="0px" viewBox="0 0 512 512" style="enable-background:new 0 0 512 512;" xml:space="preserve" width="300" height="300" xmlns:svgjs="http://svgjs.dev/svgjs"><g transform="matrix(1,0,0,1,0,0)"><g>
	<path style="fill-rule: evenodd; clip-rule: evenodd; stroke-miterlimit: 22.9256;" d="&#10;&#9;&#9;M7.5,76V38.5h497v345c0,8.248-6.752,15-15,15h-467c-8.248,0-15-6.75-15-15V91" stroke-width="15" data-original-stroke-width="15" fill="none" stroke="#ffffffff" data-original-stroke-color="#000000ff"/>
	
		<line style="fill-rule: evenodd; clip-rule: evenodd; stroke-miterlimit: 22.9256;" x1="7.5" y1="368.501" x2="504.5" y2="368.501" stroke-width="15" data-original-stroke-width="15" fill="none" stroke="#ffffffff" data-original-stroke-color="#000000ff"/>
	<path style="fill-rule: evenodd; clip-rule: evenodd; stroke-miterlimit: 22.9256;" d="&#10;&#9;&#9;M315.999,473.499h15 M345.999,473.499h37.5l0-15c0-8.25-6.756-15-15-15H143.501c-8.246,0-15,6.75-15,15l0,15h172.498" stroke-width="15" data-original-stroke-width="15" fill="none" stroke="#ffffffff" data-original-stroke-color="#000000ff"/>
	<path style="fill-rule: evenodd; clip-rule: evenodd; stroke-miterlimit: 22.9256;" d="&#10;&#9;&#9;M278.499,398.5l15,44.999 M218.501,443.499l15-44.999" stroke-width="15" data-original-stroke-width="15" fill="none" stroke="#ffffffff" data-original-stroke-color="#000000ff"/>
	<path style="fill-rule: evenodd; clip-rule: evenodd; stroke-miterlimit: 22.9256;" d="&#10;&#9;&#9;M474.5,76V61 M474.5,106V91" stroke-width="15" data-original-stroke-width="15" fill="none" stroke="#ffffffff" data-original-stroke-color="#000000ff"/>
	<path style="fill-rule: evenodd; clip-rule: evenodd; stroke-miterlimit: 22.9256;" d="&#10;&#9;&#9;M256,76c82.843,0,150,67.157,150,150h-45c0-58.004-46.996-105-105-105s-105,46.996-105,105h-45C106,143.157,173.157,76,256,76z" stroke-width="15" data-original-stroke-width="15" fill="none" stroke="#ffffffff" data-original-stroke-color="#000000ff"/>
	<path style="fill-rule: evenodd; clip-rule: evenodd; stroke-miterlimit: 22.9256;" d="&#10;&#9;&#9;M181.748,151.748l-31.814-31.814 M330.252,151.748l31.814-31.814 M256,121V76" stroke-width="15" data-original-stroke-width="15" fill="none" stroke="#ffffffff" data-original-stroke-color="#000000ff"/>
	
		<circle style="fill-rule: evenodd; clip-rule: evenodd; stroke-miterlimit: 22.9256;" cx="256" cy="226" r="18.75" stroke-width="15" data-original-stroke-width="15" fill="none" stroke="#ffffffff" data-original-stroke-color="#000000ff"/>
	
		<line style="fill-rule: evenodd; clip-rule: evenodd; stroke-miterlimit: 22.9256;" x1="264.312" y1="208.067" x2="288.875" y2="155.073" stroke-width="15" data-original-stroke-width="15" fill="none" stroke="#ffffffff" data-original-stroke-color="#000000ff"/>
	
		<polyline style="fill-rule: evenodd; clip-rule: evenodd; stroke-linecap: square; stroke-miterlimit: 10;" points="&#10;&#9;&#9;205.972,278.224 184.738,278.224 184.738,330.613 &#9;" stroke-width="15" data-original-stroke-width="15" fill="none" stroke="#ffffffff" data-original-stroke-color="#000000ff"/>
	
		<line style="fill-rule: evenodd; clip-rule: evenodd; stroke-linecap: square; stroke-miterlimit: 10;" x1="187.743" y1="303.922" x2="204.285" y2="303.922" stroke-width="15" data-original-stroke-width="15" fill="none" stroke="#ffffffff" data-original-stroke-color="#000000ff"/>
	
		<path style="fill-rule: evenodd; clip-rule: evenodd; stroke-linecap: square; stroke-linejoin: round; stroke-miterlimit: 10;" d="&#10;&#9;&#9;M325.517,283.649c0,0-9.47-7.961-20.637-4.596c-10.254,3.089-11.688,14.913-4.27,19.749c0,0,7.28,3.248,15.353,6.226&#10;&#9;&#9;c19.436,7.169,11.063,25.972-4.583,25.972c-7.835,0-14.411-3.431-18.391-7.823" stroke-width="15" data-original-stroke-width="15" fill="none" stroke="#ffffffff" data-original-stroke-color="#000000ff"/>
	
		<path style="fill-rule: evenodd; clip-rule: evenodd; stroke-linecap: square; stroke-miterlimit: 10;" d="&#10;&#9;&#9;M235.972,331.001v-52.777l14.695,0c8.226,0,15.185,6.668,15.185,14.893s-6.959,14.893-15.185,14.893l-11.591,0.066" stroke-width="15" data-original-stroke-width="15" fill="none" stroke="#ffffffff" data-original-stroke-color="#000000ff"/>
</g></g></svg>