<svg id="Layer_1" enable-background="new 0 0 48 48" viewBox="0 0 48 48" xmlns="http://www.w3.org/2000/svg" width="300" height="300" version="1.1" xmlns:xlink="http://www.w3.org/1999/xlink" xmlns:svgjs="http://svgjs.dev/svgjs"><g transform="matrix(1,0,0,1,0,0)"><g><path d="m41.28 30.14c0-.01.01-.01.01-.02.7-1.96 1.05-4.01 1.05-6.11s-.35-4.16-1.05-6.1c0-.01-.01-.03-.02-.04-.07-.22-.16-.44-.25-.66.08-.51.12-1.03.12-1.52 0-5.52-4.49-10.02-10.02-10.02-1.05 0-2.06.16-3.02.47-1.32-.32-2.7-.48-4.1-.48-5.2 0-10.17 2.22-13.64 6.09 0 0 0 0-.01.01 0 .01-.01.01-.02.02-1.61 1.78-2.83 3.83-3.62 6.08v.01c0 .01-.01.01-.01.02-.69 1.95-1.04 4.01-1.04 6.11s.35 4.16 1.05 6.11c0 .01.01.02.01.03v.01c.79 2.25 2.01 4.3 3.62 6.08.01.01.01.01.02.02 0 0 0 0 .01.01 3.47 3.87 8.43 6.09 13.64 6.09 5.2 0 10.17-2.22 13.64-6.09 0 0 0 0 .01-.01 0-.01.01-.01.02-.02 1.59-1.79 2.81-3.83 3.6-6.09zm.04-6.64h-3.96c1.46-1.16 2.58-2.72 3.22-4.52.45 1.46.7 2.98.74 4.52zm-13.02-16.38c.89-.31 1.85-.46 2.84-.46 4.97 0 9.02 4.04 9.02 9.02 0 .49-.04.99-.12 1.5-.04.26-.1.5-.16.76-.63 2.4-2.22 4.46-4.39 5.64-1.64.92-3.63 1.28-5.48 1.06-1.11-.14-2.22-.51-3.21-1.06-2.16-1.18-3.76-3.23-4.38-5.63-.19-.75-.28-1.51-.28-2.26 0-1.15.22-2.29.65-3.38.74-1.82 2.07-3.37 3.76-4.36.52-.35 1.11-.62 1.75-.83zm-9.45 22.33c-.17-1.61-.26-3.27-.28-4.95h7.86c.94.51 1.94.85 2.99 1.03-.04 1.36-.13 2.67-.26 3.91h-10.31zm10.19 1c-.24 1.82-.57 3.48-1 4.95h-8.09c-.42-1.47-.76-3.13-1-4.95zm-7.72-12.9h-2.36c.24-1.82.57-3.48 1-4.95h1.65c-.32 1-.49 2.03-.49 3.07 0 .63.08 1.26.2 1.88zm.23 1c.6 1.96 1.77 3.69 3.36 4.95h-6.34c.02-1.68.11-3.34.28-4.95zm2.45-11.89c.83 0 1.65.07 2.45.18-.15.08-.3.15-.44.23-1.77 1.05-3.19 2.65-4.03 4.53h-1.72c1.03-3.1 2.4-4.94 3.74-4.94zm-2.32.18c-.94.99-1.78 2.6-2.46 4.77h-7.3c2.66-2.61 6.08-4.28 9.76-4.77zm-10.73 5.77h7.97c-.41 1.48-.74 3.14-.97 4.95h-10.03c.72-1.82 1.73-3.48 3.03-4.95zm-3.4 5.94h10.29c-.17 1.61-.26 3.27-.28 4.95h-10.88c.05-1.69.34-3.35.87-4.95zm-.87 5.95h10.89c.02 1.67.11 3.33.28 4.95h-10.3c-.53-1.6-.82-3.26-.87-4.95zm4.27 10.89c-1.3-1.47-2.31-3.14-3.03-4.95h10.03c.23 1.81.56 3.47.97 4.95zm.96 1h7.3c.68 2.17 1.52 3.78 2.46 4.77-3.67-.49-7.09-2.16-9.76-4.77zm12.09 4.95c-1.34 0-2.71-1.84-3.73-4.95h7.47c-1.03 3.11-2.4 4.95-3.74 4.95zm2.32-.18c.94-.99 1.78-2.6 2.46-4.77h7.3c-2.66 2.61-6.08 4.28-9.76 4.77zm10.73-5.77h-7.97c.41-1.48.74-3.14.97-4.95h10.03c-.72 1.81-1.73 3.48-3.03 4.95zm-6.89-5.94c.13-1.21.21-2.48.25-3.8.24.02.48.04.72.04 1.65 0 3.28-.42 4.7-1.19h5.48c-.05 1.69-.34 3.35-.87 4.95z" fill="#ffffffff" data-original-color="#000000ff"/><path d="m26.55 20.96h9.52c.28 0 .5-.22.5-.5v-7.14c0-.03-.01-.05-.02-.08 0-.03 0-.05-.01-.08l-1.19-3.56c-.07-.2-.26-.34-.47-.34h-7.14c-.22 0-.41.14-.47.34l-1.19 3.57c-.01.03-.01.05-.01.08s-.02.05-.02.08v7.14c0 .27.22.49.5.49zm7.96-10.7.86 2.57h-2.45l-.35-2.57zm-3.5 0h.55l.35 2.57h-1.22zm-.4 3.56h1.38v2.57h-1.38zm-2.51-3.56h1.9l-.33 2.57h-2.43zm-1.05 3.56h2.57v3.07c0 .28.22.5.5.5h2.38c.28 0 .5-.22.5-.5v-3.07h2.57v6.14h-8.52z" fill="#ffffffff" data-original-color="#000000ff"/></g></g></svg>