<svg id="Layer_1" viewBox="0 0 64 64" xmlns="http://www.w3.org/2000/svg" data-name="Layer 1" width="300" height="300" version="1.1" xmlns:xlink="http://www.w3.org/1999/xlink" xmlns:svgjs="http://svgjs.dev/svgjs"><g transform="matrix(1,0,0,1,0,0)"><path d="m59.678 27.794a27.948 27.948 0 0 0 -5.133-12.394 4.969 4.969 0 0 0 -5.945-5.945 27.96 27.96 0 0 0 -12.394-5.133 4.97 4.97 0 0 0 -8.412 0 27.96 27.96 0 0 0 -12.394 5.133 4.969 4.969 0 0 0 -5.945 5.945 27.948 27.948 0 0 0 -5.133 12.394 4.97 4.97 0 0 0 0 8.412 27.948 27.948 0 0 0 5.133 12.394 4.969 4.969 0 0 0 5.945 5.945 27.96 27.96 0 0 0 12.392 5.133 4.97 4.97 0 0 0 8.412 0 27.96 27.96 0 0 0 12.396-5.133 4.969 4.969 0 0 0 5.945-5.945 27.948 27.948 0 0 0 5.133-12.392 4.97 4.97 0 0 0 0-8.412zm-1.363 6.886a1 1 0 0 0 -.549.766 25.932 25.932 0 0 1 -5.111 12.338 1 1 0 0 0 -.153.929 2.973 2.973 0 0 1 -3.789 3.79 1 1 0 0 0 -.929.153 25.949 25.949 0 0 1 -12.339 5.11 1 1 0 0 0 -.765.549 2.974 2.974 0 0 1 -5.36 0 1 1 0 0 0 -.765-.549 25.949 25.949 0 0 1 -12.339-5.11 1 1 0 0 0 -.929-.153 2.973 2.973 0 0 1 -3.789-3.79 1 1 0 0 0 -.153-.929 25.932 25.932 0 0 1 -5.111-12.338 1 1 0 0 0 -.549-.766 2.974 2.974 0 0 1 0-5.36 1 1 0 0 0 .549-.766 25.932 25.932 0 0 1 5.111-12.338 1 1 0 0 0 .153-.929 2.973 2.973 0 0 1 3.789-3.79 1 1 0 0 0 .929-.153 25.949 25.949 0 0 1 12.339-5.11 1 1 0 0 0 .765-.549 2.974 2.974 0 0 1 5.36 0 1 1 0 0 0 .765.549 25.949 25.949 0 0 1 12.339 5.11 1 1 0 0 0 .929.153 2.973 2.973 0 0 1 3.789 3.79 1 1 0 0 0 .153.929 25.932 25.932 0 0 1 5.111 12.338 1 1 0 0 0 .549.766 2.974 2.974 0 0 1 0 5.36z" fill="#ffffffff" data-original-color="#000000ff"/><path d="m49.574 36.181a1 1 0 0 0 -.916-.121l-10.844 3.94h-3.622l-4.821-1.929a1.011 1.011 0 0 0 -.742 0l-4.821 1.929h-1.808a1 1 0 0 0 -1-1h-6a1 1 0 0 0 -1 1v10a1 1 0 0 0 1 1h6a.984.984 0 0 0 .961-.809l9.86 1.793a.985.985 0 0 0 .179.016 1 1 0 0 0 .507-.138l17-10a1 1 0 0 0 .493-.862v-4a1 1 0 0 0 -.426-.819zm-33.574 12.819v-8h4v8zm32-8.572-16.187 9.522-9.813-1.784v-6.166h2a1 1 0 0 0 .371-.071l4.629-1.852 4.629 1.852a1 1 0 0 0 .371.071h4v1.081l-11.083.919.166 2 12-1a1 1 0 0 0 .917-1v-2.666l8-2.907z" fill="#ffffffff" data-original-color="#000000ff"/><path d="m27 27h10v2h-10z" transform="matrix(.707 -.707 .707 .707 -10.426 30.828)" fill="#ffffffff" data-original-color="#000000ff"/><path d="m30.293 22.05h2v2h-2z" transform="matrix(.707 -.707 .707 .707 -7.134 28.879)" fill="#ffffffff" data-original-color="#000000ff"/><path d="m31.707 31.95h2v2h-2z" transform="matrix(.707 -.707 .707 .707 -13.719 32.778)" fill="#ffffffff" data-original-color="#000000ff"/><path d="m21 16h-2v1h-1v2h1v1h2v-1h1v-2h-1z" fill="#ffffffff" data-original-color="#000000ff"/><path d="m49 13h-10a1 1 0 0 0 -1 1v5.764l-.547 1.093a8.935 8.935 0 0 0 -10.906 0l-.547-1.093v-5.764a1 1 0 0 0 -1-1h-10a1 1 0 0 0 -1 1v8a1 1 0 0 0 1 1h7.765l1.348.672a9 9 0 1 0 15.774 0l1.348-.672h7.765a1 1 0 0 0 1-1v-8a1 1 0 0 0 -1-1zm-26 8h-7v-6h8v5a1 1 0 0 0 .105.447l.658 1.314-1.317-.656a1 1 0 0 0 -.446-.105zm9 14a7 7 0 1 1 7-7 7.008 7.008 0 0 1 -7 7zm16-14h-7a1 1 0 0 0 -.446.105l-1.317.656.658-1.314a1 1 0 0 0 .105-.447v-5h8z" fill="#ffffffff" data-original-color="#000000ff"/><path d="m42 17h4v2h-4z" fill="#ffffffff" data-original-color="#000000ff"/></g></svg>