<svg clip-rule="evenodd" fill-rule="evenodd" height="300" stroke-linejoin="round" stroke-miterlimit="2" viewBox="0 0 64 64" width="300" xmlns="http://www.w3.org/2000/svg" version="1.1" xmlns:xlink="http://www.w3.org/1999/xlink" xmlns:svgjs="http://svgjs.dev/svgjs"><g transform="matrix(1,0,0,1,0,0)"><g id="Icon"><path d="m20.333 21v15c0 .552.448 1 1 1h17.667v2.002s-11.002.021-11.002.021c-.551.002-.998.449-.998 1v2.977h-3.218c-1.247 0-3.3.846-4.902 2.605-.543-.769-1.439-1.272-2.451-1.272h-1.429c-1.656 0-3 1.345-3 3v10.667c0 1.656 1.344 3 3 3h1.429c1.283 0 2.379-.808 2.807-1.942l2.217 1.452c.488.32 1.06.49 1.644.49h12.974c.203 0 .4-.061.566-.176l14.064-9.657c.038-.026.074-.055.109-.086 1.511-1.382 1.596-3.709.19-5.194-1.362-1.439-3.636-1.551-5.136-.276.003-.002-12.754 6.722-12.754 6.722h-5.86c-.567 0-1.036-.442-1.036-1 0-.483.448-1 1.036-1h4.75c2.055 0 3.714-1.648 3.714-3.666 0-2.019-1.659-3.667-3.714-3.667h-3v-1.979s11.002-.021 11.002-.021c.551-.001.998-.448.998-1v-3h1.667c.552 0 1-.448 1-1v-15h3c.396 0 .755-.234.915-.597s.09-.786-.178-1.079l-14.667-16c-.189-.206-.457-.324-.737-.324s-.548.118-.737.324l-14.667 16c-.268.293-.338.716-.178 1.079s.519.597.915.597zm-2.904 37v-10.667c0-.552-.449-1-1-1h-1.429c-.552 0-1 .448-1 1v10.667c0 .552.448 1 1 1h1.429c.551 0 1-.448 1-1zm2-1.207 3.12 2.044c.163.106.353.163.548.163h12.664s13.744-9.437 13.747-9.441c.636-.627.659-1.643.039-2.297-.647-.684-1.739-.722-2.435-.086-.063.058-.133.107-.208.147l-13.081 6.895c-.143.076-.303.115-.466.115h-6.107c-1.681 0-3.036-1.348-3.036-3 0-1.432 1.293-3 3.036-3h4.75c.941 0 1.714-.742 1.714-1.666 0-.925-.773-1.667-1.714-1.667h-8.218c-1.162 0-3.186 1.129-4.353 3.248zm-14.429-21.793v1c0 .552.448 1 1 1s1-.448 1-1v-1c1.104 0 2-.896 2-2v-6c0-1.104-.896-2-2-2h-2c-1.104 0-2 .896-2 2v6c0 1.104.896 2 2 2zm52 0v1c0 .552.448 1 1 1s1-.448 1-1v-1c1.104 0 2-.896 2-2v-6c0-1.104-.896-2-2-2h-2c-1.104 0-2 .896-2 2v6c0 1.104.896 2 2 2zm-44-3v4c0 .552.448 1 1 1s1-.448 1-1v-4c1.104 0 2-.896 2-2v-6c0-1.104-.896-2-2-2h-2c-1.104 0-2 .896-2 2v6c0 1.104.896 2 2 2zm36 0v4c0 .552.448 1 1 1s1-.448 1-1v-4c1.104 0 2-.896 2-2v-6c0-1.104-.896-2-2-2h-2c-1.104 0-2 .896-2 2v6c0 1.104.896 2 2 2zm-7.333-6h-19.334v9h4.667v-5.667c0-.552.448-1 1-1h8c.552 0 1 .448 1 1v5.667h4.667zm-12.667 9v-4.667h6v4.667zm-22-8v6h-2v-6zm52 0v6h-2v-6zm-46-3h2v6h-2zm36 0h2v6h-2zm-7.333-3h-3.667v3h3.667zm-19.334 0v3h3.667v-3zm5.667 0v3h3v-3zm5 0v3h3v-3zm9.667-2h1.726l-12.393-13.52-12.393 13.52zm-10.667-8c-1.656 0-3 1.344-3 3s1.344 3 3 3 3-1.344 3-3-1.344-3-3-3zm0 2c.552 0 1 .448 1 1s-.448 1-1 1-1-.448-1-1 .448-1 1-1z" fill="#be1717ff" data-original-color="#000000ff"/></g></g></svg>