<svg xmlns="http://www.w3.org/2000/svg" data-name="Layer 1" id="Layer_1" viewBox="0 0 64 64" width="300" height="300" version="1.1" xmlns:xlink="http://www.w3.org/1999/xlink" xmlns:svgjs="http://svgjs.dev/svgjs"><g transform="matrix(1,0,0,1,0,0)"><title/><path d="M46,30A16,16,0,1,0,62,46,16.019,16.019,0,0,0,46,30Zm0,30A14,14,0,1,1,60,46,14.015,14.015,0,0,1,46,60Z" fill="#ffffffff" data-original-color="#000000ff"/><path d="M53,37H39a1,1,0,0,0-1,1h0a1,1,0,0,0,1,1h6v6.586l-4,4A1,1,0,0,0,42.414,51L45,48.414v3.172l-2,2A1,1,0,0,0,44.414,55L45,54.414V57a1,1,0,0,0,1,1h0a1,1,0,0,0,1-1V52.414l6-6A1,1,0,0,0,51.586,45L47,49.586V46.414l4-4A1,1,0,0,0,49.586,41L47,43.586V39h6a1,1,0,0,0,1-1h0A1,1,0,0,0,53,37Z" fill="#ffffffff" data-original-color="#000000ff"/><path d="M10.293,54.707A1,1,0,0,0,12,54V50H27a1,1,0,0,0,1-1V43a1,1,0,0,0-1-1H12V38a1,1,0,0,0-1.707-.707l-8,8a1,1,0,0,0,0,1.414ZM10,40.414V43a1,1,0,0,0,1,1H26v4H11a1,1,0,0,0-1,1v2.586L4.414,46Z" fill="#ffffffff" data-original-color="#000000ff"/><path d="M18,34A16,16,0,1,0,2,18,16.019,16.019,0,0,0,18,34ZM18,4A14,14,0,1,1,4,18,14.015,14.015,0,0,1,18,4Z" fill="#ffffffff" data-original-color="#000000ff"/><path d="M16,27h1v1a1,1,0,0,0,2,0V27h1a3,3,0,0,0,3-3V20a3,3,0,0,0-3-3H19V11h1a1,1,0,0,1,1,1v2a1,1,0,0,0,2,0V12a3,3,0,0,0-3-3H19V8a1,1,0,0,0-2,0V9H16a3,3,0,0,0-3,3v4a3,3,0,0,0,3,3h1v6H16a1,1,0,0,1-1-1V22a1,1,0,0,0-2,0v2A3,3,0,0,0,16,27Zm3-8h1a1,1,0,0,1,1,1v4a1,1,0,0,1-1,1H19Zm-3-2a1,1,0,0,1-1-1V12a1,1,0,0,1,1-1h1v6Z" fill="#ffffffff" data-original-color="#000000ff"/><path d="M53.707,9.293A1,1,0,0,0,52,10v4H37a1,1,0,0,0-1,1v6a1,1,0,0,0,1,1H52v4a1,1,0,0,0,1.707.707l8-8a1,1,0,0,0,0-1.414ZM54,23.586V21a1,1,0,0,0-1-1H38V16H53a1,1,0,0,0,1-1V12.414L59.586,18Z" fill="#ffffffff" data-original-color="#000000ff"/></g></svg>