<svg id="Layer_1" enable-background="new 0 0 512 512" viewBox="0 0 512 512" xmlns="http://www.w3.org/2000/svg" width="300" height="300" version="1.1" xmlns:xlink="http://www.w3.org/1999/xlink" xmlns:svgjs="http://svgjs.dev/svgjs"><g transform="matrix(1,0,0,1,0,0)"><path d="m314.16 15c-95.91 0-173.94 78.03-173.94 173.94 0 4.11.16 8.25.45 12.36-35.94 4.21-63.93 34.83-63.93 71.88 0 26.82 14.67 50.26 36.39 62.77h-8.71c-44.4 0-80.52 36.12-80.52 80.52v53.46c0 14.92 12.14 27.06 27.06 27.06h196.36c14.92 0 27.06-12.14 27.06-27.06v-53.46c0-44.4-36.12-80.52-80.52-80.52h-8.71c6.42-3.7 12.24-8.35 17.23-13.76 31.29 26.28 70.75 40.7 111.8 40.7 95.91 0 173.94-78.03 173.94-173.94-.01-95.92-78.04-173.95-173.96-173.95zm-51.79 401.48v53.46c0 8.3-6.76 15.06-15.06 15.06h-40.9v-59.05c0-3.31-2.69-6-6-6s-6 2.69-6 6v59.05h-90.56v-59.05c0-3.31-2.69-6-6-6s-6 2.69-6 6v59.05h-40.9c-8.3 0-15.06-6.76-15.06-15.06v-53.46c0-37.78 30.74-68.52 68.52-68.52h89.43c37.79-.01 68.53 30.73 68.53 68.52zm-31.21-227.54c0-17.73 1.48-35.03 4.33-51.4h72.67v102.79h-72.67c-2.85-16.35-4.33-33.65-4.33-51.39zm89-161.51c19.18 2.76 37.31 18.73 51.59 45.66 8.1 15.29 14.41 33.08 18.71 52.45h-70.29v-98.11zm-12 0v98.11h-70.3c4.3-19.37 10.6-37.16 18.71-52.45 14.28-26.93 32.41-42.9 51.59-45.66zm0 224.91v98.11c-19.18-2.76-37.31-18.73-51.59-45.66-8.1-15.29-14.41-33.08-18.71-52.45zm12 98.11v-98.11h70.29c-4.3 19.37-10.6 37.16-18.71 52.45-14.26 26.93-32.39 42.9-51.58 45.66zm0-110.11v-102.79h72.67c2.85 16.36 4.33 33.66 4.33 51.4 0 17.73-1.48 35.03-4.33 51.4h-72.67zm84.83-102.79h62.75c5.42 16.16 8.36 33.44 8.36 51.4s-2.94 35.24-8.36 51.4h-62.75c2.75-16.44 4.18-33.73 4.18-51.4 0-17.68-1.43-34.96-4.18-51.4zm58.19-12h-60.45c-4.54-21.44-11.41-41.17-20.37-58.07-7.72-14.57-16.61-26.31-26.31-34.97 48.3 12.94 87.76 47.7 107.13 93.04zm-190.9-93.05c-9.7 8.66-18.58 20.4-26.31 34.97-8.96 16.9-15.83 36.63-20.37 58.07h-60.45c19.36-45.33 58.83-80.09 107.13-93.04zm-111.69 105.05h62.75c-2.75 16.44-4.18 33.73-4.18 51.4s1.43 34.95 4.18 51.4h-9.72c-11.49-22.46-34.35-38.17-60.95-39.46-.29-3.97-.44-7.96-.44-11.94-.01-17.97 2.93-35.25 8.36-51.4zm-11.46 196.03c-33.3 0-60.39-27.09-60.39-60.39s27.09-60.39 60.39-60.39 60.39 27.09 60.39 60.39c.01 33.3-27.09 60.39-60.39 60.39zm72.4-60.4c0-7.25-1.08-14.24-3.07-20.84h7.15c4.54 21.44 11.41 41.17 20.37 58.07 7.72 14.57 16.61 26.32 26.31 34.98-22.86-6.11-44.22-17.2-62.55-32.68 7.44-11.37 11.79-24.95 11.79-39.53zm134.52 72.2c9.7-8.66 18.58-20.4 26.31-34.97 8.96-16.9 15.83-36.63 20.37-58.07h60.45c-19.37 45.33-58.83 80.1-107.13 93.04z" fill="#3e6f7cff" data-original-color="#000000ff"/></g></svg>