<svg id="Economy_-_Outline" enable-background="new 0 0 64 64" height="300" viewBox="0 0 64 64" width="300" xmlns="http://www.w3.org/2000/svg" version="1.1" xmlns:xlink="http://www.w3.org/1999/xlink" xmlns:svgjs="http://svgjs.dev/svgjs"><g transform="matrix(1,0,0,1,0,0)"><g><g><path d="m53.148 24.829h-7.102c.083-.22.174-.44.24-.658l1.506-.252c.663-.088 1.189-.613 1.28-1.284.079-.614.119-1.223.119-1.807 0-.588-.039-1.182-.12-1.831-.093-.651-.616-1.17-1.241-1.255l-1.554-.267c-.218-.717-.501-1.397-.836-2.017l.894-1.253c.405-.527.405-1.266-.004-1.803-.404-.52-.798-.969-1.202-1.372-.448-.448-.897-.841-1.37-1.198-.513-.391-1.238-.404-1.77-.028l-1.285.92c-.651-.347-1.326-.628-2.02-.841l-.259-1.556c-.123-.672-.649-1.164-1.263-1.221-1.221-.174-2.485-.167-3.608-.005-.651.063-1.188.568-1.309 1.242l-.257 1.548c-.716.218-1.397.501-2.016.836l-1.307-.933c-.536-.359-1.237-.338-1.737.044-.498.375-.963.779-1.384 1.201-.445.445-.838.894-1.2 1.371-.398.524-.404 1.239-.017 1.777l.91 1.274c-.347.651-.628 1.327-.841 2.021l-1.555.259c-.644.117-1.139.624-1.233 1.28-.079.634-.118 1.224-.118 1.804 0 .586.039 1.18.12 1.832.092.638.586 1.145 1.246 1.265l1.548.258c.067.223.155.432.235.646h-6.906c-.552 0-1 .447-1 1v4.968c0 .553.448 1 1 1h1.647v5.946h-6.53c-1.654 0-3 1.346-3 3v1.76c0 .771.301 1.468.78 2-.48.532-.78 1.229-.78 2v1.76c0 .771.301 1.468.78 2-.48.532-.78 1.229-.78 2v1.76c0 1.654 1.346 3 3 3h10.98c1.359 0 2.496-.913 2.864-2.154h23.606c.552 0 1-.447 1-1v-22.069h1.847c.552 0 1-.447 1-1v-4.968c.002-.553-.445-1-.998-1zm-41.296 15.914c0-.552.449-1 1-1h7.506c.009 0 .016.005.024.005s.016-.005.024-.005h3.426c.551 0 1 .448 1 1v1.76c0 .552-.449 1-1 1h-10.98c-.551 0-1-.448-1-1zm0 7.52v-1.76c0-.552.449-1 1-1h10.98c.551 0 1 .448 1 1v1.76c0 .552-.449 1-1 1h-10.98c-.552 0-1-.449-1-1zm12.98 5.759c0 .552-.449 1-1 1h-10.98c-.551 0-1-.448-1-1v-1.76c0-.552.449-1 1-1h10.98c.551 0 1 .448 1 1zm24.47-1.154h-22.47v-.605c0-.771-.301-1.468-.78-2 .48-.532.78-1.229.78-2v-1.76c0-.771-.301-1.468-.78-2 .48-.532.78-1.229.78-2v-1.76c0-1.654-1.346-3-3-3h-2.45v-5.945h27.92zm-23.053-29.513c-.149-.572-.625-1.002-1.203-1.094l-1.495-.249c-.04-.409-.06-.8-.06-1.185 0-.383.02-.772.059-1.175l1.488-.248c.579-.092 1.05-.521 1.197-1.083.202-.735.503-1.459.888-2.137.303-.515.273-1.154-.068-1.618l-.885-1.24c.242-.298.502-.586.79-.872.272-.272.567-.537.882-.791l1.209.862c.463.349 1.076.393 1.633.097.657-.382 1.377-.681 2.131-.888.573-.15 1.003-.621 1.094-1.194l.249-1.499c.769-.084 1.53-.09 2.36 0l.247 1.481c.091.58.521 1.052 1.083 1.198.736.202 1.46.504 2.139.889.515.303 1.153.271 1.618-.069l1.238-.886c.297.241.585.502.874.791.265.265.527.556.792.879l-.889 1.245c-.321.465-.355 1.064-.072 1.601.381.656.681 1.376.888 2.13.149.572.625 1.002 1.198 1.093l1.5.258c.04.405.059.794.059 1.177 0 .382-.02.776-.059 1.174l-1.483.248c-.58.089-1.052.518-1.204 1.088-.131.486-.335.987-.574 1.491h-1.676c.697-1.196 1.075-2.556 1.075-3.981 0-4.378-3.557-7.939-7.93-7.939-4.378 0-7.94 3.562-7.94 7.939 0 1.425.378 2.786 1.076 3.981h-1.664c-.225-.462-.423-.949-.565-1.474zm4.696 1.474c-.994-1.094-1.543-2.491-1.543-3.981 0-3.275 2.665-5.939 5.94-5.939 3.27 0 5.93 2.664 5.93 5.939 0 1.491-.549 2.888-1.543 3.981zm21.203 4.968h-33.414v-2.968h33.414z" fill="#3e6f7cff" data-original-color="#000000ff"/><path d="m35.994 40.278h10.448c.552 0 1-.447 1-1v-4.58c0-.553-.448-1-1-1h-10.448c-.552 0-1 .447-1 1v4.58c0 .553.447 1 1 1zm1-4.58h8.448v2.58h-8.448z" fill="#3e6f7cff" data-original-color="#000000ff"/><path d="m46.011 43.948h-6.83c-.552 0-1 .447-1 1s.448 1 1 1h6.83c.552 0 1-.447 1-1s-.448-1-1-1z" fill="#3e6f7cff" data-original-color="#000000ff"/><path d="m46.011 47.948h-6.83c-.552 0-1 .447-1 1s.448 1 1 1h6.83c.552 0 1-.447 1-1s-.448-1-1-1z" fill="#3e6f7cff" data-original-color="#000000ff"/></g></g></g></svg>