<svg height="300" viewBox="0 0 48 48" width="300" xmlns="http://www.w3.org/2000/svg" version="1.1" xmlns:xlink="http://www.w3.org/1999/xlink" xmlns:svgjs="http://svgjs.dev/svgjs"><g transform="matrix(1,0,0,1,0,0)"><g id="Line"><path d="m32 14a4 4 0 0 0 4-4v-4a4 4 0 0 0 -8 0v1h-15a1 1 0 0 0 0 2v4a1 1 0 0 0 1 1h2a1 1 0 0 0 1-.86 1 1 0 0 0 1 .86h2a1 1 0 0 0 1-1v-4h7c-.28 2.61 1.23 5 4 5zm-13-2h-.33a2 2 0 0 0 -3.34 0h-.33v-3h4zm11-6a2 2 0 0 1 4 0v4a2 2 0 0 1 -4 0z" fill="#be1717ff" data-original-color="#000000ff"/><path d="m45 22h-42a1 1 0 0 0 -1 1v22a1 1 0 0 0 1 1h42a1 1 0 0 0 1-1v-22a1 1 0 0 0 -1-1zm-1 22h-40v-20h40z" fill="#be1717ff" data-original-color="#000000ff"/><path d="m24 39c6.61-.21 6.61-9.79 0-10-6.61.21-6.61 9.79 0 10zm0-8a3 3 0 0 1 0 6 3 3 0 0 1 0-6z" fill="#be1717ff" data-original-color="#000000ff"/><path d="m7 39a2 2 0 0 1 1.86 1.22 2.79 2.79 0 0 1 .14.78 1 1 0 0 0 1 1h28a1 1 0 0 0 1-1 2 2 0 0 1 2-2 1 1 0 0 0 1-1v-8a1 1 0 0 0 -1-1 3.13 3.13 0 0 1 -.48-.06 2 2 0 0 1 -1.38-1.16 2.46 2.46 0 0 1 -.14-.78 1 1 0 0 0 -1-1h-28a1 1 0 0 0 -1 1 2 2 0 0 1 -.61 1.44c-.73.88-2.31.12-2.39 1.56v8a1 1 0 0 0 1 1zm1-8.13a4 4 0 0 0 2.87-2.87h26.26a4.05 4.05 0 0 0 2.87 2.86v6.27a4 4 0 0 0 -2.87 2.87h-26.26a4 4 0 0 0 -2.87-2.86z" fill="#be1717ff" data-original-color="#000000ff"/><path d="m42.41 12a1 1 0 0 0 -1-1h-2.82a1 1 0 0 0 -1 1v2.83a1 1 0 0 0 2 0v-.35a3 3 0 0 1 -.3 3.88 1 1 0 0 0 1.42 1.42 5 5 0 0 0 .29-6.78c.66.08 1.4-.17 1.41-1z" fill="#be1717ff" data-original-color="#000000ff"/><path d="m5.59 18a1 1 0 0 0 1 1h2.82a1 1 0 0 0 1-1v-2.83a1 1 0 0 0 -2 0v.35a3 3 0 0 1 .3-3.88 1 1 0 0 0 -1.42-1.42 5 5 0 0 0 -.24 6.78c-.71-.08-1.45.17-1.46 1z" fill="#be1717ff" data-original-color="#000000ff"/></g></g></svg>