<svg id="Icons" viewBox="0 0 60 60" xmlns="http://www.w3.org/2000/svg" width="300" height="300" version="1.1" xmlns:xlink="http://www.w3.org/1999/xlink" xmlns:svgjs="http://svgjs.dev/svgjs"><g transform="matrix(1,0,0,1,0,0)"><path d="m58.763 11.596-27.317-11.313c-.933-.378-1.961-.379-2.899.003l-27.295 11.304c-.761.301-1.252 1.027-1.252 1.851v2.56c0 1.103.897 2 2 2h2v2c0 .737.405 1.375 1 1.722v24.556c-.595.347-1 .985-1 1.722v2.184c-1.161.414-2 1.514-2 2.816v1.184c-1.161.414-2 1.514-2 2.816v2c0 .553.448 1 1 1h58c.553 0 1-.447 1-1v-2c0-1.302-.839-2.402-2-2.816v-1.184c0-1.302-.839-2.402-2-2.816v-2.184c0-.737-.405-1.375-1-1.722v-24.557c.595-.347 1-.985 1-1.722v-2h2c1.103 0 2-.897 2-2v-2.56c0-.823-.491-1.55-1.237-1.845zm-46.763 6.404v2h-6v-2zm24 3v4.623c-.633-.367-1.301-.675-2-.923v-3.7c0-1.052-.428-2.082-1.173-2.827s-1.775-1.173-2.827-1.173c-2.206 0-4 1.794-4 4v3.7c-.699.248-1.367.556-2 .924v-4.624c0-3.309 2.691-6 6-6s6 2.691 6 6zm-6 5c5.514 0 10 4.486 10 10s-4.486 10-10 10-10-4.486-10-10 4.486-10 10-10zm2-1.819c-.652-.11-1.317-.181-2-.181s-1.348.071-2 .181v-3.181c0-1.103.897-2 2-2 .525 0 1.04.214 1.413.587s.587.888.587 1.413zm-10-3.181v6.081c-2.448 2.198-4 5.377-4 8.919 0 6.617 5.383 12 12 12s12-5.383 12-12c0-3.542-1.552-6.721-4-8.919v-6.081c0-1.061-.212-2.073-.589-3h8.589v2c0 .737.405 1.375 1 1.722v24.557c-.595.347-1 .985-1 1.722v2h-32v-2c0-.737-.405-1.375-1-1.722v-24.556c.595-.347 1-.985 1-1.722v-2h8.589c-.377.927-.589 1.939-.589 3zm32 29h-6v-2h6zm-1-4h-4v-24h4zm-47 2h6v2h-6zm1-26h4v24h-4zm-3 31c0-.552.449-1 1-1h50c.552 0 1 .448 1 1v1h-52zm54 5h-56v-1c0-.552.449-1 1-1h54c.552 0 1 .448 1 1zm-4-38h-6v-2h6zm4-4h-21.765c-1.468-1.826-3.715-3-6.235-3s-4.768 1.174-6.235 3h-21.765l.003-2.557 27.304-11.306c.446-.184.939-.182 1.381-.003l27.312 11.307v2.56z" fill="#3e6f7cff" data-original-color="#000000ff"/><path d="m27 38c0 1.654 1.346 3 3 3s3-1.346 3-3v-.354c.641-.717 1-1.657 1-2.646 0-2.206-1.794-4-4-4s-4 1.794-4 4c0 .988.36 1.929 1 2.646zm3-5c1.103 0 2 .897 2 2 0 .575-.239 1.113-.657 1.477-.218.189-.343.465-.343.754v.77c0 .552-.449 1-1 1s-1-.448-1-1v-.77c0-.289-.125-.564-.343-.754-.417-.363-.657-.901-.657-1.477 0-1.103.897-2 2-2z" fill="#3e6f7cff" data-original-color="#000000ff"/></g></svg>