<svg id="Capa_1" enable-background="new 0 0 512 512" height="300" viewBox="0 0 512 512" width="300" xmlns="http://www.w3.org/2000/svg" version="1.1" xmlns:xlink="http://www.w3.org/1999/xlink" xmlns:svgjs="http://svgjs.dev/svgjs"><g transform="matrix(1,0,0,1,0,0)"><g><g><path d="m297.29 181.677h16.516v-16.516h16.516v16.516h16.516v-21.107c9.827-5.731 16.516-16.268 16.516-28.441 0-9.852-4.336-18.721-11.206-24.774 6.871-6.053 11.206-14.922 11.206-24.774 0-12.172-6.689-22.71-16.516-28.441v-21.108h-16.516v16.516h-16.516v-16.516h-16.516v16.516h-16.516v115.613h16.516zm0-115.612h33.032c9.109 0 16.516 7.407 16.516 16.516s-7.407 16.516-16.516 16.516h-33.032zm0 49.548h33.032c9.109 0 16.516 7.407 16.516 16.516s-7.407 16.516-16.516 16.516h-33.032z" fill="#3e6f7cff" data-original-color="#000000ff"/><path d="m470.71 355.84v-9.001c0-13.659-11.115-24.774-24.774-24.774h-49.548v-322.065h-308.968l-87.42 87.42v424.58h396.387v-57.806h66.065c27.326 0 49.548-22.222 49.548-49.548 0-24.503-17.895-44.85-41.29-48.806zm-388.129-327.647v54.388h-54.388zm297.29 467.291h-363.355v-396.387h82.581v-82.581h280.774v305.548h-19.935l-13.097 13.097-13.097-13.097h-28.193v16.516h21.355l19.935 19.935 19.935-19.935h79.162c4.55 0 8.258 3.7 8.258 8.258v8.258h-74.323c-6.086 0-11.355 3.345-14.22 8.258h-127.662l-59.739 22.404c-7.829 2.94-13.089 10.529-13.089 18.886s5.26 15.946 13.089 18.894l59.739 22.396h127.661c2.866 4.914 8.134 8.258 14.22 8.258v41.292zm-16.516-66.065h-115.613v-49.548h115.613zm-132.129-3.658-47.162-17.681c-1.429-.537-2.387-1.916-2.387-3.435s.958-2.899 2.378-3.427l47.17-17.689v42.232zm231.226 11.916h-82.581v-66.065h82.581c18.217 0 33.032 14.815 33.032 33.032 0 18.218-14.815 33.033-33.032 33.033z" fill="#3e6f7cff" data-original-color="#000000ff"/><path d="m123.871 379.871c-13.659 0-24.774 11.115-24.774 24.774v40.275c0 1.016-1.767 1.239-2.007.248l-11.247-44.99c-2.981-11.958-13.684-20.307-26.005-20.307-14.782 0-26.806 12.024-26.806 26.806v2.866c0 3.229.57 6.383 1.709 9.422l23.593 62.91 15.467-5.805-23.593-62.91c-.438-1.156-.661-2.378-.661-3.617v-2.866c0-5.673 4.616-10.29 10.29-10.29 4.732 0 8.836 3.204 9.984 7.787l11.247 44.99c1.957 7.829 8.952 13.287 17.012 13.287 9.67 0 17.532-7.862 17.532-17.532v-40.275c0-4.558 3.708-8.258 8.258-8.258s8.258 3.7 8.258 8.258v41.29h16.516v-41.29c.001-13.658-11.114-24.773-24.773-24.773z" fill="#3e6f7cff" data-original-color="#000000ff"/><path d="m132.129 462.452h16.516v16.516h-16.516z" fill="#3e6f7cff" data-original-color="#000000ff"/><path d="m346.839 462.452h16.516v16.516h-16.516z" fill="#3e6f7cff" data-original-color="#000000ff"/><path d="m313.806 462.452h16.516v16.516h-16.516z" fill="#3e6f7cff" data-original-color="#000000ff"/><path d="m280.774 462.452h16.516v16.516h-16.516z" fill="#3e6f7cff" data-original-color="#000000ff"/><path d="m247.742 462.452h16.516v16.516h-16.516z" fill="#3e6f7cff" data-original-color="#000000ff"/><path d="m247.742 33.032h-132.129v66.065h132.129zm-16.516 49.549h-99.097v-33.033h99.097z" fill="#3e6f7cff" data-original-color="#000000ff"/><path d="m33.032 115.613h66.065v16.516h-66.065z" fill="#3e6f7cff" data-original-color="#000000ff"/><path d="m33.032 148.645h214.71v16.516h-214.71z" fill="#3e6f7cff" data-original-color="#000000ff"/><path d="m33.032 181.677h33.032v16.516h-33.032z" fill="#3e6f7cff" data-original-color="#000000ff"/><path d="m82.581 181.677h165.161v16.516h-165.161z" fill="#3e6f7cff" data-original-color="#000000ff"/><path d="m33.032 214.71h214.71v16.516h-214.71z" fill="#3e6f7cff" data-original-color="#000000ff"/><path d="m33.032 247.742h115.613v16.516h-115.613z" fill="#3e6f7cff" data-original-color="#000000ff"/><path d="m165.161 247.742h82.581v16.516h-82.581z" fill="#3e6f7cff" data-original-color="#000000ff"/><path d="m33.032 280.774h214.71v16.516h-214.71z" fill="#3e6f7cff" data-original-color="#000000ff"/><path d="m33.032 313.806h214.71v16.516h-214.71z" fill="#3e6f7cff" data-original-color="#000000ff"/><path d="m429.419 165.161c0-4.55 3.708-8.258 8.258-8.258h33.032c13.659 0 24.774-11.115 24.774-24.774s-11.115-24.774-24.774-24.774h-16.516c-4.55 0-8.258-3.708-8.258-8.258s3.708-8.258 8.258-8.258h33.032c13.659 0 24.774-11.115 24.774-24.774s-11.114-24.775-24.773-24.775h-74.323v16.516h74.323c4.55 0 8.258 3.708 8.258 8.258s-3.708 8.258-8.258 8.258h-33.032c-13.659 0-24.774 11.115-24.774 24.774s11.115 24.774 24.774 24.774h16.516c4.55 0 8.258 3.708 8.258 8.258s-3.708 8.258-8.258 8.258h-33.032c-13.659 0-24.774 11.115-24.774 24.774s11.115 24.774 24.774 24.774h74.322v-16.516h-74.323c-4.55.001-8.258-3.707-8.258-8.257z" fill="#3e6f7cff" data-original-color="#000000ff"/></g></g></g></svg>