<svg id="Layer_1" enable-background="new 0 0 500 500" viewBox="0 0 500 500" xmlns="http://www.w3.org/2000/svg" width="300" height="300" version="1.1" xmlns:xlink="http://www.w3.org/1999/xlink" xmlns:svgjs="http://svgjs.dev/svgjs"><g transform="matrix(1,0,0,1,0,0)"><g><path d="m274.435 417.595h-162.394c-1.879 0-3.684-.747-5.012-2.078-1.329-1.331-2.076-3.133-2.073-5.014l.058-53.007c.006-3.91 3.177-7.076 7.085-7.076 3.921.005 7.09 3.18 7.084 7.093l-.049 45.915h155.301c3.914 0 7.085 3.172 7.085 7.084s-3.171 7.083-7.085 7.083z" fill="#ffffffff" data-original-color="#000000ff"/><path d="m137.305 389.791c-1.813 0-3.625-.692-5.009-2.076l-20.196-20.194-20.133 20.133c-2.767 2.767-7.251 2.767-10.018 0s-2.767-7.251 0-10.018l25.142-25.142c2.767-2.767 7.251-2.767 10.018 0l25.206 25.202c2.767 2.765 2.767 7.251 0 10.018-1.385 1.385-3.198 2.077-5.01 2.077z" fill="#ffffffff" data-original-color="#000000ff"/><path d="m386.425 149.582c-3.922-.005-7.09-3.18-7.085-7.093l.053-45.915h-155.303c-3.913 0-7.084-3.172-7.084-7.084 0-3.913 3.172-7.085 7.084-7.085h162.395c1.879 0 3.683.748 5.012 2.079s2.076 3.132 2.073 5.014l-.061 53.007c-.005 3.911-3.177 7.077-7.084 7.077z" fill="#ffffffff" data-original-color="#000000ff"/><path d="m386.425 149.582c-1.813 0-3.625-.692-5.009-2.076l-25.203-25.202c-2.767-2.767-2.767-7.251 0-10.018 2.768-2.768 7.251-2.768 10.019 0l20.194 20.194 20.136-20.136c2.767-2.767 7.251-2.767 10.018 0s2.767 7.251 0 10.018l-25.145 25.144c-1.385 1.384-3.198 2.076-5.01 2.076z" fill="#ffffffff" data-original-color="#000000ff"/><path d="m132.242 256.26h-37.08c-7.503 0-13.604-6.102-13.604-13.604v-11.41c0-3.913 3.172-7.084 7.084-7.084 3.913 0 7.085 3.172 7.085 7.084v10.846h35.951v-23.476c0-1.486-1.209-2.695-2.696-2.695h-30.56c-9.299 0-16.864-7.566-16.864-16.864v-24.041c0-7.503 6.102-13.604 13.604-13.604h37.08c7.503 0 13.605 6.102 13.605 13.604v11.41c0 3.913-3.172 7.084-7.085 7.084s-7.084-3.171-7.084-7.084v-10.846h-35.951v23.476c0 1.486 1.209 2.695 2.695 2.695h30.56c9.299 0 16.865 7.567 16.865 16.864v24.041c.001 7.502-6.102 13.604-13.605 13.604z" fill="#ffffffff" data-original-color="#000000ff"/><path d="m114.37 270.377c-3.913 0-7.084-3.172-7.084-7.084v-108.915c0-3.913 3.172-7.084 7.084-7.084 3.914 0 7.085 3.171 7.085 7.084v108.915c0 3.912-3.171 7.084-7.085 7.084z" fill="#ffffffff" data-original-color="#000000ff"/><path d="m114.515 298.35c-49.36 0-89.515-40.155-89.515-89.514 0-49.36 40.155-89.515 89.515-89.515 49.359 0 89.515 40.155 89.515 89.515 0 49.359-40.156 89.514-89.515 89.514zm0-164.86c-41.545 0-75.346 33.801-75.346 75.346 0 41.544 33.801 75.346 75.346 75.346 41.544 0 75.346-33.802 75.346-75.346 0-41.545-33.802-75.346-75.346-75.346z" fill="#ffffffff" data-original-color="#000000ff"/><path d="m386.485 378.824c-22.676 0-45.355-8.632-62.618-25.898-34.529-34.526-34.529-90.71 0-125.236 34.526-34.532 90.711-34.532 125.237 0 34.529 34.526 34.529 90.71 0 125.236-17.264 17.266-39.943 25.898-62.619 25.898zm0-162.868c-19.048 0-38.099 7.251-52.601 21.752-29.002 29.005-29.002 76.195 0 105.2 29.003 29.002 76.199 29.002 105.201 0 29.002-29.005 29.002-76.195 0-105.2-14.501-14.502-33.552-21.752-52.6-21.752z" fill="#ffffffff" data-original-color="#000000ff"/><path d="m369.233 279.822c-4.171 0-7.998-1.384-10.86-4.246-7.004-7.004-5.158-19.823 4.204-29.185 4.065-4.068 9.016-6.902 13.945-7.982 5.967-1.32 11.526.07 15.24 3.781 7.007 7.004 5.162 19.826-4.201 29.185-5.537 5.541-12.29 8.447-18.328 8.447zm11.696-27.746c-1.586 0-4.926.927-8.33 4.334-4.265 4.261-4.646 8.432-4.184 9.174.697.423 4.865.041 9.13-4.226 4.209-4.212 4.633-8.33 4.195-9.146-.156-.084-.436-.136-.811-.136z" fill="#ffffffff" data-original-color="#000000ff"/><path d="m391.383 342.704c-4.167 0-7.998-1.384-10.857-4.246-7.007-7.004-5.161-19.826 4.201-29.188 9.367-9.359 22.186-11.208 29.185-4.201 7.008 7.004 5.161 19.826-4.201 29.188-5.539 5.537-12.289 8.447-18.328 8.447zm11.701-27.746c-1.586 0-4.931.927-8.338 4.334-4.267 4.264-4.644 8.432-4.178 9.173.672.404 4.859.036 9.126-4.229 4.215-4.212 4.633-8.33 4.199-9.143-.159-.083-.435-.135-.809-.135z" fill="#ffffffff" data-original-color="#000000ff"/><path d="m349.9 333.812c-1.813 0-3.625-.692-5.009-2.076-2.767-2.767-2.767-7.251 0-10.018l73.182-73.182c2.767-2.767 7.251-2.767 10.018 0s2.767 7.251 0 10.018l-73.182 73.182c-1.384 1.383-3.196 2.076-5.009 2.076z" fill="#ffffffff" data-original-color="#000000ff"/></g></g></svg>