<svg id="Layer_1" viewBox="0 0 512 512" xmlns="http://www.w3.org/2000/svg" data-name="Layer 1" width="300" height="300" version="1.1" xmlns:xlink="http://www.w3.org/1999/xlink" xmlns:svgjs="http://svgjs.dev/svgjs"><g transform="matrix(1,0,0,1,0,0)"><path d="m356.937 202.621a6.388 6.388 0 0 1 -12.776 0 6.471 6.471 0 0 0 -4.468-6.3 11.464 11.464 0 0 0 -7.595 0 6.471 6.471 0 0 0 -4.468 6.3c0 5.106 4.791 6.152 9.588 7.2 9.853 2.15 19.719 4.3 19.719 19.756 0 9.528-5.637 15.619-12.852 18.279q-.888.327-1.8.58v2.794a6.388 6.388 0 0 1 -12.776 0v-2.794q-.912-.254-1.8-.58c-7.215-2.66-12.852-8.751-12.852-18.279a6.388 6.388 0 1 1 12.776 0 6.471 6.471 0 0 0 4.468 6.3 11.464 11.464 0 0 0 7.595 0 6.471 6.471 0 0 0 4.468-6.3c0-5.177-4.822-6.229-9.638-7.28-9.84-2.147-19.669-4.292-19.669-19.675 0-9.527 5.637-15.619 12.852-18.279q.888-.327 1.8-.58v-2.794a6.388 6.388 0 0 1 12.776 0v2.794q.913.254 1.8.58c7.215 2.66 12.852 8.752 12.852 18.279zm-208.621-55.143a49.186 49.186 0 1 1 -15.032 34.522 48.988 48.988 0 0 1 15.032-34.522zm34.805-1.028a36.452 36.452 0 1 0 25.538 11.139 36.353 36.353 0 0 0 -25.538-11.139zm189.114 33.308a51.394 51.394 0 1 0 15.052 36.34 51.23 51.23 0 0 0 -15.052-36.34zm-36.335-27.827a64.17 64.17 0 1 0 45.372 18.795 63.963 63.963 0 0 0 -45.372-18.795zm-216.286 194.589 55.486 87.687 7.442-4.341a6.351 6.351 0 0 1 4.3-.917l103.2 14.907a42.711 42.711 0 0 0 15.356-.434c5.856-1.282 9.325-3.255 14.383-6.167 45.92-26.51 91.773-53.46 137.878-79.607a16.446 16.446 0 0 0 7.748-9.957 16.2 16.2 0 0 0 -11.224-20.068 17.889 17.889 0 0 0 -12.988 1.439l-83.6 43.315c1.078 12.355-6.182 23.167-17.319 28.716a27.068 27.068 0 0 1 -21.084 1.5l-83.033-27.808a6.368 6.368 0 0 1 4.041-12.075l83.033 27.808a14.586 14.586 0 0 0 11.353-.853c8.48-4.225 13.074-13.166 8.61-22.126a16.431 16.431 0 0 0 -9.484-8.3l-113.675-38.069a41.121 41.121 0 0 0 -27.683.141zm1.667 146.48-87.051-137.568a6.37 6.37 0 0 1 2-8.784l54.23-34.317a6.369 6.369 0 0 1 8.783 2l13.385 21.152 75.584-26.195a53.951 53.951 0 0 1 35.867-.191l113.67 38.068a29.129 29.129 0 0 1 15.9 12.9l81.7-42.331a30.6 30.6 0 0 1 22.221-2.386 29.143 29.143 0 0 1 6.37 53.379l-137.556 79.4a53.683 53.683 0 0 1 -38.146 8.354l-101.016-14.591-5.3 3.094 4.375 6.915a6.368 6.368 0 0 1 -2 8.783l-54.233 34.318a6.368 6.368 0 0 1 -8.783-2zm-72.874-138.985 43.47-27.507 80.24 126.808-43.47 27.506zm194.048-194.727a64.224 64.224 0 0 0 -5.006-10.05 6.376 6.376 0 0 1 1.138-8.021l5.661-5.459a1.458 1.458 0 0 0 .028-2.051l-10.367-10.751c-.982-.982-1.6-.526-2.461.2l-5.448 5.253a6.373 6.373 0 0 1 -7.934.722 64.273 64.273 0 0 0 -20.486-8.945 6.363 6.363 0 0 1 -4.889-6.289l.144-8.019a1.5 1.5 0 0 0 -1.414-1.5l-15.055-.274a1.5 1.5 0 0 0 -1.5 1.414l-.146 8.019a6.366 6.366 0 0 1 -5.275 6.171 64.7 64.7 0 0 0 -20.645 8.162 6.376 6.376 0 0 1 -8.021-1.138l-5.384-5.562a1.418 1.418 0 0 0 -2.032-.209c-3.579 3.579-7.29 7.022-10.934 10.534a1.459 1.459 0 0 0 -.027 2.051l5.57 5.776a6.374 6.374 0 0 1 .721 7.934 64.323 64.323 0 0 0 -8.946 20.487 6.363 6.363 0 0 1 -6.288 4.889l-7.92-.119c-1.5 0-1.489.83-1.61 1.964l-.264 14.48a1.5 1.5 0 0 0 1.415 1.5l8.019.146a6.366 6.366 0 0 1 6.171 5.275 64.665 64.665 0 0 0 8.162 20.644 6.376 6.376 0 0 1 -1.138 8.021c-1.9 1.834-3.863 3.857-5.794 5.6a1.463 1.463 0 0 0 .023 1.812c3.549 3.55 6.965 7.231 10.448 10.844a1.443 1.443 0 0 0 2.044.2c1.907-1.907 3.924-3.776 5.869-5.652a6.374 6.374 0 0 1 7.934-.722 64.264 64.264 0 0 0 20.487 8.946 6.364 6.364 0 0 1 4.889 6.288l-.145 8.02a1.5 1.5 0 0 0 1.415 1.5l15.055.274a1.5 1.5 0 0 0 1.5-1.414l.146-8.019a6.364 6.364 0 0 1 5.275-6.171 64.714 64.714 0 0 0 20.644-8.162 6.373 6.373 0 0 1 8.02 1.137l5.459 5.662a1.458 1.458 0 0 0 2.051.027c3.6-3.471 7.305-7.28 10.972-10.6a1.463 1.463 0 0 0 -.022-1.812c-1.921-1.92-3.767-3.914-5.652-5.869a6.373 6.373 0 0 1 -.722-7.933 64.264 64.264 0 0 0 8.946-20.487 6.362 6.362 0 0 1 6.288-4.889l8.019.144a1.5 1.5 0 0 0 1.5-1.414l.275-15.056a1.5 1.5 0 0 0 -1.414-1.5l-8.02-.146a6.366 6.366 0 0 1 -6.171-5.276 64.2 64.2 0 0 0 -3.156-10.593zm136.062-29.188c-26.4 0-68.854.012-93.678-.113a197.416 197.416 0 0 0 -24.548 32.6 14.189 14.189 0 0 1 13.65 14.413l-.274 15.055a14.191 14.191 0 0 1 -14.425 13.945l-3.1-.057a76 76 0 0 1 -2.9 7.787 77.2 77.2 0 0 1 -3.724 7.428l1.82 1.888a14.246 14.246 0 0 1 .4 19.95c-2.913 3.412-7.9 7.635-11.289 10.905a14.11 14.11 0 0 1 -9.507 3.95q.249 2.109.649 4.082a32.483 32.483 0 0 0 3.529 9.779c5.162 8.939 13.406 16.378 23.661 22.3 19.762 11.41 46.713 17.1 73.758 17.088s53.984-5.729 73.73-17.13c10.249-5.918 18.483-13.345 23.629-22.257 8.874-15.371 6.506-38.781-2.313-63.313-10.163-28.269-28.827-57.6-49.064-78.3zm6.732-34.92a149.425 149.425 0 0 0 12.915-24.433c4.539-11.065 7.3-22.2 7.355-32.153a6.363 6.363 0 0 0 -6.089-6.381v-.013c-3.283-.152-7.23-3.4-11.176-6.636-5.933-4.874-11.866-9.748-19.984-9.54-7.634.2-14.915 5.138-22.2 10.08-12.99 8.816-14.672 11.335-26.961 1.237-5.929-4.871-11.863-9.741-19.981-9.541-7.633.2-14.915 5.138-22.195 10.079-4.311 2.925-8.623 5.852-12.285 7.188a6.373 6.373 0 0 0 -4.181 6.487h-.011c.75 9.537 3.623 20.394 8.011 31.236a155.679 155.679 0 0 0 11.462 22.694 17.973 17.973 0 0 0 -6.727 28.318 209.447 209.447 0 0 0 -20.522 26.956q-.858-1.871-1.811-3.688l2.213-2.133a14.232 14.232 0 0 0 .376-20.067c-3.269-3.39-7.494-8.376-10.9-11.289a14.243 14.243 0 0 0 -19.949.4l-1.888 1.82a77.206 77.206 0 0 0 -7.428-3.725 76.323 76.323 0 0 0 -7.787-2.9l.057-3.1a14.192 14.192 0 0 0 -13.94-14.426l-15.055-.274a14.191 14.191 0 0 0 -14.426 13.94l-.056 3.067a75.733 75.733 0 0 0 -7.876 2.6 76.8 76.8 0 0 0 -7.571 3.462c-.817-.847-1.713-1.915-2.588-2.663a14.233 14.233 0 0 0 -19.612.074q-5.428 5.217-10.84 10.452a14.231 14.231 0 0 0 -.376 20.066l2.144 2.224a77.206 77.206 0 0 0 -3.725 7.428 76.412 76.412 0 0 0 -2.9 7.787l-3.2-.057a14.406 14.406 0 0 0 -9.981 3.969 14.18 14.18 0 0 0 -4.344 9.972c-.09 4.959-.183 10.059-.274 15.055a14.191 14.191 0 0 0 13.94 14.425l3.067.056a75.262 75.262 0 0 0 2.6 7.876 76.586 76.586 0 0 0 3.462 7.571c-.846.816-1.917 1.714-2.662 2.587a14.243 14.243 0 0 0 .4 19.949c3.169 3.287 7.273 8.134 10.581 10.954a14.232 14.232 0 0 0 19.613-.074c.718-.689 1.491-1.436 2.224-2.143a77.206 77.206 0 0 0 7.428 3.725 76.412 76.412 0 0 0 7.787 2.9l-.056 3.1a14.191 14.191 0 0 0 13.94 14.425l15.056.275a14.191 14.191 0 0 0 14.425-13.94l.055-3.067a75.379 75.379 0 0 0 7.874-2.6 76.861 76.861 0 0 0 7.127-3.231 69.8 69.8 0 0 0 1.312 12.934 45.118 45.118 0 0 0 4.977 13.621c6.334 10.97 16.182 19.943 28.3 26.94 21.724 12.543 50.989 18.8 80.146 18.785s58.415-6.3 80.118-18.826c12.114-7 21.952-15.956 28.27-26.9 10.952-18.97 8.638-46.166-1.365-73.992-10.126-28.166-28.2-57.31-48.122-78.9a18.007 18.007 0 0 0 -6.187-30.028zm-91.065-1.08a142.884 142.884 0 0 1 -13.89-26.1 103.7 103.7 0 0 1 -6.61-23.072 112.572 112.572 0 0 0 10.385-6.52c5.734-3.891 11.469-7.783 15.358-7.883 3.4-.087 7.5 3.28 11.6 6.647 17.353 14.256 24.456 11.49 42.182-.539 5.734-3.892 11.469-7.785 15.359-7.884 3.4-.088 7.5 3.279 11.6 6.645 3.89 3.2 7.78 6.389 12.325 8.154a84.453 84.453 0 0 1 -6.107 22.35 139.368 139.368 0 0 1 -15.814 28.2zm84.939 12.776a5.223 5.223 0 0 1 0 10.445h-92.271a5.223 5.223 0 0 1 0-10.445z" fill-rule="evenodd" fill="#ffffffff" data-original-color="#000000ff"/></g></svg>