<svg id="Layer_1" enable-background="new 0 0 64 64" height="300" viewBox="0 0 64 64" width="300" xmlns="http://www.w3.org/2000/svg" version="1.1" xmlns:xlink="http://www.w3.org/1999/xlink" xmlns:svgjs="http://svgjs.dev/svgjs"><g transform="matrix(1,0,0,1,0,0)"><g><path d="m48.7099609 16.4628906c.2226563.0146484.4345703.0654297.6308594.1523438.5058594.2226563 1.0957031-.0058594 1.3183594-.5117188.2226563-.5048828-.0058594-1.0957031-.5117188-1.3183594-.3578491-.1576538-.7402344-.2486572-1.1347656-.2921753v-1.1179809c0-.5527344-.4472656-1-1-1s-1 .4472656-1 1v1.4128418c-.9423218.4234009-1.6104736 1.2210083-1.7167969 2.1945801-.1455078 1.328125.7978516 2.5263672 2.2832031 2.9121094.1165161.0318604.232666.0516968.347229.0706787.4921265.1314697.8382568.4574585.8051147.760376-.0419922.3896484-.6660156.7910156-1.4257813.7373047-.2207031-.0146484-.4335938-.0664063-.6328125-.1533203-.5087891-.2246094-1.0966797.0087891-1.3173828.5146484-.2216797.5058594.0087891 1.0957031.5146484 1.3173828.3631592.1588135.7481689.2498169 1.1425781.2926636v1.1194458c0 .5527344.4472656 1 1 1s1-.4472656 1-1v-1.4284058c.9329834-.4255371 1.6011353-1.2146606 1.7070313-2.1829224.1445313-1.3193359-.7949219-2.5166016-2.3759766-2.9316406l-.0058594-.0009766c-.0075684-.0013428-.0145874.0016479-.0221558.0004883l.0006714-.0043945c-.0732422-.0097656-.1435547-.0224609-.2236328-.0439453-.4941406-.1289063-.8417969-.4560547-.8085938-.7617188.0419925-.3896484.6611331-.7890625 1.4257815-.7373047z" fill="#ffffffff" data-original-color="#000000ff"/><path d="m49.8766479 40.2608643c-.0111694-.0321045-.0192871-.0637817-.0335693-.0942993-.0473633-.1016235-.1075439-.1976929-.1890869-.2805176-.0022583-.0022583-.0036011-.005249-.0058594-.0074463l-4.677124-4.677124c-.0021973-.0021973-.005188-.0036011-.0074463-.0058594-.0829468-.081665-.1790161-.1417236-.2807007-.189209-.0302124-.0141602-.0617065-.0222168-.0935669-.0333862-.0866089-.0302734-.1746826-.0480347-.2662354-.0536499-.0210571-.0013428-.0389404-.012146-.0603638-.012146h-5.555481c-2.2958374-2.8964233-5.5249634-4.8935547-9.09021-5.6760254 3.3985596-2.0150757 5.6886597-5.7104492 5.6886597-9.939209 0-6.3740234-5.1855469-11.5595703-11.5595703-11.5595703-6.3730469 0-11.5585938 5.1855469-11.5585938 11.5595703 0 .0026245.0003662.005127.0003662.0077515 0 .0031128.0004272.0061035.0004883.0092773.0062256 4.215271 2.2872314 7.8984985 5.6723022 9.9129028-7.1593628 1.5637817-12.5383911 7.9443359-12.5383911 15.5651855v6.75c0 .5527344.4472656 1 1 1h7.0800781 18.8603516v2.7304688c0 .5527344.4472656 1 1 1h15.6796875c.5527344 0 1-.4472656 1-1v-14.680664c0-.0214844-.0108643-.0393677-.012207-.0604858-.0056151-.0913087-.0233763-.1791993-.0535277-.265564zm-4.6139526-1.9395752 1.265625 1.265625h-1.265625zm-21.5166015-28.5888672c4.321167 0 7.9770508 2.8832397 9.1563721 6.8256836-1.9996338.7039795-7.2247314 2.1756592-8.9815674-.9213867-.1640625-.2890625-.4609375-.4765625-.7919922-.5029297-.3417969-.0205078-.6552734.1152344-.8613281.3740234-.1499023.1881104-3.5748901 4.3807983-8.0441895 3.0753174.3651123-4.9404907 4.491394-8.850708 9.5227051-8.850708zm-9.4476929 10.9371338c.5477295.1126709 1.0863037.168335 1.6117554.168335 2.9707031-.0009766 5.5244141-1.6455078 7.0615234-3.1396484 2.7672729 2.9246216 7.9398193 1.645874 10.2963867.8512573.019043.2458496.0375977.4918823.0375977.7424927 0 5.2509766-4.2570801 9.5241089-9.501709 9.5556641h-.1156616c-4.7753296-.0287477-8.7212525-3.5785524-9.3898926-8.1781007zm11.2474975 20.8822021-1.7998047 2.3769531-1.7988281-2.3769531.2910156-10.7011719h3.0166016zm6.7167969-5.6445312v14.6298828h-17.8603515v-6.4892578c0-.5527344-.4472656-1-1-1s-1 .4472656-1 1v6.4892578h-5.0800782v-5.75c0-7.3397827 5.7061768-13.3581543 12.913208-13.8874512l-.2969971 10.947998c-.0058594.2275391.0654297.4492188.2021484.6308594l2.8076172 3.7109375c.1894531.25.484375.3964844.7978516.3964844s.6083984-.1464844.7978516-.3964844l2.8085938-3.7109375c.1367188-.1816406.2080078-.4033203.2021484-.6308594l-.2967529-10.9387817c3.3088379.2480469 6.4255371 1.6758423 8.7731323 3.9983521h-2.7683716c-.5527344 0-1 .4472656-1 1zm15.6796875 18.3603515h-13.6796875v-17.3603515h9v3.6796875c0 .5527344.4472656 1 1 1h3.6796875z" fill="#ffffffff" data-original-color="#000000ff"/><path d="m48.5107422 8.8964844c-5.6054688 0-10.1660156 4.5605469-10.1660156 10.1669922 0 1.4316406.296875 2.8173828.8828125 4.1269531l-2.0585938 5.5976563c-.1191406.3222656-.0634766.6835938.1464844.9560547.1904297.2460938.4833984.3886719.7919922.3886719.03125 0 .0634766-.0019531.0957031-.0048828l9.6376953-.9277344c.2216797.0175781.4433594.0302734.6699219.0302734 5.6064453 0 10.1669922-4.5605469 10.1669922-10.1669922s-4.5605469-10.1669922-10.1669922-10.1669922zm0 18.3339844c-.2167969 0-.4287109-.0166016-.6396484-.0341797-.1015625-.0058594-.2011719 0-.2958984.0205078l-7.9794922.7685547 1.6542968-4.4960938c.0947266-.2587891.0791016-.5458984-.0439453-.7919922-.5712891-1.1464844-.8613281-2.3691406-.8613281-3.6337891 0-4.5029297 3.6630859-8.1669922 8.1660156-8.1669922s8.1669922 3.6640625 8.1669922 8.1669922-3.6640625 8.1669923-8.1669922 8.1669923z" fill="#ffffffff" data-original-color="#000000ff"/><path d="m42.1025391 42.0126953c0-.5527344-.4472656-1-1-1h-3.8183594c-.5527344 0-1 .4472656-1 1v10.4482422c0 .5527344.4472656 1 1 1h3.8183594 3.8173828c.5527344 0 1-.4472656 1-1v-6.875c0-.5527344-.4472656-1-1-1h-2.8173828zm-2 3.5732422v5.875h-1.8183594v-8.4482422h1.8183594zm3.8173828 1v4.875h-1.8173828v-4.875z" fill="#ffffffff" data-original-color="#000000ff"/></g></g></svg>