<svg id="Layer_1" viewBox="0 0 512 512" xmlns="http://www.w3.org/2000/svg" data-name="Layer 1" width="300" height="300" version="1.1" xmlns:xlink="http://www.w3.org/1999/xlink" xmlns:svgjs="http://svgjs.dev/svgjs"><g transform="matrix(1,0,0,1,0,0)"><g id="Layer_1-2" data-name="Layer_1"><g id="_248680864" data-name=" 248680864"><g id="_248683264" data-name=" 248683264"><path d="m452 436.73a7.5 7.5 0 0 1 -7.5-7.5v-278.42c0-4.05-3.55-7.34-7.91-7.34h-74.5a7.5 7.5 0 0 1 0-15h74.5c12.63 0 22.91 10 22.91 22.34v278.42a7.5 7.5 0 0 1 -7.5 7.5zm-392 0a7.5 7.5 0 0 1 -7.5-7.5v-278.42c0-12.32 10.28-22.34 22.91-22.34h66.08a7.5 7.5 0 0 1 0 15h-66.11c-4.36 0-7.91 3.29-7.91 7.34v278.42a7.5 7.5 0 0 1 -7.47 7.5z" fill="#be1717ff" data-original-color="#000000ff"/></g><g id="_248682232" data-name=" 248682232"><path d="m420.89 408.37h-329.78a7.5 7.5 0 0 1 -7.5-7.5v-236.53a7.49 7.49 0 0 1 7.5-7.5h49.38a7.5 7.5 0 0 1 0 15h-41.88v221.53h314.78v-221.53h-50.3a7.5 7.5 0 0 1 0-15h57.8a7.49 7.49 0 0 1 7.5 7.5v236.53a7.5 7.5 0 0 1 -7.5 7.5z" fill="#be1717ff" data-original-color="#000000ff"/></g><g id="_248681920" data-name=" 248681920"><path d="m449.75 491.5h-387.5a34.93 34.93 0 0 1 -34.89-34.89v-27.38a7.5 7.5 0 0 1 7.5-7.5h442.28a7.5 7.5 0 0 1 7.5 7.5v27.38a34.93 34.93 0 0 1 -34.89 34.89zm-407.39-54.77v19.88a19.91 19.91 0 0 0 19.89 19.89h387.5a19.91 19.91 0 0 0 19.89-19.89v-19.88z" fill="#be1717ff" data-original-color="#000000ff"/></g><g id="_248682280" data-name=" 248682280"><path d="m126 461.41h-27.6a7.5 7.5 0 0 1 -7.5-7.5v-24.68a7.5 7.5 0 0 1 15 0v17.18h12.62v-17.18a7.5 7.5 0 0 1 15 0v24.68a7.5 7.5 0 0 1 -7.52 7.5z" fill="#be1717ff" data-original-color="#000000ff"/></g><g id="_248682328" data-name=" 248682328"><path d="m413.6 461.41h-27.6a7.5 7.5 0 0 1 -7.5-7.5v-24.68a7.5 7.5 0 0 1 15 0v17.18h12.6v-17.18a7.5 7.5 0 0 1 15 0v24.68a7.5 7.5 0 0 1 -7.5 7.5z" fill="#be1717ff" data-original-color="#000000ff"/></g><g id="_248682184" data-name=" 248682184"><path d="m308.47 464.11h-105a7.5 7.5 0 1 1 0-15h105a7.5 7.5 0 0 1 0 15z" fill="#be1717ff" data-original-color="#000000ff"/></g><g id="_248681440" data-name=" 248681440"><path d="m292.3 273.56a7.5 7.5 0 0 1 -2.46-14.56 114.81 114.81 0 0 0 24.73-12.11 26.3 26.3 0 0 1 34.36-34.36 115.87 115.87 0 0 0 15.95-38.53 26.29 26.29 0 0 1 0-48.6 115.86 115.86 0 0 0 -16-38.48 26.29 26.29 0 0 1 -34.31-34.32 115.69 115.69 0 0 0 -38.48-16 26.29 26.29 0 0 1 -48.6 0 115.86 115.86 0 0 0 -38.49 16 26.29 26.29 0 0 1 -34.34 34.4 115.77 115.77 0 0 0 -16 38.48 26.3 26.3 0 0 1 0 48.6 115.69 115.69 0 0 0 16 38.48 26.29 26.29 0 0 1 34.34 34.31 114.81 114.81 0 0 0 24.74 12.13 7.5 7.5 0 1 1 -4.93 14.16 129.82 129.82 0 0 1 -34.27-18 7.5 7.5 0 0 1 -1.25-10.93 11.3 11.3 0 0 0 -15.94-15.94 7.5 7.5 0 0 1 -10.93-1.29 130.81 130.81 0 0 1 -23.78-57.36 7.49 7.49 0 0 1 6.86-8.64 11.31 11.31 0 0 0 0-22.55 7.51 7.51 0 0 1 -6.86-8.62 130.67 130.67 0 0 1 23.78-57.35 7.48 7.48 0 0 1 10.93-1.25 11.31 11.31 0 0 0 16-15.94 7.5 7.5 0 0 1 1.24-10.94 130.62 130.62 0 0 1 57.31-23.76 7.49 7.49 0 0 1 8.62 6.85 11.3 11.3 0 0 0 22.54 0 7.49 7.49 0 0 1 8.62-6.85 130.57 130.57 0 0 1 57.32 23.77 7.53 7.53 0 0 1 3 5.19 7.45 7.45 0 0 1 -1.77 5.74 11.31 11.31 0 0 0 16 15.95 7.48 7.48 0 0 1 10.93 1.25 130.71 130.71 0 0 1 23.78 57.36 7.51 7.51 0 0 1 -6.86 8.61 11.31 11.31 0 0 0 0 22.55 7.49 7.49 0 0 1 6.86 8.61 130.71 130.71 0 0 1 -23.78 57.38 7.5 7.5 0 0 1 -10.93 1.25 11.31 11.31 0 0 0 -16 15.94 7.49 7.49 0 0 1 -1.23 10.91 130.13 130.13 0 0 1 -34.27 18 7.37 7.37 0 0 1 -2.43.46z" fill="#be1717ff" data-original-color="#000000ff"/></g><g id="_248681776" data-name=" 248681776"><path d="m285.07 358.13a7.5 7.5 0 0 1 -7.5-7.5v-61.47a7.5 7.5 0 0 1 15 0v61.47a7.5 7.5 0 0 1 -7.5 7.5zm-66.56 0a7.5 7.5 0 0 1 -7.5-7.5v-61.38a7.5 7.5 0 0 1 15 0v61.38a7.5 7.5 0 0 1 -7.5 7.5z" fill="#be1717ff" data-original-color="#000000ff"/></g><g id="_248681200" data-name=" 248681200"><path d="m264.42 370.3h-25.26a7.6 7.6 0 0 1 -3.72-1l-20.65-11.8a7.5 7.5 0 0 1 7.44-13l18.92 10.8h21.28l18.92-10.8a7.5 7.5 0 1 1 7.44 13l-20.66 11.8a7.54 7.54 0 0 1 -3.71 1z" fill="#be1717ff" data-original-color="#000000ff"/></g><g id="_248681704" data-name=" 248681704"><path d="m275.48 300h-47.38c-19.48 0-22-17.28-23.8-29.9-4.51-31.24-15.24-49.16-24.71-65s-18.41-30.75-18.41-54.2a91.61 91.61 0 0 1 90.52-91.6h.18a91.63 91.63 0 0 1 90.52 91.6c0 23.45-8.94 38.39-18.41 54.2s-20.2 33.72-24.71 65c-1.82 12.59-4.28 29.9-23.8 29.9zm-23.69-225.69a76.88 76.88 0 0 0 -75.61 76.6c0 19.3 7.18 31.3 16.28 46.49 10.19 17 21.74 36.31 26.69 70.52 2.22 15.37 3.77 17.05 8.95 17.05h47.38c5.18 0 6.73-1.68 8.95-17.05 4.95-34.21 16.5-53.5 26.69-70.52 9.1-15.19 16.28-27.19 16.28-46.49a76.88 76.88 0 0 0 -75.61-76.6z" fill="#be1717ff" data-original-color="#000000ff"/></g><g id="_248681248" data-name=" 248681248"><path d="m285.07 335.14h-66.56a7.5 7.5 0 0 1 0-15h66.56a7.5 7.5 0 1 1 0 15z" fill="#be1717ff" data-original-color="#000000ff"/></g><g id="_248680936" data-name=" 248680936"><path d="m259.28 300a7.66 7.66 0 0 1 -1.42-.13 7.51 7.51 0 0 1 -6.07-6.76 7.5 7.5 0 0 1 -14.84.79l-24.06-126.4a7.49 7.49 0 0 1 3.11-7.5l15.77-11a7.49 7.49 0 0 1 8.6 0l11.47 8 11.47-8a7.49 7.49 0 0 1 8.6 0l15.77 11a7.51 7.51 0 0 1 3.06 7.55l-24.11 126.32a7.49 7.49 0 0 1 -7.35 6.13zm-30.75-130.54 23.15 121.6a7.85 7.85 0 0 1 .11.81 7.85 7.85 0 0 1 .11-.81l23.15-121.6-7.49-5.25-11.47 8a7.49 7.49 0 0 1 -8.6 0l-11.47-8z" fill="#be1717ff" data-original-color="#000000ff"/></g></g></g></g></svg>