<svg id="Layer_1" viewBox="0 0 512 512" xmlns="http://www.w3.org/2000/svg" data-name="Layer 1" width="300" height="300" version="1.1" xmlns:xlink="http://www.w3.org/1999/xlink" xmlns:svgjs="http://svgjs.dev/svgjs"><g transform="matrix(1,0,0,1,0,0)"><path d="m222.521 24.625c-9.457 0-17.151 7.694-17.151 17.151s7.694 17.15 17.151 17.15 17.15-7.693 17.15-17.15-7.694-17.151-17.15-17.151zm0 22.302c-2.84 0-5.151-2.311-5.151-5.15s2.311-5.151 5.151-5.151 5.15 2.311 5.15 5.151-2.311 5.15-5.15 5.15zm246.429 275.536c-19.758-10.783-41.478-17.796-63.832-20.727v-233.203c0-18.062-14.695-32.757-32.757-32.757h-112.541c-2.883-17.988-18.512-31.776-37.3-31.776s-34.417 13.788-37.3 31.776h-112.541c-18.062 0-32.757 14.694-32.757 32.757v406.71c0 18.062 14.695 32.757 32.757 32.757h299.681c2.026 0 4.047-.196 6.032-.568.461.128.911.251 1.334.364.508.136 1.031.204 1.553.204s1.044-.068 1.553-.204c20.935-5.61 89.242-28.235 89.242-83.845v-96.222c0-2.195-1.199-4.215-3.125-5.267zm-144.997-274.687h48.409c11.445 0 20.757 9.312 20.757 20.757v232.021c-3.936-.255-7.884-.389-11.838-.389s-7.902.134-11.838.389v-223.102c0-3.313-2.687-6-6-6h-39.49zm-190.863 0h57.656c3.313 0 6-2.687 6-6 0-14.213 11.563-25.776 25.776-25.776s25.776 11.563 25.776 25.776c0 3.313 2.687 6 6 6h57.655v42.801h-178.863zm-6 54.801h190.863c3.313 0 6-2.687 6-6v-13.125h33.49v218.284c-22.355 2.931-44.075 9.944-63.832 20.727-1.927 1.052-3.125 3.071-3.125 5.267v96.222c0 14.183 4.45 26.216 11.417 36.373h-214.303v-376.873h33.49v13.125c0 3.313 2.687 6 6 6zm-54.409 393.423c-11.445 0-20.757-9.312-20.757-20.757v-406.71c0-11.445 9.312-20.757 20.757-20.757h48.409v23.676h-39.49c-3.313 0-6 2.687-6 6v388.872c0 3.313 2.687 6 6 6h230.454c10.463 10.256 23.345 17.999 35.402 23.676zm387.396-72.049c0 45.845-58.349 66.14-78.795 71.829-20.447-5.689-78.796-25.984-78.796-71.829v-92.618c24.196-12.55 51.36-19.168 78.796-19.168s54.6 6.618 78.795 19.168zm-143.475-25.403c0 35.664 29.015 64.68 64.679 64.68s64.679-29.016 64.679-64.68-29.015-64.679-64.679-64.679-64.679 29.015-64.679 64.679zm117.358 0c0 29.048-23.631 52.68-52.679 52.68s-52.679-23.632-52.679-52.68 23.632-52.679 52.679-52.679 52.679 23.632 52.679 52.679zm-61.615 10.618 26.45-34.778c2.007-2.639 5.77-3.15 8.408-1.144 2.637 2.006 3.149 5.77 1.144 8.407l-31.226 41.058c-1.135 1.492-2.901 2.368-4.776 2.368s-3.641-.876-4.776-2.368l-13.353-17.558c-2.006-2.638-1.494-6.401 1.144-8.407 2.637-2.007 6.401-1.495 8.408 1.144zm-252.53-285.741c0-3.313 2.687-6 6-6h193.413c3.313 0 6 2.687 6 6s-2.687 6-6 6h-193.413c-3.313 0-6-2.687-6-6zm10.077 66.729-8.852-11.639c-2.006-2.637-1.494-6.401 1.143-8.407 2.638-2.008 6.402-1.495 8.408 1.144l4.077 5.359 15.925-20.938c2.006-2.639 5.771-3.15 8.408-1.144s3.149 5.771 1.143 8.407l-20.7 27.218c-1.135 1.492-2.901 2.368-4.776 2.368s-3.641-.876-4.775-2.368zm195.336-17.241c0 3.313-2.687 6-6 6h-127.542c-3.313 0-6-2.687-6-6s2.687-6 6-6h127.542c3.313 0 6 2.687 6 6zm-165.084 39.511-20.701 27.219c-1.135 1.492-2.901 2.368-4.776 2.368s-3.641-.876-4.776-2.368l-8.852-11.64c-2.006-2.638-1.494-6.401 1.144-8.407 2.636-2.007 6.402-1.495 8.408 1.144l4.076 5.36 15.925-20.939c2.006-2.639 5.771-3.15 8.408-1.144 2.638 2.006 3.15 5.77 1.144 8.407zm165.084 9.978c0 3.313-2.687 6-6 6h-127.542c-3.313 0-6-2.687-6-6s2.687-6 6-6h127.542c3.313 0 6 2.687 6 6zm-195.336 66.729-8.852-11.639c-2.006-2.637-1.494-6.401 1.143-8.407 2.638-2.008 6.402-1.495 8.408 1.144l4.077 5.359 15.925-20.938c2.006-2.639 5.771-3.151 8.408-1.144 2.637 2.006 3.149 5.771 1.143 8.407l-20.7 27.218c-1.135 1.492-2.901 2.368-4.776 2.368s-3.641-.876-4.775-2.368zm195.336-17.241c0 3.313-2.687 6-6 6h-127.542c-3.313 0-6-2.687-6-6s2.687-6 6-6h127.542c3.313 0 6 2.687 6 6zm-165.084 39.511-20.701 27.219c-1.135 1.492-2.901 2.368-4.776 2.368s-3.641-.876-4.776-2.368l-8.852-11.64c-2.006-2.638-1.494-6.401 1.144-8.407 2.636-2.008 6.402-1.495 8.408 1.144l4.076 5.36 15.925-20.939c2.006-2.639 5.771-3.15 8.408-1.144 2.638 2.006 3.15 5.77 1.144 8.407zm109.569 9.978c0 3.313-2.687 6-6 6h-72.027c-3.313 0-6-2.687-6-6s2.687-6 6-6h72.027c3.313 0 6 2.687 6 6zm-139.821 66.729-8.852-11.639c-2.006-2.637-1.494-6.401 1.143-8.407 2.638-2.008 6.402-1.495 8.408 1.144l4.077 5.359 15.925-20.938c2.006-2.639 5.771-3.15 8.408-1.144s3.149 5.771 1.143 8.407l-20.7 27.218c-1.135 1.492-2.901 2.368-4.776 2.368s-3.641-.876-4.775-2.368zm139.821-17.241c0 3.313-2.687 6-6 6h-72.027c-3.313 0-6-2.687-6-6s2.687-6 6-6h72.027c3.313 0 6 2.687 6 6zm-109.569 39.511-20.701 27.219c-1.135 1.492-2.901 2.368-4.776 2.368s-3.641-.876-4.776-2.368l-8.852-11.64c-2.006-2.638-1.494-6.401 1.144-8.407 2.636-2.008 6.402-1.495 8.408 1.144l4.076 5.36 15.925-20.939c2.006-2.639 5.771-3.151 8.408-1.144 2.638 2.006 3.15 5.77 1.144 8.407zm109.569 9.978c0 3.313-2.687 6-6 6h-72.027c-3.313 0-6-2.687-6-6s2.687-6 6-6h72.027c3.313 0 6 2.687 6 6z" fill="#be1717ff" data-original-color="#000000ff"/></g></svg>