<svg id="Outline" viewBox="0 0 64 64" xmlns="http://www.w3.org/2000/svg" width="300" height="300" version="1.1" xmlns:xlink="http://www.w3.org/1999/xlink" xmlns:svgjs="http://svgjs.dev/svgjs"><g transform="matrix(1,0,0,1,0,0)"><g fill="#333"><path d="m40 46a7.12 7.12 0 0 0 5-1.76 7.12 7.12 0 0 0 5 1.76c3.36 0 6-1.76 6-4v-12.28c-.23-2.11-2.78-3.72-6-3.72s-5.77 1.61-6 3.72v1.28a8 8 0 0 0 -4-1c-3.22 0-5.77 1.61-6 3.72v8.28c0 2.24 2.64 4 6 4zm10-2c-2.29 0-4-1.06-4-2v-1a8.5 8.5 0 0 0 8 0v1c0 .94-1.71 2-4 2zm0-4c-2.29 0-4-1.06-4-2v-1a8.5 8.5 0 0 0 8 0v1c0 .94-1.71 2-4 2zm0-4c-2.29 0-4-1.06-4-2v-1a8.5 8.5 0 0 0 8 0v1c0 .94-1.71 2-4 2zm0-8c2.29 0 4 1.06 4 2s-1.71 2-4 2-4-1.06-4-2 1.71-2 4-2zm-10 4c2.29 0 4 1.06 4 2s-1.71 2-4 2-4-1.06-4-2 1.71-2 4-2zm-4 5a8.5 8.5 0 0 0 8 0v1c0 .94-1.71 2-4 2s-4-1.06-4-2zm0 4a8.5 8.5 0 0 0 8 0v1c0 .94-1.71 2-4 2s-4-1.06-4-2z" fill="#be1717ff" data-original-color="#333333ff"/><path d="m61 48h-1v-33a1 1 0 0 0 -1-1h-54a1 1 0 0 0 -1 1v33h-1a1 1 0 0 0 -1 1v3a1 1 0 0 0 .17.55l2 3a1 1 0 0 0 .83.45h54a1 1 0 0 0 .83-.45l2-3a1 1 0 0 0 .17-.55v-3a1 1 0 0 0 -1-1zm-55-32h52v32h-19a1 1 0 0 0 -.89.55l-.73 1.45h-10.76l-.73-1.45a1 1 0 0 0 -.89-.55h-19zm54 35.7-1.54 2.3h-52.92l-1.54-2.3v-1.7h20.38l.73 1.45a1 1 0 0 0 .89.55h12a1 1 0 0 0 .89-.55l.73-1.45h20.38z" fill="#be1717ff" data-original-color="#333333ff"/><path d="m18 24h2v2h2v-3a1.07 1.07 0 0 0 0-.25l-1-4a1 1 0 0 0 -1-.75h-2a1 1 0 0 0 -1 .78l-.91 4a.76.76 0 0 0 -.09.22v3h2zm1.15-4 .53 2h-1.38l.45-2z" fill="#be1717ff" data-original-color="#333333ff"/><path d="m26 24.41 1-1 1 1v1.59h2v-2a1 1 0 0 0 -.29-.71l-1.3-1.29 1.3-1.29a1 1 0 0 0 .29-.71v-2h-2v1.59l-1 1-1-1v-1.59h-2v2a1 1 0 0 0 .29.71l1.3 1.29-1.3 1.29a1 1 0 0 0 -.29.71v2h2z" fill="#be1717ff" data-original-color="#333333ff"/><path d="m8 28h14v2h-14z" fill="#be1717ff" data-original-color="#333333ff"/><path d="m24 28h6v2h-6z" fill="#be1717ff" data-original-color="#333333ff"/><path d="m8 32h4v2h-4z" fill="#be1717ff" data-original-color="#333333ff"/><path d="m14 32h16v2h-16z" fill="#be1717ff" data-original-color="#333333ff"/><path d="m8 36h6v2h-6z" fill="#be1717ff" data-original-color="#333333ff"/><path d="m10 26h2v-6h2v-2h-6v2h2z" fill="#be1717ff" data-original-color="#333333ff"/><path d="m16 36h4v2h-4z" fill="#be1717ff" data-original-color="#333333ff"/><path d="m22 36h4v2h-4z" fill="#be1717ff" data-original-color="#333333ff"/><path d="m28 36h2v2h-2z" fill="#be1717ff" data-original-color="#333333ff"/><path d="m8 40h13v2h-13z" fill="#be1717ff" data-original-color="#333333ff"/><path d="m23 40h7v2h-7z" fill="#be1717ff" data-original-color="#333333ff"/><path d="m8 44h4v2h-4z" fill="#be1717ff" data-original-color="#333333ff"/><path d="m14 44h16v2h-16z" fill="#be1717ff" data-original-color="#333333ff"/><path d="m54 18h2v2h-2z" fill="#be1717ff" data-original-color="#333333ff"/><path d="m50 18h2v2h-2z" fill="#be1717ff" data-original-color="#333333ff"/><path d="m46 18h2v2h-2z" fill="#be1717ff" data-original-color="#333333ff"/></g></g></svg>