<svg height="300" viewBox="0 0 128 128" width="300" xmlns="http://www.w3.org/2000/svg" version="1.1" xmlns:xlink="http://www.w3.org/1999/xlink" xmlns:svgjs="http://svgjs.dev/svgjs"><g transform="matrix(1,0,0,1,0,0)"><g><path d="m109.5 40.25a1.75 1.75 0 0 0 -1.75 1.75v14.59h-42v-9.09a1.75 1.75 0 0 0 -3.5 0v9.09h-42v-14.59a1.75 1.75 0 0 0 -3.5 0v16.34a1.751 1.751 0 0 0 1.75 1.75h43.75v15.6a1.75 1.75 0 0 0 3.5 0v-15.6h43.75a1.75 1.75 0 0 0 1.75-1.75v-16.34a1.75 1.75 0 0 0 -1.75-1.75z" fill="#be1717ff" data-original-color="#000000ff"/><path d="m64 43.25a19.25 19.25 0 1 0 -19.25-19.25 19.272 19.272 0 0 0 19.25 19.25zm0-35a15.75 15.75 0 1 1 -15.75 15.75 15.767 15.767 0 0 1 15.75-15.75z" fill="#be1717ff" data-original-color="#000000ff"/><path d="m109.5 10.25a13.75 13.75 0 1 0 13.75 13.75 13.765 13.765 0 0 0 -13.75-13.75zm0 24a10.25 10.25 0 1 1 10.25-10.25 10.261 10.261 0 0 1 -10.25 10.25z" fill="#be1717ff" data-original-color="#000000ff"/><path d="m32.25 24a13.75 13.75 0 1 0 -13.75 13.75 13.765 13.765 0 0 0 13.75-13.75zm-24 0a10.25 10.25 0 1 1 10.25 10.25 10.261 10.261 0 0 1 -10.25-10.25z" fill="#be1717ff" data-original-color="#000000ff"/><path d="m86.75 92.083a1.749 1.749 0 0 0 -1.75 1.75v6a1.75 1.75 0 0 0 3.5 0v-6a1.749 1.749 0 0 0 -1.75-1.75z" fill="#be1717ff" data-original-color="#000000ff"/><path d="m64 87.846a13.75 13.75 0 1 0 13.75 13.754 13.766 13.766 0 0 0 -13.75-13.754zm0 24a10.25 10.25 0 1 1 10.25-10.246 10.261 10.261 0 0 1 -10.25 10.246z" fill="#be1717ff" data-original-color="#000000ff"/><path d="m59 27.3-2.04 2.425a10.4 10.4 0 0 0 5.784 2.64v1.584h2.328v-1.514c3.552-.264 5.617-2.28 5.617-5.208 0-2.977-2.233-4.057-5.617-4.825v-3.84a8.278 8.278 0 0 1 3.312 1.656l1.848-2.544a9.129 9.129 0 0 0 -5.16-2.209v-1.512h-2.331v1.488c-3.049.385-5.065 2.352-5.065 5.089 0 2.9 2.065 3.984 5.065 4.752v3.985a8.684 8.684 0 0 1 -3.741-1.967zm6.072-1.44c1.464.409 2.04.84 2.04 1.752 0 .889-.7 1.633-2.04 1.8zm-3.819-5.69a1.764 1.764 0 0 1 1.488-1.656v3.264c-1.056-.36-1.488-.816-1.488-1.608z" fill="#be1717ff" data-original-color="#000000ff"/><path d="m110.234 22.9v-2.632a5.681 5.681 0 0 1 2.273 1.136l1.267-1.745a6.249 6.249 0 0 0 -3.54-1.514v-1.038h-1.6v1.021c-2.091.264-3.474 1.613-3.474 3.49 0 1.992 1.415 2.734 3.474 3.26v2.733a5.961 5.961 0 0 1 -2.569-1.35l-1.4 1.663a7.127 7.127 0 0 0 3.968 1.811v1.087h1.6v-1.037c2.437-.181 3.853-1.564 3.853-3.573.001-2.042-1.53-2.783-3.852-3.312zm-1.6-.427c-.725-.247-1.021-.56-1.021-1.1a1.211 1.211 0 0 1 1.021-1.137zm1.6 5.235v-2.435c1.005.28 1.4.577 1.4 1.2 0 .611-.478 1.127-1.4 1.237z" fill="#be1717ff" data-original-color="#000000ff"/><path d="m19.234 30.822v-1.037c2.437-.181 3.853-1.564 3.853-3.573 0-2.042-1.531-2.783-3.853-3.31v-2.634a5.681 5.681 0 0 1 2.273 1.132l1.267-1.745a6.249 6.249 0 0 0 -3.54-1.514v-1.034h-1.6v1.021c-2.091.264-3.474 1.613-3.474 3.49 0 1.992 1.415 2.734 3.474 3.26v2.733a5.961 5.961 0 0 1 -2.569-1.35l-1.4 1.663a7.127 7.127 0 0 0 3.968 1.811v1.087zm0-5.549c1 .28 1.4.577 1.4 1.2 0 .609-.478 1.12-1.4 1.235zm-2.617-3.9a1.211 1.211 0 0 1 1.021-1.137v2.24c-.725-.248-1.021-.561-1.021-1.104z" fill="#be1717ff" data-original-color="#000000ff"/><path d="m64.734 100.5v-2.636a5.681 5.681 0 0 1 2.273 1.136l1.267-1.745a6.256 6.256 0 0 0 -3.54-1.514v-1.041h-1.6v1.021c-2.091.264-3.474 1.613-3.474 3.49 0 1.993 1.415 2.734 3.474 3.261v2.733a5.963 5.963 0 0 1 -2.569-1.351l-1.4 1.664a7.141 7.141 0 0 0 3.968 1.811v1.086h1.6v-1.037c2.437-.181 3.853-1.564 3.853-3.573.001-2.038-1.53-2.78-3.852-3.305zm-1.6-.428c-.725-.247-1.021-.56-1.021-1.1a1.209 1.209 0 0 1 1.021-1.136zm1.6 5.235v-2.437c1.005.279 1.4.576 1.4 1.2 0 .611-.478 1.121-1.4 1.236z" fill="#be1717ff" data-original-color="#000000ff"/><path d="m93.992 80.46a1.749 1.749 0 0 0 -1.242-.518h-57.5a1.753 1.753 0 0 0 -1.243.518l-7.124 7.183a1.75 1.75 0 1 0 2.485 2.464l4.132-4.165v35.558a1.751 1.751 0 0 0 1.75 1.75h57.5a1.75 1.75 0 0 0 1.75-1.75v-35.558l4.132 4.165a1.749 1.749 0 1 0 2.484-2.464zm-56.992 39.29v-36.308h54v36.308z" fill="#be1717ff" data-original-color="#000000ff"/></g></g></svg>