<svg id="Layer_1" enable-background="new 0 0 512 512" height="300" viewBox="0 0 512 512" width="300" xmlns="http://www.w3.org/2000/svg" version="1.1" xmlns:xlink="http://www.w3.org/1999/xlink" xmlns:svgjs="http://svgjs.dev/svgjs"><g transform="matrix(1,0,0,1,0,0)"><path d="m498.874 69.061-7.819-3.01c-1.265-4.129-2.92-8.123-4.95-11.94l3.403-7.662c1.344-3.025.686-6.564-1.654-8.904l-13.398-13.397c-2.34-2.34-5.879-2.997-8.904-1.654l-7.665 3.404c-3.817-2.029-7.81-3.685-11.936-4.949l-3.011-7.822c-1.19-3.089-4.157-5.127-7.467-5.127h-18.947c-3.31 0-6.277 2.038-7.466 5.126l-3.011 7.822c-4.127 1.264-8.119 2.919-11.936 4.949l-7.666-3.404c-3.025-1.344-6.564-.686-8.904 1.654l-13.397 13.397c-2.34 2.34-2.998 5.879-1.655 8.904l3.404 7.665c-2.03 3.817-3.686 7.81-4.95 11.938l-7.821 3.011c-3.087 1.188-5.124 4.155-5.124 7.465v18.947c0 3.31 2.038 6.277 5.126 7.466l7.819 3.01c1.265 4.129 2.92 8.123 4.95 11.941l-3.403 7.662c-1.343 3.024-.686 6.564 1.655 8.904l13.397 13.397c2.34 2.34 5.878 2.998 8.904 1.655l7.666-3.405c3.817 2.03 7.809 3.685 11.936 4.949l3.011 7.822c1.189 3.088 4.157 5.126 7.466 5.126h18.947c3.31 0 6.277-2.038 7.466-5.126l3.009-7.819c4.13-1.265 8.123-2.92 11.941-4.95l7.662 3.403c3.024 1.342 6.564.686 8.904-1.655l13.397-13.397c2.34-2.34 2.998-5.879 1.654-8.904l-3.404-7.665c2.029-3.817 3.685-7.809 4.949-11.936l7.822-3.011c3.088-1.189 5.126-4.156 5.126-7.466v-18.949c0-3.309-2.038-6.277-5.126-7.465zm-10.874 20.919-6.474 2.492c-2.461.947-4.298 3.048-4.909 5.614-1.273 5.352-3.387 10.45-6.282 15.15-1.383 2.247-1.57 5.031-.499 7.442l2.819 6.347-5.629 5.629-6.344-2.817c-2.413-1.071-5.196-.884-7.442.5-4.7 2.894-9.799 5.008-15.155 6.283-2.566.611-4.667 2.447-5.614 4.909l-2.491 6.471h-7.961l-2.492-6.474c-.947-2.461-3.047-4.298-5.613-4.909-5.352-1.274-10.45-3.387-15.151-6.282-2.248-1.384-5.032-1.57-7.441-.499l-6.347 2.819-5.629-5.629 2.817-6.344c1.071-2.411.884-5.195-.5-7.442-2.894-4.7-5.008-9.799-6.283-15.155-.611-2.566-2.447-4.667-4.909-5.614l-6.471-2.491v-7.96l6.473-2.492c2.461-.948 4.298-3.048 4.909-5.614 1.273-5.353 3.387-10.45 6.282-15.151 1.383-2.247 1.57-5.031.5-7.442l-2.819-6.346 5.629-5.629 6.348 2.819c2.41 1.071 5.196.883 7.442-.499 4.701-2.895 9.798-5.008 15.15-6.282 2.566-.611 4.667-2.447 5.614-4.909l2.491-6.475h7.961l2.492 6.474c.947 2.462 3.048 4.298 5.614 4.909 5.352 1.273 10.449 3.387 15.15 6.282 2.248 1.383 5.031 1.57 7.442.499l6.347-2.819 5.629 5.629-2.817 6.343c-1.071 2.412-.884 5.196.499 7.442 2.895 4.701 5.009 9.799 6.283 15.155.611 2.566 2.447 4.667 4.909 5.614l6.472 2.491zm-62-47.911c-24.224 0-43.931 19.707-43.931 43.931s19.708 43.931 43.931 43.931 43.931-19.707 43.931-43.931-19.707-43.931-43.931-43.931zm0 71.862c-15.401 0-27.931-12.53-27.931-27.931s12.53-27.931 27.931-27.931 27.931 12.53 27.931 27.931-12.53 27.931-27.931 27.931zm-72 258.717v-204.133c0-2.122-.843-4.157-2.343-5.657l-29.164-29.164c-1.5-1.5-3.535-2.343-5.657-2.343h-150.836c-4.418 0-8 3.582-8 8v233.297c0 4.418 3.582 8 8 8h180c4.418 0 8-3.582 8-8zm-29.164-213.983 1.85 1.85h-1.85zm-150.836 205.983v-217.296h134.836v21.164c0 4.418 3.582 8 8 8h21.164v188.133h-164zm69.284-185.37c0-4.418 3.582-8 8-8h36.684c4.418 0 8 3.582 8 8s-3.582 8-8 8h-36.684c-4.418 0-8-3.581-8-8zm182.716 202.791c-24.224 0-43.931 19.707-43.931 43.931s19.708 43.931 43.931 43.931 43.931-19.707 43.931-43.931-19.707-43.931-43.931-43.931zm0 71.862c-15.401 0-27.931-12.529-27.931-27.931s12.53-27.931 27.931-27.931 27.931 12.529 27.931 27.931-12.53 27.931-27.931 27.931zm72.874-44.87-7.819-3.01c-1.265-4.129-2.92-8.123-4.95-11.94l3.403-7.662c1.344-3.024.686-6.563-1.654-8.904l-13.398-13.397c-2.34-2.34-5.879-2.994-8.904-1.654l-7.666 3.405c-3.816-2.029-7.808-3.685-11.936-4.949l-3.011-7.822c-1.188-3.088-4.156-5.126-7.466-5.126h-18.947c-3.31 0-6.277 2.038-7.466 5.126l-3.011 7.822c-4.127 1.265-8.12 2.92-11.936 4.949l-7.666-3.405c-3.025-1.344-6.564-.687-8.904 1.655l-13.397 13.397c-2.34 2.34-2.998 5.879-1.655 8.903l3.404 7.664c-2.03 3.818-3.686 7.811-4.95 11.938l-7.821 3.01c-3.088 1.188-5.126 4.156-5.126 7.466v18.947c0 3.31 2.038 6.277 5.126 7.466l7.819 3.01c1.265 4.13 2.92 8.123 4.95 11.94l-3.403 7.662c-1.344 3.024-.686 6.563 1.654 8.904l13.397 13.397c2.34 2.34 5.88 2.996 8.904 1.654l7.666-3.405c3.816 2.029 7.808 3.685 11.936 4.949l3.011 7.822c1.189 3.088 4.157 5.126 7.466 5.126h18.947c3.31 0 6.277-2.038 7.466-5.127l3.009-7.818c4.129-1.265 8.124-2.92 11.941-4.95l7.662 3.403c3.024 1.345 6.564.686 8.904-1.654l13.397-13.397c2.34-2.341 2.998-5.88 1.654-8.904l-3.405-7.666c2.03-3.817 3.685-7.81 4.949-11.936l7.822-3.011c3.089-1.188 5.126-4.156 5.126-7.466v-18.947c.004-3.309-2.034-6.277-5.122-7.465zm-10.874 20.919-6.474 2.492c-2.462.947-4.298 3.048-4.909 5.614-1.273 5.351-3.387 10.448-6.282 15.15-1.383 2.246-1.57 5.03-.499 7.441l2.819 6.348-5.629 5.629-6.344-2.817c-2.413-1.072-5.196-.885-7.442.5-4.7 2.894-9.799 5.008-15.155 6.281-2.566.611-4.667 2.447-5.615 4.91l-2.49 6.472h-7.961l-2.492-6.474c-.947-2.461-3.047-4.298-5.613-4.908-5.354-1.275-10.452-3.389-15.151-6.283-2.247-1.383-5.031-1.571-7.442-.499l-6.347 2.819-5.629-5.629 2.817-6.344c1.071-2.411.884-5.195-.499-7.441-2.894-4.7-5.008-9.8-6.283-15.156-.611-2.565-2.447-4.666-4.909-5.613l-6.471-2.492v-7.961l6.473-2.491c2.462-.947 4.298-3.048 4.909-5.614 1.273-5.353 3.387-10.45 6.282-15.152 1.383-2.246 1.57-5.03.5-7.441l-2.819-6.347 5.629-5.629 6.348 2.819c2.41 1.071 5.196.884 7.442-.5 4.699-2.894 9.797-5.007 15.151-6.282 2.566-.61 4.666-2.447 5.613-4.908l2.492-6.474h7.961l2.492 6.474c.947 2.461 3.047 4.298 5.613 4.908 5.354 1.275 10.452 3.389 15.151 6.283 2.248 1.383 5.031 1.57 7.442.499l6.347-2.819 5.629 5.629-2.817 6.344c-1.071 2.411-.884 5.195.499 7.441 2.895 4.701 5.009 9.801 6.283 15.156.611 2.565 2.447 4.666 4.909 5.613l6.471 2.492zm-402-300.049c24.224 0 43.931-19.708 43.931-43.931s-19.707-43.931-43.931-43.931-43.931 19.707-43.931 43.931 19.708 43.931 43.931 43.931zm0-71.862c15.401 0 27.931 12.53 27.931 27.931s-12.53 27.931-27.931 27.931-27.931-12.53-27.931-27.931 12.53-27.931 27.931-27.931zm-72.874 44.87 7.819 3.01c1.265 4.129 2.92 8.123 4.95 11.94l-3.403 7.662c-1.344 3.025-.686 6.564 1.654 8.905l13.398 13.397c2.34 2.34 5.88 2.998 8.904 1.654l7.666-3.405c3.817 2.03 7.809 3.685 11.936 4.949l3.011 7.822c1.189 3.088 4.157 5.126 7.466 5.126h18.947c3.31 0 6.277-2.038 7.466-5.126l3.009-7.819c4.13-1.265 8.123-2.92 11.941-4.95l7.662 3.403c3.024 1.342 6.564.686 8.904-1.655l13.397-13.397c2.34-2.34 2.998-5.879 1.654-8.904l-3.404-7.666c2.029-3.817 3.685-7.809 4.949-11.936l7.822-3.011c3.088-1.189 5.126-4.156 5.126-7.466v-18.946c0-3.31-2.038-6.277-5.126-7.466l-7.819-3.01c-1.265-4.129-2.92-8.122-4.95-11.94l3.403-7.662c1.344-3.025.686-6.564-1.654-8.904l-13.398-13.397c-2.339-2.34-5.879-2.997-8.904-1.654l-7.665 3.404c-3.817-2.029-7.809-3.685-11.936-4.949l-3.011-7.822c-1.19-3.088-4.157-5.126-7.467-5.126h-18.946c-3.31 0-6.277 2.038-7.466 5.126l-3.011 7.822c-4.127 1.264-8.119 2.919-11.936 4.949l-7.665-3.404c-3.025-1.344-6.564-.686-8.904 1.654l-13.398 13.397c-2.34 2.34-2.998 5.879-1.654 8.904l3.404 7.665c-2.03 3.818-3.685 7.81-4.949 11.938l-7.821 3.011c-3.089 1.188-5.127 4.155-5.127 7.465v18.947c0 3.309 2.038 6.277 5.126 7.465zm10.874-20.919 6.473-2.492c2.461-.948 4.298-3.048 4.909-5.614 1.273-5.353 3.387-10.45 6.282-15.151 1.383-2.247 1.57-5.031.499-7.442l-2.818-6.346 5.629-5.629 6.347 2.819c2.411 1.071 5.195.884 7.442-.499 4.701-2.895 9.798-5.008 15.15-6.282 2.566-.611 4.667-2.447 5.614-4.909l2.493-6.475h7.961l2.492 6.474c.947 2.461 3.048 4.298 5.614 4.909 5.352 1.273 10.45 3.387 15.15 6.282 2.247 1.383 5.031 1.57 7.442.499l6.347-2.819 5.629 5.629-2.817 6.343c-1.071 2.412-.884 5.196.499 7.442 2.895 4.701 5.009 9.799 6.283 15.154.61 2.566 2.447 4.667 4.909 5.614l6.471 2.493v7.961l-6.474 2.492c-2.461.947-4.298 3.048-4.909 5.614-1.273 5.352-3.387 10.45-6.282 15.15-1.383 2.247-1.57 5.031-.499 7.442l2.819 6.347-5.629 5.629-6.344-2.817c-2.413-1.071-5.196-.884-7.442.5-4.7 2.894-9.799 5.008-15.155 6.283-2.566.611-4.667 2.447-5.614 4.909l-2.49 6.47h-7.961l-2.492-6.474c-.948-2.461-3.047-4.298-5.613-4.909-5.352-1.274-10.45-3.387-15.151-6.282-2.248-1.384-5.032-1.57-7.441-.499l-6.348 2.819-5.629-5.629 2.817-6.343c1.071-2.412.884-5.196-.499-7.442-2.894-4.7-5.008-9.799-6.283-15.155-.611-2.566-2.447-4.667-4.909-5.614l-6.472-2.492zm134.874 327.041-7.819-3.01c-1.265-4.129-2.92-8.122-4.95-11.94l3.403-7.662c1.344-3.024.686-6.563-1.654-8.904l-13.398-13.397c-2.339-2.34-5.879-2.994-8.904-1.654l-7.666 3.405c-3.816-2.029-7.808-3.685-11.936-4.949l-3.011-7.822c-1.189-3.088-4.157-5.126-7.466-5.126h-18.946c-3.309 0-6.277 2.038-7.466 5.126l-3.011 7.822c-4.127 1.265-8.119 2.92-11.936 4.949l-7.666-3.405c-3.025-1.344-6.564-.686-8.904 1.654l-13.397 13.397c-2.34 2.341-2.998 5.88-1.654 8.904l3.404 7.665c-2.03 3.817-3.685 7.81-4.949 11.938l-7.821 3.01c-3.089 1.187-5.127 4.155-5.127 7.464v18.947c0 3.31 2.038 6.277 5.126 7.466l7.819 3.01c1.265 4.13 2.92 8.123 4.95 11.94l-3.403 7.662c-1.344 3.024-.686 6.563 1.654 8.904l13.398 13.397c2.34 2.34 5.88 2.996 8.904 1.654l7.666-3.405c3.816 2.029 7.808 3.685 11.936 4.949l3.011 7.822c1.189 3.088 4.157 5.126 7.466 5.126h18.947c3.31 0 6.277-2.038 7.466-5.127l3.009-7.818c4.129-1.265 8.124-2.92 11.941-4.95l7.662 3.403c3.024 1.345 6.564.686 8.904-1.654l13.397-13.397c2.34-2.341 2.998-5.88 1.654-8.904l-3.405-7.666c2.03-3.817 3.685-7.81 4.949-11.936l7.822-3.011c3.089-1.188 5.126-4.156 5.126-7.466v-18.947c.001-3.308-2.036-6.276-5.125-7.464zm-10.874 20.919-6.474 2.492c-2.462.947-4.298 3.048-4.909 5.614-1.273 5.351-3.387 10.448-6.282 15.15-1.383 2.246-1.57 5.03-.499 7.441l2.819 6.348-5.629 5.629-6.344-2.817c-2.413-1.072-5.196-.885-7.442.5-4.7 2.894-9.799 5.008-15.155 6.281-2.566.611-4.667 2.447-5.615 4.91l-2.489 6.472h-7.961l-2.492-6.474c-.947-2.461-3.047-4.298-5.613-4.908-5.354-1.275-10.452-3.389-15.151-6.283-2.248-1.383-5.031-1.571-7.442-.499l-6.347 2.819-5.629-5.629 2.817-6.344c1.071-2.411.884-5.195-.499-7.441-2.894-4.7-5.008-9.8-6.283-15.156-.611-2.565-2.447-4.666-4.909-5.613l-6.472-2.492v-7.961l6.473-2.491c2.462-.947 4.298-3.048 4.909-5.614 1.273-5.353 3.387-10.45 6.282-15.152 1.383-2.246 1.57-5.03.499-7.441l-2.818-6.347 5.629-5.629 6.347 2.819c2.411 1.071 5.195.884 7.442-.499 4.699-2.895 9.797-5.008 15.151-6.283 2.566-.61 4.666-2.447 5.613-4.908l2.493-6.474h7.961l2.492 6.474c.947 2.461 3.047 4.298 5.613 4.908 5.354 1.275 10.452 3.389 15.151 6.283 2.247 1.383 5.031 1.57 7.442.499l6.347-2.819 5.629 5.629-2.817 6.344c-1.071 2.411-.884 5.195.499 7.441 2.895 4.701 5.009 9.801 6.283 15.155.61 2.566 2.447 4.667 4.909 5.614l6.471 2.492zm-62-47.911c-24.224 0-43.931 19.707-43.931 43.931s19.708 43.931 43.931 43.931 43.931-19.707 43.931-43.931-19.707-43.931-43.931-43.931zm0 71.862c-15.401 0-27.931-12.529-27.931-27.931s12.53-27.931 27.931-27.931 27.931 12.529 27.931 27.931-12.53 27.931-27.931 27.931zm87.519-367.931c0-4.418 3.582-8 8-8h116.956l-11.514-7.812c-3.656-2.481-4.609-7.456-2.128-11.112 2.482-3.656 7.457-4.608 11.112-2.128l33.062 22.433c2.194 1.489 3.508 3.968 3.508 6.62s-1.314 5.131-3.508 6.62l-33.062 22.433c-1.376.933-2.938 1.381-4.484 1.381-2.562 0-5.08-1.229-6.627-3.509-2.48-3.656-1.528-8.631 2.128-11.112l11.513-7.814h-116.956c-4.419 0-8-3.582-8-8zm158.994 340c0 4.418-3.582 8-8 8h-116.956l11.514 7.812c3.656 2.48 4.609 7.456 2.128 11.111-1.547 2.28-4.065 3.51-6.627 3.51-1.546 0-3.108-.447-4.484-1.381l-33.062-22.433c-2.194-1.489-3.508-3.969-3.508-6.62s1.314-5.131 3.508-6.62l33.062-22.433c3.657-2.48 8.631-1.529 11.112 2.129 2.48 3.655 1.528 8.631-2.128 11.111l-11.515 7.814h116.956c4.419 0 8 3.582 8 8zm101.487-241.498v116.957l7.813-11.515c2.481-3.656 7.456-4.608 11.112-2.129 3.656 2.48 4.609 7.456 2.128 11.111l-22.433 33.062c-1.489 2.194-3.968 3.509-6.62 3.509s-5.131-1.314-6.62-3.509l-22.433-33.062c-2.48-3.655-1.528-8.631 2.128-11.111 3.657-2.481 8.631-1.528 11.112 2.129l7.813 11.515v-116.957c0-4.418 3.582-8 8-8s8 3.582 8 8zm-356 142.995v-116.956l-7.813 11.515c-2.481 3.657-7.455 4.61-11.112 2.128-3.656-2.481-4.609-7.456-2.128-11.112l22.433-33.062c1.489-2.194 3.968-3.508 6.62-3.508s5.131 1.314 6.62 3.508l22.433 33.062c2.48 3.656 1.528 8.631-2.128 11.112-1.375.933-2.938 1.381-4.484 1.381-2.562 0-5.08-1.229-6.627-3.509l-7.814-11.515v116.956c0 4.418-3.582 8-8 8s-8-3.582-8-8zm146.128-156.219h-31.396c-4.418 0-8 3.582-8 8v31.396c0 4.418 3.582 8 8 8h31.396c4.418 0 8-3.582 8-8v-31.396c0-4.419-3.582-8-8-8zm-8 31.396h-15.396v-15.396h15.396zm8 29.628h-31.396c-4.418 0-8 3.582-8 8v31.396c0 4.418 3.582 8 8 8h31.396c4.418 0 8-3.582 8-8v-31.396c0-4.419-3.582-8-8-8zm-8 31.396h-15.396v-15.396h15.396zm8 29.628h-31.396c-4.418 0-8 3.582-8 8v31.396c0 4.418 3.582 8 8 8h31.396c4.418 0 8-3.582 8-8v-31.396c0-4.418-3.582-8-8-8zm-8 31.396h-15.396v-15.396h15.396zm112.35-114.049c0 4.418-3.582 8-8 8h-69.193c-4.418 0-8-3.582-8-8s3.582-8 8-8h69.193c4.418 0 8 3.581 8 8zm0 29.629c0 4.418-3.582 8-8 8h-69.193c-4.418 0-8-3.582-8-8s3.582-8 8-8h69.193c4.418 0 8 3.582 8 8zm0 31.395c0 4.418-3.582 8-8 8h-69.193c-4.418 0-8-3.582-8-8s3.582-8 8-8h69.193c4.418 0 8 3.582 8 8zm0 61.025c0 4.418-3.582 8-8 8h-69.193c-4.418 0-8-3.582-8-8s3.582-8 8-8h69.193c4.418 0 8 3.582 8 8zm0-31.395c0 4.418-3.582 8-8 8h-69.193c-4.418 0-8-3.582-8-8s3.582-8 8-8h69.193c4.418 0 8 3.582 8 8z" fill="#be1717ff" data-original-color="#000000ff"/></g></svg>