<svg height="300" viewBox="0 0 64 64" width="300" xmlns="http://www.w3.org/2000/svg" version="1.1" xmlns:xlink="http://www.w3.org/1999/xlink" xmlns:svgjs="http://svgjs.dev/svgjs"><g transform="matrix(1,0,0,1,0,0)"><g id="wallet-money-security-shield-protection"><path d="m50 19a2 2 0 0 1 -2-2h-2a4 4 0 0 0 3 3.858v1.142h2v-1.142a3.992 3.992 0 0 0 -1-7.858 2 2 0 1 1 2-2h2a4 4 0 0 0 -3-3.858v-1.142h-2v1.142a3.992 3.992 0 0 0 1 7.858 2 2 0 0 1 0 4z" fill="#be1717ff" data-original-color="#000000ff"/><path d="m12 16h3v-2h-4a1 1 0 0 0 -1 1v4h2z" fill="#be1717ff" data-original-color="#000000ff"/><path d="m26 19h2v-4a1 1 0 0 0 -1-1h-4v2h3z" fill="#be1717ff" data-original-color="#000000ff"/><path d="m34 30h2v2h-2z" fill="#be1717ff" data-original-color="#000000ff"/><path d="m30 30h2v2h-2z" fill="#be1717ff" data-original-color="#000000ff"/><path d="m26 30h2v2h-2z" fill="#be1717ff" data-original-color="#000000ff"/><path d="m22 30h2v2h-2z" fill="#be1717ff" data-original-color="#000000ff"/><path d="m18 30h2v2h-2z" fill="#be1717ff" data-original-color="#000000ff"/><path d="m14 30h2v2h-2z" fill="#be1717ff" data-original-color="#000000ff"/><path d="m61.34 36.06-4.34-1.58v-9.48a5.054 5.054 0 0 0 -.15-1.16 11.993 11.993 0 1 0 -16.85-16.46v-4.38a1 1 0 0 0 -1-1h-26a1 1 0 0 0 -1 1v3h-3a1 1 0 0 0 -1 1v3h-1a1 1 0 0 0 -1 1v9h-1a3.009 3.009 0 0 0 -3 3v38a1 1 0 0 0 1 1h47a1.008 1.008 0 0 0 .67-.26l7.08-6.43a13.032 13.032 0 0 0 4.25-9.62v-8.69a.992.992 0 0 0 -.66-.94zm-55.34 23.94h-2v-32h2zm0-34h-2v-3a1 1 0 0 1 1-1h1zm44-22a10 10 0 1 1 -10 10 10.016 10.016 0 0 1 10-10zm-10 16.62a11.95 11.95 0 0 0 14.99 4.28c0 .03.01.07.01.1v8.75l-4-1.45v-3.3a3.009 3.009 0 0 0 -3-3h-8zm-26-16.62h24v22h-2v-19a1 1 0 0 0 -1-1h-21zm-4 4h24v18h-2v-15a1 1 0 0 0 -1-1h-21zm-2 4h22v14h-22zm2 48h-2v-32h2zm2 0v-32h36a1 1 0 0 1 1 1v3.3l-10.34 3.76a.992.992 0 0 0 -.66.94v8.69a13.032 13.032 0 0 0 4.25 9.62l5.16 4.69zm48-14.31a11.02 11.02 0 0 1 -3.6 8.14l-6.4 5.82-6.4-5.82a11.02 11.02 0 0 1 -3.6-8.14v-7.99l10-3.64 10 3.64z" fill="#be1717ff" data-original-color="#000000ff"/><path d="m45.707 45.293-1.414 1.414 4 4a1 1 0 0 0 1.414 0l7-7-1.414-1.414-6.293 6.293z" fill="#be1717ff" data-original-color="#000000ff"/></g></g></svg>