<svg id="Layer_1" enable-background="new 0 0 100 100" viewBox="0 0 100 100" xmlns="http://www.w3.org/2000/svg" width="300" height="300" version="1.1" xmlns:xlink="http://www.w3.org/1999/xlink" xmlns:svgjs="http://svgjs.dev/svgjs"><g transform="matrix(1,0,0,1,0,0)"><g><path d="m91.7125473 64.5502853h-17.7490768c-.8032455 0-1.4540787-.65131-1.4540787-1.4540825 0-.8027763.6508331-1.4540825 1.4540787-1.4540825h17.7490768c1.1814423 0 2.1427841-.9608688 2.1427841-2.1423111v-5.5645103c0-8.0764961-6.5665665-14.646843-14.6378555-14.646843h-1.144043c-.5982971 0-1.1355286-.3668365-1.3537369-.9239502s-.0728912-1.1909065.3663635-1.5974998c1.9827957-1.8346443 3.1202164-4.4313507 3.1202164-7.1241493v-.2518139c0-.5703659.3336945-1.0881939.8534164-1.3239136 1.4190598-.644207 2.335907-2.068943 2.335907-3.6299973v-5.2828808c0-6.5641928-5.3401566-11.9043465-11.9043503-11.9043465h-1.9870529c-6.5641937 0-11.9043465 5.3401532-11.9043465 11.9043465v5.2828808c0 1.5615273.9196854 2.9857903 2.3434753 3.6285763.5211411.2352467.8557854.7535477.8557854 1.3253345v.2518139c0 2.6989517 1.1336365 5.2956581 3.1102791 7.1241493.4392509.4065933.584568 1.0403862.3663597 1.5974998s-.7554398.9239502-1.3537331.9239502h-1.1341095c-3.6181641 0-7.0905418 1.3338547-9.7771835 3.7554283-.5973473.5372353-1.5151443.4903755-2.0537949-.1064987-.5377083-.5964012-.4899025-1.5160904.1064987-2.0537949 2.7524376-2.4807434 6.192627-4.009613 9.8420296-4.4024811-1.1899605-1.8488388-1.8885994-3.9958839-1.9988861-6.2167645-1.9790115-1.2496014-3.2148857-3.4458714-3.2148857-5.8272133v-5.2828808c0-8.1678486 6.6446609-14.8125095 14.8125114-14.8125095h1.9870529c8.1678467 0 14.8125076 6.6446605 14.8125076 14.8125095v5.2828808c0 2.3785019-1.2320862 4.574297-3.2049408 5.8253193-.1102829 2.2189903-.8112946 4.3660316-2.005043 6.2177124 8.7959671.9395676 15.6697159 8.4092522 15.6697159 17.4551353v5.5645103c.0000002 2.7850994-2.2658461 5.0504764-5.0509413 5.0504764z" fill="#ffffffff" data-original-color="#000000ff"/></g><g><path d="m26.5699749 68.5442734h-17.9142675c-2.9881563 0-5.419199-2.4310455-5.419199-5.4187241v-6.1363029c0-9.9669914 7.6438684-18.1826439 17.3798733-19.0994949-1.3949146-2.0859795-2.2095222-4.5326424-2.321703-7.0621395-2.1721287-1.3475819-3.5320168-3.7417049-3.5320168-6.3322601v-5.8257942c-.0000009-8.9157163 7.2538405-16.1695577 16.1695567-16.1695577h2.190588c8.9157181 0 16.1695595 7.2538414 16.1695595 16.1695576v5.8257942c0 2.5905552-1.35989 4.9846783-3.5320168 6.3322601-.1121826 2.5290241-.9267883 4.975687-2.3217049 7.0616665 2.976326.2797432 5.8404694 1.2486572 8.3732758 2.844265 4.3726616 2.7377625 7.4999771 7.1923065 8.5768127 12.2191124.1680336.7857361-.332283 1.5582161-1.1170692 1.7267227-.7857361.1685066-1.5582161-.3322792-1.7267227-1.1170692-.9130592-4.2628441-3.5665703-8.0409927-7.2793999-10.3660088-2.580143-1.6254311-5.5635681-2.4831123-8.6312447-2.4831123h-1.2604866c-.5978203 0-1.1350555-.3663597-1.3537369-.9230003-.2182045-.5566406-.0738373-1.1899605.3644676-1.5970268 2.2445488-2.0826683 3.4808998-4.912735 3.4808998-7.9685764v-.2716942c0-.5694199.3327522-1.0867748.8510513-1.3229675 1.620697-.7388744 2.6677094-2.3619366 2.6677094-4.1345711v-5.8257942c0-7.3125343-5.9488602-13.2613945-13.2613945-13.2613945h-2.190588c-7.3125343 0-13.2613945 5.9488602-13.2613945 13.2613945v5.8257942c0 1.7726345 1.0470142 3.3956966 2.6677094 4.1345711.518301.2361927.8510551.7535477.8510551 1.3229675v.2716942c0 3.0558414 1.2363472 5.8859081 3.480896 7.9685764.4383087.4070663.582674 1.0403862.3644676 1.5970268-.2186794.5566406-.7559147.9230003-1.353735.9230003h-1.2505474c-8.9800901 0-16.2859993 7.301651-16.2859993 16.2760582v6.1363029c0 1.3840256 1.1265345 2.5105591 2.5110359 2.5105591h17.9142685c.8032475 0 1.4540806.6513062 1.4540806 1.4540863.0000001.8027725-.650833 1.4540787-1.4540805 1.4540787z" fill="#ffffffff" data-original-color="#000000ff"/></g><g><path d="m50 97.5c-.6674004 0-1.3206024-.1325302-1.94067-.392868-8.1323471-3.4051666-15.2186279-10.3858871-19.4398212-19.152977-3.7327099-7.7380676-4.9984055-16.2978363-3.5637302-24.0993233.1135998-.6304817.4941616-1.1909103 1.0422821-1.5345497.5504875-.3455315 1.2254601-.443985 1.8545208-.2669601 2.38797.6778145 5.1247883.9154282 7.9193478.6806564 5.357666-.4496689 10.1700516-2.588192 12.2593498-5.4476013.4321517-.5945092 1.1317405-.9518738 1.8687209-.9518738s1.4365692.3573647 1.8710899.9551888c2.0869293 2.8560944 6.8993149 4.9946175 12.2579231 5.4442863 2.7945633.2338257 5.5304337-.0018959 7.9127274-.6787643.633316-.1798668 1.3087692-.0804634 1.860199.2650681.5481186.3436394.9286804.904068 1.0432281 1.5392838 1.4337311 7.7967529.1680374 16.3565216-3.5651474 24.0955353-4.2211914 8.7661438-11.307476 15.747818-19.441246 19.152977-.6181717.2593916-1.2713737.3919218-1.9387741.3919218zm-22.1950989-42.4769821c-1.1407337 7.0299568.070528 14.6951218 3.4345112 21.6692276 3.9173107 8.1356583 10.457365 14.5985641 17.9445591 17.7329788.5272942.2215195 1.1066551.2205734 1.6301613.000946 7.48909-3.1353607 14.0291443-9.5982666 17.9459839-17.7329788 0-.000946.000473-.000946.000473-.000946 3.3644562-6.9750519 4.5757141-14.6421127 3.4349823-21.6682816-2.5526886.6390038-5.4125748.848217-8.3089027.6087074-5.8967934-.4960517-11.1242943-2.7803611-13.8866692-6.0241203-2.7652168 3.2447052-7.9917679 5.5280685-13.8857231 6.0241203-2.8982239.2395096-5.7538452.0293465-8.3093758-.6096534zm44.2794342-.6418381c0 .000946 0 .0018921.000473.0028381-.000473-.000946-.000473-.001892-.000473-.0028381zm-44.1677265-.004734c0 .000946-.000473.0028381-.000473.0037842 0-.0018921.000473-.0028382.000473-.0037842zm21.6043758-5.3737603c.000473.000473.0009499.0014191.0014229.0018921-.000473-.000473-.0009498-.001419-.0014229-.0018921zm.9603959-.0033149c-.000473.0009499-.000946.0014229-.0014191.0023689.000473-.000946.000946-.0018921.0014191-.0023689z" fill="#ffffffff" data-original-color="#000000ff"/></g><g><path d="m50 88.0124969c-.2385597 0-.4775925-.0586929-.6939087-.1760788-5.2786179-2.8665085-9.7748146-7.7475281-12.6602592-13.7446747-1.6855431-3.4960403-2.7316093-7.1236725-3.1083832-10.7815933-.0411797-.400444.0856743-.8008842.3512115-1.104763.2650681-.3038788.6446838-.4837456 1.0479622-.4970016.5571136-.0179863 1.1151772-.0511208 1.6703949-.0975075 4.5799789-.3834 9.0780716-1.733345 12.6654701-3.7989769.448719-.2593842 1.0020447-.2593842 1.4507675 0 3.5888176 2.064682 8.0854874 3.4136848 12.6612053 3.7980309.5590096.0463867 1.1213303.0795212 1.680809.0984535.4023361.0132561.7809982.1940689 1.0455933.4970016.2650681.3029327.391922.703373.3512192 1.1038132-.3715744 3.6475105-1.4162216 7.2741966-3.1055489 10.777813-2.8878098 5.9999771-7.3849525 10.8838425-12.6626244 13.7494049-.2163161.1173858-.4553489.1760787-.6939086.1760787zm-13.3712082-23.4858779c.447773 2.8097076 1.3319626 5.5957489 2.6369438 8.3032227 2.4949417 5.1848983 6.2868195 9.4373244 10.7342644 12.057701 4.4469719-2.6203766 8.2397957-6.8746948 10.7366333-12.062439 1.3073463-2.712204 2.1910629-5.4963531 2.6355209-8.2984848-.0766792-.0056839-.1528854-.0123062-.2290916-.0179901-4.7641068-.4004364-9.2887039-1.7011604-13.1449547-3.7724686-3.8548317 2.0722542-8.3813248 3.3729782-13.1487427 3.7734146-.073368.005684-.1467323.0113603-.2205734.0170442z" fill="#ffffffff" data-original-color="#000000ff"/></g></g></svg>