<svg height="300" viewBox="0 0 64 64" width="300" xmlns="http://www.w3.org/2000/svg" version="1.1" xmlns:xlink="http://www.w3.org/1999/xlink" xmlns:svgjs="http://svgjs.dev/svgjs"><g transform="matrix(1,0,0,1,0,0)"><g id="Layer_9" data-name="Layer 9"><path d="m47 35.572v1.184a2.993 2.993 0 0 0 1 5.816 1 1 0 1 1 -1 1h-2a3 3 0 0 0 2 2.815v1.185h2v-1.184a2.993 2.993 0 0 0 -1-5.816 1 1 0 1 1 1-1h2a3 3 0 0 0 -2-2.816v-1.184z" fill="#ffffffff" data-original-color="#000000ff"/><path d="m39 41.572a9 9 0 1 0 10-8.941v-3.354l2.816.7a1.045 1.045 0 0 0 .241.029 1 1 0 0 0 .971-.759l1.016-4.095a1 1 0 0 0 -.73-1.211l-18.314-4.547v-3.158l.408-.815a5.654 5.654 0 0 0 .592-2.51 5.577 5.577 0 0 0 -1.644-3.969l-1.649-1.649a1 1 0 0 0 -1.414 0l-1.649 1.649a5.577 5.577 0 0 0 -1.644 3.969 5.654 5.654 0 0 0 .592 2.51l.408.815v1.669l-15.743-3.905a1 1 0 0 0 -1.212.73l-1.016 4.094a1 1 0 0 0 .73 1.212l4.241 1.049v3.984a8 8 0 1 0 2 0v-3.487l11 2.73v28.688h-14a1 1 0 0 0 -1 1v3h-1a1 1 0 0 0 -1 1v4a1 1 0 0 0 1 1h38a1 1 0 0 0 1-1v-4a1 1 0 0 0 -1-1h-1v-3a1 1 0 0 0 -1-1h-14v-27.2l12 2.98v3.851a9.01 9.01 0 0 0 -8 8.941zm-16-8.572a6 6 0 1 1 -6-6 6.006 6.006 0 0 1 6 6zm8.058-22.644.942-.942.942.942a3.592 3.592 0 0 1 1.058 2.555 3.642 3.642 0 0 1 -.381 1.616l-.237.473h-2.764l-.237-.473a3.642 3.642 0 0 1 -.381-1.616 3.592 3.592 0 0 1 1.058-2.555zm-17.847 7.977.535-2.154 15.254 3.787v2.285zm36.789 42.667h-36v-2h36zm-2-4h-32v-2h32zm-17-4v-36h2v36zm4-31.545 16.862 4.185-.534 2.153-16.328-4.052zm20 20.117a7 7 0 1 1 -7-7 7.008 7.008 0 0 1 7 7z" fill="#ffffffff" data-original-color="#000000ff"/><path d="m12.528 32h8.944v2h-8.944z" transform="matrix(.447 -.894 .894 .447 -20.119 33.447)" fill="#ffffffff" data-original-color="#000000ff"/><path d="m13 30h2v2h-2z" fill="#ffffffff" data-original-color="#000000ff"/><path d="m19 34h2v2h-2z" fill="#ffffffff" data-original-color="#000000ff"/><path d="m14 7h1v5a1 1 0 0 0 1 1h4a1 1 0 0 0 1-1v-5h1a1 1 0 0 0 .707-1.707l-4-4a1 1 0 0 0 -1.414 0l-4 4a1 1 0 0 0 .707 1.707zm4-3.586 1.649 1.649a1 1 0 0 0 -.649.937v5h-2v-5a1 1 0 0 0 -.649-.937z" fill="#ffffffff" data-original-color="#000000ff"/><path d="m45.293 19.707a1 1 0 0 0 1.414 0l4-4a1 1 0 0 0 -.707-1.707h-1v-5a1 1 0 0 0 -1-1h-4a1 1 0 0 0 -1 1v5h-1a1 1 0 0 0 -.707 1.707zm-.293-4.707v-5h2v5a1 1 0 0 0 .649.937l-1.649 1.649-1.649-1.649a1 1 0 0 0 .649-.937z" fill="#ffffffff" data-original-color="#000000ff"/><path d="m43 4h6v2h-6z" fill="#ffffffff" data-original-color="#000000ff"/></g></g></svg>