<svg xmlns="http://www.w3.org/2000/svg" data-name="Layer 1" id="Layer_1" viewBox="0 0 64 64" width="300" height="300" version="1.1" xmlns:xlink="http://www.w3.org/1999/xlink" xmlns:svgjs="http://svgjs.dev/svgjs"><g transform="matrix(1,0,0,1,0,0)"><title/><path d="M23.924,29.383a1,1,0,0,0-.217-1.09l-4-4A1,1,0,0,0,19,24H15a1,1,0,0,0-.707.293l-4,4A1,1,0,0,0,11,30H23A1,1,0,0,0,23.924,29.383ZM13.414,28l2-2h3.172l2,2Z" fill="#be1717ff" data-original-color="#000000ff" stroke="none"/><path d="M29.293,24.293l-4,4A1,1,0,0,0,26,30H38a1,1,0,0,0,.707-1.707l-4-4A1,1,0,0,0,34,24H30A1,1,0,0,0,29.293,24.293ZM33.586,26l2,2H28.414l2-2Z" fill="#be1717ff" data-original-color="#000000ff" stroke="none"/><path d="M18,23H30a1,1,0,0,0,.707-1.707l-4-4A1,1,0,0,0,26,17H22a1,1,0,0,0-.707.293l-4,4A1,1,0,0,0,18,23Zm4.414-4h3.172l2,2H20.414Z" fill="#be1717ff" data-original-color="#000000ff" stroke="none"/><path d="M58.329,51.548,54.62,50.94A2.789,2.789,0,0,1,52.25,48.2v-.926a5.429,5.429,0,0,0,1.569-3.09A3.451,3.451,0,0,0,55.5,41a3.636,3.636,0,0,0-1.317-2.963l1.243-3.061A1,1,0,0,0,54.5,33.6H50.736l-2.187-1.436a1,1,0,0,0-1.1,0L45.264,33.6H44V14h1a1,1,0,0,0,.43-1.9l-21-10a1,1,0,0,0-.86,0l-21,10A1,1,0,0,0,3,14H4V39a1,1,0,0,0,1,1h5a1,1,0,0,0,1-1V34h5v5a1,1,0,0,0,1,1H40.619a4.425,4.425,0,0,0-.119,1,3.451,3.451,0,0,0,1.681,3.182,5.435,5.435,0,0,0,1.569,3.091V48.2a2.787,2.787,0,0,1-2.369,2.741l-3.711.61A4.337,4.337,0,0,0,34,55.827V61a1,1,0,0,0,1,1H61a1,1,0,0,0,1-1V55.827A4.339,4.339,0,0,0,58.329,51.548ZM48.61,60H47.39L48,56.109ZM48,52.8c-1.569,0-2.892-.9-3.035-2.008a4.709,4.709,0,0,0,.741-2.1l1.745,1.146a1,1,0,0,0,1.1,0l1.745-1.146a4.7,4.7,0,0,0,.741,2.1C50.892,51.9,49.569,52.8,48,52.8ZM24,4.107,40.574,12H7.426ZM17,32H10a1,1,0,0,0-1,1v5H6V14H42V33.6h-.5a1,1,0,0,0-.926,1.376L41.8,38H18V33A1,1,0,0,0,17,32ZM43.125,42.4c-.181,0-.625-.491-.625-1.4s.444-1.4.625-1.4a1,1,0,0,0,.926-1.376L42.986,35.6h2.577a1,1,0,0,0,.548-.164L48,34.2l1.889,1.24a1,1,0,0,0,.549.164h2.576l-1.065,2.624a1,1,0,0,0,.926,1.376c.181,0,.625.491.625,1.4s-.444,1.4-.625,1.4a1,1,0,0,0-1,1A3.458,3.458,0,0,1,50.3,46.3L48,47.8,45.7,46.3a3.458,3.458,0,0,1-1.577-2.9A1,1,0,0,0,43.125,42.4ZM36,55.827a2.347,2.347,0,0,1,1.994-2.3l3.711-.609a4.886,4.886,0,0,0,1.678-.608,4.806,4.806,0,0,0,2.842,2.214L45.365,60H36ZM60,60H50.635l-.86-5.481a4.806,4.806,0,0,0,2.842-2.214,4.865,4.865,0,0,0,1.679.609l3.709.607A2.349,2.349,0,0,1,60,55.827Z" fill="#be1717ff" data-original-color="#000000ff" stroke="none"/><path d="M11,50a1,1,0,0,1,1,1h2a3,3,0,0,0-2-2.816V47H10v1.184A2.993,2.993,0,0,0,11,54a1,1,0,1,1-1,1H8a3,3,0,0,0,2,2.816V59h2V57.816A2.993,2.993,0,0,0,11,52a1,1,0,0,1,0-2Z" fill="#be1717ff" data-original-color="#000000ff" stroke="none"/><path d="M25,59V57.816A2.993,2.993,0,0,0,24,52a1,1,0,1,1,1-1h2a3,3,0,0,0-2-2.816V47H23v1.184A2.993,2.993,0,0,0,24,54a1,1,0,1,1-1,1H21a3,3,0,0,0,2,2.816V59Z" fill="#be1717ff" data-original-color="#000000ff" stroke="none"/><path d="M33,53a8.989,8.989,0,0,0-15.5-6.208,9,9,0,1,0,0,12.416A8.989,8.989,0,0,0,33,53ZM11,60a7,7,0,1,1,7-7A7.008,7.008,0,0,1,11,60Zm7.728-2.411a8.914,8.914,0,0,0,0-9.178,7,7,0,1,1,0,9.178Z" fill="#be1717ff" data-original-color="#000000ff" stroke="none"/></g></svg>