<svg id="Layer_1" enable-background="new 0 0 66 66" height="300" viewBox="0 0 66 66" width="300" xmlns="http://www.w3.org/2000/svg" version="1.1" xmlns:xlink="http://www.w3.org/1999/xlink" xmlns:svgjs="http://svgjs.dev/svgjs"><g transform="matrix(1,0,0,1,0,0)"><g id="icons"><g><g><path d="m5.5 15c-.6 0-1-.4-1-1v-9c0-2.2 1.9-4 4.1-4h15.9c.3 0 .6.2.8.4l4.7 6.4h10.4c.6 0 1 .4 1 1s-.4 1-1 1h-10.9c-.3 0-.6-.2-.8-.4l-4.7-6.4h-15.4c-1.1 0-2.1.9-2.1 2v9c0 .6-.4 1-1 1z" fill="#ffffffff" data-original-color="#000000ff"/></g><g><path d="m57.2 53.9h-8.3c-.6 0-1-.4-1-1s.4-1 1-1h8.3c1.1 0 2-.8 2.1-1.9l3.7-41.6c.1-.6-.1-1.1-.5-1.5-.4-.5-1-.7-1.6-.7h-17.3l-5.6 8.4c-.2.3-.5.4-.8.4h-32c-.6 0-1.1.2-1.5.7-.4.4-.6 1-.6 1.6l2.9 32.7c.1 1.1 1 1.9 2.1 1.9h9.1c.6 0 1 .4 1 1s-.4 1-1 1h-9.1c-2.2 0-4-1.6-4.1-3.7l-2.9-32.8c-.1-1.2.3-2.3 1.1-3.1s1.9-1.3 3-1.3h31.5l5.6-8.4c.2-.3.5-.4.8-.4h17.8c1.2 0 2.3.5 3.1 1.4.8.8 1.1 1.9 1 3l-.7 8-3 33.6c-.3 2.2-2 3.7-4.1 3.7z" fill="#ffffffff" data-original-color="#000000ff"/></g><g><path d="m58.5 18h-.1c-.5-.1-.9-.6-.9-1.1l.7-6.3h-10.4c-.6 0-1-.4-1-1s.4-1 1-1h11.5c.3 0 .6.1.7.3s.3.5.2.8l-.8 7.4c0 .5-.4.9-.9.9z" fill="#ffffffff" data-original-color="#000000ff"/></g><g><g><path d="m24.6 46.8c-.6 0-1-.4-1-1s.4-1 1-1c.6 0 1 .4 1 1s-.4 1-1 1z" fill="#ffffffff" data-original-color="#000000ff"/></g><g><path d="m32.8 59.6c-.3 0-.5-.1-.7-.3l-2.7-2.8c-.2-.2-.3-.6-.3-.9l1.6-6.8c.1-.5.7-.9 1.2-.7.5.1.9.7.7 1.2l-1.5 6.3 1.7 1.8 2.1-1.7-1.9-6.4c-.2-.5.1-1.1.6-1.3s1.1.1 1.3.6l2.3 6.9c.1.4 0 .8-.3 1.1l-3.4 2.7c-.3.2-.5.3-.7.3z" fill="#ffffffff" data-original-color="#000000ff"/></g><g><path d="m33.1 40.2c-5.4 0-9.5-6.2-9.5-11.6 0-5.3 4.2-9.5 9.5-9.5 5.2 0 9.5 4.3 9.5 9.5 0 5.3-4.2 11.6-9.5 11.6zm0-19.1c-4.2 0-7.5 3.3-7.5 7.5 0 4.3 3.5 9.6 7.5 9.6s7.5-5.3 7.5-9.6c0-4.1-3.4-7.5-7.5-7.5z" fill="#ffffffff" data-original-color="#000000ff"/></g><g><path d="m28.1 44.3c-.2 0-.4-.1-.6-.2-.4-.3-.6-.9-.2-1.4s.6-1.2.6-1.9v-3.2c0-.6.4-1 1-1s1 .4 1 1v3.2c0 1.1-.4 2.2-1 3.1-.2.3-.5.4-.8.4z" fill="#ffffffff" data-original-color="#000000ff"/></g><g><path d="m37.3 52.2c-.2 0-.4-.1-.6-.2l-4.3-3c-.2-.2-.4-.4-.4-.7s.1-.6.3-.8l4.8-4.8c.2-.2.5-.3.8-.3s.6.2.7.5c.3.5.7.9 1.3 1.2l1.7.9c.3.1.4.4.5.7s0 .6-.2.8l-3.9 5.3c-.1.3-.4.4-.7.4zm-2.7-4.1 2.5 1.8 2.6-3.6-.7-.4c-.5-.3-1-.6-1.3-1z" fill="#ffffffff" data-original-color="#000000ff"/></g><g><path d="m37.9 44.4c-.3 0-.7-.2-.8-.5-.6-.9-.9-1.9-.9-2.9v-3.2c0-.6.4-1 1-1s1 .4 1 1v3.2c0 .7.2 1.3.5 1.9.3.5.1 1.1-.3 1.4-.1.1-.3.1-.5.1z" fill="#ffffffff" data-original-color="#000000ff"/></g><g><path d="m28.5 52.1c-.3 0-.6-.1-.8-.4l-3.9-5.3c-.2-.2-.2-.5-.2-.8.1-.3.3-.5.5-.7l1.9-1c.5-.3.9-.7 1.2-1.2.2-.2.4-.4.7-.4s.6.1.8.3l4.9 4.9c.2.2.3.5.3.8s-.2.6-.5.7l-1.3.8-3.1 2.1c-.1.1-.3.2-.5.2zm-2.4-6 2.6 3.6 2.7-1.7-3.2-3.2c-.3.3-.7.6-1.2.9z" fill="#ffffffff" data-original-color="#000000ff"/></g><g><path d="m28.1 44.3c-.3 0-.5-.1-.7-.3s-.3-.4-.3-.7.1-.5.3-.7c.3-.3.7-.4 1.1-.2.1 0 .2.1.3.2.2.2.3.5.3.7 0 .3-.1.5-.3.7s-.4.3-.7.3z" fill="#ffffffff" data-original-color="#000000ff"/></g><g><path d="m37.8 44.4c-.3 0-.5-.1-.7-.3s-.3-.4-.3-.7.1-.5.3-.7c.3-.3.7-.4 1.1-.2.1.1.2.1.3.2.2.2.3.5.3.7 0 .3-.1.5-.3.7s-.4.3-.7.3z" fill="#ffffffff" data-original-color="#000000ff"/></g><g><path d="m33 65c-4.7 0-9.3-1.3-13.1-3.8-2.4-1.4-3.9-4.1-3.9-7v-.2c0-2.9 1.7-5.6 4.2-7l3.9-2.1c.5-.3 1.1-.1 1.4.4s.1 1.1-.4 1.4l-3.9 2.1c-1.9 1-3.2 3.1-3.2 5.2v.2c0 2.3 1.1 4.3 2.9 5.3 3.6 2.3 7.7 3.5 12.1 3.5 4.3 0 8.5-1.2 12.2-3.4 1.8-1.1 2.9-3.2 2.9-5.4s-1.2-4.2-3.2-5.2l-4.1-2.2c-.5-.3-.7-.9-.4-1.4s.9-.7 1.4-.4l4.1 2.2c2.6 1.3 4.2 4.1 4.2 7s-1.5 5.6-3.9 7c-3.9 2.5-8.5 3.8-13.2 3.8z" fill="#ffffffff" data-original-color="#000000ff"/></g></g><g><path d="m41.7 28.9c-.1 0-.3 0-.4-.1-10.5-4.3-15.9-.3-16.1-.1-.4.3-1.1.3-1.4-.2-.3-.4-.3-1.1.2-1.4.3-.2 6.4-4.9 18.1-.1.5.2.8.8.5 1.3-.1.4-.5.6-.9.6z" fill="#ffffffff" data-original-color="#000000ff"/></g><g><g><path d="m56.4 23.1h-9.3c-.6 0-1-.4-1-1s.4-1 1-1h9.3c.6 0 1 .4 1 1s-.4 1-1 1z" fill="#ffffffff" data-original-color="#000000ff"/></g><g><path d="m55.4 28.9h-7.3c-.6 0-1-.4-1-1s.4-1 1-1h7.3c.6 0 1 .4 1 1s-.4 1-1 1z" fill="#ffffffff" data-original-color="#000000ff"/></g><g><path d="m18.9 23.1h-9.3c-.6 0-1-.4-1-1s.4-1 1-1h9.3c.6 0 1 .4 1 1s-.4 1-1 1z" fill="#ffffffff" data-original-color="#000000ff"/></g><g><path d="m17.9 28.9h-7.3c-.6 0-1-.4-1-1s.4-1 1-1h7.3c.6 0 1 .4 1 1s-.4 1-1 1z" fill="#ffffffff" data-original-color="#000000ff"/></g></g></g></g></g></svg>