<svg height="300" viewBox="-48 0 496 496" width="300" xmlns="http://www.w3.org/2000/svg" version="1.1" xmlns:xlink="http://www.w3.org/1999/xlink" xmlns:svgjs="http://svgjs.dev/svgjs"><g transform="matrix(1,0,0,1,0,0)"><path d="m144 152h16v56h-16zm0 0" fill="#3e6f7cff" data-original-color="#000000ff"/><path d="m144 120h16v16h-16zm0 0" fill="#3e6f7cff" data-original-color="#000000ff"/><path d="m176 168h16v40h-16zm0 0" fill="#3e6f7cff" data-original-color="#000000ff"/><path d="m176 136h16v16h-16zm0 0" fill="#3e6f7cff" data-original-color="#000000ff"/><path d="m208 152h16v56h-16zm0 0" fill="#3e6f7cff" data-original-color="#000000ff"/><path d="m208 120h16v16h-16zm0 0" fill="#3e6f7cff" data-original-color="#000000ff"/><path d="m240 136h16v72h-16zm0 0" fill="#3e6f7cff" data-original-color="#000000ff"/><path d="m240 104h16v16h-16zm0 0" fill="#3e6f7cff" data-original-color="#000000ff"/><path d="m179.878906 118.855469c2.832032 1.703125 6.425782 1.496093 9.03125-.542969l72-56-9.820312-12.632812-67.675782 52.640624-35.292968-21.175781c-3.152344-1.878906-7.175782-1.402343-9.777344 1.199219l-32 32 11.3125 11.3125 27.582031-27.585938zm0 0" fill="#3e6f7cff" data-original-color="#000000ff"/><path d="m398.359375 379.375.113281-.078125-54.769531-75.296875h48.296875v-16h-152v-8c0-4.425781-3.574219-8-8-8h-8v-18.335938c59.136719-11.273437 104-63.296874 104-125.664062 0-70.574219-57.425781-128-128-128s-128 57.425781-128 128c0 62.367188 44.863281 114.390625 104 125.664062v18.335938h-8c-4.425781 0-8 3.574219-8 8v8h-152v16h48.296875l-54.761719 75.296875.113282.078125c-.96875 1.320312-1.648438 2.863281-1.648438 4.625 0 39.703125 32.296875 72 72 72s72-32.296875 72-72c0-1.761719-.679688-3.304688-1.640625-4.625l.113281-.078125-54.769531-75.296875h72.296875v184c0 4.425781 3.574219 8 8 8h64c4.425781 0 8-3.574219 8-8v-184h72.296875l-54.761719 75.296875.113282.078125c-.96875 1.320312-1.648438 2.863281-1.648438 4.625 0 39.703125 32.296875 72 72 72s72-32.296875 72-72c0-1.761719-.679688-3.304688-1.640625-4.625zm-326.359375-69.773438 48.289062 66.398438h-96.578124zm0 130.398438c-28.167969 0-51.535156-20.894531-55.433594-48h110.859375c-3.890625 27.105469-27.257812 48-55.425781 48zm16-312c0-61.761719 50.238281-112 112-112s112 50.238281 112 112-50.238281 112-112 112-112-50.238281-112-112zm104 127.59375c2.65625.167969 5.296875.40625 8 .40625s5.34375-.238281 8-.40625v16.40625h-16zm-8 32.40625h40v16h-48v-16zm-8 192v-160h48v160zm200.289062-104h-96.578124l48.289062-66.398438zm-48.289062 64c-28.167969 0-51.535156-20.894531-55.433594-48h110.859375c-3.890625 27.105469-27.257812 48-55.425781 48zm0 0" fill="#3e6f7cff" data-original-color="#000000ff"/></g></svg>