<svg id="_x33_0" enable-background="new 0 0 64 64" height="300" viewBox="0 0 64 64" width="300" xmlns="http://www.w3.org/2000/svg" version="1.1" xmlns:xlink="http://www.w3.org/1999/xlink" xmlns:svgjs="http://svgjs.dev/svgjs"><g transform="matrix(1,0,0,1,0,0)"><g><path d="m33 17.184v-2.184h-2v2h-2v3c0 1.654 1.346 3 3 3 .552 0 1 .449 1 1v1h-1c-.552 0-1-.449-1-1v-1h-2v1c0 1.302.839 2.402 2 2.816v2.184h2v-2h2v-3c0-1.654-1.346-3-3-3-.552 0-1-.449-1-1v-1h1c.552 0 1 .449 1 1v1h2v-1c0-1.302-.839-2.402-2-2.816z" fill="#ffffffff" data-original-color="#000000ff"/><path d="m61 35c1.103 0 2-.897 2-2v-2c0-1.103-.897-2-2-2h-11.314c.44-.886 1.162-1.562 2.042-1.855l1.272-.424v-9.441l-1.272-.424c-.965-.322-1.758-1.089-2.192-2.148-.419-1.013-.399-2.113.053-3.019l.6-1.199-6.677-6.676-1.199.6c-.903.453-2.005.472-3.06.035-1.018-.417-1.785-1.21-2.106-2.174l-.426-1.275h-9.441l-.424 1.273c-.322.965-1.09 1.757-2.147 2.192-1.014.419-2.115.4-3.02-.053l-1.199-.6-6.677 6.676.6 1.199c.452.906.472 2.007.036 3.061-.418 1.017-1.211 1.785-2.176 2.106l-1.273.425v9.441l1.272.424c.869.29 1.583.955 2.037 1.855h-11.309c-1.103 0-2 .897-2 2v2c0 1.103.897 2 2 2h6v2.649l-8 10v.352c0 4.962 4.037 9 9 9s9-4.038 9-9v-.351l-8-10v-2.649h6.302c1.056 5.182 4.798 9.385 9.698 11.125v13.875c0 1.654 1.346 3 3 3h4c1.654 0 3-1.346 3-3v-13.875c4.9-1.74 8.642-5.943 9.698-11.125h6.302v2.649l-8 10v.351c0 4.962 4.037 9 9 9s9-4.038 9-9v-.351l-8-10v-2.649zm-51 4.601 5.92 7.399h-11.84zm0 15.399c-3.52 0-6.44-2.612-6.928-6h13.856c-.488 3.388-3.408 6-6.928 6zm44-15.399 5.92 7.399h-11.84zm0 15.399c-3.52 0-6.44-2.612-6.928-6h13.856c-.488 3.388-3.408 6-6.928 6zm-37.702-26.508c-.625-1.523-1.824-2.688-3.298-3.211v-6.561c1.474-.523 2.673-1.689 3.313-3.248.628-1.516.602-3.181-.067-4.587l4.64-4.639c1.403.669 3.071.694 4.623.053 1.522-.626 2.688-1.824 3.211-3.299h6.561c.522 1.474 1.689 2.673 3.248 3.313 1.517.625 3.182.6 4.587-.068l4.64 4.639c-.669 1.406-.694 3.073-.053 4.624.625 1.523 1.824 2.688 3.298 3.211v6.561c-1.474.523-2.673 1.689-3.313 3.248-.064.155-.114.314-.165.472h-.825c-.138-.681-.335-1.345-.565-1.996.567-1.605.867-3.284.867-5.004 0-8.271-6.729-15-15-15s-15 6.729-15 15c0 1.72.3 3.399.868 5.004-.23.652-.427 1.315-.565 1.996h-.826c-.054-.168-.108-.336-.179-.508zm24.702 3.508c0 4.962-4.037 9-9 9s-9-4.038-9-9c0-1.025.192-2.034.529-2.991 2.02 2.436 5.067 3.991 8.471 3.991s6.451-1.555 8.471-3.991c.337.957.529 1.966.529 2.991zm-9-1c-4.963 0-9-4.038-9-9s4.037-9 9-9 9 4.038 9 9-4.037 9-9 9zm10.991-9.187c-.102-5.979-4.989-10.813-10.991-10.813s-10.889 4.834-10.991 10.813c-.691.745-1.297 1.548-1.816 2.4-.124-.727-.193-1.465-.193-2.213 0-7.168 5.832-13 13-13s13 5.832 13 13c0 .748-.069 1.486-.193 2.213-.52-.852-1.125-1.655-1.816-2.4zm-39.991 11.187v-2h14.048c-.022.332-.048.664-.048 1 0 .338.029.668.051 1zm32 27c0 .551-.448 1-1 1h-4c-.552 0-1-.449-1-1v-13.302c.97.197 1.973.302 3 .302s2.03-.105 3-.302zm-3-15c-7.168 0-13-5.832-13-13 0-2.682.82-5.241 2.323-7.401.206.846.507 1.655.897 2.412-.786 1.541-1.22 3.248-1.22 4.989 0 6.065 4.935 11 11 11s11-4.935 11-11c0-1.741-.433-3.448-1.22-4.989.39-.757.69-1.566.897-2.412 1.503 2.16 2.323 4.719 2.323 7.401 0 7.168-5.832 13-13 13zm14.952-14h14.048v2h-14.051c.022-.332.051-.662.051-1 0-.336-.026-.668-.048-1z" fill="#ffffffff" data-original-color="#000000ff"/></g></g></svg>