<svg id="Layer_1" enable-background="new 0 0 512 512" viewBox="0 0 512 512" xmlns="http://www.w3.org/2000/svg" width="300" height="300" version="1.1" xmlns:xlink="http://www.w3.org/1999/xlink" xmlns:svgjs="http://svgjs.dev/svgjs"><g transform="matrix(1,0,0,1,0,0)"><path clip-rule="evenodd" d="m111.673 190.373 20.501 7.891c2.976 10.946 7.327 21.442 12.975 31.298l-8.923 20.087c-1.343 3.025-.686 6.564 1.655 8.904l28.139 28.137c2.34 2.34 5.879 2.999 8.903 1.654l20.096-8.925c9.857 5.647 20.349 9.997 31.288 12.972l7.893 20.506c1.188 3.089 4.156 5.126 7.466 5.126h39.792c3.31 0 6.277-2.038 7.466-5.126l7.891-20.5c10.945-2.976 21.439-7.327 31.298-12.975l20.088 8.922c3.024 1.343 6.562.686 8.904-1.654l28.138-28.138c2.34-2.34 2.997-5.879 1.654-8.904l-8.926-20.096c5.647-9.857 9.997-20.348 12.972-31.288l20.506-7.893c3.088-1.188 5.126-4.156 5.126-7.466v-39.792c0-3.31-2.038-6.277-5.126-7.466l-20.5-7.891c-2.976-10.945-7.325-21.439-12.975-31.298l8.923-20.087c1.343-3.025.686-6.564-1.654-8.904l-28.138-28.138c-2.342-2.34-5.878-2.999-8.904-1.654l-20.097 8.925c-9.857-5.647-20.349-9.997-31.288-12.972l-7.893-20.506c-1.188-3.089-4.156-5.126-7.466-5.126h-39.791c-3.31 0-6.277 2.038-7.466 5.126l-7.894 20.507c-10.939 2.975-21.431 7.324-31.288 12.972l-20.096-8.925c-3.022-1.343-6.564-.686-8.904 1.654l-28.138 28.139c-2.34 2.34-2.997 5.879-1.654 8.904l8.925 20.092c-5.648 9.858-9.998 20.351-12.974 31.292l-20.504 7.893c-3.088 1.188-5.126 4.156-5.126 7.466v39.792c0 3.309 2.038 6.277 5.126 7.465zm10.874-41.764 19.234-7.404c2.462-.947 4.298-3.048 4.908-5.614 2.893-12.156 7.691-23.729 14.262-34.399 1.384-2.247 1.57-5.031.5-7.442l-8.373-18.851 20.369-20.37 18.854 8.374c2.409 1.071 5.195.885 7.441-.499 10.67-6.57 22.243-11.368 34.396-14.26 2.566-.611 4.667-2.447 5.614-4.909l7.405-19.237h28.805l7.404 19.236c.947 2.462 3.048 4.298 5.614 4.909 12.153 2.892 23.727 7.69 34.396 14.26 2.246 1.384 5.032 1.57 7.441.499l18.854-8.374 20.369 20.369-8.371 18.846c-1.07 2.412-.884 5.196.5 7.442 6.57 10.67 11.369 22.246 14.262 34.406.611 2.566 2.447 4.667 4.909 5.614l19.23 7.402v28.806l-19.236 7.404c-2.462.947-4.298 3.048-4.908 5.614-2.893 12.155-7.69 23.728-14.26 34.396-1.384 2.247-1.57 5.031-.5 7.442l8.374 18.854-20.369 20.37-18.847-8.37c-2.409-1.071-5.194-.885-7.442.5-10.668 6.57-22.244 11.369-34.404 14.263-2.566.611-4.667 2.447-5.614 4.909l-7.402 19.23h-28.806l-7.404-19.236c-.947-2.462-3.048-4.298-5.613-4.909-12.154-2.892-23.727-7.69-34.397-14.26-2.248-1.384-5.032-1.57-7.441-.5l-18.854 8.374-20.37-20.369 8.371-18.845c1.07-2.412.884-5.196-.5-7.443-6.57-10.667-11.368-22.242-14.263-34.405-.61-2.566-2.446-4.667-4.908-5.614l-19.231-7.402v-28.807zm139.013 104.099c10.518 0 20.771-1.801 30.542-5.344l21.433 12.375c1.237.714 2.619 1.072 4 1.072s2.763-.357 4-1.072c2.476-1.429 4-4.07 4-6.928v-26.938c16.385-16.697 25.723-39.404 25.723-62.861 0-49.459-40.238-89.698-89.698-89.698-5.526 0-11.027.51-16.425 1.508-6.927-9.541-20.124-12.514-30.562-6.489l-5.318 3.071c-5.393 3.113-9.252 8.15-10.869 14.183-1.199 4.477-1.052 9.097.376 13.386-17.162 16.829-26.898 39.832-26.898 64.039-.001 49.458 40.237 89.696 89.696 89.696zm45.047-39.671-18.053 10.423-61.029-105.706 18.053-10.423zm-4.981 21.351 7.909-4.566v9.133zm33.632-71.376c0 15.856-4.93 30.822-14.055 43.306l-67.319-116.601c2.544-.263 5.105-.403 7.676-.403 40.637 0 73.698 33.061 73.698 73.698zm-121.417-73.284c.511-1.904 1.723-3.491 3.414-4.467l5.318-3.071c3.512-2.026 8.017-.82 10.044 2.691l4.961 8.593-18.053 10.423-4.961-8.593c-.977-1.691-1.234-3.671-.723-5.576zm-7.087 24.048 70.056 121.342c-4.979 1.047-10.073 1.591-15.251 1.591-40.637 0-73.696-33.06-73.696-73.696 0-18.318 6.803-35.785 18.891-49.237zm247.653 230.078c-4.007-6.693-20.401-26.597-63.085-1.741l-73.15 42.606c-2.463 1.435-4.957 2.576-7.515 3.428.716-1.569 1.316-3.243 1.791-5.016 3.947-14.732-4.784-30.105-19.878-34.999-.343-.111-.692-.199-1.047-.263-20.898-3.769-41.582-11.247-58.201-17.255-5.805-2.098-11.286-4.08-15.962-5.596-19.293-6.259-36.592 1.409-50.971 9.733l-53.103 30.745-4.38-7.739c-5.097-9.006-16.573-12.188-25.581-7.091l-20.522 11.615c-4.354 2.463-7.49 6.486-8.832 11.326-1.342 4.839-.724 9.901 1.74 14.255l60.341 106.617c3.449 6.095 9.818 9.522 16.367 9.521 3.129 0 6.301-.783 9.213-2.431l20.524-11.616c9.006-5.098 12.187-16.572 7.09-25.58l-5.484-9.691 10.568-6.102 93.086 24.942c5.303 1.421 10.578 2.127 15.768 2.127 10.499 0 20.644-2.892 29.917-8.601l132.75-81.741c12.765-7.857 16.843-27.616 8.556-41.453zm-300.132 132.177-20.524 11.616c-1.308.739-3.037.259-3.775-1.047l-60.34-106.616c-.484-.855-.362-1.684-.246-2.102.115-.417.438-1.19 1.293-1.674l20.522-11.616c.418-.236.88-.348 1.338-.348.975 0 1.936.505 2.438 1.394h.001l60.34 106.616c.74 1.308.26 3.037-1.047 3.777zm283.187-104.345-132.75 81.741c-10.159 6.254-21.312 7.817-33.154 4.643l-96.287-25.8c-2.047-.547-4.232-.261-6.07.799l-13.319 7.69-34.713-61.336 53.24-30.824c11.896-6.888 24.735-12.67 38.017-8.361 4.423 1.434 9.537 3.283 15.458 5.424 17.034 6.158 38.194 13.809 60.21 17.847 6.821 2.439 10.635 9.015 8.901 15.483-1.842 6.874-6.975 9.873-15.238 8.931-10.68-2.201-20.86-5.105-31.628-8.181-5.146-1.47-10.466-2.989-15.94-4.456-4.266-1.141-8.654 1.39-9.798 5.657s1.39 8.654 5.657 9.798c5.348 1.433 10.604 2.934 15.687 4.386 11.192 3.196 21.764 6.215 33.174 8.548.054.011.108.015.163.025.053.01.103.025.156.033l9.101 1.48c13.967 2.235 26.361.053 37.899-6.667l73.15-42.606c20.252-11.794 35.692-13.237 41.307-3.864 3.745 6.258 2.09 16.338-3.223 19.61zm-341.044 12.184c.585 4.005-2.186 7.725-6.191 8.311-4.004.586-7.725-2.186-8.311-6.191s2.186-7.725 6.19-8.311c4.006-.585 7.727 2.187 8.312 6.191z" fill-rule="evenodd" fill="#ffffffff" data-original-color="#000000ff"/></g></svg>