<svg id="OBJECT" viewBox="0 0 512 512" xmlns="http://www.w3.org/2000/svg" width="300" height="300" version="1.1" xmlns:xlink="http://www.w3.org/1999/xlink" xmlns:svgjs="http://svgjs.dev/svgjs"><g transform="matrix(1,0,0,1,0,0)"><path d="m256 265c73.06 0 132.5-59.44 132.5-132.5s-59.44-132.5-132.5-132.5-132.5 59.44-132.5 132.5 59.44 132.5 132.5 132.5zm0-250c64.79 0 117.5 52.71 117.5 117.5s-52.71 117.5-117.5 117.5-117.5-52.71-117.5-117.5 52.71-117.5 117.5-117.5z" fill="#ffffffff" data-original-color="#000000ff"/><path d="m256 235c56.52 0 102.5-45.98 102.5-102.5s-45.98-102.5-102.5-102.5-102.5 45.98-102.5 102.5 45.98 102.5 102.5 102.5zm0-190c48.25 0 87.5 39.25 87.5 87.5s-39.25 87.5-87.5 87.5-87.5-39.25-87.5-87.5 39.25-87.5 87.5-87.5z" fill="#ffffffff" data-original-color="#000000ff"/><path d="m245.38 140h21.23c6.55 0 11.88 5.61 11.88 12.5s-5.33 12.5-11.88 12.5h-34.62c-4.14 0-7.5 3.36-7.5 7.5s3.36 7.5 7.5 7.5h4v12.5c0 4.14 3.36 7.5 7.5 7.5s7.5-3.36 7.5-7.5v-12.5h10v12.5c0 4.14 3.36 7.5 7.5 7.5s7.5-3.36 7.5-7.5v-14.23c10.21-3.9 17.5-13.98 17.5-25.77 0-15.16-12.06-27.5-26.88-27.5h-21.23c-6.55 0-11.88-5.61-11.88-12.5s5.33-12.5 11.88-12.5h34.62c4.14 0 7.5-3.36 7.5-7.5s-3.36-7.5-7.5-7.5h-4v-12.5c0-4.14-3.36-7.5-7.5-7.5s-7.5 3.36-7.5 7.5v12.5h-10v-12.5c0-4.14-3.36-7.5-7.5-7.5s-7.5 3.36-7.5 7.5v14.23c-10.21 3.9-17.5 13.98-17.5 25.77 0 15.16 12.06 27.5 26.88 27.5z" fill="#ffffffff" data-original-color="#000000ff"/><path d="m318.5 145c4.14 0 7.5-3.36 7.5-7.5v-10c0-4.14-3.36-7.5-7.5-7.5s-7.5 3.36-7.5 7.5v10c0 4.14 3.36 7.5 7.5 7.5z" fill="#ffffffff" data-original-color="#000000ff"/><path d="m201 137.5v-10c0-4.14-3.36-7.5-7.5-7.5s-7.5 3.36-7.5 7.5v10c0 4.14 3.36 7.5 7.5 7.5s7.5-3.36 7.5-7.5z" fill="#ffffffff" data-original-color="#000000ff"/><path d="m102.5 387h-80c-12.41 0-22.5 10.09-22.5 22.5v80c0 12.41 10.09 22.5 22.5 22.5h80c12.41 0 22.5-10.09 22.5-22.5v-80c0-12.41-10.09-22.5-22.5-22.5zm7.5 102.5c0 4.14-3.36 7.5-7.5 7.5h-80c-4.14 0-7.5-3.36-7.5-7.5v-80c0-4.14 3.36-7.5 7.5-7.5h80c4.14 0 7.5 3.36 7.5 7.5z" fill="#ffffffff" data-original-color="#000000ff"/><path d="m509 476-41.62-76.31c-4.27-7.83-12.46-12.69-21.37-12.69s-17.1 4.86-21.37 12.69l-41.62 76.31c-4.16 7.62-3.99 16.62.44 24.09 4.43 7.46 12.26 11.92 20.94 11.92h83.25c8.68 0 16.5-4.46 20.93-11.92s4.59-16.47.44-24.09zm-13.34 16.43c-1.73 2.91-4.66 4.58-8.04 4.58h-83.25c-3.38 0-6.31-1.67-8.04-4.58s-1.79-6.28-.17-9.25l41.62-76.31c1.64-3 4.78-4.87 8.21-4.87s6.57 1.87 8.2 4.87l41.62 76.31c1.62 2.97 1.56 6.34-.17 9.25z" fill="#ffffffff" data-original-color="#000000ff"/><path d="m256 387c-34.46 0-62.5 28.04-62.5 62.5s28.04 62.5 62.5 62.5 62.5-28.04 62.5-62.5-28.04-62.5-62.5-62.5zm0 110c-26.19 0-47.5-21.31-47.5-47.5s21.31-47.5 47.5-47.5 47.5 21.31 47.5 47.5-21.31 47.5-47.5 47.5z" fill="#ffffffff" data-original-color="#000000ff"/><path d="m62.5 372c4.14 0 7.5-3.36 7.5-7.5v-32c0-4.14 3.36-7.5 7.5-7.5h171v39.5c0 4.14 3.36 7.5 7.5 7.5s7.5-3.36 7.5-7.5v-39.5h167.51c4.14 0 7.5 3.36 7.5 7.5v32c0 4.14 3.36 7.5 7.5 7.5s7.5-3.36 7.5-7.5v-32c0-12.41-10.09-22.5-22.5-22.5h-167.51v-22.5c0-4.14-3.36-7.5-7.5-7.5s-7.5 3.36-7.5 7.5v22.5h-171c-12.41 0-22.5 10.09-22.5 22.5v32c0 4.14 3.36 7.5 7.5 7.5z" fill="#ffffffff" data-original-color="#000000ff"/></g></svg>