<svg xmlns="http://www.w3.org/2000/svg" viewBox="0 0 64 64" width="300" height="300" version="1.1" xmlns:xlink="http://www.w3.org/1999/xlink" xmlns:svgjs="http://svgjs.dev/svgjs"><g transform="matrix(1,0,0,1,0,0)"><title>3-Financial Plan</title><g id="_3-Financial_Plan" data-name="3-Financial Plan"><path d="M61.88,42.48l-8.8-13.77V26.17l3.22-9.68a13.28,13.28,0,0,0-5.63-1.3c-2.52,0-2.44,2.69-4.49,2.69-2.39,0-3.16-2.62-5.18-2.62V5H1V59H51.41A11.58,11.58,0,0,0,61.88,42.48ZM41.08,27h10v1h-10Zm5.3-7.13a4.74,4.74,0,0,0,3.47-2.22c1-.93,2.91-.46,4-.08L51.36,25H40.8l-2.5-7.51A9.63,9.63,0,0,1,40,17.11a2,2,0,0,1,1.4.6A6.43,6.43,0,0,0,46.38,19.87ZM31,7v3H11V7ZM3,57V7H9v5H33V7h6v8.19a16.15,16.15,0,0,0-3.11,1.4L39,25.92v2.9L30.34,42.37l-.07.11a11.42,11.42,0,0,0,.51,10.81,11.64,11.64,0,0,0,3.07,3.41l.39.3Zm56.49-4.44A9.52,9.52,0,0,1,51.41,57c-3.8,0-7.71.28-11.49,0a9.6,9.6,0,0,1-7.42-4.68,9.47,9.47,0,0,1-.44-8.89L40.63,30h10.9L60.1,43.39A9.54,9.54,0,0,1,59.49,52.56ZM46.08,37a7,7,0,1,0,7,7A7,7,0,0,0,46.08,37Zm0,12a5,5,0,1,1,5-5A5,5,0,0,1,46.08,49ZM32,20H10V18H32Zm0,5H10V23H32Zm0,5H10V28H32Zm0,5H10V33H32ZM10,38H21v2H10Z" fill="#ffffffff" data-original-color="#000000ff"/></g></g></svg>