<svg id="Layer_1" enable-background="new 0 0 500 500" viewBox="0 0 500 500" xmlns="http://www.w3.org/2000/svg" width="300" height="300" version="1.1" xmlns:xlink="http://www.w3.org/1999/xlink" xmlns:svgjs="http://svgjs.dev/svgjs"><g transform="matrix(1,0,0,1,0,0)"><g><path d="m299.889 469.312c-1.719 0-3.454-.529-4.944-1.625-3.712-2.733-4.508-7.965-1.772-11.676 10.975-14.905 20.554-34.689 28.467-58.812 1.435-4.377 6.148-6.777 10.534-5.329 4.381 1.434 6.768 6.151 5.33 10.534-8.464 25.805-18.855 47.174-30.887 63.509-1.633 2.224-4.164 3.399-6.728 3.399z" fill="#be1717" data-original-color="#000000ff"/><path d="m200.824 469.312c-2.534 0-5.036-1.149-6.677-3.327-33.163-44.057-52.961-124.799-52.961-215.985 0-4.612 3.738-8.35 8.35-8.35s8.35 3.738 8.35 8.35c0 86.378 19.005 165.295 49.601 205.939 2.776 3.686 2.035 8.923-1.647 11.696-1.507 1.128-3.268 1.677-5.016 1.677z" fill="#be1717" data-original-color="#000000ff"/><path d="m296.425 365.725h-234.24c-4.611 0-8.35-3.738-8.35-8.35 0-4.611 3.738-8.35 8.35-8.35h234.24c4.612 0 8.349 3.738 8.349 8.35.001 4.613-3.737 8.35-8.349 8.35z" fill="#be1717" data-original-color="#000000ff"/><path d="m149.536 258.349c-4.612 0-8.35-3.738-8.35-8.35 0-88.87 20.27-171.602 52.905-215.906 2.737-3.712 7.962-4.507 11.673-1.775 3.715 2.74 4.508 7.965 1.771 11.676-30.626 41.584-49.65 120.52-49.65 206.005.001 4.613-3.737 8.35-8.349 8.35z" fill="#be1717" data-original-color="#000000ff"/><path d="m346.754 186.322c-4.146 0-7.74-3.079-8.275-7.3-7.348-58.022-23.421-105.953-45.257-134.962-2.775-3.685-2.034-8.924 1.648-11.696 3.689-2.772 8.92-2.029 11.692 1.651 23.559 31.298 40.776 82.054 48.487 142.907.577 4.573-2.661 8.754-7.234 9.335-.356.045-.712.065-1.061.065z" fill="#be1717" data-original-color="#000000ff"/><path d="m250.356 475c-124.068 0-225.003-100.932-225.003-225s100.935-225 225.003-225c116.391 0 214.895 90.768 224.263 206.637.371 4.599-3.056 8.623-7.651 8.995-4.641.384-8.624-3.053-8.995-7.652-8.67-107.259-99.865-191.282-207.616-191.282-114.858 0-208.304 93.443-208.304 208.3 0 114.858 93.446 208.301 208.304 208.301 51.395 0 100.756-18.872 138.984-53.137 3.435-3.085 8.709-2.786 11.791.646 3.079 3.431 2.788 8.708-.643 11.787-41.302 37.02-94.618 57.405-150.133 57.405z" fill="#be1717" data-original-color="#000000ff"/><path d="m438.527 150.973h-376.348c-4.611 0-8.35-3.738-8.35-8.35s3.738-8.35 8.35-8.35h376.348c4.612 0 8.35 3.738 8.35 8.35-.001 4.613-3.738 8.35-8.35 8.35z" fill="#be1717" data-original-color="#000000ff"/><path d="m304.984 258.349h-271.281c-4.612 0-8.35-3.738-8.35-8.35s3.738-8.35 8.35-8.35h271.281c4.612 0 8.35 3.738 8.35 8.35s-3.738 8.35-8.35 8.35z" fill="#be1717" data-original-color="#000000ff"/><path d="m250.356 475c-4.611 0-8.35-3.738-8.35-8.35v-433.3c0-4.612 3.738-8.35 8.35-8.35s8.35 3.738 8.35 8.35v433.3c0 4.612-3.738 8.35-8.35 8.35z" fill="#be1717" data-original-color="#000000ff"/><path d="m451.645 379.169c-12.505 0-22.678-10.169-22.678-22.674v-39.784c0-4.612 3.738-8.349 8.35-8.349s8.349 3.738 8.349 8.349v39.784c0 3.294 2.681 5.975 5.979 5.975s5.978-2.68 5.978-5.975v-55.583c0-14.69-11.151-26.823-25.43-28.376l-18.936 17.697c-1.546 1.448-3.585 2.251-5.701 2.251h-19.282c-2.117 0-4.155-.803-5.701-2.251l-18.937-17.697c-14.278 1.553-25.43 13.686-25.43 28.376v55.583c0 3.294 2.681 5.975 5.979 5.975 3.297 0 5.978-2.68 5.978-5.975v-39.784c0-4.612 3.738-8.349 8.349-8.349 4.612 0 8.349 3.738 8.349 8.349v39.784c0 12.504-10.173 22.674-22.677 22.674-12.505 0-22.678-10.169-22.678-22.674v-55.583c0-24.951 20.296-45.245 45.244-45.245 2.117 0 4.156.803 5.702 2.251l19.116 17.867h12.694l19.116-17.867c1.546-1.448 3.584-2.251 5.701-2.251 24.947 0 45.244 20.294 45.244 45.245v55.583c-.001 12.505-10.174 22.674-22.678 22.674z" fill="#be1717" data-original-color="#000000ff"/><path d="m397.915 251.533c-21.807 0-39.546-17.742-39.546-39.549s17.739-39.544 39.546-39.544c21.803 0 39.542 17.737 39.542 39.544 0 21.806-17.739 39.549-39.542 39.549zm0-62.394c-12.6 0-22.848 10.248-22.848 22.844 0 12.602 10.248 22.85 22.848 22.85 12.596 0 22.844-10.248 22.844-22.85-.001-12.596-10.249-22.844-22.844-22.844z" fill="#be1717" data-original-color="#000000ff"/><path d="m451.645 379.169h-107.461c-4.612 0-8.35-3.738-8.35-8.349s3.738-8.35 8.35-8.35h107.461c4.612 0 8.35 3.738 8.35 8.35 0 4.611-3.738 8.349-8.35 8.349z" fill="#be1717" data-original-color="#000000ff"/></g></g></svg>