<svg id="Layer_1" enable-background="new 0 0 66 66" height="300" viewBox="0 0 66 66" width="300" xmlns="http://www.w3.org/2000/svg" version="1.1" xmlns:xlink="http://www.w3.org/1999/xlink" xmlns:svgjs="http://svgjs.dev/svgjs"><g transform="matrix(1,0,0,1,0,0)"><g><g><g><g><path d="m32.8 15c-1.8 0-3.4-1.6-3.4-3.4s1.6-3.4 3.4-3.4 3.4 1.6 3.4 3.4c0 .6-.4 1-1 1s-1-.4-1-1c0-.7-.7-1.4-1.4-1.4s-1.4.7-1.4 1.4.7 1.4 1.4 1.4c.6 0 1 .4 1 1s-.4 1-1 1z" fill="#3e6f7cff" data-original-color="#000000ff"/></g><g><path d="m32.8 19.8c-1.8 0-3.4-1.6-3.4-3.4 0-.6.4-1 1-1s1 .4 1 1c0 .7.7 1.4 1.4 1.4s1.4-.7 1.4-1.4-.7-1.4-1.4-1.4c-.6 0-1-.4-1-1s.4-1 1-1c1.8 0 3.4 1.6 3.4 3.4s-1.6 3.4-3.4 3.4z" fill="#3e6f7cff" data-original-color="#000000ff"/></g></g><g><path d="m32.8 10.1c-.6 0-1-.4-1-1v-1.1c0-.6.4-1 1-1s1 .4 1 1v1.1c0 .6-.4 1-1 1z" fill="#3e6f7cff" data-original-color="#000000ff"/></g><g><path d="m32.8 21c-.6 0-1-.4-1-1v-1.2c0-.6.4-1 1-1s1 .4 1 1v1.2c0 .6-.4 1-1 1z" fill="#3e6f7cff" data-original-color="#000000ff"/></g></g><g><path d="m12.4 24.3c-.3 0-.5-.1-.7-.3-.4-.4-.4-1 0-1.4l20.4-20.4c.4-.4 1-.4 1.4 0l20.5 20.4c.4.4.4 1 0 1.4s-1 .4-1.4 0l-19.8-19.7-19.7 19.7c-.2.2-.4.3-.7.3z" fill="#3e6f7cff" data-original-color="#000000ff"/></g><g><path d="m32.8 57.1c-.6 0-1-.4-1-1v-33c0-.6.4-1 1-1s1 .4 1 1v33c0 .6-.4 1-1 1z" fill="#3e6f7cff" data-original-color="#000000ff"/></g><g><path d="m40.6 57.1c-.6 0-1-.4-1-1v-33c0-.6.4-1 1-1s1 .4 1 1v33c0 .6-.4 1-1 1z" fill="#3e6f7cff" data-original-color="#000000ff"/></g><g><path d="m25 57.1c-.6 0-1-.4-1-1v-33c0-.6.4-1 1-1s1 .4 1 1v33c0 .6-.4 1-1 1z" fill="#3e6f7cff" data-original-color="#000000ff"/></g><g><path d="m48.1 60.6c-.6 0-1-.4-1-1v-2.5h-28.7v2.5c0 .6-.4 1-1 1s-1-.4-1-1v-3.5c0-.6.4-1 1-1h30.7c.6 0 1 .4 1 1v3.5c0 .6-.4 1-1 1z" fill="#3e6f7cff" data-original-color="#000000ff"/></g><g><path d="m51.8 64.1h-38.1c-.6 0-1-.4-1-1v-3.5c0-.6.4-1 1-1h38.1c.6 0 1 .4 1 1v3.5c0 .6-.4 1-1 1zm-37.1-2h36.1v-1.5h-36.1z" fill="#3e6f7cff" data-original-color="#000000ff"/></g><g><path d="m60.4 24.1h-55.8c-.6 0-1-.4-1-1s.4-1 1-1h55.8c.6 0 1 .4 1 1s-.4 1-1 1z" fill="#3e6f7cff" data-original-color="#000000ff"/></g><g><g><path d="m56.4 51.5c-4.7 0-8.6-3.9-8.6-8.6 0-.6.4-1 1-1h15.2c.6 0 1 .4 1 1 0 4.7-3.9 8.6-8.6 8.6zm-6.5-7.6c.5 3.2 3.2 5.6 6.5 5.6s6-2.4 6.5-5.6z" fill="#3e6f7cff" data-original-color="#000000ff"/></g><g><path d="m60.9 43.9h-9c-.3 0-.6-.1-.8-.4s-.3-.5-.2-.8l4.5-19.6c.1-.5.5-.8 1-.8s.9.3 1 .8l4.5 19.6c.1.3 0 .6-.2.8s-.5.4-.8.4zm-7.7-2h6.5l-3.2-14.1z" fill="#3e6f7cff" data-original-color="#000000ff"/></g></g><g><g><path d="m9.6 51.5c-4.7 0-8.6-3.9-8.6-8.6 0-.6.4-1 1-1h15.2c.6 0 1 .4 1 1 0 4.7-3.9 8.6-8.6 8.6zm-6.5-7.6c.5 3.2 3.2 5.6 6.5 5.6s6-2.4 6.5-5.6z" fill="#3e6f7cff" data-original-color="#000000ff"/></g><g><path d="m14.1 43.9h-9c-.3 0-.6-.1-.8-.4s-.2-.5-.2-.8l4.5-19.6c.1-.5.5-.8 1-.8s.9.3 1 .8l4.5 19.6c.1.3 0 .6-.2.8s-.5.4-.8.4zm-7.7-2h6.5l-3.3-14.1z" fill="#3e6f7cff" data-original-color="#000000ff"/></g></g></g></g></svg>