<svg xmlns="http://www.w3.org/2000/svg" data-name="Layer 1" id="Layer_1" viewBox="0 0 64 64" width="300" height="300" version="1.1" xmlns:xlink="http://www.w3.org/1999/xlink" xmlns:svgjs="http://svgjs.dev/svgjs"><g transform="matrix(1,0,0,1,0,0)"><rect height="2" width="6" x="29" y="7" fill="#3e6f7cff" data-original-color="#000000ff"/><rect height="2" width="6" x="29" y="11" fill="#3e6f7cff" data-original-color="#000000ff"/><path d="M62,33a1,1,0,0,0-.111-.464L51.277,12.283A3.992,3.992,0,1,0,44.142,9H39.931A7.993,7.993,0,0,0,24.069,9H19.858a3.992,3.992,0,1,0-7.135,3.283L2.114,32.536A1,1,0,0,0,2,33H2v.041a14,14,0,0,0,28,0V33h0a1,1,0,0,0-.111-.464L19.277,12.283A3.983,3.983,0,0,0,19.858,11h4.211A8.008,8.008,0,0,0,31,17.931V48H28a1,1,0,0,0-1,1v3H24.5a1,1,0,0,0-.955.7l-2.5,8A1,1,0,0,0,22,62H42a1,1,0,0,0,.955-1.3l-2.5-8A1,1,0,0,0,39.5,52H37V49a1,1,0,0,0-1-1H33V17.931A8.008,8.008,0,0,0,39.931,11h4.211a3.983,3.983,0,0,0,.581,1.283L34.114,32.536A1,1,0,0,0,34,33h0v.041a14,14,0,0,0,28,0V33ZM40.64,60H23.36l1.875-6h13.53ZM35,52H29V50h6ZM48,8a2,2,0,1,1-2,2A2,2,0,0,1,48,8ZM16,8a2,2,0,1,1-2,2A2,2,0,0,1,16,8ZM27.949,34a11.99,11.99,0,0,1-23.9,0H7V32H4.653L14.29,13.6a3.864,3.864,0,0,0,3.42,0L27.347,32H25v2ZM32,16a6,6,0,1,1,6-6A6.006,6.006,0,0,1,32,16ZM48,45A12.009,12.009,0,0,1,36.051,34H41V32H36.653L46.29,13.6a3.864,3.864,0,0,0,3.42,0L59.347,32H55v2h4.949A12.009,12.009,0,0,1,48,45Z" fill="#3e6f7cff" data-original-color="#000000ff"/><path d="M22.394,28.652l-6-2.571a1.007,1.007,0,0,0-.788,0l-6,2.571A1,1,0,0,0,9,29.571v6.858a1,1,0,0,0,.606.919l6,2.571a1,1,0,0,0,.788,0l6-2.571A1,1,0,0,0,23,36.429V29.571A1,1,0,0,0,22.394,28.652ZM16,28.088l3.462,1.483L16,31.055l-3.462-1.484Zm-5,3L15,32.8v4.682L11,35.77Zm6,6.4V32.8l4-1.714V35.77Z" fill="#3e6f7cff" data-original-color="#000000ff"/><path d="M51,30.5h2A3.779,3.779,0,0,0,49,27V25H47v2a3.779,3.779,0,0,0-4,3.5A3.779,3.779,0,0,0,47,34v3c-1.084,0-2-.687-2-1.5H43A3.779,3.779,0,0,0,47,39v2h2V39a3.779,3.779,0,0,0,4-3.5A3.779,3.779,0,0,0,49,32V29C50.084,29,51,29.687,51,30.5Zm0,5c0,.813-.916,1.5-2,1.5V34C50.084,34,51,34.687,51,35.5ZM47,32c-1.084,0-2-.687-2-1.5s.916-1.5,2-1.5Z" fill="#3e6f7cff" data-original-color="#000000ff"/></g></svg>