<svg id="Layer_1" height="300" viewBox="0 0 64 64" width="300" xmlns="http://www.w3.org/2000/svg" data-name="Layer 1" version="1.1" xmlns:xlink="http://www.w3.org/1999/xlink" xmlns:svgjs="http://svgjs.dev/svgjs"><g transform="matrix(1,0,0,1,0,0)"><path d="m29 41a1 1 0 0 0 -1 1v19a1 1 0 0 0 1 1h6a1 1 0 0 0 1-1v-19a1 1 0 0 0 -1-1zm5 19h-4v-17h4z" fill="#ffffffff" data-original-color="#000000ff"/><path d="m16 37a1 1 0 0 0 -1 1v23a1 1 0 0 0 1 1h6a1 1 0 0 0 1-1v-23a1 1 0 0 0 -1-1zm5 23h-4v-21h4z" fill="#ffffffff" data-original-color="#000000ff"/><path d="m3 62h6a1 1 0 0 0 1-1v-12a1 1 0 0 0 -1-1h-6a1 1 0 0 0 -1 1v12a1 1 0 0 0 1 1zm1-12h4v10h-4z" fill="#ffffffff" data-original-color="#000000ff"/><path d="m18.52 24.15a1 1 0 0 0 -1.3.23l-12 15 1.56 1.24 11.45-14.31 12.25 7.54a1 1 0 0 0 1.28-.2l24.24-28.09v5.44h2v-8a1 1 0 0 0 -.37-.77 1 1 0 0 0 -.86-.23l-8 1.6.4 2 5-1-23.37 27.1z" fill="#ffffffff" data-original-color="#000000ff"/><path d="m11 20a8.93 8.93 0 0 0 6.69-3h4.31v2a1 1 0 0 0 .58.91 1 1 0 0 0 .42.09 1 1 0 0 0 .64-.23l6-5a1 1 0 0 0 0-1.54l-6-5a1 1 0 0 0 -1.64.77v2h-2a9 9 0 1 0 -9 9zm12-7a1 1 0 0 0 1-1v-.86l3.44 2.86-3.44 2.86v-.86a1 1 0 0 0 -1-1h-7v-2zm-18.92-3a7 7 0 0 1 5.92-5.92v1.92h2v-1.92a7 7 0 0 1 6 6.92h-3a1 1 0 0 0 -1 1v4a1 1 0 0 0 .71.94 7 7 0 0 1 -2.71 1v-1.94h-2v1.92a7 7 0 0 1 -5.92-5.92h1.92v-2z" fill="#ffffffff" data-original-color="#000000ff"/><path d="m11 12a1 1 0 0 0 .71-.29l3-3-1.42-1.42-2.29 2.3-1.29-1.3-1.42 1.42 2 2a1 1 0 0 0 .71.29z" fill="#ffffffff" data-original-color="#000000ff"/><path d="m54 19v3h2v-2h4v2h2v-3a1 1 0 0 0 -1-1h-6a1 1 0 0 0 -1 1z" fill="#ffffffff" data-original-color="#000000ff"/><path d="m54 42h2v4h-2z" fill="#ffffffff" data-original-color="#000000ff"/><path d="m54 50h2v4h-2z" fill="#ffffffff" data-original-color="#000000ff"/><path d="m54 34h2v4h-2z" fill="#ffffffff" data-original-color="#000000ff"/><path d="m60 34h2v4h-2z" fill="#ffffffff" data-original-color="#000000ff"/><path d="m54 26h2v4h-2z" fill="#ffffffff" data-original-color="#000000ff"/><path d="m60 26h2v4h-2z" fill="#ffffffff" data-original-color="#000000ff"/><path d="m60 42h2v4h-2z" fill="#ffffffff" data-original-color="#000000ff"/><path d="m60 50h2v4h-2z" fill="#ffffffff" data-original-color="#000000ff"/><path d="m41 42h2v4h-2z" fill="#ffffffff" data-original-color="#000000ff"/><path d="m47 42h2v4h-2z" fill="#ffffffff" data-original-color="#000000ff"/><path d="m41 50h2v4h-2z" fill="#ffffffff" data-original-color="#000000ff"/><path d="m47 50h2v4h-2z" fill="#ffffffff" data-original-color="#000000ff"/><path d="m62 58h-2v2h-4v-2h-2v3a1 1 0 0 0 1 1h6a1 1 0 0 0 1-1z" fill="#ffffffff" data-original-color="#000000ff"/><path d="m41 61a1 1 0 0 0 1 1h6a1 1 0 0 0 1-1v-3h-2v2h-4v-2h-2z" fill="#ffffffff" data-original-color="#000000ff"/><path d="m49 35a1 1 0 0 0 -1-1h-6a1 1 0 0 0 -1 1v3h2v-2h4v2h2z" fill="#ffffffff" data-original-color="#000000ff"/></g></svg>