<svg xmlns="http://www.w3.org/2000/svg" data-name="Layer 1" id="Layer_1" viewBox="0 0 512 512" width="300" height="300" version="1.1" xmlns:xlink="http://www.w3.org/1999/xlink" xmlns:svgjs="http://svgjs.dev/svgjs"><g transform="matrix(1,0,0,1,0,0)"><path d="M461.78,360.07a45.6,45.6,0,0,0-21.33-27.89,43.68,43.68,0,0,0-4.36-2A186.27,186.27,0,0,0,301.65,97.32a45.81,45.81,0,1,0-91,.22A186.35,186.35,0,0,0,76.61,328.9a45.81,45.81,0,0,0,17.89,88,46.43,46.43,0,0,0,11.88-1.56,45.5,45.5,0,0,0,15.25-7.35A186.13,186.13,0,0,0,256.2,465.68a188.67,188.67,0,0,0,48.41-6.36,185.71,185.71,0,0,0,85.92-50.51,47.29,47.29,0,0,0,3.89,2.79,45.9,45.9,0,0,0,67.36-51.53ZM228.8,76.38a31.57,31.57,0,1,1-3.2,24A31.38,31.38,0,0,1,228.8,76.38Zm62.05,143a68.54,68.54,0,1,1-34.22-9.22A68,68,0,0,1,290.85,219.36Zm-169,167.41a31.56,31.56,0,1,1-35.43-46.34,32.07,32.07,0,0,1,8.16-1.06,31.58,31.58,0,0,1,27.27,47.4Zm-4.3-55.53a45.52,45.52,0,0,0-27.08-5.9,172,172,0,0,1,124-214A45.21,45.21,0,0,0,249,137.5l.13,58.7a82,82,0,0,0-67.76,117l-51.12,29.14A45.39,45.39,0,0,0,117.58,331.24ZM169.94,428a172,172,0,0,1-38.32-30.33c.89-1.24,1.88-2.38,2.66-3.71a45.66,45.66,0,0,0,3-39.12l51.3-29.24a81.77,81.77,0,0,0,67.77,35.89,83.3,83.3,0,0,0,21.46-2.83,81.91,81.91,0,0,0,46.12-32.6l50.79,29.39a45,45,0,0,0,5.56,43.26C326.42,454.19,239.79,468.48,169.94,428ZM331.43,313.84a82.58,82.58,0,0,0-67.92-117.66l-.14-59a45.45,45.45,0,0,0,32.44-21.92c.77-1.33,1.23-2.74,1.86-4.11A172.12,172.12,0,0,1,422.29,326.33a45,45,0,0,0-40.39,16.72ZM444.74,387.7a31.56,31.56,0,1,1-27.25-47.36,31.23,31.23,0,0,1,15.76,4.24A31.59,31.59,0,0,1,444.74,387.7Z" fill="#ffffffff" data-original-color="#000000ff"/><path d="M224.77,304.38a28.69,28.69,0,0,0,2.07,7.08l1.43,4.88v-2.12a26.92,26.92,0,0,0,6.82,7.49,32.38,32.38,0,0,0,9.37,4.8,43.43,43.43,0,0,0,9.61,2v7.42a5.89,5.89,0,0,0,1.88,4.73,6.09,6.09,0,0,0,4,1.54,6.23,6.23,0,0,0,4-1.48,5.67,5.67,0,0,0,2.09-4.79v-7.63a29.79,29.79,0,0,0,8.09-2.35,20.37,20.37,0,0,0,7.11-5.31,25.85,25.85,0,0,0,6.27-15,57.9,57.9,0,0,0-.42-8.45,23,23,0,0,0-3-8.89,24.12,24.12,0,0,0-7.11-7.61,31.25,31.25,0,0,0-11-4.75V241.85a12,12,0,0,1,3,1.81,17.57,17.57,0,0,1,3.77,4.17,18.67,18.67,0,0,1,2.25,4.95,30.71,30.71,0,0,1,1,5.21c.29,3.23,2.13,5.07,5.05,5.07h.24c1.6-.06,4.42-.84,5.28-5.74-.17-7.6-2.28-13.78-6.3-18.37a25.62,25.62,0,0,0-14.25-8.22v-7.58a5.8,5.8,0,0,0-2.07-4.8,6.2,6.2,0,0,0-8,.05,6,6,0,0,0-1.88,4.75v6.93a34.85,34.85,0,0,0-10,3,32.18,32.18,0,0,0-9,6.38,26.36,26.36,0,0,0-5.81,9,24.3,24.3,0,0,0-1.47,10.88c.8,7.36,3.6,13.37,8.34,17.87,4.4,4.18,10.42,6.81,17.93,7.86v32.74c-5.29-.62-9.47-2.27-12.46-4.9a19.39,19.39,0,0,1-6.34-10.16,4.39,4.39,0,0,0-1.91-3.6,7.28,7.28,0,0,0-3.48-1,4.59,4.59,0,0,0-4.53,1.54,4.93,4.93,0,0,0-.6,4.64Zm17.75-36.66a12.8,12.8,0,0,1-2.58-4.31,22.08,22.08,0,0,1-1-4.58,17.34,17.34,0,0,1,4.34-12.63,18.08,18.08,0,0,1,5.38-3.87,18.85,18.85,0,0,1,5.41-1.57v33.12a26.53,26.53,0,0,1-6.48-2.31A18.4,18.4,0,0,1,242.52,267.72Zm23.53,49.7V287.26a17.07,17.07,0,0,1,7.87,5.51c2.14,2.86,3.15,7.11,3,12.66v0a12.73,12.73,0,0,1-.49,3,12.14,12.14,0,0,1-5.74,7.15A16.53,16.53,0,0,1,266.05,317.42Z" fill="#ffffffff" data-original-color="#000000ff"/></g></svg>