<svg enable-background="new 0 0 492 492" viewBox="0 0 492 492" xmlns="http://www.w3.org/2000/svg" width="300" height="300" version="1.1" xmlns:xlink="http://www.w3.org/1999/xlink" xmlns:svgjs="http://svgjs.dev/svgjs"><g transform="matrix(1,0,0,1,0,0)"><g id="Master_Layer_1"/><g id="Layer_1"><g><g><g><g><path clip-rule="evenodd" d="m142.153 405.919h-41.949c-3.181 0-5.76-2.579-5.76-5.76v-111.865c0-1.744.79-3.395 2.15-4.488s3.141-1.511 4.845-1.138l63.701 13.983c1.495.328 2.798 1.237 3.62 2.527.823 1.29 1.1 2.854.767 4.348l-21.751 97.882c-.586 2.635-2.924 4.511-5.623 4.511zm-36.189-11.52h31.569l19.497-87.734-51.065-11.21v98.944z" fill-rule="evenodd" fill="#ffffffff" data-original-color="#000000ff"/></g><g><path clip-rule="evenodd" d="m255.222 431.06c-5.917 0-11.843-.409-17.751-1.226-14.447-2-28.368-6.39-41.376-13.048l-53.086-27.169c-2.832-1.449-3.953-4.92-2.504-7.752s4.92-3.953 7.752-2.504l53.086 27.168c23.755 12.158 51.171 15.945 77.199 10.662 27.868-5.656 66.375-17.635 91.665-42.59l-4.787-2.343c-11.435-5.59-24.839-6.353-36.774-2.092-12.849 4.588-25.925 7.738-38.865 9.36-1.973.247-3.934-.541-5.187-2.084-.936-1.152-1.379-2.604-1.274-4.049.71-14.572-9.755-27.382-24.38-29.816-33.42-5.562-84.764-17.013-99.704-20.39-3.103-.702-5.05-3.785-4.348-6.888.701-3.103 3.785-5.05 6.888-4.348 14.865 3.36 65.938 14.752 99.055 20.263 18.106 3.015 31.639 17.485 33.754 34.975 10.067-1.664 20.194-4.303 30.187-7.872 7.439-2.656 15.219-3.773 23.12-3.321 7.885.451 15.485 2.441 22.589 5.914l4.878 2.387c3.327 1.625 5.673 4.78 6.275 8.439.599 3.645-.61 7.37-3.232 9.963-12.208 12.077-28.146 22.359-47.373 30.562-14.928 6.368-31.816 11.489-50.195 15.22-8.461 1.718-17.027 2.579-25.612 2.579zm28.085-57.289v.002s0 0 0-.002zm.284-1.753c-.065.196-.118.395-.16.595.043-.199.096-.398.16-.595zm.004-.011c-.001.003-.002.006-.003.009.001-.003.002-.006.003-.009zm.006-.016c-.001.004-.003.009-.004.013.001-.004.002-.009.004-.013zm.004-.013c-.001.002-.001.004-.002.005.001-.001.001-.003.002-.005zm.004-.012c-.001.002-.001.004-.002.005.001-.002.001-.004.002-.005zm.004-.013c-.001.001-.001.003-.001.004 0-.001.001-.003.001-.004z" fill-rule="evenodd" fill="#ffffffff" data-original-color="#000000ff"/></g><g><path clip-rule="evenodd" d="m269.006 380.83c-17.304 0-31.552-2.718-41.46-5.43-14.945-4.09-23.559-9.024-23.918-9.232-2.753-1.594-3.693-5.118-2.099-7.871 1.593-2.75 5.11-3.691 7.862-2.104.153.087 8.048 4.546 21.629 8.213 12.549 3.388 32.681 6.779 57.329 3.69 3.155-.396 6.036 1.843 6.432 4.999s-1.843 6.036-4.999 6.432c-7.311.917-14.262 1.303-20.776 1.303z" fill-rule="evenodd" fill="#ffffffff" data-original-color="#000000ff"/></g></g><g><g><path clip-rule="evenodd" d="m294.323 96.458c-3.181 0-5.76-2.579-5.76-5.76v-16.758h-28.058v16.758c0 3.181-2.578 5.76-5.76 5.76-3.181 0-5.76-2.579-5.76-5.76v-22.518c0-3.181 2.579-5.76 5.76-5.76h39.578c3.181 0 5.76 2.579 5.76 5.76v22.518c0 3.181-2.579 5.76-5.76 5.76z" fill-rule="evenodd" fill="#ffffffff" data-original-color="#000000ff"/></g><g><path clip-rule="evenodd" d="m294.323 309.508h-39.578c-3.181 0-5.76-2.579-5.76-5.76v-22.518c0-3.181 2.579-5.76 5.76-5.76s5.76 2.579 5.76 5.76v16.758h28.058v-16.758c0-3.181 2.579-5.76 5.76-5.76s5.76 2.579 5.76 5.76v22.518c0 3.18-2.579 5.76-5.76 5.76z" fill-rule="evenodd" fill="#ffffffff" data-original-color="#000000ff"/></g><g><path clip-rule="evenodd" d="m193.185 138.361c-1.474 0-2.948-.562-4.073-1.687l-15.931-15.931c-2.25-2.25-2.25-5.897 0-8.146l27.987-27.986c2.249-2.249 5.896-2.249 8.146 0l15.931 15.931c2.25 2.249 2.25 5.896 0 8.146-2.25 2.249-5.896 2.249-8.146 0l-11.858-11.858-19.841 19.84 11.858 11.858c2.25 2.25 2.25 5.897 0 8.146-1.125 1.125-2.599 1.687-4.073 1.687z" fill-rule="evenodd" fill="#ffffffff" data-original-color="#000000ff"/></g><g><path clip-rule="evenodd" d="m343.826 289.003c-1.474 0-2.948-.562-4.073-1.687l-15.931-15.931c-2.249-2.25-2.249-5.896 0-8.146 2.25-2.25 5.896-2.25 8.146 0l11.858 11.858 19.841-19.84-11.858-11.858c-2.249-2.249-2.249-5.897 0-8.146 2.25-2.249 5.896-2.249 8.146 0l15.931 15.931c1.08 1.08 1.687 2.545 1.687 4.073s-.607 2.993-1.687 4.073l-27.987 27.986c-1.124 1.124-2.599 1.686-4.073 1.687z" fill-rule="evenodd" fill="#ffffffff" data-original-color="#000000ff"/></g><g><path clip-rule="evenodd" d="m179.268 211.512h-22.518c-3.181 0-5.76-2.579-5.76-5.76v-39.578c0-3.181 2.579-5.76 5.76-5.76h22.518c3.181 0 5.76 2.579 5.76 5.76s-2.578 5.76-5.76 5.76h-16.758v28.058h16.758c3.181 0 5.76 2.579 5.76 5.76 0 3.182-2.579 5.76-5.76 5.76z" fill-rule="evenodd" fill="#ffffffff" data-original-color="#000000ff"/></g><g><path clip-rule="evenodd" d="m392.317 211.512h-22.518c-3.181 0-5.76-2.579-5.76-5.76s2.579-5.76 5.76-5.76h16.758v-28.058h-16.758c-3.181 0-5.76-2.579-5.76-5.76s2.579-5.76 5.76-5.76h22.518c3.181 0 5.76 2.579 5.76 5.76v39.578c0 3.181-2.578 5.76-5.76 5.76z" fill-rule="evenodd" fill="#ffffffff" data-original-color="#000000ff"/></g><g><path clip-rule="evenodd" d="m179.268 211.512h-22.518c-3.181 0-5.76-2.579-5.76-5.76v-39.578c0-3.181 2.579-5.76 5.76-5.76h22.518c3.181 0 5.76 2.579 5.76 5.76s-2.578 5.76-5.76 5.76h-16.758v28.058h16.758c3.181 0 5.76 2.579 5.76 5.76 0 3.182-2.579 5.76-5.76 5.76z" fill-rule="evenodd" fill="#ffffffff" data-original-color="#000000ff"/></g><g><path clip-rule="evenodd" d="m392.317 211.512h-22.518c-3.181 0-5.76-2.579-5.76-5.76s2.579-5.76 5.76-5.76h16.758v-28.058h-16.758c-3.181 0-5.76-2.579-5.76-5.76s2.579-5.76 5.76-5.76h22.518c3.181 0 5.76 2.579 5.76 5.76v39.578c0 3.181-2.578 5.76-5.76 5.76z" fill-rule="evenodd" fill="#ffffffff" data-original-color="#000000ff"/></g><g><path clip-rule="evenodd" d="m205.241 289.003c-1.474 0-2.948-.562-4.073-1.687l-27.986-27.986c-2.249-2.25-2.249-5.896 0-8.146l15.931-15.931c2.25-2.249 5.896-2.249 8.146 0 2.25 2.25 2.25 5.896 0 8.146l-11.859 11.858 19.841 19.84 11.858-11.858c2.25-2.249 5.896-2.249 8.146 0s2.25 5.896 0 8.146l-15.931 15.931c-1.125 1.124-2.599 1.687-4.073 1.687z" fill-rule="evenodd" fill="#ffffffff" data-original-color="#000000ff"/></g><g><path clip-rule="evenodd" d="m355.882 138.361c-1.474 0-2.948-.562-4.073-1.687-2.249-2.25-2.249-5.897 0-8.146l11.858-11.858-19.841-19.84-11.858 11.858c-2.25 2.249-5.896 2.249-8.146 0-2.249-2.25-2.249-5.896 0-8.146l15.931-15.931c1.08-1.08 2.545-1.687 4.073-1.687s2.993.607 4.073 1.687l27.987 27.986c1.08 1.08 1.687 2.545 1.687 4.073s-.607 2.993-1.687 4.073l-15.931 15.931c-1.125 1.125-2.599 1.687-4.073 1.687z" fill-rule="evenodd" fill="#ffffffff" data-original-color="#000000ff"/></g><g><path clip-rule="evenodd" d="m327.891 110.376c-1.086 0-2.184-.306-3.159-.948-9.661-6.352-20.284-10.756-31.575-13.089-3.115-.644-5.119-3.691-4.475-6.807.644-3.115 3.691-5.119 6.806-4.475 12.722 2.629 24.69 7.59 35.572 14.745 2.658 1.748 3.396 5.319 1.649 7.977-1.107 1.683-2.945 2.597-4.818 2.597z" fill-rule="evenodd" fill="#ffffffff" data-original-color="#000000ff"/></g><g><path clip-rule="evenodd" d="m179.274 171.936c-.387 0-.778-.039-1.172-.12-3.115-.644-5.119-3.692-4.475-6.807 2.629-12.721 7.59-24.689 14.745-35.572 1.748-2.657 5.319-3.396 7.977-1.648 2.658 1.747 3.396 5.319 1.649 7.977-6.352 9.661-10.756 20.284-13.089 31.575-.563 2.722-2.96 4.595-5.635 4.595z" fill-rule="evenodd" fill="#ffffffff" data-original-color="#000000ff"/></g><g><path clip-rule="evenodd" d="m369.793 171.936c-2.675 0-5.072-1.873-5.635-4.595-2.334-11.291-6.737-21.913-13.089-31.575-1.747-2.658-1.01-6.23 1.648-7.977 2.659-1.748 6.23-1.009 7.977 1.648 7.155 10.882 12.116 22.85 14.745 35.572.644 3.115-1.359 6.163-4.475 6.807-.392.081-.784.12-1.171.12z" fill-rule="evenodd" fill="#ffffffff" data-original-color="#000000ff"/></g><g><path clip-rule="evenodd" d="m294.317 286.99c-2.675 0-5.072-1.873-5.635-4.595-.644-3.115 1.359-6.163 4.475-6.806 11.29-2.334 21.913-6.737 31.574-13.089 2.658-1.748 6.23-1.009 7.977 1.649s1.01 6.23-1.649 7.977c-10.882 7.155-22.85 12.116-35.572 14.745-.392.08-.784.119-1.17.119z" fill-rule="evenodd" fill="#ffffffff" data-original-color="#000000ff"/></g><g><path clip-rule="evenodd" d="m193.191 245.086c-1.874 0-3.712-.913-4.818-2.596-7.155-10.882-12.116-22.85-14.745-35.571-.644-3.115 1.359-6.163 4.475-6.806 3.116-.644 6.163 1.36 6.806 4.475 2.333 11.29 6.737 21.913 13.089 31.574 1.747 2.658 1.01 6.23-1.649 7.977-.975.641-2.073.947-3.158.947z" fill-rule="evenodd" fill="#ffffffff" data-original-color="#000000ff"/></g><g><path clip-rule="evenodd" d="m254.751 286.99c-.386 0-.778-.039-1.172-.121-12.722-2.629-24.689-7.59-35.572-14.745-2.658-1.748-3.396-5.319-1.649-7.977 1.748-2.658 5.319-3.396 7.977-1.649 9.661 6.352 20.284 10.755 31.575 13.089 3.115.644 5.119 3.691 4.475 6.806-.562 2.724-2.96 4.597-5.634 4.597z" fill-rule="evenodd" fill="#ffffffff" data-original-color="#000000ff"/></g><g><path clip-rule="evenodd" d="m355.876 245.086c-1.086 0-2.184-.307-3.159-.948-2.658-1.748-3.396-5.32-1.648-7.977 6.352-9.661 10.755-20.284 13.089-31.574.644-3.115 3.692-5.119 6.806-4.475 3.115.644 5.119 3.691 4.475 6.806-2.629 12.721-7.59 24.69-14.745 35.571-1.106 1.684-2.943 2.597-4.818 2.597z" fill-rule="evenodd" fill="#ffffffff" data-original-color="#000000ff"/></g><g><path clip-rule="evenodd" d="m221.177 110.376c-1.874 0-3.712-.913-4.818-2.596-1.748-2.658-1.01-6.229 1.649-7.977 10.882-7.155 22.85-12.116 35.572-14.745 3.115-.644 6.163 1.36 6.806 4.475.644 3.116-1.359 6.163-4.475 6.807-11.29 2.333-21.914 6.737-31.575 13.089-.975.64-2.073.947-3.159.947z" fill-rule="evenodd" fill="#ffffffff" data-original-color="#000000ff"/></g><g><path clip-rule="evenodd" d="m274.534 263.234c-20.639 0-40.044-8.037-54.638-22.632-14.594-14.594-22.632-33.999-22.632-54.638 0-20.64 8.038-40.044 22.632-54.638s33.999-22.632 54.638-22.632 40.044 8.038 54.638 22.632c14.594 14.595 22.632 33.999 22.632 54.638 0 20.64-8.038 40.044-22.632 54.638s-33.999 22.632-54.638 22.632zm0-143.021c-36.255 0-65.751 29.495-65.751 65.75s29.495 65.751 65.751 65.751c36.255 0 65.75-29.495 65.75-65.751 0-36.254-29.496-65.75-65.75-65.75z" fill-rule="evenodd" fill="#ffffffff" data-original-color="#000000ff"/></g><g><path clip-rule="evenodd" d="m288.714 261.827c-3.181 0-5.76-2.578-5.76-5.76v-39.994c0-2.254 1.314-4.3 3.364-5.238 10.073-4.608 16.582-14.74 16.582-25.812 0-7.686-3.137-14.92-8.426-20.166v17.568c0 2.084-1.125 4.005-2.943 5.024l-14.18 7.952c-1.75.981-3.885.981-5.635 0l-14.18-7.952c-1.817-1.019-2.943-2.94-2.943-5.024v-17.568c-5.289 5.246-8.426 12.479-8.426 20.166 0 11.072 6.509 21.204 16.582 25.812 2.049.938 3.364 2.984 3.364 5.238v39.995c0 3.181-2.579 5.76-5.76 5.76s-5.76-2.578-5.76-5.76v-36.494c-12.228-7.074-19.946-20.255-19.946-34.55 0-15.566 9.15-29.81 23.31-36.286 1.783-.816 3.859-.668 5.508.392 1.65 1.06 2.647 2.886 2.647 4.847v25.077l8.42 4.721 8.42-4.721v-25.077c0-1.961.997-3.787 2.647-4.847 1.649-1.06 3.724-1.207 5.509-.392 14.16 6.476 23.31 20.719 23.31 36.286 0 14.296-7.717 27.476-19.945 34.55v36.494c.001 3.18-2.578 5.759-5.759 5.759z" fill-rule="evenodd" fill="#ffffffff" data-original-color="#000000ff"/></g></g></g></g></g></g></svg>