<svg id="Layer_1" enable-background="new 0 0 500 500" viewBox="0 0 500 500" xmlns="http://www.w3.org/2000/svg" width="300" height="300" version="1.1" xmlns:xlink="http://www.w3.org/1999/xlink" xmlns:svgjs="http://svgjs.dev/svgjs"><g transform="matrix(1,0,0,1,0,0)"><g><path d="m431.632 409.464h-284.255c-4.049 0-7.33-3.281-7.33-7.33s3.282-7.33 7.33-7.33h284.255c15.829 0 28.708-12.88 28.708-28.709v-170.378c0-15.829-12.879-28.706-28.708-28.706h-168.727c-2.92 0-5.563-1.732-6.723-4.413l-33.043-76.156h-129.963c-15.829 0-28.708 12.879-28.708 28.708v71.172c0 4.049-3.281 7.33-7.33 7.33s-7.33-3.282-7.33-7.33v-71.172c0-23.915 19.454-43.368 43.368-43.368h134.773c2.92 0 5.563 1.732 6.723 4.412l33.043 76.157h163.916c23.915 0 43.368 19.454 43.368 43.366v170.378c.001 23.914-19.453 43.369-43.367 43.369z" fill="#be1717ff" data-original-color="#000000ff"/><path d="m262.905 167.011h-92.918c-4.049 0-7.33-3.282-7.33-7.33 0-4.049 3.281-7.33 7.33-7.33h92.918c4.049 0 7.33 3.282 7.33 7.33 0 4.049-3.281 7.33-7.33 7.33z" fill="#be1717ff" data-original-color="#000000ff"/><path d="m390.153 167.011c-4.049 0-7.33-3.282-7.33-7.33v-8.71c0-19.626-15.969-35.595-35.594-35.595h-106.727c-4.049 0-7.33-3.282-7.33-7.33 0-4.049 3.282-7.33 7.33-7.33h106.727c27.711 0 50.255 22.543 50.255 50.256v8.71c-.001 4.048-3.282 7.329-7.331 7.329z" fill="#be1717ff" data-original-color="#000000ff"/><path d="m467.67 369.64h-199.977c-4.049 0-7.33-3.281-7.33-7.33v-37.37c0-4.049 3.281-7.33 7.33-7.33h199.977c4.049 0 7.33 3.282 7.33 7.33v37.369c0 4.049-3.282 7.331-7.33 7.331zm-192.647-14.661h185.316v-22.709h-185.316z" fill="#be1717ff" data-original-color="#000000ff"/><path d="m367.048 300.455h-41.028c-4.05 0-7.33-3.281-7.33-7.33s3.28-7.33 7.33-7.33h41.029c4.049 0 7.33 3.281 7.33 7.33s-3.282 7.33-7.331 7.33z" fill="#be1717ff" data-original-color="#000000ff"/><path d="m401.389 271.167h-54.853c-4.049 0-7.33-3.281-7.33-7.33s3.281-7.33 7.33-7.33h54.853c4.049 0 7.33 3.281 7.33 7.33 0 4.048-3.282 7.33-7.33 7.33z" fill="#be1717ff" data-original-color="#000000ff"/><path d="m124.593 364.654h-32.052c-4.049 0-7.33-3.28-7.33-7.33v-13.569c-1.509-.559-2.993-1.171-4.45-1.833l-9.587 9.587c-2.749 2.749-7.616 2.749-10.365 0l-22.664-22.664c-2.863-2.861-2.863-7.502 0-10.366l9.587-9.589c-.665-1.455-1.275-2.94-1.836-4.45h-13.566c-4.048 0-7.33-3.281-7.33-7.33v-32.05c0-4.049 3.281-7.329 7.33-7.329h13.567c.561-1.509 1.171-2.996 1.836-4.45l-9.587-9.59c-2.863-2.863-2.863-7.505 0-10.365l22.664-22.664c1.374-1.374 3.239-2.148 5.182-2.148 1.945 0 3.808.773 5.182 2.148l9.587 9.587c1.457-.661 2.94-1.275 4.45-1.833v-13.57c0-4.049 3.282-7.33 7.33-7.33h32.052c4.049 0 7.33 3.281 7.33 7.33v13.57c1.509.558 2.993 1.171 4.45 1.833l9.587-9.587c2.749-2.749 7.616-2.749 10.365 0l22.664 22.664c2.864 2.86 2.864 7.502 0 10.365l-9.586 9.59c.664 1.454 1.274 2.94 1.835 4.45h13.567c4.049 0 7.33 3.28 7.33 7.329v32.05c0 4.049-3.282 7.33-7.33 7.33h-13.567c-.561 1.509-1.171 2.995-1.835 4.45l9.586 9.589c2.864 2.864 2.864 7.505 0 10.366l-22.664 22.664c-1.374 1.374-3.238 2.147-5.182 2.147s-3.808-.773-5.182-2.147l-9.587-9.587c-1.457.661-2.94 1.274-4.45 1.833v13.569c-.001 4.05-3.282 7.33-7.331 7.33zm-24.722-14.659h17.391v-11.563c0-3.29 2.194-6.179 5.364-7.06 4.08-1.137 7.972-2.743 11.568-4.773 2.863-1.627 6.463-1.132 8.787 1.199l8.16 8.16 12.298-12.295-8.16-8.163c-2.328-2.328-2.818-5.919-1.203-8.785 2.031-3.593 3.636-7.487 4.776-11.574.885-3.169 3.771-5.36 7.061-5.36h11.559v-17.389h-11.559c-3.29 0-6.177-2.19-7.061-5.36-1.14-4.085-2.745-7.979-4.776-11.573-1.615-2.867-1.125-6.457 1.203-8.785l8.16-8.163-12.298-12.295-8.16 8.16c-2.32 2.333-5.91 2.826-8.787 1.2-3.596-2.03-7.488-3.636-11.568-4.773-3.17-.882-5.364-3.771-5.364-7.061v-11.562h-17.391v11.562c0 3.29-2.194 6.179-5.364 7.061-4.08 1.137-7.971 2.743-11.567 4.773-2.872 1.62-6.466 1.128-8.788-1.2l-8.16-8.16-12.298 12.294 8.16 8.163c2.328 2.328 2.818 5.918 1.203 8.785-2.03 3.593-3.636 7.487-4.776 11.573-.884 3.171-3.77 5.36-7.06 5.36h-11.561v17.389h11.56c3.29 0 6.176 2.191 7.06 5.36 1.14 4.086 2.747 7.98 4.776 11.574 1.615 2.866 1.125 6.457-1.203 8.785l-8.16 8.163 12.298 12.295 8.16-8.16c2.326-2.328 5.916-2.821 8.788-1.199 3.597 2.03 7.487 3.636 11.567 4.773 3.17.881 5.364 3.77 5.364 7.06v11.564z" fill="#be1717ff" data-original-color="#000000ff"/><path d="m108.567 321.839c-22.472 0-40.754-18.282-40.754-40.754 0-22.471 18.282-40.754 40.754-40.754 22.471 0 40.754 18.282 40.754 40.754s-18.282 40.754-40.754 40.754zm0-66.848c-14.388 0-26.094 11.705-26.094 26.093s11.706 26.094 26.094 26.094 26.094-11.706 26.094-26.094-11.705-26.093-26.094-26.093z" fill="#be1717ff" data-original-color="#000000ff"/><path d="m108.567 428.218c-2.658 0-5.169-1.449-6.466-3.877l-7.015-13.131c-1.907-3.57-.559-8.012 3.012-9.919 1.002-.535 2.073-.812 3.138-.858v-42.163c0-4.049 3.282-7.33 7.33-7.33s7.33 3.281 7.33 7.33v62.619c0 3.362-2.288 6.294-5.55 7.111-.59.147-1.189.218-1.779.218z" fill="#be1717ff" data-original-color="#000000ff"/><path d="m108.567 428.218c-.59 0-1.189-.071-1.781-.22-3.262-.816-5.549-3.748-5.549-7.111v-62.619c0-4.049 3.282-7.33 7.33-7.33s7.33 3.281 7.33 7.33v42.163c1.064.043 2.135.324 3.138.858 3.57 1.907 4.919 6.349 3.012 9.919l-7.016 13.131c-1.296 2.43-3.807 3.879-6.464 3.879z" fill="#be1717ff" data-original-color="#000000ff"/></g></g></svg>