<svg id="Bitcoin" height="300" viewBox="0 0 64 64" width="300" xmlns="http://www.w3.org/2000/svg" version="1.1" xmlns:xlink="http://www.w3.org/1999/xlink" xmlns:svgjs="http://svgjs.dev/svgjs"><g transform="matrix(1,0,0,1,0,0)"><path d="m60 53h-1v-15.6a28 28 0 1 0 -54 0v15.6h-1a2.006 2.006 0 0 0 -2 2v2a5 5 0 0 0 5 5h50a5 5 0 0 0 5-5v-2a2.006 2.006 0 0 0 -2-2zm-2.09-25.08a4.982 4.982 0 0 0 -3.91-1.92h-4v-4a3.009 3.009 0 0 0 -3-3h-2.11q-.375-1.755-.84-3.36a37.018 37.018 0 0 0 7.6-2.63 25.815 25.815 0 0 1 6.26 14.91zm-50.91 25.08v-22a3.009 3.009 0 0 1 3-3h3v2h-3a1 1 0 0 0 -1 1v19a1 1 0 0 0 1 1h44a1 1 0 0 0 1-1v-19a1 1 0 0 0 -1-1h-4v-2h4a3.009 3.009 0 0 1 3 3v22zm32.83 2a3.014 3.014 0 0 1 -2.83 2h-10a3.014 3.014 0 0 1 -2.83-2zm-26.83-23v17h-2v-17zm2 17v-20h33v20zm35 0v-17h3v17zm.22-37.53a35.115 35.115 0 0 1 -6.79 2.26 22.837 22.837 0 0 0 -5.34-9 26.015 26.015 0 0 1 12.13 6.74zm-17.22-7.37c3.32.63 6.39 4.37 8.45 10.04a51.168 51.168 0 0 1 -8.45.83zm0 12.87a53.206 53.206 0 0 0 9.08-.92c.28.94.54 1.93.76 2.95h-9.84zm14 4.03a1 1 0 0 1 1 1v5h-33v-5a1 1 0 0 1 1-1zm-25.84-2c.22-1.02.48-2.01.76-2.95a53.206 53.206 0 0 0 9.08.92v2.03zm9.84-14.9v10.87a51.168 51.168 0 0 1 -8.45-.83c2.06-5.67 5.13-9.41 8.45-10.04zm-5.09.63a22.837 22.837 0 0 0 -5.34 9 35.115 35.115 0 0 1 -6.79-2.26 26.015 26.015 0 0 1 12.13-6.74zm-13.56 8.28a37.018 37.018 0 0 0 7.6 2.63q-.465 1.605-.84 3.36h-3.11a3.009 3.009 0 0 0 -3 3v4h-3a4.982 4.982 0 0 0 -3.91 1.92 25.815 25.815 0 0 1 6.26-14.91zm47.65 43.99a3.009 3.009 0 0 1 -3 3h-50a3.009 3.009 0 0 1 -3-3v-2h18.1a5.017 5.017 0 0 0 4.9 4h10a5.017 5.017 0 0 0 4.9-4h18.1z" fill="#ffffffff" data-original-color="#000000ff"/><path d="m17 23h2v2h-2z" fill="#ffffffff" data-original-color="#000000ff"/><path d="m20 23h2v2h-2z" fill="#ffffffff" data-original-color="#000000ff"/><path d="m23 23h2v2h-2z" fill="#ffffffff" data-original-color="#000000ff"/><path d="m34 36h-1v-2h-2v2h-1a1 1 0 0 0 -1 1v8a1 1 0 0 0 1 1h1v2h2v-2h1a1 1 0 0 0 1-1v-8a1 1 0 0 0 -1-1zm-1 8h-2v-6h2z" fill="#ffffffff" data-original-color="#000000ff"/><path d="m24 32h-1v-2h-2v2h-1a1 1 0 0 0 -1 1v8a1 1 0 0 0 1 1h1v2h2v-2h1a1 1 0 0 0 1-1v-8a1 1 0 0 0 -1-1zm-1 8h-2v-6h2z" fill="#ffffffff" data-original-color="#000000ff"/><path d="m43 32h-1v-2h-2v2h-1a1 1 0 0 0 -1 1v8a1 1 0 0 0 1 1h1v2h2v-2h1a1 1 0 0 0 1-1v-8a1 1 0 0 0 -1-1zm-1 8h-2v-6h2z" fill="#ffffffff" data-original-color="#000000ff"/></g></svg>