<svg height="300" viewBox="0 -2 512.00082 512" width="300" xmlns="http://www.w3.org/2000/svg" version="1.1" xmlns:xlink="http://www.w3.org/1999/xlink" xmlns:svgjs="http://svgjs.dev/svgjs"><g transform="matrix(1,0,0,1,0,0)"><path d="m256 140.457031c0 61.855469 50.144531 112 112 112s112-50.144531 112-112-50.144531-112-112-112c-61.828125.066407-111.933594 50.171875-112 112zm112-96c53.019531 0 96 42.980469 96 96s-42.980469 96-96 96-96-42.980469-96-96c.058594-52.996093 43.003906-95.941406 96-96zm0 0" fill="#ffffffff" data-original-color="#000000ff"/><path d="m336 188.457031c-4.417969 0-8-3.582031-8-8h-16c0 13.253907 10.746094 24 24 24h24v16h16v-16h24c13.253906 0 24-10.746093 24-24v-24c0-13.253906-10.746094-24-24-24h-24v-40h24c4.417969 0 8 3.582031 8 8h16c0-13.253906-10.746094-24-24-24h-24v-16h-16v16h-24c-13.253906 0-24 10.746094-24 24v24c0 13.253907 10.746094 24 24 24h24v40zm0-56c-4.417969 0-8-3.582031-8-8v-24c0-4.417969 3.582031-8 8-8h24v40zm40 16h24c4.417969 0 8 3.582031 8 8v24c0 4.417969-3.582031 8-8 8h-24zm0 0" fill="#ffffffff" data-original-color="#000000ff"/><path d="m252.847656 196.457031-14.398437 7.007813c9.496093 19.414062 23.207031 36.460937 40.128906 49.902344l9.933594-12.535157c-15.039063-11.957031-27.222657-27.117187-35.664063-44.375zm0 0" fill="#ffffffff" data-original-color="#000000ff"/><path d="m339.898438 265.359375-3.496094 15.609375c21.09375 4.710938 42.972656 4.648438 64.039062-.183594l-3.59375-15.59375c-18.738281 4.273438-38.1875 4.328125-56.949218.167969zm0 0" fill="#ffffffff" data-original-color="#000000ff"/><path d="m252.632812 84.945312-14.398437-6.953124c-9.4375 19.527343-14.304687 40.945312-14.234375 62.632812l4.648438.222656 11.351562-.390625c-.054688-19.222656 4.265625-38.207031 12.632812-55.511719zm0 0" fill="#ffffffff" data-original-color="#000000ff"/><path d="m457.601562 27.753906c-16.917968-13.457031-36.640624-22.941406-57.710937-27.753906l-3.539063 15.609375c18.738282 4.269531 36.273438 12.695313 51.3125 24.65625zm0 0" fill="#ffffffff" data-original-color="#000000ff"/><path d="m448.058594 240.328125 10.015625 12.480469c16.839843-13.546875 30.453125-30.679688 39.839843-50.152344l-14.402343-6.917969c-8.351563 17.316407-20.464844 32.550781-35.453125 44.589844zm0 0" fill="#ffffffff" data-original-color="#000000ff"/><path d="m339.410156 15.65625-3.5625-15.6015625c-21.070312 4.8554685-40.785156 14.3710935-57.6875 27.8593745l9.992188 12.542969c15.011718-12.003906 32.527344-20.480469 51.257812-24.800781zm0 0" fill="#ffffffff" data-original-color="#000000ff"/><path d="m512 140.167969c.015625-21.617188-4.886719-42.957031-14.335938-62.398438l-14.398437 6.976563c8.386719 17.28125 12.742187 36.242187 12.734375 55.453125zm0 0" fill="#ffffffff" data-original-color="#000000ff"/><path d="m288 132.457031h8v16h-8zm0 0" fill="#ffffffff" data-original-color="#000000ff"/><path d="m440 132.457031h8v16h-8zm0 0" fill="#ffffffff" data-original-color="#000000ff"/><path d="m64 356.457031h8v16h-8zm0 0" fill="#ffffffff" data-original-color="#000000ff"/><path d="m216 356.457031h8v16h-8zm0 0" fill="#ffffffff" data-original-color="#000000ff"/><path d="m176 300.457031v-16h-16v16h-32v-16h-16v16h-24v128h24v16h16v-16h32v16h16v-16c13.253906 0 24-10.746093 24-24v-24c-.019531-5.921875-2.246094-11.628906-6.238281-16 3.992187-4.375 6.21875-10.078125 6.238281-16v-24c0-13.253906-10.746094-24-24-24zm-72 16h72c4.417969 0 8 3.582031 8 8v24c0 4.417969-3.582031 8-8 8h-72zm80 88c0 4.417969-3.582031 8-8 8h-72v-40h72c4.417969 0 8 3.582031 8 8zm0 0" fill="#ffffffff" data-original-color="#000000ff"/><path d="m144 252.457031c-61.855469 0-112 50.144531-112 112s50.144531 112 112 112 112-50.144531 112-112c-.066406-61.828125-50.171875-111.933593-112-112zm0 208c-53.019531 0-96-42.980469-96-96s42.980469-96 96-96 96 42.980469 96 96c-.054688 52.996094-43.003906 95.941407-96 96zm0 0" fill="#ffffffff" data-original-color="#000000ff"/><path d="m259.480469 419.738281c-8.34375 17.3125-20.445313 32.546875-35.421875 44.589844l10.015625 12.480469c16.839843-13.546875 30.453125-30.679688 39.839843-50.152344zm0 0" fill="#ffffffff" data-original-color="#000000ff"/><path d="m115.898438 489.359375-3.496094 15.609375c21.078125 4.707031 42.945312 4.644531 64-.183594l-3.59375-15.59375c-18.722656 4.265625-38.164063 4.324219-56.910156.167969zm0 0" fill="#ffffffff" data-original-color="#000000ff"/><path d="m259.265625 308.71875c8.390625 17.292969 12.746094 36.261719 12.734375 55.480469h16c.015625-21.617188-4.886719-42.953125-14.335938-62.398438zm0 0" fill="#ffffffff" data-original-color="#000000ff"/><path d="m64.152344 264.417969c15.015625-11.988281 32.53125-20.453125 51.257812-24.761719l-3.5625-15.601562c-21.070312 4.855468-40.785156 14.371093-57.6875 27.859374zm0 0" fill="#ffffffff" data-original-color="#000000ff"/><path d="m28.847656 420.457031-14.398437 7.007813c9.496093 19.414062 23.207031 36.460937 40.128906 49.902344l9.933594-12.535157c-15.039063-11.957031-27.222657-27.117187-35.664063-44.375zm0 0" fill="#ffffffff" data-original-color="#000000ff"/><path d="m172.351562 239.609375c18.738282 4.269531 36.273438 12.695313 51.3125 24.65625l9.9375-12.511719c-16.925781-13.460937-36.660156-22.945312-57.746093-27.753906zm0 0" fill="#ffffffff" data-original-color="#000000ff"/><path d="m28.632812 308.945312-14.398437-6.953124c-9.4375 19.527343-14.3046875 40.945312-14.234375 62.632812l4.648438.222656 11.351562-.390625c-.054688-19.222656 4.265625-38.207031 12.632812-55.511719zm0 0" fill="#ffffffff" data-original-color="#000000ff"/><path d="m472 252.457031-49.976562 62.167969 30.824218 4.800781c-28.761718 84.226563-107.84375 140.886719-196.847656 141.03125v16c96.871094-.1875 182.679688-62.527343 212.800781-154.59375l32 4.953125zm0 0" fill="#ffffffff" data-original-color="#000000ff"/><path d="m40 252.457031 49.976562-62.167969-30.824218-4.800781c28.761718-84.226562 107.847656-140.886719 196.847656-141.03125v-16c-96.867188.1875-182.675781 62.523438-212.800781 154.589844l-32-4.949219zm0 0" fill="#ffffffff" data-original-color="#000000ff"/></g></svg>