<svg id="Layer_1" viewBox="0 0 512 512" xmlns="http://www.w3.org/2000/svg" data-name="Layer 1" width="300" height="300" version="1.1" xmlns:xlink="http://www.w3.org/1999/xlink" xmlns:svgjs="http://svgjs.dev/svgjs"><g transform="matrix(1,0,0,1,0,0)"><path d="m454.32 327.273v-164.193h-42.18v164.193zm-54.955-130.925h-42.18v130.925h42.18zm-54.954 33.8h-42.18v97.12h42.18zm-48.547 109.899c-3.453-.735-6.408-2.317-6.408-6.387v-109.9a6.388 6.388 0 0 1 6.387-6.387h48.568v-27.412a6.387 6.387 0 0 1 6.387-6.387h48.567v-26.881a6.388 6.388 0 0 1 6.388-6.387h54.954a6.387 6.387 0 0 1 6.387 6.387l-.008 177.3c-.8 3.306-2.552 6.058-6.379 6.058zm105.511-220.894a6.363 6.363 0 0 1 -.1-12.725l15.775-.156a6.362 6.362 0 0 1 6.412 6.312l.156 15.775a6.362 6.362 0 0 1 -12.689.718l-24.485 27.384a6.354 6.354 0 0 1 -5.81 2.028l-41.034-7.116-26.131 36.311a6.333 6.333 0 0 1 -3.522 2.43l-41.319 11.092a6.379 6.379 0 0 1 -3.294-12.325l39.145-10.493 26.864-37.329a6.38 6.38 0 0 1 6.5-2.938l41.484 7.212 23.421-26.194-1.375.014zm-144.717 281.712v20.247h85.52v-20.247zm168.536 33.021h-251.552a10.17 10.17 0 0 0 -10.124 10.124v10.124h271.8v-10.124a10.17 10.17 0 0 0 -10.124-10.124zm57.993-59.286h-367.537v13.494h367.537zm-416.34-259.394-16.573-16.574a104.338 104.338 0 0 0 -20.841 50.316h23.43a81.4 81.4 0 0 1 13.984-33.742zm13.042 3.867a68.768 68.768 0 0 0 -15.114 36.861 6.366 6.366 0 0 1 -6.337 5.767l-36.024.021a6.376 6.376 0 0 1 -6.333-7.221 117.37 117.37 0 0 1 28.957-69.537 6.378 6.378 0 0 1 9.291-.309l25.489 25.459a6.387 6.387 0 0 1 .071 8.959zm-27.026 57.178h-23.43a104.334 104.334 0 0 0 20.841 50.316l16.573-16.574a81.416 81.416 0 0 1 -13.984-33.742zm11.961-6.5a68.772 68.772 0 0 0 15.393 36.775 6.364 6.364 0 0 1 -.415 8.541l-25.457 25.49a6.371 6.371 0 0 1 -9.657-.726 117.356 117.356 0 0 1 -28.636-69.57 6.385 6.385 0 0 1 6.362-6.773l36.024-.013a6.387 6.387 0 0 1 6.386 6.276zm157.581 70.08a6.371 6.371 0 0 1 -9.657.726l-25.458-25.487a6.365 6.365 0 0 1 -.415-8.542 68.8 68.8 0 0 0 15.393-36.775 6.388 6.388 0 0 1 6.386-6.276l36.024.013a6.385 6.385 0 0 1 6.362 6.773 117.355 117.355 0 0 1 -28.635 69.57zm-5.586-13.266a104.346 104.346 0 0 0 20.84-50.316h-23.429a81.357 81.357 0 0 1 -13.985 33.742zm34.192-72.065a6.376 6.376 0 0 1 -6.333 7.221l-36.024-.021a6.366 6.366 0 0 1 -6.337-5.767 68.79 68.79 0 0 0 -15.117-36.86 6.387 6.387 0 0 1 .071-8.959l25.489-25.459a6.378 6.378 0 0 1 9.291.309 117.364 117.364 0 0 1 28.96 69.536zm-13.352-5.553a104.346 104.346 0 0 0 -20.84-50.316l-16.574 16.574a81.357 81.357 0 0 1 13.985 33.742zm-40.145-69.62a104.417 104.417 0 0 0 -50.314-20.84v23.429a81.369 81.369 0 0 1 33.74 13.984zm-77.62-20.84a104.337 104.337 0 0 0 -50.315 20.84l16.573 16.573a81.134 81.134 0 0 1 33.742-13.985zm25.732 236.339a6.387 6.387 0 0 1 0-12.774h63.014a6.387 6.387 0 0 1 0 12.774zm0 29.729a6.387 6.387 0 1 1 0-12.774h108.8a6.387 6.387 0 0 1 0 12.774zm-2.518-173.187c-11.075-11.075-29.877-3.038-29.877 12.375 0 15.547 18.883 23.37 29.877 12.376a17.5 17.5 0 0 0 0-24.751zm-40.232 24.249a30.352 30.352 0 0 1 0-23.748v-51.195a69.178 69.178 0 0 0 -12.857 8.268 6.387 6.387 0 0 1 -8.959-.07l-25.46-25.489a6.378 6.378 0 0 1 .309-9.291 117.362 117.362 0 0 1 69.536-28.958 6.376 6.376 0 0 1 7.222 6.333v12.233h1.755l.012-12.233a6.386 6.386 0 0 1 6.774-6.362 117.244 117.244 0 0 1 56.231 18.6h292.135a6.388 6.388 0 0 1 6.387 6.387v324.386a6.388 6.388 0 0 1 -6.387 6.387h-134.622v20.247h70.242a22.948 22.948 0 0 1 22.9 22.9v16.511a6.388 6.388 0 0 1 -6.387 6.387h-284.576a6.388 6.388 0 0 1 -6.387-6.387v-16.513a22.948 22.948 0 0 1 22.9-22.9h70.242v-20.245h-134.623a6.387 6.387 0 0 1 -6.387-6.387zm31.375-41.947a30.247 30.247 0 0 0 -18.6 3.818v-41.637a68.6 68.6 0 0 1 11.23-2.022 6.367 6.367 0 0 0 5.767-6.338l.022-11.017h1.755v11.017a6.386 6.386 0 0 0 6.275 6.386 68.8 68.8 0 0 1 36.776 15.394 6.365 6.365 0 0 0 8.541-.415l25.489-25.456a6.391 6.391 0 0 0 1.4-6.924h270.28v285.347h-367.536v-171.823a30.279 30.279 0 0 0 30.645-52.229l7.559-21.089a6.36 6.36 0 0 0 -11.975-4.291z" fill-rule="evenodd" fill="#be1717ff" data-original-color="#000000ff"/></g></svg>