<svg height="300" viewBox="0 0 64 64" width="300" xmlns="http://www.w3.org/2000/svg" version="1.1" xmlns:xlink="http://www.w3.org/1999/xlink" xmlns:svgjs="http://svgjs.dev/svgjs"><g transform="matrix(1,0,0,1,0,0)"><path d="m43.33 16.7649c-2.384-11.19122-18.00493-11.79382-21.29612-.92236a19.08428 19.08428 0 0 0 -9.01783 15.61291c-7.77368 8.25134.63056 21.53473 11.46686 17.97a18.79149 18.79149 0 0 0 15.03381 0c10.84174 3.56525 19.23713-9.72381 11.46784-17.96887a19.04664 19.04664 0 0 0 -7.65456-14.69168zm-15.26768-5.58539c9.31909-5.11243 18.16961 6.8017 10.75079 14.2547a7.533 7.533 0 0 0 -3.55611-3.67221 4.98651 4.98651 0 1 0 -6.51978-.00452 7.39851 7.39851 0 0 0 -3.13592 2.90815 9.01688 9.01688 0 0 1 2.46102-13.48612zm3.9375 11.82031a5.488 5.488 0 0 1 5.15686 3.70655 9.01843 9.01843 0 0 1 -10.07282-.58625 5.4259 5.4259 0 0 1 4.91596-3.1203zm-3-5a3.00019 3.00019 0 0 1 6 .00007 3.00019 3.00019 0 0 1 -6-.00007zm-7.41559.5777a10.98652 10.98652 0 0 0 21.95215.9502 17.06669 17.06669 0 0 1 5.30062 10.16552c-8.5791-4.92968-16.42511 1.58661-16.83753 8.86994-.41681-7.28583-8.27441-13.80542-16.84015-8.868a17.12154 17.12154 0 0 1 6.42491-11.11766zm-.58441 29.4223a9.00984 9.00984 0 0 1 -9-9c.494-11.93982 17.50787-11.93634 18 .00007a9.00983 9.00983 0 0 1 -9 8.99993zm11 1a16.776 16.776 0 0 1 -5.02936-.77453 11.01559 11.01559 0 0 0 5.02936-8.37219 11.028 11.028 0 0 0 5.02936 8.37219 16.776 16.776 0 0 1 -5.02936.77453zm11-1a9.00984 9.00984 0 0 1 -9-9c.494-11.93982 17.50787-11.93634 18 .00007a9.00983 9.00983 0 0 1 -9 8.99993z" fill="#be1717ff" data-original-color="#000000ff"/><path d="m60.868 26.36994a7.3092 7.3092 0 0 1 -4.47449-10.80182.99937.99937 0 0 0 -.047-1.09662 29.78814 29.78814 0 0 0 -6.84082-6.82812.99815.99815 0 0 0 -1.09375-.04688 7.22409 7.22409 0 0 1 -10.76074-4.457.99789.99789 0 0 0 -.80665-.74023 29.76048 29.76048 0 0 0 -9.667-.00977 1.0013 1.0013 0 0 0 -.80761.74219 7.30923 7.30923 0 0 1 -10.80182 4.47446 1.0014 1.0014 0 0 0 -1.09662.047 29.78818 29.78818 0 0 0 -6.82813 6.84085 1 1 0 0 0 -.04687 1.09375 7.22466 7.22466 0 0 1 -4.457 10.76075.99788.99788 0 0 0 -.74024.80664 29.78794 29.78794 0 0 0 -.00976 9.667 1.0013 1.0013 0 0 0 .74218.80762 7.23316 7.23316 0 0 1 4.96094 4.27246 7.23061 7.23061 0 0 1 -.48633 6.52929.99922.99922 0 0 0 .04688 1.09668 29.78778 29.78778 0 0 0 6.84083 6.82808 1.00165 1.00165 0 0 0 1.09375.04687 7.22411 7.22411 0 0 1 10.76074 4.457.99788.99788 0 0 0 .80664.74023 29.73412 29.73412 0 0 0 9.667.00977 1.00132 1.00132 0 0 0 .80762-.74219 7.27011 7.27011 0 0 1 10.80176-4.47461 1.00124 1.00124 0 0 0 1.09668-.04688 29.78754 29.78754 0 0 0 6.82812-6.84082 1 1 0 0 0 .04688-1.09375 7.2241 7.2241 0 0 1 4.457-10.76074.99787.99787 0 0 0 .74023-.80664 29.76018 29.76018 0 0 0 .00977-9.667 1.00131 1.00131 0 0 0 -.74219-.80757zm-1.14551 9.53125a9.26522 9.26522 0 0 0 -5.36132 12.94336 27.82893 27.82893 0 0 1 -5.49517 5.50684 9.3203 9.3203 0 0 0 -12.98828 5.3789 27.71652 27.71652 0 0 1 -7.7793-.00781 9.26489 9.26489 0 0 0 -12.94336-5.36133 27.82856 27.82856 0 0 1 -5.5068-5.49515 9.319 9.319 0 0 0 -5.37891-12.98727 27.79678 27.79678 0 0 1 .00781-7.78027 9.26513 9.26513 0 0 0 5.36133-12.94336 27.82893 27.82893 0 0 1 5.49512-5.50684 9.32088 9.32088 0 0 0 12.98828-5.3789 27.78982 27.78982 0 0 1 7.7793.00781 9.2647 9.2647 0 0 0 12.94335 5.36133 27.82888 27.82888 0 0 1 5.50684 5.49511 9.32036 9.32036 0 0 0 5.37891 12.98828 27.75325 27.75325 0 0 1 -.00782 7.7793z" fill="#be1717ff" data-original-color="#000000ff"/><path d="m41.99982 35.99982h3a1.0001 1.0001 0 0 0 -.00006-2h-.99994v-1a1 1 0 0 0 -2 0v1a3.00018 3.00018 0 0 0 .00006 6h.99994a1.0001 1.0001 0 0 1 -.00006 2h-2.99994a1.0001 1.0001 0 0 0 .00006 2h1.99994v1a1.0001 1.0001 0 0 0 2-.00006v-1.1842a2.9979 2.9979 0 0 0 -1.00006-5.81574h-.99994a1.00011 1.00011 0 0 1 0-2z" fill="#be1717ff" data-original-color="#000000ff"/><path d="m21.99982 36.18409v-3.18427a1 1 0 0 0 -2 0v3.18427a2.99571 2.99571 0 0 0 -1.81574 1.81573h-2.18426a1 1 0 0 0 0 2h2.18432a2.99255 2.99255 0 1 0 3.81568-3.81573zm-1 3.81573a1.0001 1.0001 0 0 1 .00006-2 1.0001 1.0001 0 0 1 -.00006 2z" fill="#be1717ff" data-original-color="#000000ff"/></g></svg>