<svg clip-rule="evenodd" fill-rule="evenodd" stroke-linejoin="round" stroke-miterlimit="2" viewBox="0 0 510 510" xmlns="http://www.w3.org/2000/svg" width="300" height="300" version="1.1" xmlns:xlink="http://www.w3.org/1999/xlink" xmlns:svgjs="http://svgjs.dev/svgjs"><g transform="matrix(1,0,0,1,0,0)"><g id="Artboard91"><path d="m20.745 210.124-.214.158c-3.555 2.619-8.567 1.86-11.186-1.695-2.62-3.554-1.86-8.567 1.694-11.186l18.832-13.877c1.927-1.42 4.388-1.902 6.709-1.315 2.321.588 4.256 2.184 5.275 4.349l10.477 22.266c1.88 3.995.163 8.765-3.832 10.645s-8.765.163-10.645-3.833l-1.325-2.815c-3.246 15.073-4.954 30.714-4.954 46.751 0 122.15 99.169 221.32 221.319 221.32 27.673 0 54.167-5.088 78.595-14.383 4.127-1.57 8.752.506 10.322 4.633 1.57 4.126-.506 8.751-4.632 10.322-26.197 9.967-54.608 15.428-84.285 15.428-130.98 0-237.319-106.339-237.319-237.32 0-16.955 1.782-33.496 5.169-49.448zm274.073-167.9c-13.576-2.606-27.592-3.971-41.923-3.971-20.347 0-40.057 2.75-58.777 7.902-4.257 1.171-8.664-1.334-9.836-5.591-1.171-4.257 1.334-8.665 5.591-9.836 20.072-5.523 41.205-8.475 63.022-8.475 15.797 0 31.236 1.548 46.173 4.498l-.683-.938c-2.596-3.571-1.805-8.579 1.766-11.175 3.571-2.597 8.579-1.805 11.175 1.766l13.757 18.92c1.407 1.936 1.874 4.4 1.272 6.717-.603 2.317-2.211 4.242-4.383 5.247l-22.332 10.335c-4.007 1.854-8.766.107-10.62-3.9-1.855-4.008-.107-8.766 3.9-10.621zm193.468 247.706.663-.579c3.324-2.907 8.382-2.568 11.288.756 2.907 3.324 2.568 8.382-.756 11.289l-17.609 15.398c-1.802 1.575-4.215 2.261-6.577 1.869-2.361-.392-4.423-1.821-5.619-3.894l-12.296-21.315c-2.207-3.825-.893-8.721 2.932-10.927 3.824-2.207 8.721-.893 10.927 2.932l1.218 2.112c1.16-9.171 1.757-18.515 1.757-27.999 0-24.118-3.864-47.34-11.01-69.08-1.379-4.194.907-8.719 5.102-10.098 4.194-1.379 8.719.907 10.098 5.102 7.663 23.312 11.81 48.214 11.81 74.076 0 10.285-.656 20.417-1.928 30.358zm-338.04 71.462 3.019 5.335c.004.006.008.013.011.02 4.302 7.651 1.571 17.414-6.035 21.71l-15.137 8.579c-.008.004-.016.009-.024.014-7.651 4.301-17.414 1.57-21.712-6.04l-44.511-78.65c-4.342-7.66-1.611-17.434 6.007-21.737l15.154-8.579.007-.004c7.613-4.3 17.381-1.6 21.716 6.013l.01.019 2.187 3.864 37.337-21.617c4.023-2.326 8.077-4.376 12.183-5.943-3.91-17.879-1.431-37.768 9.825-57.546l.005-.008c8.934-15.658 22.442-33.161 40.599-53.296-4.706-3.764-7.736-9.554-7.736-16.028 0-8.454 5.191-15.756 12.543-18.876-4.444-4.444-8.414-8.415-8.409-8.41-8.13-8.096-8.142-21.369-.012-29.499 6.421-6.42 16.38-7.869 24.369-3.736 2.66-8.432 10.592-14.593 19.885-14.593 9.117 0 17.168 6.025 19.881 14.591 7.852-4.079 17.804-2.829 24.372 3.738l.012.012c8.09 8.123 8.078 21.386-.012 29.476l-8.421 8.421c7.352 3.12 12.543 10.423 12.543 18.876 0 6.478-3.033 12.27-7.744 16.034 18.169 20.135 31.674 37.638 40.59 53.296 11.735 20.605 13.959 41.323 9.327 59.774 6.277-.075 11.185 1.608 14.805 4.036 7.106 4.768 10.452 12.883 10.239 20.874-.215 8.1-4.156 15.794-10.508 19.706l-97.934 60.297c-10.941 6.753-22.925 8.348-35.342 5.036l-.008-.002-67.842-18.182zm-31.427-55.531 23.546 41.606 7.989-4.613c1.838-1.062 4.022-1.349 6.072-.8l71.036 19.038c8.011 2.137 15.752 1.165 22.812-3.192l.007-.005 97.94-60.3c2.027-1.249 2.835-3.924 2.904-6.508.229-8.616-8.538-13.343-28.841-1.515l-53.971 31.433c-9.201 5.363-18.843 6.864-29.353 5.19-.009-.001-.018-.002-.027-.004 0 0-6.695-1.089-6.698-1.09-.109-.018-.216-.037-.324-.059-.003-.001-.007-.002-.011-.003-12.231-2.511-23.575-6.201-36.163-9.584-4.264-1.146-6.795-5.538-5.649-9.802s5.538-6.796 9.802-5.65c12.148 3.265 23.102 6.848 34.891 9.294 4.467.457 7.842-1.222 8.874-5.066l.001-.004c1.028-3.82-1.42-7.458-5.093-8.851-21.685-4.015-42.89-12.981-55.91-17.202l-.003-.001c-9.347-3.035-17.854 1.075-26.364 5.996zm57.323-44.685c3.752-.029 7.563.517 11.448 1.779 12.666 4.107 33.336 12.976 54.437 16.789.353.064.701.152 1.042.262.089.029.179.058.268.088-.037-.31-.056-.625-.056-.945v-2.498c-10.135-2.385-18.741-9.269-21.453-20.162-1.067-4.285 1.546-8.629 5.83-9.696 4.285-1.067 8.629 1.545 9.696 5.83 1.534 6.162 7.611 8.843 13.654 8.963.091-.003.182-.004.273-.004.12 0 .24.002.358.008.109-.001.217-.003.326-.006 2.897-.071 6.048-.677 8.708-1.979 2.512-1.23 4.641-3.202 4.254-6.461-.429-3.498-2.891-5.357-5.665-6.615-2.879-1.306-6.151-2.016-9.211-2.518-12.407-2.029-25.487-8.444-26.202-23.166v-.004c-.547-11.369 6.398-19.75 16.073-23.557 1.09-.429 2.212-.796 3.359-1.098v-2.632c0-4.416 3.585-8 8-8 4.416 0 8 3.584 8 8v2.546c8.069 2.05 15.428 7.411 19.29 16.623 1.707 4.072-.213 8.764-4.285 10.471s-8.764-.213-10.471-4.285c-2.252-5.371-7.149-7.713-12.005-7.805-.175.011-.351.017-.529.017-.125 0-.249-.003-.373-.009-1.782.068-3.536.435-5.128 1.061-3.354 1.32-6.138 3.956-5.95 7.898.146 2.984 2.168 4.624 4.474 5.75 2.564 1.253 5.533 1.943 8.33 2.4l.004.001c12.648 2.075 26.346 7.995 28.173 22.995l.001.015c1.725 14.389-9.407 22.955-21.531 25.53v2.387c0 3.574-2.348 6.603-5.585 7.628 5.078 5.511 7.426 13.198 5.577 20.953.329-.175.657-.358.985-.549l53.973-31.434c3.394-1.978 6.606-3.587 9.638-4.872 6.811-16.691 6.174-36.467-5.024-56.129-9.373-16.46-24.151-34.995-44.269-56.736h-46.117c-20.101 21.742-34.879 40.277-44.272 56.738-9.091 15.974-11.231 32.016-8.045 46.428zm60.565-144.168h29.639l18.12-18.121c1.885-1.884 1.875-4.972-.011-6.871-1.636-1.625-4.167-1.832-6.037-.631l-.004.002c-4.161 2.669-8.913 3.105-13.482 1.205-4.557-1.895-7.621-5.553-8.674-10.404-.498-2.203-2.47-3.804-4.731-3.804-2.312 0-4.263 1.638-4.731 3.8-1.04 4.839-4.108 8.508-8.675 10.408-4.569 1.9-9.32 1.464-13.462-1.192-1.92-1.223-4.47-.976-6.072.627-1.888 1.887-1.899 4.969-.012 6.849l.012.011zm-13.065 25.002h55.769c2.473 0 4.491-2.031 4.491-4.512 0-2.469-2.021-4.49-4.491-4.49h-55.769c-2.469 0-4.491 2.021-4.491 4.49 0 2.481 2.018 4.512 4.491 4.512zm-143.84 162.505 44.466 78.571 15.045-8.527-44.462-78.563zm11.645-1.578c3.436-.512 6.626 1.86 7.137 5.296.491 3.435-1.881 6.646-5.317 7.137-3.435.511-6.625-1.882-7.137-5.317-.49-3.436 1.882-6.626 5.317-7.116zm335.794-266.711c4.669 1.405 9.183 3.276 13.482 5.587l8.652-3.847c3.025-1.345 6.566-.688 8.907 1.653l14.566 14.566c2.338 2.338 2.997 5.874 1.658 8.897 0 0-3.834 8.656-3.835 8.656 2.316 4.306 4.189 8.828 5.595 13.513l8.822 3.395c3.088 1.189 5.126 4.157 5.126 7.466v20.605c0 3.309-2.038 6.277-5.126 7.466 0 0-8.827 3.397-8.827 3.396-1.409 4.67-3.286 9.184-5.593 13.483l3.838 8.664c1.339 3.024.68 6.559-1.658 8.897l-14.566 14.566c-2.338 2.338-5.873 2.997-8.897 1.658 0 0-8.652-3.832-8.651-3.833-4.297 2.313-8.82 4.185-13.496 5.591l-3.396 8.824c-1.189 3.088-4.157 5.126-7.466 5.126h-20.605c-3.309 0-6.277-2.038-7.466-5.126 0 0-3.396-8.824-3.395-8.823-4.683-1.41-9.203-3.289-13.505-5.597l-8.664 3.838c-3.023 1.339-6.559.68-8.897-1.658l-14.566-14.566c-2.341-2.341-2.998-5.882-1.653-8.907 0 0 3.845-8.648 3.845-8.647-2.311-4.294-4.183-8.814-5.597-13.486l-8.834-3.4c-3.089-1.189-5.127-4.157-5.127-7.466v-20.605c0-3.309 2.038-6.277 5.127-7.466 0 0 8.832-3.399 8.831-3.398 1.415-4.683 3.288-9.201 5.602-13.504l-3.847-8.652c-1.345-3.025-.688-6.566 1.653-8.907l14.566-14.566c2.341-2.341 5.882-2.998 8.907-1.653 0 0 8.652 3.847 8.652 3.847 4.302-2.313 8.818-4.184 13.489-5.589l3.416-8.851c1.19-3.085 4.156-5.12 7.463-5.12h20.605c3.311 0 6.28 2.04 7.467 5.131zm-13.478 9.533-2.884-7.506h-9.62l-2.9 7.517c-.949 2.459-3.049 4.293-5.614 4.903-5.894 1.4-11.514 3.729-16.68 6.912-2.248 1.385-5.035 1.572-7.447.499 0 0-7.346-3.266-7.346-3.266l-6.795 6.795 3.266 7.346c1.073 2.412.886 5.199-.499 7.447-3.187 5.172-5.517 10.799-6.937 16.718-.614 2.56-2.449 4.654-4.906 5.599l-7.489 2.882v9.619l7.489 2.882c2.455.945 4.289 3.036 4.905 5.594 1.419 5.897 3.746 11.541 6.932 16.692 1.391 2.249 1.58 5.041.505 7.458l-3.266 7.345 6.801 6.801 7.35-3.256c2.404-1.065 5.177-.88 7.419.493 5.171 3.168 10.796 5.52 16.713 6.922 2.57.609 4.674 2.446 5.622 4.911l2.882 7.489h9.619l2.882-7.489c.948-2.463 3.049-4.3 5.616-4.91 5.89-1.399 11.526-3.724 16.67-6.906 2.246-1.388 5.033-1.579 7.448-.51l7.349 3.256 6.807-6.807-3.256-7.349c-1.065-2.404-.88-5.178.493-7.42 3.169-5.172 5.521-10.797 6.923-16.698.61-2.567 2.447-4.668 4.91-5.616l7.489-2.882v-9.619l-7.489-2.882c-2.465-.948-4.302-3.052-4.911-5.622-1.4-5.911-3.728-11.53-6.911-16.695-1.383-2.245-1.572-5.027-.504-7.437l3.256-7.35-6.801-6.801-7.345 3.266c-2.413 1.073-5.199.886-7.447-.499-5.166-3.183-10.787-5.512-16.681-6.912-2.568-.611-4.671-2.449-5.618-4.914zm-7.7 16.707c24.277 0 43.959 19.662 43.959 43.938 0 24.275-19.684 43.959-43.959 43.959-24.276 0-43.938-19.682-43.938-43.959 0-24.278 19.66-43.938 43.938-43.938zm0 16c-15.437 0-27.938 12.501-27.938 27.938 0 15.439 12.5 27.959 27.938 27.959 15.44 0 27.959-12.519 27.959-27.959 0-15.438-12.52-27.938-27.959-27.938zm-305.384 112.089c-46.338 0-84.151-37.813-84.151-84.151s37.813-84.151 84.151-84.151 84.151 37.813 84.151 84.151-37.813 84.151-84.151 84.151zm0-16c37.527 0 68.151-30.623 68.151-68.151 0-37.527-30.624-68.151-68.151-68.151-37.528 0-68.151 30.624-68.151 68.151 0 37.528 30.623 68.151 68.151 68.151zm-8-112.603v-3.744c0-4.415 3.585-8 8-8s8 3.585 8 8v3.657c9.089 2.089 17.452 7.971 21.792 18.296 1.711 4.07-.204 8.764-4.275 10.475-4.07 1.711-8.764-.204-10.475-4.274-3.871-9.21-14.201-11.047-21.61-8.13-4.169 1.641-7.562 4.968-7.327 9.865.187 3.789 2.682 5.92 5.605 7.35 2.975 1.454 6.417 2.263 9.654 2.796 13.794 2.257 28.878 8.615 30.881 25.014l.001.011c1.921 15.914-10.762 25.225-24.246 27.811v3.521c0 4.415-3.585 8-8 8s-8-3.585-8-8v-3.638c-11.386-2.434-21.161-9.986-24.188-22.142-1.066-4.285 1.546-8.63 5.831-9.696 4.284-1.067 8.629 1.546 9.696 5.83 1.938 7.785 9.858 11.042 17.464 10.863 4.136-.098 8.745-1.111 12.138-3.45 2.263-1.56 3.815-3.89 3.421-7.176-.532-4.339-3.531-6.692-6.97-8.252-3.319-1.506-7.087-2.329-10.611-2.906l-.008-.001c-13.515-2.225-27.863-9.089-28.649-25.157v-.004c-.595-12.323 6.955-21.397 17.448-25.527 1.429-.563 2.911-1.028 4.428-1.392zm313.384 246.176c46.487 0 84.151 37.665 84.151 84.151 0 46.487-37.664 84.151-84.151 84.151-46.486 0-84.151-37.664-84.151-84.151 0-46.486 37.665-84.151 84.151-84.151zm-50.23 38.084c-10.524 11.469-17.169 26.554-17.861 43.182 1.159-2.991 4.065-5.115 7.463-5.115h6.564c4.415 0 8 3.585 8 8 0 4.416-3.585 8-8 8h-6.564c-3.398 0-6.304-2.123-7.463-5.114.692 16.627 7.337 31.713 17.861 43.182-1.264-2.924-.702-6.45 1.686-8.837l4.657-4.657c3.122-3.122 8.191-3.122 11.313 0s3.122 8.192 0 11.314l-4.657 4.657c-2.387 2.387-5.913 2.949-8.836 1.685 11.469 10.524 26.554 17.169 43.182 17.861-2.991-1.158-5.115-4.064-5.115-7.463v-6.564c0-4.415 3.585-8 8-8s8 3.585 8 8v6.564c0 3.399-2.123 6.305-5.114 7.463 16.627-.692 31.713-7.337 43.182-17.861-2.924 1.264-6.45.702-8.837-1.685l-4.657-4.657c-3.122-3.122-3.122-8.192 0-11.314s8.192-3.122 11.314 0l4.657 4.657c2.387 2.387 2.949 5.914 1.685 8.837 10.511-11.455 17.152-26.517 17.859-43.119-1.175 2.958-4.064 5.051-7.439 5.051h-6.586c-4.415 0-8-3.584-8-8 0-4.415 3.585-8 8-8h6.586c3.375 0 6.264 2.094 7.439 5.051-.707-16.602-7.348-31.664-17.859-43.118 1.264 2.923.702 6.449-1.685 8.836l-4.657 4.657c-3.122 3.122-8.192 3.122-11.314 0s-3.122-8.191 0-11.313l4.657-4.657c2.387-2.388 5.913-2.949 8.837-1.686-11.469-10.523-26.555-17.169-43.182-17.861 2.991 1.159 5.114 4.065 5.114 7.463v6.564c0 4.415-3.585 8-8 8s-8-3.585-8-8v-6.564c0-3.398 2.124-6.304 5.115-7.463-16.628.692-31.713 7.338-43.182 17.861 2.923-1.263 6.449-.702 8.836 1.686l4.657 4.657c3.122 3.122 3.122 8.191 0 11.313s-8.191 3.122-11.313 0l-4.657-4.657c-2.388-2.387-2.95-5.913-1.686-8.836zm42.23 17.261c0-4.415 3.585-8 8-8s8 3.585 8 8v24.187l15.248 8.801c3.824 2.207 5.136 7.103 2.929 10.927s-7.104 5.137-10.928 2.93l-19.248-11.11c-2.476-1.429-4.001-4.07-4.001-6.929z" fill="#be1717ff" data-original-color="#000000ff"/></g></g></svg>