<svg id="Layer_1" enable-background="new 0 0 512 512" height="300" viewBox="0 0 512 512" width="300" xmlns="http://www.w3.org/2000/svg" version="1.1" xmlns:xlink="http://www.w3.org/1999/xlink" xmlns:svgjs="http://svgjs.dev/svgjs"><g transform="matrix(1,0,0,1,0,0)"><path d="m496 10.785h-283.143c-4.418 0-8 3.582-8 8v175.2c-12.344-10.342-26.512-18.021-41.676-22.702 17.602-11.593 29.251-31.521 29.251-54.128 0-35.719-29.06-64.778-64.779-64.778s-64.779 29.06-64.779 64.778c0 22.607 11.649 42.535 29.25 54.128-16.596 5.124-32.006 13.83-45.13 25.698-21.977 19.874-35.809 46.978-38.949 76.317-.03.285-.045.569-.045.852v29.646c0 3.31 2.038 6.277 5.126 7.466l32.413 12.477c4.521 17.318 11.387 33.881 20.455 49.342l-14.106 31.761c-1.344 3.024-.686 6.563 1.654 8.904l41.928 41.927c2.341 2.34 5.878 2.995 8.904 1.654l31.773-14.11c15.465 9.067 32.021 15.932 49.328 20.45l12.479 32.422c1.188 3.088 4.156 5.126 7.466 5.126h59.293c3.31 0 6.277-2.038 7.466-5.126l12.476-32.413c17.317-4.52 33.879-11.386 49.343-20.455l31.761 14.106c3.024 1.344 6.563.686 8.904-1.654l41.927-41.928c2.34-2.341 2.998-5.88 1.655-8.904l-14.111-31.772c9.069-15.467 15.933-32.022 20.451-49.327l32.421-12.479c3.089-1.188 5.126-4.156 5.126-7.466v-21.647h33.868c4.418 0 8-3.582 8-8v-255.365c0-4.418-3.582-8-8-8zm-8 16v87.632h-10.443v-47.53c0-4.418-3.582-8-8-8-6.145 0-11.144-5.203-11.144-11.599 0-4.418-3.582-8-8-8h-191.97c-4.418 0-8 3.582-8 8 0 6.396-4.999 11.599-11.144 11.599-4.418 0-8 3.582-8 8v47.53h-10.442v-87.632zm-142.455 73.516c2.139.882 4.659 1.601 7.627 2.088 4.639.762 7.085 1.929 7.273 3.469.038.313.005.439.006.439-.236.479-2.329 1.776-5.643 1.854-.579.012-5.732.03-6.653-3.666-.424-1.7-1.363-3.137-2.61-4.184zm30.783 3.629c-.788-6.495-4.996-14.774-20.564-17.33-.598-.098-5.842-1.005-5.921-2.627-.087-1.787 2.304-2.47 3.039-2.636.535-.122 5.292-1.068 7.051 3.121 1.71 4.074 6.398 5.991 10.473 4.279 4.074-1.71 5.989-6.399 4.279-10.473-2.377-5.663-6.845-9.773-12.27-11.771-.246-4.198-3.727-7.526-7.986-7.526-4.292 0-7.794 3.38-7.991 7.623-8.02 2.947-12.975 9.938-12.576 18.159.188 3.875 1.69 9.819 8.368 13.884-1.203-.285-2.49-.294-3.772.025-4.287 1.069-6.896 5.411-5.827 9.698.55 2.207 1.446 4.239 2.628 6.061h-87.959v-40.753c8.588-2.699 15.37-9.625 17.981-18.376h178.295c2.611 8.751 9.393 15.677 17.981 18.376v40.753h-87.335c1.833-3.098 2.57-6.666 2.106-10.487zm-146.306 162.219h-91.809l22.868-25.821c1.868-2.108 2.489-5.044 1.635-7.729l-15.531-48.832c41.56 7.835 74.673 40.216 82.837 82.382zm-104.545-84.168c.719-.015 1.433-.047 2.156-.047h.021.02c.722 0 1.436.033 2.154.047l16.265 51.141-18.44 20.82-18.44-20.82zm190.767 100.169c-4.033 41.239-38.897 73.575-81.178 73.575s-77.145-32.336-81.178-73.576h58.969v.001zm-237.37-164.995c0-26.896 21.882-48.778 48.779-48.778s48.779 21.882 48.779 48.778c0 26.889-21.868 48.764-48.753 48.779-.009 0-.018 0-.027 0s-.017 0-.026 0c-26.884-.015-48.752-21.89-48.752-48.779zm29.245 66.613-15.531 48.832c-.854 2.685-.233 5.62 1.635 7.729l22.869 25.821h-91.81c8.163-42.167 41.276-74.548 82.837-82.382zm338.012 114.535-31.176 12c-2.462.947-4.298 3.048-4.909 5.613-4.406 18.516-11.715 36.146-21.725 52.403-1.383 2.246-1.57 5.03-.5 7.441l13.57 30.555-34.159 34.159-30.542-13.565c-2.412-1.071-5.196-.884-7.442.5-16.252 10.01-33.888 17.32-52.417 21.729-2.566.61-4.667 2.446-5.614 4.908l-11.997 31.168h-48.308l-12-31.177c-.947-2.461-3.047-4.298-5.614-4.908-18.517-4.407-36.147-11.717-52.403-21.726-2.247-1.384-5.031-1.571-7.441-.499l-30.555 13.569-34.16-34.158 13.565-30.543c1.071-2.411.884-5.195-.5-7.442-10.007-16.249-17.318-33.885-21.729-52.417-.611-2.565-2.447-4.666-4.909-5.613l-31.166-11.996v-16.154h113.821c4.083 50.075 46.136 89.576 97.245 89.576s93.162-39.5 97.245-89.575h113.82zm41.869-32.153h-241.732c-1.94-11.526-5.542-22.631-10.647-33.002 1.102.572 2.351.901 3.679.901 6.145 0 11.144 5.203 11.144 11.598 0 4.418 3.582 8 8 8h191.97c4.418 0 8-3.582 8-8 0-6.395 4.999-11.598 11.144-11.598 4.418 0 8-3.582 8-8v-55.53c0-4.418-3.582-8-8-8-6.145 0-11.144-5.203-11.144-11.598 0-4.418-3.582-8-8-8h-191.97c-4.418 0-8 3.582-8 8 0 6.395-4.999 11.598-11.144 11.598-4.418 0-8 3.582-8 8v54.629c-3.086-5.229-6.575-10.232-10.442-14.965v-79.766h267.142zm-240.701-46.879v-41.976c8.588-2.699 15.37-9.624 17.981-18.375h178.295c2.612 8.751 9.393 15.676 17.981 18.375v41.976c-8.588 2.699-15.37 9.624-17.981 18.375h-178.294c-2.612-8.75-9.393-15.675-17.982-18.375zm74.819-124.619c0 4.418-3.582 8-8 8h-27.131c-4.418 0-8-3.582-8-8s3.582-8 8-8h27.131c4.418 0 8 3.582 8 8zm64.619 0c0-4.418 3.582-8 8-8h27.132c4.418 0 8 3.582 8 8s-3.582 8-8 8h-27.132c-4.419 0-8-3.582-8-8zm-107.751 103.632c0-4.418 3.582-8 8-8h27.131c4.418 0 8 3.582 8 8s-3.582 8-8 8h-27.131c-4.418 0-8-3.582-8-8zm107.751 0c0-4.418 3.582-8 8-8h27.132c4.418 0 8 3.582 8 8s-3.582 8-8 8h-27.132c-4.419 0-8-3.582-8-8zm-48.28 4.007c-4.287 1.068-6.896 5.411-5.826 9.697 1.742 6.985 6.923 12.229 13.816 14.523.279 4.166 3.746 7.458 7.982 7.458 4.185 0 7.619-3.213 7.97-7.307 4.091-1.21 7.641-3.349 10.089-6.18 3.103-3.589 4.431-8.057 3.841-12.922-.788-6.494-4.996-14.772-20.563-17.329-.598-.098-5.844-1.006-5.922-2.628-.087-1.786 2.303-2.469 3.038-2.636.535-.122 5.292-1.068 7.051 3.122 1.71 4.073 6.4 5.99 10.473 4.278 4.074-1.71 5.989-6.399 4.279-10.474-2.377-5.662-6.845-9.772-12.27-11.771-.246-4.198-3.727-7.526-7.986-7.526-4.292 0-7.794 3.38-7.991 7.623-8.019 2.947-12.975 9.938-12.575 18.158.188 3.876 1.69 9.82 8.369 13.886-1.204-.284-2.492-.292-3.775.028zm14.715 3.73c4.639.762 7.086 1.928 7.273 3.468.038.313.005.439.006.439-.236.479-2.329 1.776-5.642 1.854-.588.012-5.733.03-6.654-3.666-.424-1.701-1.364-3.138-2.61-4.186 2.138.884 4.659 1.603 7.627 2.091z" fill="#ffffffff" data-original-color="#000000ff"/></g></svg>