<svg id="Layer_1" viewBox="0 0 512 512" xmlns="http://www.w3.org/2000/svg" data-name="Layer 1" width="300" height="300" version="1.1" xmlns:xlink="http://www.w3.org/1999/xlink" xmlns:svgjs="http://svgjs.dev/svgjs"><g transform="matrix(1,0,0,1,0,0)"><path d="m265.293 193.585c0 3.866-3.134 7-7 7h-129.887c-3.866 0-7-3.134-7-7s3.134-7 7-7h129.887c3.866 0 7 3.134 7 7zm-143.887-41.1c0 3.866 3.134 7 7 7h129.887c3.866 0 7-3.134 7-7s-3.134-7-7-7h-129.887c-3.866 0-7 3.134-7 7zm136.887 75.2h-129.887c-3.866 0-7 3.134-7 7s3.134 7 7 7h129.887c3.866 0 7-3.134 7-7s-3.134-7-7-7zm-67.682 41.099h-62.205c-3.866 0-7 3.134-7 7s3.134 7 7 7h62.205c3.866 0 7-3.134 7-7s-3.134-7-7-7zm0 41.1h-62.205c-3.866 0-7 3.134-7 7s3.134 7 7 7h62.205c3.866 0 7-3.134 7-7s-3.134-7-7-7zm0 41.1h-62.205c-3.866 0-7 3.134-7 7s3.134 7 7 7h62.205c3.866 0 7-3.134 7-7s-3.134-7-7-7zm0 41.1h-62.205c-3.866 0-7 3.134-7 7s3.134 7 7 7h62.205c3.866 0 7-3.134 7-7s-3.134-7-7-7zm41.256-43.383c0-36.151 29.41-65.562 65.561-65.562s65.561 29.411 65.561 65.562-29.41 65.561-65.561 65.561-65.561-29.411-65.561-65.561zm14 0c0 28.431 23.13 51.561 51.561 51.561s51.561-23.13 51.561-51.561-23.13-51.562-51.561-51.562-51.561 23.13-51.561 51.562zm61.239 19.922c-7.229 3.597-20.677 1.325-23.586-3.988-1.856-3.392-6.113-4.635-9.501-2.779-3.391 1.856-4.635 6.11-2.778 9.501 3.611 6.598 11.04 10.686 19.182 12.271v5.565c0 3.866 3.134 7 7 7s7-3.134 7-7v-5.286c3.213-.508 6.256-1.426 8.92-2.751 6.079-3.025 10.185-8.741 10.981-15.29.955-7.829-2.684-14.586-10.244-19.026-5.059-2.971-10.309-4.221-15.386-5.431-1.694-.404-3.296-.785-4.879-1.226-4.642-1.295-7.146-2.687-8.375-4.654-1.407-2.253-.097-4.174.81-5.118 2.517-2.621 8.552-3.949 14.352-3.16 4.596.626 8.225 2.452 9.47 4.766 1.833 3.403 6.078 4.675 9.482 2.843 3.403-1.833 4.677-6.079 2.844-9.482-3.188-5.917-9.677-10.111-17.975-11.684v-5.487c0-3.866-3.134-7-7-7s-7 3.134-7 7v5.444c-5.782 1.082-10.88 3.532-14.272 7.066-5.968 6.217-7.006 15.151-2.583 22.229 4.104 6.571 10.967 9.182 16.487 10.722 1.841.513 3.648.944 5.396 1.36 4.262 1.015 8.288 1.974 11.539 3.883 3.807 2.236 3.575 4.129 3.438 5.261-.228 1.864-1.469 3.528-3.321 4.449zm-27.727-200.865c-1.875-4.208-1.126-8.951 1.956-12.377l35.176-39.094c2.214-2.458 5.25-3.81 8.553-3.81s6.342 1.353 8.552 3.81l35.176 39.094c3.083 3.426 3.832 8.169 1.957 12.377-1.874 4.208-5.901 6.823-10.509 6.823h-7.947v67.786c0 6.932-5.64 12.571-12.571 12.571h-29.314c-6.932 0-12.571-5.639-12.571-12.571v-67.786h-7.947c-4.607 0-8.635-2.615-10.509-6.823zm16.109-7.177h9.347c3.866 0 7 3.134 7 7v73.356h26.457v-73.356c0-3.866 3.134-7 7-7h9.347l-29.575-32.869-29.575 32.869zm162.699 99.557-22.637 25.158v187.692c0 19.306-15.707 35.012-35.013 35.012h-314.689c-19.305 0-35.012-15.706-35.013-35.011v-386.151c0-19.305 15.706-35.012 35.012-35.012h66.669c1.295-4.177 3.759-7.901 7.258-10.841 5.438-4.569 12.011-6.339 19.006-5.115l24.64 4.307c1.906-20.267 19.017-36.178 39.773-36.178s37.867 15.911 39.774 36.178l24.639-4.307c7-1.224 13.569.546 19.006 5.116 3.557 2.989 6.01 6.667 7.285 10.84h66.642c19.306 0 35.013 15.707 35.013 35.012v75.534c3.669 2.198 6.138 6.201 6.138 10.78v67.786h7.947c4.607 0 8.635 2.615 10.509 6.823 1.876 4.208 1.126 8.952-1.957 12.377zm-57.649-194.312h-65.616v14.181h65.448c3.866 0 7 3.134 7 7v73.574h14.181v-73.743c0-11.586-9.426-21.012-21.013-21.012zm-235.075 21.461h155.459v-28.461c0-2.917-1.085-5.247-3.317-7.123-2.232-1.877-4.717-2.546-7.589-2.042l-32.667 5.71c-2.034.353-4.126-.207-5.708-1.537-1.583-1.33-2.497-3.292-2.497-5.359v-4.526c0-14.31-11.642-25.951-25.951-25.951s-25.95 11.641-25.95 25.951v4.526c0 2.067-.914 4.029-2.497 5.359-1.582 1.33-3.672 1.89-5.708 1.537l-32.668-5.71c-2.873-.503-5.355.166-7.589 2.042-2.232 1.876-3.317 4.207-3.317 7.123v28.461zm-7 14c-3.866 0-7-3.134-7-7v-.281h-58.447v371.812h57.625c.998-4.413 3.187-8.61 6.615-12.039l48.002-48.001c4.062-4.062 9.822-5.395 15.014-4.029 1.281-2.203 1.298-4.86-.09-7.194-8.227-13.829-12.574-29.685-12.574-45.854 0-49.526 40.292-89.818 89.818-89.818s89.817 40.292 89.817 89.818-40.292 89.818-89.817 89.818c-16.17 0-32.026-4.348-45.854-12.573-2.335-1.388-4.992-1.37-7.195-.09 1.365 5.192.032 10.952-4.03 15.014l-24.949 24.949h177.97v-180.52l-22.638-25.161c-3.083-3.425-3.833-8.168-1.957-12.377 1.874-4.208 5.901-6.823 10.509-6.823h7.947v-67.786c0-4.579 2.469-8.583 6.139-10.781v-68.365h-58.448v.28c0 3.866-3.134 7-7 7h-169.459zm23.985 377.684 48.002-48.001c.61-.611.61-1.643 0-2.254l-13.039-13.039c-.612-.612-1.644-.61-2.254 0l-48.001 48.001c-4.217 4.216-4.216 11.076 0 15.292 2.029 2.029 4.744 3.146 7.646 3.146s5.617-1.117 7.646-3.146zm76.281-65.058c11.664 6.938 25.045 10.605 38.697 10.605 41.806 0 75.817-34.012 75.817-75.818s-34.012-75.818-75.817-75.818-75.818 34.012-75.818 75.818c0 13.651 3.667 27.033 10.605 38.697 4.251 7.145 3.872 15.955-.635 22.65l4.501 4.5c6.696-4.507 15.506-4.885 22.65-.635zm-172.882 80.086h78.886c-2.755-1.219-5.289-2.94-7.477-5.129-2.644-2.644-4.539-5.749-5.738-9.052h-65.503c-3.866 0-7-3.134-7-7v-385.811c0-3.866 3.134-7 7-7h65.447v-14.18h-65.616c-11.586 0-21.012 9.426-21.012 21.012v386.15c0 11.586 9.427 21.012 21.013 21.012zm335.703-21.012v-172.403c-2.009 1.588-4.461 2.457-7.091 2.457s-5.08-.869-7.09-2.456v172.233c0 3.866-3.134 7-7 7h-198.97l-9.052 9.052c-2.188 2.189-4.722 3.91-7.476 5.129h215.667c11.587 0 21.013-9.426 21.013-21.012zm22.483-218.05h-9.346c-3.866 0-7-3.134-7-7v-73.356h-26.457v73.356c0 3.866-3.134 7-7 7h-9.346l29.574 32.869 29.574-32.869zm-200.84-222.543c-5.618 0-10.2 4.582-10.2 10.2s4.582 10.2 10.2 10.2 10.2-4.582 10.2-10.2-4.582-10.2-10.2-10.2z" fill-rule="evenodd" fill="#be1717ff" data-original-color="#000000ff"/></g></svg>