<svg id="Layer_1" enable-background="new 0 0 512 512" viewBox="0 0 512 512" xmlns="http://www.w3.org/2000/svg" width="300" height="300" version="1.1" xmlns:xlink="http://www.w3.org/1999/xlink" xmlns:svgjs="http://svgjs.dev/svgjs"><g transform="matrix(1,0,0,1,0,0)"><path clip-rule="evenodd" d="m424.444 302.689h43.996c4.418 0 8 3.582 8 8v175.311c0 4.418-3.582 8-8 8h-43.996c-4.418 0-8-3.582-8-8v-175.311c0-4.418 3.582-8 8-8zm-339.084 71.726c29.059 16.853 62.68 23.451 93.511 13.652-30.413-2.156-59.684-13.959-83.185-33.818-4.186-3.538-3.838-10.482 1.751-13.315l17.023-9.259-76.132-11.115 29.104 75.681 6.429-17.639c1.703-4.687 7.221-6.641 11.499-4.187zm66.439 34.126c-22.068.537-44.731-4.984-66.111-15.797l-10.549 28.94-.014-.005c-2.494 6.871-12.277 7.031-14.924.13l-41.414-107.692c-.653-1.369-.923-2.939-.693-4.553.621-4.366 4.665-7.402 9.031-6.781l113.308 16.544-.002.014c7.544 1.08 9.42 11.228 2.69 14.892l-27.698 15.065c12.478 8.698 26.327 15.071 40.854 18.906 18.218 4.809 37.501 5.629 56.481 2.04l.003.014c2.815-.524 5.818.49 7.716 2.892 2.727 3.452 2.139 8.461-1.313 11.187-20.089 15.875-43.339 23.62-67.365 24.204zm226.436-111.029c-5.048 0-9.681 1.782-13.303 4.751l-27.125-14.635c1.291-12.424-8.436-23.198-20.886-23.198-14.568 0-24.648 14.48-19.774 28.083l-19.801 17.865c-3.279 2.951-3.545 8.002-.594 11.281s8.002 3.545 11.281.594l19.816-17.879c7.367 3.535 16.107 2.443 22.375-2.695l27.125 14.635c-1.292 12.422 8.435 23.198 20.886 23.198 14.953 0 25.048-15.199 19.454-28.92l80.311-78.848v13.34c0 4.418 3.582 8 8 8s8-3.582 8-8v-32.373c0-4.418-3.582-8-8-8h-32.414c-4.418 0-8 3.582-8 8s3.582 8 8 8h12.879l-79.953 78.496c-2.54-1.091-5.338-1.695-8.277-1.695zm3.536 17.463c1.952 1.952 1.952 5.121 0 7.073-3.138 3.138-8.536.91-8.536-3.536 0-4.448 5.398-6.674 8.536-3.537zm-61.314-33.081c1.952 1.952 1.952 5.121 0 7.072-3.138 3.138-8.536.91-8.536-3.536 0-4.447 5.399-6.674 8.536-3.536zm85.498-73.652-33.309 24.389c-7.499-62.719-60.887-110.728-124.922-110.728-66.607 0-121.431 51.867-125.569 117.82h-88.155v-20.163h46.548v-.006c3.686.003 7.003-2.558 7.813-6.306 2.083-9.619 5.001-18.984 8.719-27.973 3.636-8.791 8.075-17.321 13.283-25.473 2.309-3.13 2.046-7.562-.788-10.396l-32.892-32.892 39.831-39.831 32.916 32.916.01-.01c2.596 2.601 6.739 3.138 9.958 1.073 8.355-5.374 17.05-9.917 25.999-13.63 8.923-3.701 18.124-6.579 27.517-8.633 3.773-.644 6.646-3.929 6.646-7.885v-46.514h56.327v46.548h.006c-.003 3.686 2.558 7.003 6.306 7.813 9.619 2.083 18.984 5.001 27.973 8.719 8.791 3.636 17.321 8.075 25.473 13.283 3.13 2.308 7.562 2.046 10.396-.788l32.892-32.892 39.83 39.831-32.917 32.916.01.01c-2.601 2.596-3.139 6.739-1.073 9.958 9.745 15.162 16.84 31.486 21.172 48.844zm7.211-28.971c4.137 9.973 7.33 20.205 9.581 30.601l-.009.002c.642 2.984-.464 6.202-3.085 8.123l-48.964 35.851c-5.784 4.541-13.145.23-13.145-6.126 0-60.654-49.166-109.82-109.821-109.82-60.654 0-109.82 49.167-109.82 109.82 0 4.418-3.582 8-8 8h-103.903c-4.418 0-8-3.582-8-8v-36.162c0-4.418 3.582-8 8-8h48.224c4.219-16.532 10.856-32.595 19.575-47.306l-34.085-34.085c-3.124-3.124-3.124-8.189 0-11.313l51.143-51.143c3.124-3.124 8.189-3.124 11.313 0l34.106 34.107c14.811-8.803 30.706-15.404 47.285-19.632v-48.188c0-4.418 3.582-8 8-8h72.327c4.418 0 8 3.582 8 8v48.224c16.533 4.219 32.595 10.856 47.306 19.574l34.085-34.085c3.124-3.124 8.189-3.124 11.313 0l51.143 51.143c3.124 3.124 3.124 8.189 0 11.313l-34.107 34.106c4.432 7.458 8.278 15.14 11.538 22.996zm-172.507 121.239c1.793 8.193 13.537 8.39 15.549.206 1.331-5.414 21.353-90.237 21.353-114.629 0-7.392-3.452-14.033-9.011-18.777-18.589-15.858-49.194-3.878-49.194 18.777-.001 24.194 19.408 106.456 21.303 114.423zm.012-75.862c2.373 12.677 5.2 26.209 7.788 38.095 4.057-18.635 13.103-61.476 13.103-76.656 0-8.808-14.566-13.693-22.819-6.652-2.089 1.782-3.386 4.143-3.386 6.652-.002 7.626 2.276 22.337 5.314 38.561zm7.787 101.554c18.644 0 28.048 22.649 14.849 35.849-13.199 13.199-35.849 3.795-35.849-14.849 0-11.597 9.404-21 21-21zm3.536 17.463c-3.138-3.138-8.536-.911-8.536 3.536 0 4.446 5.398 6.674 8.536 3.536 1.952-1.951 1.952-5.12 0-7.072zm-25.534 73.374c-4.418 0-8 3.582-8 8v60.961c0 4.418 3.582 8 8 8h43.997c4.418 0 8-3.582 8-8v-60.961c0-4.418-3.582-8-8-8zm35.996 16v44.961h-27.996v-44.961zm29.998-83.244h43.997c4.418 0 8 3.582 8 8v128.205c0 4.418-3.582 8-8 8h-43.997c-4.418 0-8-3.582-8-8v-128.205c.001-4.418 3.582-8 8-8zm35.997 16h-27.997v112.205h27.997zm65.995 20.626h-27.997v91.579h27.997zm-35.997-16h43.997c4.418 0 8 3.582 8 8v107.579c0 4.418-3.582 8-8 8h-43.997c-4.418 0-8-3.582-8-8v-107.579c0-4.418 3.582-8 8-8zm101.991-51.732h-27.996v159.311h27.996z" fill-rule="evenodd" fill="#be1717ff" data-original-color="#000000ff"/></g></svg>