<svg height="300" viewBox="0 0 64 64" width="300" xmlns="http://www.w3.org/2000/svg" version="1.1" xmlns:xlink="http://www.w3.org/1999/xlink" xmlns:svgjs="http://svgjs.dev/svgjs"><g transform="matrix(1,0,0,1,0,0)"><path d="m56.34863 45.61865a3.8925 3.8925 0 0 1 -.93261-1.04c-.1635-1.31775.92057-3.23059-.08993-4.52147-.9226-1.35927-3.0522-.92753-4.27242-1.47747a3.96185 3.96185 0 0 1 -.7192-1.23446c-.75577-2.02019-2.23657-3.19842-4.33447-1.986v-29.07068a4.00427 4.00427 0 0 0 -4-4h-32a4.00427 4.00427 0 0 0 -4 4v44a4.00426 4.00426 0 0 0 4 4h22.29718c-.43742 2.31483 1.14172 3.29682 3.23317 3.3964a3.99665 3.99665 0 0 1 1.41594.31259 3.9596 3.9596 0 0 1 .71924 1.23437c.971 2.53513 2.63391 3.16253 4.95266 1.65027a3.93516 3.93516 0 0 1 1.38181-.59363c1.30545.237 2.79354 1.87467 4.32716 1.31828 1.58628-.45649 1.83383-2.61023 2.72648-3.60935 1.21806-.5504 3.35116-.1179 4.27249-1.47756 1.01037-1.2887-.07282-3.20674.08931-4.52239a3.923 3.923 0 0 1 .9327-1.039c2.17206-1.75467 2.19077-3.57218.00049-5.3399zm-48.34863 4.66992v-44a2.0023 2.0023 0 0 1 2-2h32a2.0023 2.0023 0 0 1 2 2v30c-1.3094-.23548-2.78919-1.875-4.32717-1.31827-1.58528.456-1.83453 2.61057-2.72647 3.60935-1.22121.55189-3.34889.11682-4.2725 1.47756-1.00927 1.28818.072 3.20712-.0893 4.52239a3.923 3.923 0 0 1 -.9327 1.03905c-2.17912 1.76242-2.18558 3.57246-.00038 5.33984.48447.477.98793.7926.9665 1.33008h-22.61798a2.00229 2.00229 0 0 1 -2-2zm46.99951-.80664a4.7542 4.7542 0 0 0 -1.48633 1.89844 4.91383 4.91383 0 0 0 .08008 2.47754c.09668.48145.25928 1.28809.11572 1.48438-.94031.55553-2.8782.229-3.832 1.03818-1.05434.64637-1.35235 2.63327-2.16743 3.3242-1.098-.14836-2.42221-1.49037-3.70959-1.416-1.28789-.07483-2.60933 1.27076-3.70941 1.41606-.81288-.70145-1.11513-2.67022-2.16808-3.3243-.954-.80387-2.89266-.48669-3.83152-1.038-.21558-1.06849.663-2.80233.19528-3.962-.29261-1.20095-2.09674-2.09-2.48636-3.09173.00012-.27936.60217-.82917 1.00061-1.19343a4.75411 4.75411 0 0 0 1.48633-1.89843 4.91383 4.91383 0 0 0 -.08008-2.47754c-.09668-.48145-.25928-1.28809-.11572-1.48438.14892-.20507.97412-.2998 1.46679-.35644a4.85243 4.85243 0 0 0 2.36524-.68164 4.83223 4.83223 0 0 0 1.36425-2.02442c.24841-.50454.53625-1.27256.86229-1.30763 1.13915.26216 2.3439 1.46446 3.65043 1.42379 1.2877.07751 2.60988-1.27266 3.70943-1.41609.81271.70092 1.11524 2.67059 2.16807 3.32429.95407.8042 2.89259.48647 3.83152 1.038.21451 1.06316-.66223 2.8061-.19528 3.962.29326 1.20436 2.09627 2.08752 2.48636 3.09175-.00011.27934-.60211.82915-1.0006 1.1934z" fill="#be1717ff" data-original-color="#000000ff"/><path d="m51.707 42.58154c-.62772-.59041-1.308-.21-1.77386.35981a7.98394 7.98394 0 1 0 1.162 1.66607l.61182-.61181a.99964.99964 0 0 0 .00004-1.41407zm-1.707 5.70703c-.28151 7.941-11.71961 7.93921-12-.00009a6.01228 6.01228 0 0 1 10.51971-3.93368l-4.01971 4.01971-1.793-1.793a1.00008 1.00008 0 0 0 -1.414 1.41411l2.49995 2.5a.99965.99965 0 0 0 1.41406 0l4.37966-4.37962a5.95989 5.95989 0 0 1 .41333 2.17257z" fill="#be1717ff" data-original-color="#000000ff"/><path d="m14 21.28857h7a3.00328 3.00328 0 0 0 3-3v-5.08593l1.707-1.707a1.00008 1.00008 0 0 0 -1.4141-1.414l-.413.413a2.99552 2.99552 0 0 0 -2.8799-2.20607h-7a3.00328 3.00328 0 0 0 -3 3v7a3.00328 3.00328 0 0 0 3 3zm-1-10a1.001 1.001 0 0 1 1-1h7a1.001 1.001 0 0 1 1 1v1.08594l-3.5 3.5-1.793-1.793a1.00008 1.00008 0 0 0 -1.414 1.41411l2.5 2.5a.99964.99964 0 0 0 1.41406 0l2.79294-2.79298v3.08593a1.001 1.001 0 0 1 -1 1h-7a1.001 1.001 0 0 1 -1-1z" fill="#be1717ff" data-original-color="#000000ff"/><path d="m30 11.28857h10a1.0001 1.0001 0 0 0 -.00005-2h-9.99995a1.00011 1.00011 0 0 0 0 2z" fill="#be1717ff" data-original-color="#000000ff"/><path d="m30 16.28857h10a1.0001 1.0001 0 0 0 -.00005-2h-9.99995a1.00011 1.00011 0 0 0 0 2z" fill="#be1717ff" data-original-color="#000000ff"/><path d="m40 19.28857h-5a1.0001 1.0001 0 0 0 0 2h5a1.0001 1.0001 0 0 0 0-2z" fill="#be1717ff" data-original-color="#000000ff"/><path d="m14 38.28857h7a3.00328 3.00328 0 0 0 3-3v-7a3.00328 3.00328 0 0 0 -3-3h-7a3.00328 3.00328 0 0 0 -3 3v7a3.00328 3.00328 0 0 0 3 3zm-1-10a1.001 1.001 0 0 1 1-1h7a1.001 1.001 0 0 1 1 1v7a1.001 1.001 0 0 1 -1 1h-7a1.001 1.001 0 0 1 -1-1z" fill="#be1717ff" data-original-color="#000000ff"/><path d="m30 28.28857h10a1.0001 1.0001 0 0 0 -.00005-2h-9.99995a1.00011 1.00011 0 0 0 0 2z" fill="#be1717ff" data-original-color="#000000ff"/><path d="m40 33.28857a1.0001 1.0001 0 0 0 -.00005-2h-9.99995a1.00011 1.00011 0 0 0 .00005 2z" fill="#be1717ff" data-original-color="#000000ff"/><path d="m26 42.28857h-14a1.00011 1.00011 0 0 0 0 2h14a1.00011 1.00011 0 0 0 0-2z" fill="#be1717ff" data-original-color="#000000ff"/><path d="m21 46.28857h-9a1.0001 1.0001 0 0 0 0 2h9a1.00011 1.00011 0 0 0 0-2z" fill="#be1717ff" data-original-color="#000000ff"/><path d="m14.293 34.99561a.99964.99964 0 0 0 1.41406 0l1.793-1.793 1.793 1.793a.99989.99989 0 0 0 1.41394-1.41407l-1.793-1.793 1.793-1.793a.99989.99989 0 0 0 -1.414-1.414l-1.793 1.793-1.793-1.793a.99989.99989 0 0 0 -1.414 1.41407l1.793 1.793-1.793 1.793a.99964.99964 0 0 0 0 1.414z" fill="#be1717ff" data-original-color="#000000ff"/></g></svg>