<svg id="line" height="300" viewBox="0 0 64 64" width="300" xmlns="http://www.w3.org/2000/svg" version="1.1" xmlns:xlink="http://www.w3.org/1999/xlink" xmlns:svgjs="http://svgjs.dev/svgjs"><g transform="matrix(1,0,0,1,0,0)"><path d="m52.93555 31.89844h-2.64014v-1a3.00328 3.00328 0 0 0 -3-3h-2.71973a3.00328 3.00328 0 0 0 -3 3v1h-2.64013a2.002 2.002 0 0 0 -2 2v10a2.002 2.002 0 0 0 2 2h14a2.002 2.002 0 0 0 2-2v-10a2.002 2.002 0 0 0 -2-2zm-9.35987-1a1.0013 1.0013 0 0 1 1-1h2.71973a1.0013 1.0013 0 0 1 1 1v1h-4.71973zm-4.64013 3h14l.0003 2h-14.0003zm0 10v-6h14.00061l.00085 6z" fill="#be1717ff" data-original-color="#000000ff"/><path d="m32.002 49.1344-24.49266-.03809a1.51291 1.51291 0 0 1 -1.50824-1.522l.10449-25.22015a1.52852 1.52852 0 0 1 1.52341-1.51456l23.23047.061a3.53067 3.53067 0 0 0 2.50482-1.04535l5.30951-5.36169a1.53128 1.53128 0 0 1 1.08685-.456h9.64135a1.51523 1.51523 0 0 1 1.517 1.51165l.01465 4.45453a1.00013 1.00013 0 0 0 2-.00689l-.01465-4.45105a3.51652 3.51652 0 0 0 -3.517-3.50824h-9.64138a3.5197 3.5197 0 0 0 -2.50433 1.04541l-.42408.42822h-29.48986a1 1 0 0 0 -.99994 1v4.58075a3.53057 3.53057 0 0 0 -2.23682 3.25207l-.10449 25.22008a3.52944 3.52944 0 0 0 3.50677 3.5321l24.49121.03815a1 1 0 1 0 .00292-1.99994zm-23.65965-33.62335h26.50921l-2.91156 2.93988a1.52 1.52 0 0 1 -1.07812.4497l-22.51953-.05914z" fill="#be1717ff" data-original-color="#000000ff"/><path d="m45.93579 23.83417a14.06415 14.06415 0 1 0 14.06415 14.06415 14.07979 14.07979 0 0 0 -14.06415-14.06415zm0 26.12835a12.06421 12.06421 0 1 1 12.06421-12.0642 12.07788 12.07788 0 0 1 -12.06421 12.0642z" fill="#be1717ff" data-original-color="#000000ff"/></g></svg>