<svg xmlns="http://www.w3.org/2000/svg" xmlns:xlink="http://www.w3.org/1999/xlink" version="1.1" id="Capa_1" x="0px" y="0px" viewBox="0 0 512 512" style="enable-background:new 0 0 512 512;" xml:space="preserve" width="300" height="300" xmlns:svgjs="http://svgjs.dev/svgjs"><g transform="matrix(1,0,0,1,0,0)"><g>
	
		<circle style="stroke-linecap: round; stroke-linejoin: round; stroke-miterlimit: 10;" cx="417.361" cy="69.773" r="62.273" stroke-width="15" data-original-stroke-width="15" fill="none" stroke="#be1717ff" data-original-stroke-color="#000000ff"/>
	<g>
		
			<line style="stroke-linecap: round; stroke-linejoin: round; stroke-miterlimit: 10;" x1="386.064" y1="123.618" x2="325.11" y2="184.572" stroke-width="15" data-original-stroke-width="15" fill="none" stroke="#be1717ff" data-original-stroke-color="#000000ff"/>
		
			<line style="stroke-linecap: round; stroke-linejoin: round; stroke-miterlimit: 10;" x1="364.392" y1="102.525" x2="300.093" y2="166.823" stroke-width="15" data-original-stroke-width="15" fill="none" stroke="#be1717ff" data-original-stroke-color="#000000ff"/>
	</g>
	
		<circle style="stroke-linecap: round; stroke-linejoin: round; stroke-miterlimit: 10;" cx="94.639" cy="69.773" r="62.273" stroke-width="15" data-original-stroke-width="15" fill="none" stroke="#be1717ff" data-original-stroke-color="#000000ff"/>
	
		<circle style="stroke-linecap: round; stroke-linejoin: round; stroke-miterlimit: 10;" cx="94.639" cy="69.773" r="29.901" stroke-width="15" data-original-stroke-width="15" fill="none" stroke="#be1717ff" data-original-stroke-color="#000000ff"/>
	<g>
		
			<line style="stroke-linecap: round; stroke-linejoin: round; stroke-miterlimit: 10;" x1="186.89" y1="184.572" x2="125.936" y2="123.618" stroke-width="15" data-original-stroke-width="15" fill="none" stroke="#be1717ff" data-original-stroke-color="#000000ff"/>
		
			<line style="stroke-linecap: round; stroke-linejoin: round; stroke-miterlimit: 10;" x1="211.907" y1="166.823" x2="147.608" y2="102.525" stroke-width="15" data-original-stroke-width="15" fill="none" stroke="#be1717ff" data-original-stroke-color="#000000ff"/>
	</g>
	
		<circle style="stroke-linecap: round; stroke-linejoin: round; stroke-miterlimit: 10;" cx="417.361" cy="442.227" r="62.273" stroke-width="15" data-original-stroke-width="15" fill="none" stroke="#be1717ff" data-original-stroke-color="#000000ff"/>
	<g>
		
			<line style="stroke-linecap: round; stroke-linejoin: round; stroke-miterlimit: 10;" x1="364.392" y1="409.472" x2="299.524" y2="344.604" stroke-width="15" data-original-stroke-width="15" fill="none" stroke="#be1717ff" data-original-stroke-color="#000000ff"/>
		
			<line style="stroke-linecap: round; stroke-linejoin: round; stroke-miterlimit: 10;" x1="360.926" y1="363.24" x2="324.681" y2="326.995" stroke-width="15" data-original-stroke-width="15" fill="none" stroke="#be1717ff" data-original-stroke-color="#000000ff"/>
	</g>
	
		<circle style="stroke-linecap: round; stroke-linejoin: round; stroke-miterlimit: 10;" cx="94.639" cy="442.227" r="62.273" stroke-width="15" data-original-stroke-width="15" fill="none" stroke="#be1717ff" data-original-stroke-color="#000000ff"/>
	<g>
		
			<line style="stroke-linecap: round; stroke-linejoin: round; stroke-miterlimit: 10;" x1="212.476" y1="344.604" x2="147.608" y2="409.472" stroke-width="15" data-original-stroke-width="15" fill="none" stroke="#be1717ff" data-original-stroke-color="#000000ff"/>
		
			<line style="stroke-linecap: round; stroke-linejoin: round; stroke-miterlimit: 10;" x1="187.319" y1="326.995" x2="125.936" y2="388.378" stroke-width="15" data-original-stroke-width="15" fill="none" stroke="#be1717ff" data-original-stroke-color="#000000ff"/>
	</g>
	
		<circle style="stroke-linecap: round; stroke-linejoin: round; stroke-miterlimit: 10;" cx="256" cy="48.617" r="20.569" stroke-width="15" data-original-stroke-width="15" fill="none" stroke="#be1717ff" data-original-stroke-color="#000000ff"/>
	
		<line style="stroke-linecap: round; stroke-linejoin: round; stroke-miterlimit: 10;" x1="256" y1="69.186" x2="256" y2="156.48" stroke-width="15" data-original-stroke-width="15" fill="none" stroke="#be1717ff" data-original-stroke-color="#000000ff"/>
	<g>
		
			<circle style="stroke-linecap: round; stroke-linejoin: round; stroke-miterlimit: 10;" cx="256" cy="470.803" r="20.569" stroke-width="15" data-original-stroke-width="15" fill="none" stroke="#be1717ff" data-original-stroke-color="#000000ff"/>
		
			<line style="stroke-linecap: round; stroke-linejoin: round; stroke-miterlimit: 10;" x1="256" y1="450.234" x2="256" y2="354.658" stroke-width="15" data-original-stroke-width="15" fill="none" stroke="#be1717ff" data-original-stroke-color="#000000ff"/>
	</g>
	<g>
		
			<circle style="stroke-linecap: round; stroke-linejoin: round; stroke-miterlimit: 10;" cx="49.146" cy="260.56" r="20.569" stroke-width="15" data-original-stroke-width="15" fill="none" stroke="#be1717ff" data-original-stroke-color="#000000ff"/>
		
			<line style="stroke-linecap: round; stroke-linejoin: round; stroke-miterlimit: 10;" x1="69.714" y1="260.56" x2="157.036" y2="260.56" stroke-width="15" data-original-stroke-width="15" fill="none" stroke="#be1717ff" data-original-stroke-color="#000000ff"/>
	</g>
	<g>
		
			<circle style="stroke-linecap: round; stroke-linejoin: round; stroke-miterlimit: 10;" cx="462.854" cy="260.56" r="20.569" stroke-width="15" data-original-stroke-width="15" fill="none" stroke="#be1717ff" data-original-stroke-color="#000000ff"/>
		
			<line style="stroke-linecap: round; stroke-linejoin: round; stroke-miterlimit: 10;" x1="442.286" y1="260.56" x2="355.089" y2="260.56" stroke-width="15" data-original-stroke-width="15" fill="none" stroke="#be1717ff" data-original-stroke-color="#000000ff"/>
	</g>
	<path style="stroke-linecap: round; stroke-linejoin: round; stroke-miterlimit: 10;" d="&#10;&#9;&#9;M161.577,225.433c12.752-39.99,50.205-68.952,94.423-68.952c54.725,0,99.089,44.364,99.089,99.089S310.725,354.658,256,354.658&#10;&#9;&#9;c-53.015,0-96.306-41.634-98.96-93.99" stroke-width="15" data-original-stroke-width="15" fill="none" stroke="#be1717ff" data-original-stroke-color="#000000ff"/>
	
		<ellipse transform="matrix(0.1602 -0.9871 0.9871 0.1602 -37.2213 467.3898)" style="stroke-linecap: round; stroke-linejoin: round; stroke-miterlimit: 10;" cx="256.065" cy="255.569" rx="71.598" ry="71.599" stroke-width="15" data-original-stroke-width="15" fill="none" stroke="#be1717ff" data-original-stroke-color="#000000ff"/>
	
		<line style="stroke-linecap: round; stroke-linejoin: round; stroke-miterlimit: 10;" x1="227.719" y1="283.915" x2="284.41" y2="227.223" stroke-width="15" data-original-stroke-width="15" fill="none" stroke="#be1717ff" data-original-stroke-color="#000000ff"/>
	<path style="stroke-linecap: round; stroke-linejoin: round; stroke-miterlimit: 10;" d="&#10;&#9;&#9;M440.072,90.53h-45.42c-3.681,0-6.004-3.961-4.206-7.173l22.71-40.585c1.84-3.288,6.572-3.288,8.412,0l22.71,40.585&#10;&#9;&#9;C446.075,86.569,443.753,90.53,440.072,90.53z" stroke-width="15" data-original-stroke-width="15" fill="none" stroke="#be1717ff" data-original-stroke-color="#000000ff"/>
	<path style="stroke-linecap: round; stroke-linejoin: round; stroke-miterlimit: 10;" d="&#10;&#9;&#9;M113.214,465.875H76.061c-2.801,0-5.072-2.271-5.072-5.072v-37.153c0-2.801,2.271-5.072,5.072-5.072h37.153&#10;&#9;&#9;c2.801,0,5.072,2.271,5.072,5.072v37.153C118.286,463.605,116.015,465.875,113.214,465.875z" stroke-width="15" data-original-stroke-width="15" fill="none" stroke="#be1717ff" data-original-stroke-color="#000000ff"/>
	<path style="stroke-linecap: round; stroke-linejoin: round; stroke-miterlimit: 10;" d="&#10;&#9;&#9;M442.039,450.993l6.28-6.28c1.373-1.373,1.373-3.598,0-4.971l-6.28-6.28c-0.659-0.659-1.03-1.553-1.03-2.486v-8.882&#10;&#9;&#9;c0-1.941-1.574-3.515-3.515-3.515h-8.881c-0.932,0-1.826-0.37-2.486-1.03l-6.28-6.28c-1.373-1.373-3.598-1.373-4.971,0l-6.28,6.28&#10;&#9;&#9;c-0.659,0.659-1.553,1.03-2.486,1.03h-8.881c-1.941,0-3.515,1.574-3.515,3.515v8.882c0,0.932-0.37,1.826-1.03,2.486l-6.28,6.28&#10;&#9;&#9;c-1.373,1.373-1.373,3.598,0,4.971l6.28,6.28c0.659,0.659,1.03,1.553,1.03,2.486v8.882c0,1.941,1.574,3.515,3.515,3.515h8.881&#10;&#9;&#9;c0.932,0,1.826,0.37,2.486,1.03l6.28,6.28c1.373,1.373,3.598,1.373,4.971,0l6.28-6.28c0.659-0.659,1.553-1.03,2.486-1.03h8.881&#10;&#9;&#9;c1.941,0,3.515-1.574,3.515-3.515v-8.882C441.009,452.546,441.38,451.652,442.039,450.993z" stroke-width="15" data-original-stroke-width="15" fill="none" stroke="#be1717ff" data-original-stroke-color="#000000ff"/>
</g></g></svg>