<svg id="Layer_1" height="300" viewBox="0 0 66 66" width="300" xmlns="http://www.w3.org/2000/svg" version="1.1" xmlns:xlink="http://www.w3.org/1999/xlink" xmlns:svgjs="http://svgjs.dev/svgjs"><g transform="matrix(1,0,0,1,0,0)"><g id="XMLID_36_"><path id="XMLID_426_" d="m44.6 17.6c0-6.4-5.2-11.6-11.6-11.6s-11.6 5.2-11.6 11.6 5.2 11.6 11.6 11.6 11.6-5.2 11.6-11.6zm-21.3 0c0-5.3 4.4-9.7 9.7-9.7s9.7 4.4 9.7 9.7-4.3 9.7-9.7 9.7c-5.3 0-9.7-4.4-9.7-9.7z" fill="#be1717ff" data-original-color="#000000ff"/><path id="XMLID_427_" d="m34 23.8v-.6c1.4-.4 2.4-1.7 2.4-3.2 0-1.9-1.5-3.4-3.4-3.4-.8 0-1.4-.6-1.4-1.4s.6-1.4 1.4-1.4 1.4.6 1.4 1.4c0 .5.4 1 1 1s1-.4 1-1c0-1.5-1-2.8-2.4-3.2v-.6c0-.5-.4-1-1-1-.5 0-1 .4-1 1v.6c-1.4.4-2.4 1.7-2.4 3.2 0 1.9 1.5 3.4 3.4 3.4.8 0 1.4.6 1.4 1.4s-.6 1.4-1.4 1.4-1.4-.6-1.4-1.4c0-.5-.4-1-1-1s-1 .4-1 1c0 1.5 1 2.8 2.4 3.2v.6c0 .5.4 1 1 1 .5 0 1-.5 1-1z" fill="#be1717ff" data-original-color="#000000ff"/><path id="XMLID_430_" d="m58.4 49.8v-7.3c0-.5-.4-1-1-1h-23.4v-7.5c8.6-.5 15.5-7.7 15.5-16.4 0-9.1-7.4-16.5-16.5-16.5s-16.5 7.4-16.5 16.5c0 8.8 6.9 15.9 15.5 16.4v7.5h-23.4c-.5 0-1 .4-1 1v7.3c-3.7.5-6.6 3.7-6.6 7.5 0 4.2 3.4 7.6 7.6 7.6s7.6-3.4 7.6-7.6c0-3.9-2.9-7-6.6-7.5v-6.4h22.4v6.4c-3.7.5-6.6 3.7-6.6 7.5 0 4.2 3.4 7.6 7.6 7.6s7.6-3.4 7.6-7.6c0-3.9-2.9-7-6.6-7.5v-6.4h22.5v6.4c-3.7.5-6.6 3.7-6.6 7.5 0 4.2 3.4 7.6 7.6 7.6s7.6-3.4 7.6-7.6c-.1-3.8-3-7-6.7-7.5zm-39.9-32.2c0-8.1 6.5-14.6 14.5-14.6s14.5 6.5 14.5 14.5-6.5 14.5-14.5 14.5c-8 .1-14.5-6.4-14.5-14.4zm-4.2 39.7c0 3.1-2.5 5.7-5.7 5.7s-5.7-2.5-5.7-5.7c0-3.1 2.5-5.6 5.6-5.6h.1.1c3.1 0 5.6 2.5 5.6 5.6zm24.4 0c0 3.1-2.5 5.7-5.7 5.7s-5.7-2.5-5.7-5.7c0-3.1 2.5-5.7 5.7-5.7s5.7 2.6 5.7 5.7zm18.7 5.7c-3.1 0-5.7-2.5-5.7-5.7 0-3.1 2.5-5.6 5.6-5.6h.1.1c3.1.1 5.6 2.6 5.6 5.6 0 3.1-2.6 5.7-5.7 5.7z" fill="#be1717ff" data-original-color="#000000ff"/></g></g></svg>