<svg id="Outline" viewBox="0 0 32 32" xmlns="http://www.w3.org/2000/svg" width="300" height="300" version="1.1" xmlns:xlink="http://www.w3.org/1999/xlink" xmlns:svgjs="http://svgjs.dev/svgjs"><g transform="matrix(1,0,0,1,0,0)"><path d="m16 1.5c-3.1552734 0-6.1630859 1.0029297-8.6992188 2.8994141-.2211914.1650391-.2666016.4785156-.1010742.7001953.1650391.2207031.4780273.2675781.699707.1005859 2.2269897-1.6657104 4.8464355-2.5800781 7.6005859-2.6802979v2.0054321c-6.1085815.2645264-11 5.3026123-11 11.4746704 0 2.9060669 1.0795288 5.6384277 3.0301514 7.7633057l-1.4124146 1.4124146c-2.3286133-2.5136108-3.6177368-5.7467041-3.6177368-9.1757202 0-2.9365234.9335938-5.7382812 2.7001953-8.1005859.1655273-.2216797.1201172-.5351562-.1010742-.7001953-.2216797-.1660156-.534668-.1191406-.699707.1005859-1.8969727 2.5371094-2.8994141 5.5458984-2.8994141 8.7001953 0 3.8632812 1.5078125 7.5048828 4.2470703 10.2548828 2.7495117 2.7373047 6.390625 4.2451172 10.2529297 4.2451172 7.9951172 0 14.5-6.5048828 14.5-14.5s-6.5048827-14.5-14.4999999-14.5zm13.4746704 14h-2c-.2572632-5.9411011-5.0331421-10.7174072-10.9746704-10.9746704v-2c7.0439453.2598877 12.7148438 5.9302979 12.9746704 12.9746704zm-13.4746704-10c5.7895508 0 10.5 4.7099609 10.5 10.5s-4.7104492 10.5-10.5 10.5c-2.805603 0-5.442627-1.0913086-7.4255371-3.0721436-.0003052-.0003052-.0004272-.0007935-.0007324-.0010986-.0003662-.0003662-.0008545-.0004272-.0012207-.0007935-1.9814453-1.9824219-3.0725098-4.6196899-3.0725098-7.4259644 0-5.7900391 4.7104492-10.5 10.5-10.5zm0 24c-3.4291382 0-6.6622314-1.2895508-9.1752319-3.6172485l1.4125366-1.4125366c2.1256104 1.9503784 4.8577271 3.0297852 7.7626953 3.0297852 6.1725464 0 11.210144-4.8919067 11.4746704-11h2c-.2659912 7.2116699-6.199585 13-13.4746704 13z" fill="#be1717ff" data-original-color="#000000ff" stroke="none"/><path d="m11 23.5h10c.8271484 0 1.5-.6728516 1.5-1.5 0-.6523438-.4179688-1.2080078-1-1.4140625v-5.5859375c0-1.2434692-.9146118-2.2689209-2.1045532-2.460022.0652466-.1680908.1045532-.3491211.1045532-.539978 0-.5960083-.3519897-1.107605-.8566895-1.3493652l.8308105-2.4924316c.0639648-.1923828.0063477-.4033203-.1464844-.5361328-.1533203-.1328125-.371582-.1591797-.5512695-.0693359l-.7348633.3671875c-.5654297.28125-1.2426758.171875-1.6879883-.2734375-.1875-.1875-.5195312-.1875-.7070312 0-.4458008.4453125-1.1240234.5546875-1.6879883.2734375l-.7348633-.3671875c-.1811523-.0898438-.3989258-.0634766-.5512695.0693359-.152832.1328125-.2104492.34375-.1464844.5361328l.8308105 2.4924316c-.5046997.2417603-.8566895.7533569-.8566895 1.3493652 0 .1908569.0393066.3718872.1045532.539978-1.1899414.1911011-2.1045532 1.2165527-2.1045532 2.460022v5.5859375c-.5820312.2060547-1 .7617188-1 1.4140625 0 .8271484.6728516 1.5 1.5 1.5zm2.5-11.5c0-.2753906.2241211-.5.5-.5h4c.2758789 0 .5.2246094.5.5s-.2241211.5-.5.5h-4c-.2758789 0-.5-.2246094-.5-.5zm2.5-3.3525391c.6303711.4296875 1.4282227.5429688 2.1557617.3046875l-.5159302 1.5478516h-3.2796631l-.5159302-1.5478516c.7290039.2382812 1.5253906.125 2.1557617-.3046875zm-5 12.8525391c.2763672 0 .5-.2236328.5-.5v-6c0-.8271484.6728516-1.5 1.5-1.5h6c.8271484 0 1.5.6728516 1.5 1.5v6c0 .2763672.2236328.5.5.5.2758789 0 .5.2246094.5.5s-.2241211.5-.5.5h-10c-.2758789 0-.5-.2246094-.5-.5s.2241211-.5.5-.5z" fill="#be1717ff" data-original-color="#000000ff" stroke="none"/><path d="m14 19.5c-.2763672 0-.5.2236328-.5.5s.2236328.5.5.5h1.5v.5c0 .2763672.2236328.5.5.5s.5-.2236328.5-.5v-.5h.5c.8271484 0 1.5-.6728516 1.5-1.5s-.6728516-1.5-1.5-1.5h-.5v-1h1.5c.2763672 0 .5-.2236328.5-.5s-.2236328-.5-.5-.5h-1.5v-.5c0-.2763672-.2236328-.5-.5-.5s-.5.2236328-.5.5v.5h-.5c-.8271484 0-1.5.6728516-1.5 1.5s.6728516 1.5 1.5 1.5h.5v1zm1-2c-.2758789 0-.5-.2246094-.5-.5s.2241211-.5.5-.5h.5v1zm1.5 1h.5c.2758789 0 .5.2246094.5.5s-.2241211.5-.5.5h-.5z" fill="#be1717ff" data-original-color="#000000ff" stroke="none"/><circle cx="6.1" cy="6.1" r=".5" fill="#be1717ff" data-original-color="#000000ff" stroke="none"/></g></svg>