<svg clip-rule="evenodd" fill-rule="evenodd" stroke-linejoin="round" stroke-miterlimit="2" viewBox="0 0 510 510" xmlns="http://www.w3.org/2000/svg" width="300" height="300" version="1.1" xmlns:xlink="http://www.w3.org/1999/xlink" xmlns:svgjs="http://svgjs.dev/svgjs"><g transform="matrix(1,0,0,1,0,0)"><path d="m406.94 389.189v96.143c0 9.721-7.947 17.668-17.667 17.668h-350.979c-9.778 0-17.704-7.955-17.704-17.668v-460.628c0-9.77 7.934-17.704 17.704-17.704h296.639c4.862 0 9.069 1.766 12.486 5.182l54.339 54.34c3.416 3.416 5.182 7.624 5.182 12.485v122.593c46.403 5.965 82.47 45.802 82.47 93.809 0 47.979-36.066 87.816-82.47 93.78zm-76.018-366.189h-292.628c-.941 0-1.704.763-1.704 1.704v460.628c0 .926.772 1.668 1.704 1.668h350.979c.917 0 1.667-.75 1.667-1.668v-95.452c-50.296-2.065-90.661-43.712-90.661-94.471 0-50.788 40.366-92.434 90.661-94.499v-117.892h-47.166c-7.044 0-12.852-5.807-12.852-12.852zm48.705 44.018-32.705-32.704v32.704zm15.231 306.943c43.26 0 78.552-35.292 78.552-78.552 0-43.286-35.291-78.58-78.552-78.58-43.286 0-78.579 35.293-78.579 78.58 0 43.26 35.293 78.552 78.579 78.552zm0-45.7c11.035 0 19.993 8.958 19.993 19.993s-8.958 19.992-19.993 19.992c-11.076 0-20.02-8.962-20.02-19.992s8.944-19.993 20.02-19.993zm0 16c-2.218 0-4.02 1.784-4.02 3.993s1.802 3.992 4.02 3.992c2.204 0 3.993-1.788 3.993-3.992s-1.789-3.993-3.993-3.993zm0-21.409c-9.344 0-17.035-7.45-17.356-16.739l-2.383-65.604v-.019c-.153-4.854 1.474-9.098 4.866-12.645l.02-.021c3.387-3.489 7.597-5.281 12.471-5.281h4.736c4.847 0 9.039 1.769 12.499 5.281l.041.042c3.386 3.54 5.013 7.804 4.816 12.675l-2.354 65.58v.011c-.36 9.289-8.016 16.72-17.356 16.72zm0-16c.741 0 1.337-.599 1.367-1.335l2.355-65.592.001-.024c.015-.358-.115-.667-.36-.94-.282-.266-.617-.418-1.009-.418h-4.736c-.376 0-.701.139-.983.42-.259.287-.393.625-.382 1.013l2.381 65.569v.013c.024.725.637 1.294 1.366 1.294zm-330.11 158.509c-4.416 0-8-3.585-8-8 0-4.416 3.584-8 8-8h276.427c4.415 0 8 3.584 8 8 0 4.415-3.585 8-8 8zm149.028-399.879c59.575 0 107.88 48.303 107.88 107.902 0 59.575-48.304 107.879-107.88 107.879-59.598 0-107.901-48.304-107.901-107.879 0-59.598 48.303-107.902 107.901-107.902zm-8 16.344c-47.014 4.053-83.901 43.492-83.901 91.558 0 50.74 41.141 91.879 91.901 91.879 14.136 0 27.528-3.193 39.492-8.898l-46.389-78.928c-.722-1.228-1.103-2.628-1.103-4.053zm61.278 166.42c21.315-15.198 35.866-39.271 38.255-66.822l-77.548-.034zm38.262-82.822c-3.808-44.395-39.167-79.77-83.54-83.598v83.561zm-240.568 202.524c-4.416 0-8-3.585-8-8s3.584-8 8-8h87.416c4.415 0 8 3.585 8 8s-3.585 8-8 8zm64.339-48.706c-4.415 0-8-3.585-8-8s3.585-8 8-8h102.597c4.416 0 8 3.585 8 8s-3.584 8-8 8zm-64.339 97.412c-4.416 0-8-3.584-8-8 0-4.415 3.584-8 8-8h156.154c4.415 0 8 3.585 8 8 0 4.416-3.585 8-8 8zm0-97.412c-4.416 0-8-3.585-8-8s3.584-8 8-8h29.479c4.415 0 8 3.585 8 8s-3.585 8-8 8zm122.767 48.706c-4.415 0-8-3.585-8-8s3.585-8 8-8h85.412c4.416 0 8 3.585 8 8s-3.584 8-8 8zm77.085 48.706c-4.415 0-8-3.584-8-8 0-4.415 3.585-8 8-8h56.445c4.415 0 8 3.585 8 8 0 4.416-3.585 8-8 8z" fill="#be1717ff" data-original-color="#000000ff" stroke="none"/></g></svg>