<svg id="a" height="300" viewBox="0 0 64 64" width="300" xmlns="http://www.w3.org/2000/svg" version="1.1" xmlns:xlink="http://www.w3.org/1999/xlink" xmlns:svgjs="http://svgjs.dev/svgjs"><g transform="matrix(1,0,0,1,0,0)"><path d="m31.99785 21.47716c3.85986 0 7-3.14014 7-7-.35175-9.27368-13.6496-9.27118-14 .00006 0 3.8598 3.14014 6.99994 7 6.99994zm0-12c2.75684 0 5 2.24316 5 5-.23499 6.61749-9.76599 6.61578-10-.00012 0-2.75671 2.24316-4.99988 5-4.99988z" fill="#be1717ff" data-original-color="#000000ff" stroke="none"/><path d="m25.18438 31.47716h13.62695c2.20459.03925 3.2995-2.19177 3.18451-4.13287-.10028-3.78577-3.61267-6.25232-7.37738-5.867-.24219-.00012-.47559.08777-.65771.24695-.39355.34326-1.05322.75293-1.96289.75293s-1.56934-.40967-1.96289-.75293c-.18213-.15918-.41553-.24707-.65771-.24707-3.76221-.38599-7.27942 2.08282-7.37738 5.86676-.1131 1.94031.97778 4.17413 3.18451 4.13324zm3.07422-8h.76611c1.73145 1.29492 4.21484 1.29492 5.94629 0 2.5191-.27637 4.98517 1.40698 5.02588 3.91266-.01154.80908-.12573 2.07385-1.18555 2.08734h-13.62695c-.41455 0-.78662-.24316-.92627-.60596-1.04572-2.60437 1.12823-5.4295 4.00049-5.39404z" fill="#be1717ff" data-original-color="#000000ff" stroke="none"/><path d="m51.99785 21.47716c3.85986 0 7-3.14014 7-7-.35175-9.27368-13.6496-9.27118-14 .00006 0 3.8598 3.14014 6.99994 7 6.99994zm0-12c2.75684 0 5 2.24316 5 5-.23499 6.61749-9.76599 6.61578-10-.00012 0-2.75671 2.24316-4.99988 5-4.99988z" fill="#be1717ff" data-original-color="#000000ff" stroke="none"/><path d="m55.73711 21.47716c-.47571.03979-1.40826-.14014-1.77637.24707-.39355.34326-1.05322.75293-1.96289.75293s-1.56934-.40967-1.96289-.75293c-.18213-.15918-.41553-.24707-.65771-.24707h-1.11865c-3.37939 0-6.18701 2.63232-6.25879 5.8667-.11304 1.94037.97784 4.17419 3.18469 4.13324-.00012.00006 13.62683.00006 13.62683.00006 1.23535 0 2.35742-.75781 2.79248-1.88525 1.56384-3.87366-1.62402-8.17419-5.8667-8.11475zm4.00049 7.39453c-.13965.3623-.51172.60547-.92627.60547h-13.62695c-1.06091-.01385-1.17175-1.27789-1.18555-2.08789.04187-2.50494 2.50568-4.18878 5.02588-3.91211 1.73145 1.29492 4.21484 1.29492 5.94629 0 3.15955-.36121 5.91547 2.35364 4.7666 5.39453z" fill="#be1717ff" data-original-color="#000000ff" stroke="none"/><path d="m11.99785 21.47716c3.85986 0 7-3.14014 7-7-.35175-9.27368-13.6496-9.27118-14 .00006 0 3.8598 3.14014 6.99994 7 6.99994zm0-12c2.75684 0 5 2.24316 5 5-.23499 6.61749-9.76599 6.61578-10-.00012 0-2.75671 2.24316-4.99988 5-4.99988z" fill="#be1717ff" data-original-color="#000000ff" stroke="none"/><path d="m5.18438 31.47716h13.62695c2.20459.03925 3.2995-2.19177 3.18451-4.13287-.10028-3.78577-3.61267-6.25232-7.37738-5.867-.24219-.00012-.47559.08777-.65771.24695-.39355.34326-1.05322.75293-1.96289.75293s-1.56934-.40967-1.96289-.75293c-.18213-.15918-.41553-.24707-.65771-.24707-3.76221-.38599-7.27942 2.08282-7.37738 5.86676-.1131 1.94031.97778 4.17413 3.18451 4.13324zm3.07422-8h.76611c1.73145 1.29492 4.21484 1.29492 5.94629 0 2.5191-.27637 4.98517 1.40698 5.02588 3.91266-.01154.80908-.12573 2.07385-1.18555 2.08734h-13.62695c-.41455 0-.78662-.24316-.92627-.60596-1.04572-2.60437 1.12823-5.4295 4.00049-5.39404z" fill="#be1717ff" data-original-color="#000000ff" stroke="none"/><path d="m10.99785 52.47716v-19c0-.55225-.44775-1-1-1s-1 .44775-1 1v19c0 2.20605 1.79443 4 4 4h38c2.20557 0 4-1.79395 4-4v-19c0-.55225-.44775-1-1-1s-1 .44775-1 1v19c0 1.10254-.89697 2-2 2h-38c-1.10303 0-2-.89746-2-2z" fill="#be1717ff" data-original-color="#000000ff" stroke="none"/><path d="m31.99785 32.47716c-6.06543 0-11 4.48633-11 10 .59808 13.26453 21.40442 13.26007 22.00006-.00012-.00006-5.51355-4.93463-9.99988-11.00006-9.99988zm0 18c-4.9624 0-9-3.58887-9-8 .48657-10.61078 17.51556-10.60712 18.00006.00006-.00006 4.41107-4.03766 7.99994-9.00006 7.99994z" fill="#be1717ff" data-original-color="#000000ff" stroke="none"/><path d="m49.99785 34.47716c1.31293-.02191 1.31549-1.97766 0-2h-5c-1.31293.02185-1.31543 1.97766.00006 2-.00006 0 4.99994 0 4.99994 0z" fill="#be1717ff" data-original-color="#000000ff" stroke="none"/><path d="m18.99785 52.47716c1.31299-.02155 1.31555-1.97803 0-2h-5c-.55225 0-1 .44727-1 1s.44775 1 1 1z" fill="#be1717ff" data-original-color="#000000ff" stroke="none"/><path d="m30.99785 39.47716h4c1.31421-.02191 1.31451-1.97815 0-2h-2v-1c0-.55273-.44775-1-1-1s-1 .44727-1 1v1c-3.95691.10529-3.95459 5.89618.00012 6-.00012 0 1.99988 0 1.99988 0 .55127 0 1 .44824 1 1s-.44873 1-1 1h-4c-1.31311.02075-1.31512 1.97858.00006 2-.00006 0 1.99994 0 1.99994 0v1c0 .55273.44775 1 1 1s1-.44727 1-1v-1c3.95605-.10443 3.9552-5.89642-.00006-6h-1.99994c-1.31287-.02216-1.31476-1.97736 0-2z" fill="#be1717ff" data-original-color="#000000ff" stroke="none"/></g></svg>