<svg id="Layer_1" enable-background="new 0 0 50 50" height="300" viewBox="0 0 50 50" width="300" xmlns="http://www.w3.org/2000/svg" version="1.1" xmlns:xlink="http://www.w3.org/1999/xlink" xmlns:svgjs="http://svgjs.dev/svgjs"><g transform="matrix(1,0,0,1,0,0)"><path d="m20.704 24.854c4.031-1.905 6.833-6 6.833-10.746 0-6.557-5.334-11.891-11.891-11.891s-11.89 5.335-11.89 11.891c0 4.747 2.802 8.841 6.833 10.746-6.15 2.11-10.589 7.936-10.589 14.792v7.135c0 .553.448 1 1 1h9.013 11.267 9.013c.553 0 1-.447 1-1v-7.135c0-6.856-4.439-12.682-10.589-14.792zm-14.948-10.746c0-5.454 4.437-9.891 9.891-9.891s9.891 4.437 9.891 9.891-4.438 9.892-9.892 9.892-9.89-4.437-9.89-9.892zm23.537 31.673h-7.013v-8.951c0-.553-.448-1-1-1s-1 .447-1 1v8.951h-9.267v-8.951c0-.553-.448-1-1-1s-1 .447-1 1v8.951h-7.013v-6.135c0-7.525 6.122-13.646 13.646-13.646s13.646 6.122 13.646 13.647v6.134z" fill="#be1717ff" data-original-color="#000000ff" stroke="none"/><path d="m40.154 15.559c3.75 0 6.801-3.051 6.801-6.8 0-.85-.164-1.661-.45-2.412l3.137-2.622c.424-.354.479-.985.126-1.409-.354-.422-.984-.481-1.409-.125l-2.853 2.385c-1.246-1.59-3.18-2.618-5.352-2.618-3.75 0-6.801 3.051-6.801 6.801.001 3.749 3.051 6.8 6.801 6.8zm0-11.601c1.557 0 2.93.757 3.807 1.909l-3.897 3.259-1.998-1.221c-.473-.287-1.087-.139-1.375.332-.288.472-.139 1.087.332 1.375l2.61 1.595c.023.014.05.02.074.032.026.013.052.023.078.034.12.048.244.08.368.08h.001.001c.002 0 .004-.001.005-.001.101 0 .198-.021.293-.05.028-.009.055-.021.082-.033.077-.032.148-.073.216-.124.015-.01.031-.014.045-.025l4.045-3.382c.071.33.114.669.114 1.02 0 2.647-2.153 4.8-4.801 4.8s-4.801-2.153-4.801-4.8 2.154-4.8 4.801-4.8z" fill="#be1717ff" data-original-color="#000000ff" stroke="none"/><path d="m48.358 18.432-2.853 2.385c-1.246-1.59-3.179-2.618-5.352-2.618-3.75 0-6.801 3.051-6.801 6.8 0 3.75 3.051 6.801 6.801 6.801s6.802-3.05 6.802-6.8c0-.85-.164-1.66-.449-2.411l3.136-2.623c.424-.354.479-.985.126-1.409-.354-.422-.985-.481-1.41-.125zm-3.403 6.568c0 2.647-2.153 4.801-4.801 4.801s-4.8-2.155-4.8-4.801 2.153-4.8 4.801-4.8c1.558 0 2.93.757 3.808 1.909l-3.898 3.26-1.998-1.222c-.473-.289-1.087-.14-1.375.332-.288.471-.14 1.086.332 1.375l2.61 1.597c.023.015.05.02.074.032.026.013.051.023.078.034.12.048.243.08.368.08h.001.001c.002 0 .004-.001.005-.001.101-.001.198-.021.293-.05.028-.01.055-.021.083-.033.075-.031.146-.072.213-.121.015-.012.032-.016.047-.027l4.045-3.383c.07.328.113.667.113 1.018z" fill="#be1717ff" data-original-color="#000000ff" stroke="none"/><path d="m48.358 34.674-2.854 2.385c-1.246-1.59-3.179-2.617-5.351-2.617-3.75 0-6.801 3.051-6.801 6.801s3.051 6.801 6.801 6.801 6.801-3.051 6.801-6.801c0-.85-.164-1.661-.45-2.411l3.137-2.622c.424-.354.479-.985.126-1.409s-.984-.482-1.409-.127zm-3.403 6.568c0 2.647-2.153 4.801-4.801 4.801s-4.801-2.153-4.801-4.801 2.153-4.801 4.801-4.801c1.557 0 2.929.757 3.807 1.908l-3.897 3.259-1.998-1.22c-.473-.288-1.087-.139-1.375.332-.288.472-.139 1.087.332 1.375l2.61 1.594c.023.015.05.02.074.032.026.013.051.023.078.034.12.048.243.08.368.08h.001.001c.002 0 .004-.001.005-.001.101-.001.198-.021.293-.05.028-.01.055-.021.083-.033.075-.031.146-.072.213-.121.015-.012.032-.016.047-.027l4.045-3.381c.071.33.114.67.114 1.02z" fill="#be1717ff" data-original-color="#000000ff" stroke="none"/></g></svg>