<svg xmlns="http://www.w3.org/2000/svg" viewBox="0 0 512 512" width="300" height="300" version="1.1" xmlns:xlink="http://www.w3.org/1999/xlink" xmlns:svgjs="http://svgjs.dev/svgjs"><g transform="matrix(1,0,0,1,0,0)"><g id="Outline"><path d="M88,496A80,80,0,1,0,8,416,80.091,80.091,0,0,0,88,496ZM64,475.313V464a24,24,0,0,1,48,0v11.313a63.79,63.79,0,0,1-48,0ZM72,408a16,16,0,1,1,16,16A16.019,16.019,0,0,1,72,408Zm16-56a63.964,63.964,0,0,1,40,113.907V464a39.991,39.991,0,0,0-17.632-33.146,32,32,0,1,0-44.736,0A39.991,39.991,0,0,0,48,464v1.907A63.964,63.964,0,0,1,88,352Z" fill="#be1717ff" data-original-color="#000000ff" stroke="none"/><path d="M334.656,275.562A8,8,0,0,0,328,272H290.422l-21.984-14.656A7.993,7.993,0,0,0,264,256H250.422l-21.984-14.656a8,8,0,0,0-8.016-.5l-32,16a7.986,7.986,0,0,0-2.079,1.5l-16,16a8.052,8.052,0,0,0-1,1.219l-16,24a8,8,0,0,0,0,8.876l16,24A8.014,8.014,0,0,0,171.2,334.4l32,24A8,8,0,0,0,208,360h9.062l7.019,49.131a8,8,0,0,0,6.35,6.714l40,8a8.088,8.088,0,0,0,1.576.156,8,8,0,0,0,7.754-6.061l7.25-29,21.427-14.285A8,8,0,0,0,312,368V349.766l18.53-6.177a8,8,0,0,0,4.625-4.011l16-32a8,8,0,0,0-.5-8.016Zm-12.329,53.9-20.857,6.953A8,8,0,0,0,296,344v19.719l-20.438,13.625a8,8,0,0,0-3.323,4.716l-6.15,24.6-26.97-5.393-7.2-50.4A8,8,0,0,0,224,344H210.667L181.9,322.422,169.615,304l12.6-18.9,14.522-14.522,26.686-13.344,20.137,13.425A7.993,7.993,0,0,0,248,272h13.578l21.984,14.656A7.993,7.993,0,0,0,288,288h35.719l11.05,16.575Z" fill="#be1717ff" data-original-color="#000000ff" stroke="none"/><path d="M48,256a207.738,207.738,0,0,0,10.879,66.559l15.161-5.118Q71.795,310.79,70.057,304H88a8,8,0,0,0,6.656-3.562l14.622-21.933,37.693-15.077a8.01,8.01,0,0,0,2.686-1.771l16-16A8,8,0,0,0,168,240V203.313l16.75-16.75L211.2,206.4q.177.133.362.256l24,16a8,8,0,0,0,9.088-.146l56-40a8,8,0,0,0,3.111-4.57l8-32a8,8,0,0,0-3.323-8.6l-21.716-14.478-7.133-21.4a8,8,0,0,0-5.059-5.059L233.375,82.692l3.951-17.782Q246.545,64.016,256,64a191.094,191.094,0,0,1,69.118,12.816l5.764-14.926A207.029,207.029,0,0,0,256,48C141.309,48,48,141.309,48,256ZM221.47,95.589l44.205,14.736,6.736,20.2a8,8,0,0,0,3.151,4.126l19.31,12.873L288.953,171.2l-49.11,35.079-19.22-12.814L188.8,169.6a8,8,0,0,0-10.457.743l-24,24A8,8,0,0,0,152,200v36.687l-12.5,12.495-38.475,15.39a8,8,0,0,0-3.685,2.99L83.719,288H66.66A193.3,193.3,0,0,1,64,256c0-93.707,67.482-171.937,156.4-188.677l-4.21,18.942A8,8,0,0,0,221.47,95.589Z" fill="#be1717ff" data-original-color="#000000ff" stroke="none"/><path d="M416,16a80,80,0,1,0,80,80A80.091,80.091,0,0,0,416,16ZM392,155.313V144a24,24,0,0,1,48,0v11.313a63.79,63.79,0,0,1-48,0ZM400,88a16,16,0,1,1,16,16A16.019,16.019,0,0,1,400,88Zm56,57.907V144a39.991,39.991,0,0,0-17.632-33.146,32,32,0,1,0-44.736,0A39.991,39.991,0,0,0,376,144v1.907a64,64,0,1,1,80,0Z" fill="#be1717ff" data-original-color="#000000ff" stroke="none"/><path d="M495.86,247.729c-.187-5.514-.567-11.081-1.129-16.547l-15.916,1.636c.525,5.1.88,10.3,1.054,15.453Z" fill="#be1717ff" data-original-color="#000000ff" stroke="none"/><path d="M473.431,201.924c1.26,5.083,2.354,10.28,3.252,15.446l15.763-2.74c-.962-5.536-2.134-11.106-3.485-16.554Z" fill="#be1717ff" data-original-color="#000000ff" stroke="none"/><path d="M411.83,416.914A222.853,222.853,0,0,1,256,480v16A240,240,0,0,0,495.86,264.271l-15.991-.542A222.777,222.777,0,0,1,411.83,416.914Z" fill="#be1717ff" data-original-color="#000000ff" stroke="none"/><path d="M16.14,264.271c.187,5.514.567,11.081,1.129,16.547l15.916-1.636c-.525-5.1-.88-10.3-1.054-15.453Z" fill="#be1717ff" data-original-color="#000000ff" stroke="none"/><path d="M38.569,310.076c-1.26-5.083-2.354-10.28-3.252-15.446l-15.763,2.74c.962,5.536,2.134,11.106,3.485,16.554Z" fill="#be1717ff" data-original-color="#000000ff" stroke="none"/><path d="M100.17,95.086A222.853,222.853,0,0,1,256,32V16A240,240,0,0,0,16.14,247.729l15.991.542A222.777,222.777,0,0,1,100.17,95.086Z" fill="#be1717ff" data-original-color="#000000ff" stroke="none"/><rect x="240" y="160" width="16" height="16" fill="#be1717ff" data-original-color="#000000ff" stroke="none"/><rect x="104" y="216" width="16" height="16" fill="#be1717ff" data-original-color="#000000ff" stroke="none"/><rect x="200" y="296" width="16" height="16" fill="#be1717ff" data-original-color="#000000ff" stroke="none"/><rect x="400" y="248" width="16" height="16" fill="#be1717ff" data-original-color="#000000ff" stroke="none"/><path d="M368.155,334.431l-7.35,36.751-21.243,14.162a8,8,0,0,0-3.225,8.954l9.413,31.389a192.157,192.157,0,0,1-158.87,9.5l-5.76,14.927A207.149,207.149,0,0,0,256,464c114.691,0,208-93.309,208-208a207.625,207.625,0,0,0-10.879-66.559l-15.16,5.118q2.993,8.861,5.092,17.962l-58.439-4.5A8.006,8.006,0,0,0,377.6,211.2l-24,32a8,8,0,0,0-.546,8.769l29.876,52.283-14.085,28.17A7.989,7.989,0,0,0,368.155,334.431Zm7.69,43.138,7.79-38.949,15.52-31.042a8,8,0,0,0-.209-7.547L369.554,248.6l18.211-24.282,58.324,4.489a192.169,192.169,0,0,1-86.135,188.55l-6.591-21.979,19.075-12.717A8,8,0,0,0,375.845,377.569Z" fill="#be1717ff" data-original-color="#000000ff" stroke="none"/></g></g></svg>