<svg id="Taxation" viewBox="0 0 64 64" xmlns="http://www.w3.org/2000/svg" width="300" height="300" version="1.1" xmlns:xlink="http://www.w3.org/1999/xlink" xmlns:svgjs="http://svgjs.dev/svgjs"><g transform="matrix(1,0,0,1,0,0)"><path d="m33 52h-24c-1.65 0-3-1.35-3-3v-42c0-1.65 1.35-3 3-3h32c1.65 0 3 1.35 3 3v24c0 .55.45 1 1 1s1-.45 1-1v-24c0-2.76-2.24-5-5-5h-32c-2.76 0-5 2.24-5 5v42c0 2.76 2.24 5 5 5h24c.55 0 1-.45 1-1s-.45-1-1-1z" fill="#be1717ff" data-original-color="#000000ff" stroke="none"/><path d="m56 34h-16c-2.21 0-4 1.79-4 4v20c0 2.21 1.79 4 4 4h16c2.21 0 4-1.79 4-4v-20c0-2.21-1.79-4-4-4zm2 24c0 1.1-.9 2-2 2h-16c-1.1 0-2-.9-2-2v-20c0-1.1.9-2 2-2h16c1.1 0 2 .9 2 2z" fill="#be1717ff" data-original-color="#000000ff" stroke="none"/><path d="m55 38h-14c-.55 0-1 .45-1 1v6c0 .55.45 1 1 1h14c.55 0 1-.45 1-1v-6c0-.55-.45-1-1-1zm-1 6h-12v-4h12z" fill="#be1717ff" data-original-color="#000000ff" stroke="none"/><path d="m49 48h-2c-.55 0-1 .45-1 1s.45 1 1 1h2c.55 0 1-.45 1-1s-.45-1-1-1z" fill="#be1717ff" data-original-color="#000000ff" stroke="none"/><path d="m55 48h-2c-.55 0-1 .45-1 1s.45 1 1 1h2c.55 0 1-.45 1-1s-.45-1-1-1z" fill="#be1717ff" data-original-color="#000000ff" stroke="none"/><path d="m43 48h-2c-.55 0-1 .45-1 1s.45 1 1 1h2c.55 0 1-.45 1-1s-.45-1-1-1z" fill="#be1717ff" data-original-color="#000000ff" stroke="none"/><path d="m49 52h-2c-.55 0-1 .45-1 1s.45 1 1 1h2c.55 0 1-.45 1-1s-.45-1-1-1z" fill="#be1717ff" data-original-color="#000000ff" stroke="none"/><path d="m55 52h-2c-.55 0-1 .45-1 1s.45 1 1 1h2c.55 0 1-.45 1-1s-.45-1-1-1z" fill="#be1717ff" data-original-color="#000000ff" stroke="none"/><path d="m43 52h-2c-.55 0-1 .45-1 1s.45 1 1 1h2c.55 0 1-.45 1-1s-.45-1-1-1z" fill="#be1717ff" data-original-color="#000000ff" stroke="none"/><path d="m49 56h-2c-.55 0-1 .45-1 1s.45 1 1 1h2c.55 0 1-.45 1-1s-.45-1-1-1z" fill="#be1717ff" data-original-color="#000000ff" stroke="none"/><path d="m55 56h-2c-.55 0-1 .45-1 1s.45 1 1 1h2c.55 0 1-.45 1-1s-.45-1-1-1z" fill="#be1717ff" data-original-color="#000000ff" stroke="none"/><path d="m43 56h-2c-.55 0-1 .45-1 1s.45 1 1 1h2c.55 0 1-.45 1-1s-.45-1-1-1z" fill="#be1717ff" data-original-color="#000000ff" stroke="none"/><path d="m23.42 16.38 1.58-3.78 1.58 3.78c.16.38.53.62.92.62.13 0 .26-.02.38-.08.51-.21.75-.8.54-1.31l-2.5-6c-.16-.37-.52-.62-.92-.62s-.77.24-.92.62l-2.5 6c-.21.51.03 1.1.54 1.31s1.1-.03 1.31-.54z" fill="#be1717ff" data-original-color="#000000ff" stroke="none"/><path d="m30.86 16.77c.19.16.41.23.64.23.29 0 .57-.12.77-.36l1.73-2.08 1.73 2.08c.2.24.48.36.77.36.23 0 .45-.08.64-.23.42-.35.48-.98.13-1.41l-1.97-2.36 1.97-2.36c.35-.42.3-1.05-.13-1.41-.43-.35-1.05-.3-1.41.13l-1.73 2.08-1.73-2.08c-.35-.42-.98-.48-1.41-.13-.42.35-.48.98-.13 1.41l1.97 2.36-1.97 2.36c-.35.42-.3 1.05.13 1.41z" fill="#be1717ff" data-original-color="#000000ff" stroke="none"/><path d="m16 17c.55 0 1-.45 1-1v-5h1.5c.55 0 1-.45 1-1s-.45-1-1-1h-5c-.55 0-1 .45-1 1s.45 1 1 1h1.5v5c0 .55.45 1 1 1z" fill="#be1717ff" data-original-color="#000000ff" stroke="none"/><path d="m52.14 30.51c.18.3.51.49.86.49s.68-.18.86-.49l3-5c.09-.16.14-.33.14-.51v-19c0-2.21-1.79-4-4-4s-4 1.79-4 4v19c0 .18.05.36.14.51zm.86-2.46-2-3.33v-14.72h4v14.72zm0-24.06c1.1 0 2 .9 2 2v2h-4v-2c0-1.1.9-2 2-2z" fill="#be1717ff" data-original-color="#000000ff" stroke="none"/><path d="m39 28c0-.55-.45-1-1-1h-26c-.55 0-1 .45-1 1s.45 1 1 1h26c.55 0 1-.45 1-1z" fill="#be1717ff" data-original-color="#000000ff" stroke="none"/><path d="m38 21h-26c-.55 0-1 .45-1 1s.45 1 1 1h26c.55 0 1-.45 1-1s-.45-1-1-1z" fill="#be1717ff" data-original-color="#000000ff" stroke="none"/><path d="m31 33h-19c-.55 0-1 .45-1 1s.45 1 1 1h19c.55 0 1-.45 1-1s-.45-1-1-1z" fill="#be1717ff" data-original-color="#000000ff" stroke="none"/><path d="m31 39h-19c-.55 0-1 .45-1 1s.45 1 1 1h19c.55 0 1-.45 1-1s-.45-1-1-1z" fill="#be1717ff" data-original-color="#000000ff" stroke="none"/><path d="m31 45h-19c-.55 0-1 .45-1 1s.45 1 1 1h19c.55 0 1-.45 1-1s-.45-1-1-1z" fill="#be1717ff" data-original-color="#000000ff" stroke="none"/></g></svg>