<svg xmlns="http://www.w3.org/2000/svg" viewBox="0 0 64 64" width="300" height="300" version="1.1" xmlns:xlink="http://www.w3.org/1999/xlink" xmlns:svgjs="http://svgjs.dev/svgjs"><g transform="matrix(1,0,0,1,0,0)"><g id="handshake-partner-graph-file"><rect x="10" y="49" width="2" height="2" fill="#be1717ff" data-original-color="#000000ff"/><path d="M62,42V40H56V39a1,1,0,0,0-1-1V13a1.033,1.033,0,0,0-.29-.71l-10-10A1.033,1.033,0,0,0,44,2H10A1,1,0,0,0,9,3V38H8a1,1,0,0,0-1,1v1H2v2H7v9H2v2H7v1a1,1,0,0,0,1,1H9v4a1,1,0,0,0,1,1H54a1,1,0,0,0,1-1V55a1,1,0,0,0,1-1V53h6V51H56V42ZM45,5.41,51.59,12H45ZM11,4H43v9a1,1,0,0,0,1,1h9V38H49a1,1,0,0,0-1,1v1H43.57l-2.71-4.51A.99.99,0,0,0,40,35H33a1.021,1.021,0,0,0-.65.24L30.3,37H22a1.033,1.033,0,0,0-.71.29L18.59,40H15V39a1,1,0,0,0-1-1H11ZM30.59,50.94l-3.35-3.87A3.122,3.122,0,0,0,25,45.99a3.213,3.213,0,0,0-2.32.91,3.124,3.124,0,0,0-.25,4.1H15V42h4a1.033,1.033,0,0,0,.71-.29L22.41,39h5.55l-.97.83A3.089,3.089,0,0,0,25.94,42a2.991,2.991,0,0,0,.88,2.23l.25.25a3.028,3.028,0,0,0,3.92.28l1.92-1.44,1.38,1.39A1.033,1.033,0,0,0,35,45h.53l2.2,2.64a2.982,2.982,0,0,1-.33,4.18l-2.24,1.96a3.008,3.008,0,0,1-4-.05A3.009,3.009,0,0,0,30.59,50.94ZM29,53.58l-.16.16a1.01,1.01,0,0,1-.75.3,1.036,1.036,0,0,1-.74-.38l-3.31-3.83a1.111,1.111,0,0,1,.06-1.51,1.066,1.066,0,0,1,.78-.33h.05a1.083,1.083,0,0,1,.8.39l3.33,3.86A.977.977,0,0,1,29,53.58ZM38.13,45H39a.977.977,0,0,0,.89-.55l1-2-1.78-.9L38.38,43H35.41l-1.7-1.71a1,1,0,0,0-1.31-.09l-2.61,1.96a1,1,0,0,1-1.31-.09l-.25-.25a1,1,0,0,1,.06-1.47L33.37,37h6.06l2.71,4.51A.99.99,0,0,0,43,42h5v8H40.42a5.01,5.01,0,0,0-1.15-3.64ZM9,53V40h4V53Zm44,5H11V55h3a1,1,0,0,0,1-1V53h9.14l1.69,1.96A3,3,0,0,0,28,56.03a.57.57,0,0,0,.13.01,2.99,2.99,0,0,0,1.88-.68,4.964,4.964,0,0,0,6.46-.07l2.25-1.97A5.133,5.133,0,0,0,39.78,52H48v2a1,1,0,0,0,1,1h4Zm1-5H50V40h4Z" fill="#be1717ff" data-original-color="#000000ff"/><rect x="51" y="49" width="2" height="2" fill="#be1717ff" data-original-color="#000000ff"/><path d="M41,31V14a1,1,0,0,0-1-1H36a1,1,0,0,0-1,1V31H34V18a1,1,0,0,0-1-1H29a1,1,0,0,0-1,1V31H27V25a1,1,0,0,0-1-1H22a1,1,0,0,0-1,1v6H19v2H43V31ZM25,31H23V26h2Zm7,0H30V19h2Zm7,0H37V15h2Z" fill="#be1717ff" data-original-color="#000000ff"/></g></g></svg>