<svg id="Layer_1" enable-background="new 0 0 512 512" height="300" viewBox="0 0 512 512" width="300" xmlns="http://www.w3.org/2000/svg" version="1.1" xmlns:xlink="http://www.w3.org/1999/xlink" xmlns:svgjs="http://svgjs.dev/svgjs"><g transform="matrix(1,0,0,1,0,0)"><path d="m136.08 254.804c-.201 4.342-3.884 7.698-8.226 7.497-4.341-.201-7.698-3.884-7.497-8.226.202-4.342 3.884-7.698 8.226-7.497 4.342.202 7.698 3.884 7.497 8.226zm314.559 132.205-23.615 9.155c-2.316.897-4.702 1.323-7.049 1.323-7.846.001-15.265-4.752-18.267-12.495l-1.555-4.01-16.954 7.074c.691 5.41-.299 10.963-2.975 15.826-3.294 5.99-8.693 10.375-15.242 12.396 1.73 6.33 1.116 13.289-2.262 19.428-5.071 9.222-14.929 14.178-24.795 13.483.018 4.271-1.011 8.593-3.199 12.57-3.374 6.134-8.955 10.584-15.715 12.53-3.672 1.056-7.44 1.298-11.093.754-.134 3.963-1.171 7.945-3.201 11.637-3.374 6.134-9.192 10.74-15.963 12.638-2.34.656-4.712.98-7.063.98-4.406 0-8.735-1.14-12.631-3.377l-5.462-3.138c-3.352 4.283-7.935 7.439-13.269 9.055-2.574.78-5.202 1.167-7.812 1.167-4.327 0-8.607-1.062-12.518-3.153-5.377-2.876-9.45-7.389-11.803-12.686-6.951 2.547-14.888 2.205-21.802-1.492-4.767-2.55-8.524-6.43-10.957-11.011-7.404 3.52-16.312 3.614-24.06-.53-6.271-3.354-10.866-8.968-12.939-15.808-1.022-3.374-1.369-6.841-1.055-10.24-3.975-.142-7.943-1.169-11.591-3.12-12.982-6.943-17.896-23.154-10.953-36.138l6.057-11.325c-1.306-3.325-1.983-6.872-2.629-10.345-1.099-5.903-1.985-9.838-4.214-10.703-1.088-.422-3.616-1.471-12.558-5.451l-2.001 4.528c-2.107 4.769-5.957 8.435-10.839 10.324-2.301.891-4.699 1.335-7.09 1.335-2.682 0-5.356-.559-7.877-1.674l-23.165-10.237c-9.868-4.363-14.348-15.939-9.986-25.807l53.187-120.337c4.361-9.868 15.938-14.348 25.806-9.986l23.166 10.238c9.869 4.362 14.348 15.939 9.986 25.808l-3.447 7.799 13.861 6.395c.195.09.385.188.572.293 7.446 4.188 15.079 2.701 26.915-.072 14.381-3.372 32.045-7.504 52.723 4.338 28.592-17.327 50.538-8.381 66.771-1.746 11.615 4.749 18.514 7.269 25.19 3.792l12.071-6.461-3.183-8.21c-3.899-10.06 1.112-21.416 11.17-25.316l23.615-9.154c4.861-1.885 10.176-1.759 14.966.354 4.79 2.114 8.466 5.955 10.35 10.816l47.556 122.671c3.898 10.058-1.114 21.414-11.173 25.315zm-302.593-137.282c.782-1.769-.052-3.923-1.821-4.704l-23.165-10.238c-1.769-.782-3.922.052-4.705 1.82l-53.185 120.336c-.781 1.768.053 3.922 1.821 4.704l23.165 10.237c1.161.514 2.205.253 2.724.052.52-.201 1.468-.712 1.98-1.872zm6.718 181.266 14.981-25.929c2.173-5.079.113-11.027-4.777-13.637-5.208-2.778-11.708-.812-14.489 4.386l-11.532 21.561c-2.782 5.203-.813 11.7 4.39 14.482 3.657 1.954 8.119 1.581 11.427-.863zm28.681 25.568 16.666-32.275c.796-4.506-1.415-9.184-5.464-11.345-3.693-1.971-8.188-1.579-11.502.911l-18.613 32.688c-1.337 2.502-1.616 5.394-.782 8.144s2.67 5.001 5.173 6.339c5.198 2.783 11.71.779 14.522-4.462zm33.974 13.137 14.721-28.294c.79-4.503-1.421-9.174-5.466-11.333-4.026-2.146-9.099-1.428-12.4 1.661l-15.96 30.907c-.174 4.089 1.987 7.981 5.625 9.926 4.59 2.457 10.302 1.208 13.48-2.867zm34.608 12.656 11.057-20.675c1.931-3.61 1.594-8.098-.858-11.434-.934-1.271-2.121-2.296-3.53-3.05-4.025-2.15-9.104-1.425-12.404 1.674l-14.35 27.58c-.311 4.18 1.889 8.306 5.603 10.292 2.502 1.338 5.395 1.617 8.145.783 2.748-.832 4.999-2.668 6.337-5.17zm34.636-17.251c-.385-.216-6.739-3.939-6.739-3.939-.47 2.783-1.367 5.509-2.731 8.061l-5.693 10.646 5.53 3.176c2.218 1.273 4.849 1.581 7.406.865 2.663-.747 4.945-2.549 6.262-4.943 2.69-4.891.88-11.112-4.035-13.866zm79.726-78.211c0-.001 0-.001 0 0-.935-1.927-2.419-3.51-4.295-4.579l-62.806-35.797c-10.091-5.751-23.132-.473-38.23 5.639-23.227 9.404-52.135 21.106-77.056-10.961-1.796-2.304-2.514-5.282-1.961-8.159.554-2.88 2.325-5.382 4.861-6.863 17.613-10.279 32.478-21.489 44.185-33.319 2.531-2.558 5.082-4.943 7.638-7.165-12.363-4.678-23.181-2.151-34.493.501-12.276 2.876-24.966 5.853-38.115-1.396l-13.353-6.16-34.801 78.739c6.52 2.902 10.506 4.636 11.877 5.168 8.55 3.319 11.539 10.817 13.14 17.688 8.1-6.626 19.728-8.14 29.523-2.913 7.374 3.936 12.182 10.909 13.64 18.606 5.405-.708 11.017.228 16.039 2.908 6.124 3.269 10.531 8.639 12.665 14.847 6.338-1.663 13.244-.981 19.361 2.282 6.124 3.268 10.531 8.638 12.665 14.844 6.338-1.665 13.246-.983 19.366 2.287 3.049 1.63 5.688 3.78 7.87 6.4l32.819 18.578.015.008c2.325 1.293 5.04 1.592 7.645.842 2.64-.76 4.814-2.487 6.122-4.865 2.674-4.86.847-11.067-4.073-13.836-.39-.219-46.398-26.241-46.398-26.241-3.851-2.166-5.216-7.044-3.049-10.895s7.045-5.216 10.895-3.049l56.809 31.965.014.007c4.909 2.7 11.099.903 13.798-4.005 2.674-4.861.846-11.068-4.073-13.837-.003-.002-.006-.004-.009-.006-16.053-8.99-29.434-16.498-43.268-24.419-3.834-2.195-5.163-7.083-2.968-10.917s7.083-5.164 10.917-2.968c13.78 7.888 27.133 15.381 43.158 24.356.001.001.003.001.004.002 2.298 1.288 4.992 1.588 7.585.846 2.658-.761 4.845-2.494 6.158-4.882 1.578-2.879 1.645-6.261.179-9.281zm27.98-20.833-31.207-80.497-10.43 5.583c-13.66 7.104-26.396 1.901-38.711-3.133-16.679-6.817-32.434-13.257-56.093 2.973-5.098 3.484-10.298 7.896-15.468 13.121-11.318 11.437-25.247 22.273-41.474 32.274 15.23 15.477 30.91 10.319 54.068.944 17.367-7.031 35.327-14.301 52.157-4.709l62.807 35.798c2.422 1.381 4.585 3.107 6.435 5.121zm52.523 1.418-47.556-122.671c-.458-1.183-1.382-1.736-1.891-1.961-.317-.14-.836-.312-1.467-.312-.384 0-.809.063-1.256.237l-23.615 9.154c-1.802.699-2.735 2.812-2.036 4.615l47.556 122.67c.699 1.803 2.812 2.733 4.615 2.037l23.613-9.155c1.803-.699 2.736-2.813 2.037-4.614zm-58.234-113.181c-4.346 0-7.87 3.523-7.87 7.869s3.523 7.87 7.87 7.87c4.346 0 7.87-3.523 7.87-7.87s-3.523-7.869-7.87-7.869zm-260.982-101.692v-32.568c0-3.31 2.038-6.277 5.126-7.466l16.097-6.196c2.395-8.582 5.813-16.826 10.199-24.599l-7.006-15.775c-1.344-3.024-.686-6.563 1.654-8.903l23.028-23.029c2.34-2.341 5.879-2.999 8.904-1.655l15.778 7.007c7.773-4.385 16.017-7.803 24.596-10.197l6.198-16.1c1.189-3.088 4.157-5.126 7.466-5.126h32.567c3.31 0 6.277 2.038 7.466 5.126l6.197 16.1c8.58 2.395 16.822 5.812 24.596 10.197l15.778-7.007c3.026-1.342 6.564-.685 8.904 1.654l23.029 23.029c2.34 2.341 2.998 5.88 1.654 8.904l-7.004 15.771c4.387 7.774 7.805 16.021 10.2 24.604l16.094 6.195c3.089 1.188 5.126 4.156 5.126 7.466v32.567c0 3.31-2.038 6.277-5.126 7.466l-16.099 6.197c-2.395 8.579-5.812 16.822-10.198 24.596l7.008 15.778c1.343 3.024.686 6.563-1.655 8.904l-23.029 23.029c-2.34 2.34-5.88 2.995-8.904 1.654l-15.771-7.005c-7.774 4.386-16.02 7.804-24.604 10.199l-6.195 16.095c-1.188 3.088-4.156 5.126-7.466 5.126h-32.567c-3.31 0-6.277-2.038-7.466-5.126l-6.197-16.1c-8.578-2.394-16.82-5.812-24.596-10.197l-15.777 7.008c-3.024 1.342-6.564.687-8.904-1.654l-23.029-23.029c-2.34-2.341-2.998-5.88-1.655-8.904l7.005-15.771c-4.386-7.772-7.804-16.018-10.2-24.604l-16.095-6.195c-3.089-1.189-5.127-4.157-5.127-7.466zm16-5.494 14.809 5.7c2.462.947 4.298 3.048 4.909 5.613 2.333 9.806 6.201 19.137 11.497 27.734 1.384 2.247 1.571 5.031.5 7.442l-6.446 14.514 15.261 15.261 14.519-6.449c2.411-1.069 5.194-.885 7.442.499 8.605 5.299 17.934 9.166 27.727 11.495 2.566.611 4.667 2.447 5.614 4.909l5.702 14.813h21.582l5.7-14.809c.947-2.462 3.048-4.298 5.614-4.908 9.803-2.333 19.134-6.201 27.734-11.497 2.246-1.385 5.03-1.572 7.442-.5l14.513 6.446 15.261-15.261-6.449-14.521c-1.071-2.411-.884-5.195.5-7.441 5.296-8.602 9.164-17.931 11.496-27.728.611-2.565 2.447-4.666 4.909-5.613l14.813-5.702v-21.581l-14.809-5.7c-2.462-.947-4.299-3.048-4.909-5.614-2.332-9.803-6.2-19.134-11.497-27.734-1.383-2.247-1.57-5.031-.499-7.442l6.445-14.513-15.261-15.261-14.52 6.448c-2.41 1.07-5.195.884-7.441-.499-8.602-5.297-17.93-9.164-27.727-11.496-2.566-.61-4.667-2.446-5.614-4.908l-5.702-14.813h-21.582l-5.703 14.813c-.948 2.462-3.048 4.298-5.614 4.908-9.796 2.332-19.125 6.199-27.727 11.496-2.246 1.384-5.03 1.57-7.441.499l-14.52-6.448-15.26 15.261 6.447 14.518c1.071 2.411.884 5.195-.5 7.442-5.296 8.6-9.164 17.929-11.496 27.729-.611 2.566-2.447 4.667-4.909 5.614l-14.811 5.701v21.583zm47.526-10.791c0-35.729 29.068-64.798 64.797-64.798s64.798 29.068 64.798 64.798-29.068 64.797-64.797 64.797-64.798-29.067-64.798-64.797zm16 0c0 26.906 21.891 48.797 48.797 48.797 26.907 0 48.798-21.891 48.798-48.797 0-26.907-21.891-48.798-48.798-48.798-26.906 0-48.797 21.891-48.797 48.798zm49.348 19.909c-4.274.096-9.759-1.554-11.008-6.566-1.069-4.286-5.409-6.894-9.697-5.827-4.287 1.069-6.896 5.411-5.827 9.698 2.187 8.771 8.999 15.222 17.982 17.647v1.079c0 4.418 3.582 8 8 8s8-3.582 8-8v-.938c5.58-1.324 10.429-4.031 13.64-7.743 3.577-4.135 5.106-9.297 4.422-14.927-1.346-11.085-9.661-17.959-24.714-20.431-9.485-1.557-9.634-4.636-9.683-5.647-.203-4.176 4.388-5.545 5.799-5.865 3.253-.735 9.414-.418 11.881 5.455 1.71 4.074 6.398 5.991 10.473 4.279 4.074-1.71 5.989-6.399 4.279-10.473-3.337-7.95-9.473-12.497-16.097-14.431v-1.159c0-4.418-3.582-8-8-8s-8 3.582-8 8v1.232c-10.321 3.115-16.807 11.638-16.317 21.736.309 6.353 3.716 17.482 23.072 20.661 10.842 1.78 11.25 5.137 11.423 6.569.159 1.304-.142 1.955-.641 2.532-1.508 1.746-5.204 3.029-8.987 3.119z" fill="#be1717ff" data-original-color="#000000ff"/></g></svg>