<svg xmlns="http://www.w3.org/2000/svg" id="Icons" viewBox="0 0 60 60" width="300" height="300" version="1.1" xmlns:xlink="http://www.w3.org/1999/xlink" xmlns:svgjs="http://svgjs.dev/svgjs"><g transform="matrix(1,0,0,1,0,0)"><title/><path d="M22.3,33.032H43.7a3.245,3.245,0,0,0,2.859-1.706,3.487,3.487,0,0,0-.08-3.532l-10.7-17.2a3.253,3.253,0,0,0-5.554,0L19.52,27.8a3.486,3.486,0,0,0-.079,3.53A3.245,3.245,0,0,0,22.3,33.032Zm-1.081-4.181,10.7-17.2a1.257,1.257,0,0,1,2.164,0l10.7,17.2a1.467,1.467,0,0,1,.033,1.5,1.273,1.273,0,0,1-1.112.679H22.3a1.273,1.273,0,0,1-1.112-.679A1.468,1.468,0,0,1,21.219,28.851Z" fill="#be1717ff" data-original-color="#000000ff"/><path d="M57.708,36.32a3.15,3.15,0,0,0-2.41.28l-2.11,1.192a2.634,2.634,0,0,0-.4-.726l-2.769-3.6A19.659,19.659,0,0,0,51,31.09l4.509-.588a2.577,2.577,0,0,0,2.241-2.149,22.175,22.175,0,0,0,0-6.654,2.585,2.585,0,0,0-2.241-2.171L51,18.939a19.7,19.7,0,0,0-.977-2.373l2.773-3.6a2.624,2.624,0,0,0,.056-3.118,23.377,23.377,0,0,0-2.172-2.528,23.515,23.515,0,0,0-2.543-2.184,2.623,2.623,0,0,0-3.106.069l-3.6,2.771A19.7,19.7,0,0,0,39.061,7l-.589-4.511A2.581,2.581,0,0,0,36.312.252a22.292,22.292,0,0,0-6.655,0A2.577,2.577,0,0,0,27.5,2.491L26.91,7a19.659,19.659,0,0,0-2.375.977l-3.6-2.767a2.593,2.593,0,0,0-3.112-.066,22.817,22.817,0,0,0-2.531,2.177,23.839,23.839,0,0,0-2.178,2.533,2.6,2.6,0,0,0,.063,3.115l2.771,3.595a19.437,19.437,0,0,0-.976,2.373l-4.524.589A2.611,2.611,0,0,0,8.211,21.7a23.032,23.032,0,0,0,0,6.66A2.6,2.6,0,0,0,10.451,30.5l4.522.589a19.31,19.31,0,0,0,.976,2.375l-2.774,3.608a2.674,2.674,0,0,0-.452.942l-.8.344A3,3,0,0,0,9,36H3a3,3,0,0,0-3,3V53a3,3,0,0,0,3,3H9a2.994,2.994,0,0,0,2.98-2.807,1.906,1.906,0,0,1,.605.079l20.369,6.516a5.025,5.025,0,0,0,4.522-.848L58.8,41.844A3.194,3.194,0,0,0,60,39.36a3.231,3.231,0,0,0-.4-1.538A3.153,3.153,0,0,0,57.708,36.32ZM15.859,29.188l-5.15-.669a.6.6,0,0,1-.52-.462,21.139,21.139,0,0,1,0-6.063.606.606,0,0,1,.521-.483l5.15-.67a1,1,0,0,0,.828-.7,17.288,17.288,0,0,1,1.322-3.2,1,1,0,0,0-.087-1.087l-3.158-4.1a.593.593,0,0,1-.044-.7,21.651,21.651,0,0,1,1.988-2.313,20.616,20.616,0,0,1,2.3-1.98.6.6,0,0,1,.7.036l4.109,3.16a1,1,0,0,0,1.086.086,17.391,17.391,0,0,1,3.206-1.323,1,1,0,0,0,.7-.827l.67-5.142a.586.586,0,0,1,.47-.518,20.268,20.268,0,0,1,6.068,0,.582.582,0,0,1,.469.519l.67,5.14a1,1,0,0,0,.7.827,17.462,17.462,0,0,1,3.205,1.323,1,1,0,0,0,1.087-.087l4.1-3.158a.6.6,0,0,1,.7-.044,20.2,20.2,0,0,1,4.288,4.285.6.6,0,0,1-.03.715l-3.16,4.1a1,1,0,0,0-.087,1.087,17.462,17.462,0,0,1,1.323,3.2,1,1,0,0,0,.827.7l5.14.67a.583.583,0,0,1,.52.481A19.922,19.922,0,0,1,56,25.02a20.152,20.152,0,0,1-.229,3.038.59.59,0,0,1-.52.461l-5.14.669a1,1,0,0,0-.827.7,17.391,17.391,0,0,1-1.323,3.206,1,1,0,0,0,.086,1.086L51.212,38.3a.617.617,0,0,1,.1.558L45.868,41.93a3.153,3.153,0,0,0-2.521-2.206l-1.71-.29c-.023,0-.05-.007-.077-.009L21.018,36.112a10.05,10.05,0,0,0-4.934.459l1.839-2.391a1,1,0,0,0,.086-1.086,17.356,17.356,0,0,1-1.322-3.205A1,1,0,0,0,15.859,29.188ZM10,53a1,1,0,0,1-1,1H3a1,1,0,0,1-1-1V39a1,1,0,0,1,1-1H9a1,1,0,0,1,1,1V53ZM57.554,40.279,36.236,57.37a3.016,3.016,0,0,1-2.691.508L13.187,51.366a3.884,3.884,0,0,0-1.16-.176H12V40.507l4.748-2.056a7.974,7.974,0,0,1,3.953-.364l20.59,3.32.064.008,1.664.282A1.172,1.172,0,0,1,44,42.84a1.186,1.186,0,0,1-.085.439l0,.011a1.106,1.106,0,0,1-.238.363A1.192,1.192,0,0,1,42.84,44H23.85a1,1,0,1,0,0,2h3.714l5.82,3.614a3,3,0,0,0,2.938.007L42.732,46h.108a3.186,3.186,0,0,0,2.237-.923,3.1,3.1,0,0,0,.527-.7l10.673-6.034a1.162,1.162,0,0,1,1.576.445A1.208,1.208,0,0,1,58,39.36,1.177,1.177,0,0,1,57.554,40.279ZM38.666,46l-3.322,1.876a1,1,0,0,1-.947.015L31.354,46Z" fill="#be1717ff" data-original-color="#000000ff"/><path d="M7,40H5a1,1,0,0,0,0,2H7a1,1,0,0,0,0-2Z" fill="#be1717ff" data-original-color="#000000ff"/><path d="M7,50H5a1,1,0,0,0,0,2H7a1,1,0,0,0,0-2Z" fill="#be1717ff" data-original-color="#000000ff"/><path d="M33,24.032a1,1,0,0,0,1-1v-8a1,1,0,1,0-2,0v8A1,1,0,0,0,33,24.032Z" fill="#be1717ff" data-original-color="#000000ff"/><path d="M33,29.032a1,1,0,0,0,1-1v-1a1,1,0,1,0-2,0v1A1,1,0,0,0,33,29.032Z" fill="#be1717ff" data-original-color="#000000ff"/></g></svg>